<?xml version="1.0" standalone="no"?>
<!DOCTYPE svg PUBLIC "-//W3C//DTD SVG 1.1//EN" "http://www.w3.org/Graphics/SVG/1.1/DTD/svg11.dtd" >
<svg>
<metadata>
Created by FontForge 20110222 at Tue Aug 11 11:50:28 2015
 By www-data
xpeehdroox @ 2015
</metadata>
<defs>
<font id="Confessions" horiz-adv-x="372" >
  <font-face 
    font-family="Confessions"
    font-weight="400"
    font-stretch="normal"
    units-per-em="1000"
    panose-1="3 0 6 0 0 0 0 0 0 0"
    ascent="800"
    descent="-200"
    x-height="328"
    cap-height="637"
    bbox="-214.86 -385.753 835 925"
    underline-thickness="73"
    underline-position="-69"
    unicode-range="U+0020-2026"
  />
    <missing-glyph />
    <glyph glyph-name="space" unicode=" " horiz-adv-x="236" 
 />
    <glyph glyph-name="space" unicode="&#xa0;" horiz-adv-x="236" 
 />
    <glyph glyph-name="exclam" unicode="!" horiz-adv-x="187" 
d="M95 188q-8 -3 -11 3q-2 3 -2 15.5t0.5 31t1.5 35.5t2.5 38t1.5 30q4 82 13 253q0 12 6 17l3 3q5 5 10 4q3 -1 6.5 -7.5t4.5 -12.5q1 -7 -1 -7q-1 -1 -3 -16q0 -3 -7.5 -166t-8.5 -172q-1 -7 -1.5 -15t-1 -12.5t-1.5 -7.5q-6 -11 -12 -14zM104 96q-6 -9 -14 -9t-13 9
t-3 21q3 19 11.5 19.5t17.5 -17.5q7 -15 1 -23z" />
    <glyph glyph-name="quotedbl" unicode="&#x22;" horiz-adv-x="145" 
d="M118 773q3 9 14 7q8 -2 9.5 -10.5t0.5 -37.5q-1 -14 -3.5 -30.5t-6.5 -30.5t-8.5 -26t-9 -18t-8.5 -5q-8 2 -3.5 59.5t15.5 91.5zM62 773q3 9 15 7q12 -3 9 -38q-3 -49 -27 -84q-7 -10 -8 -5q-13 45 11 120z" />
    <glyph glyph-name="numbersign" unicode="#" horiz-adv-x="323" 
d="M213 532q3 3 8.5 3t7.5 -4q4 -13 -5 -61q-9 -44 -11 -64l-2 -17l26 3q11 0 21 1q16 2 35 1q16 -1 20 -5t2 -14q-2 -7 -22 -8q-15 0 -26 -1q-5 -1 -5.5 -1t-12.5 -1q-24 -3 -34 -7q-6 -2 -8.5 -5.5t-3.5 -11.5l-2 -15l33 2q13 1 23.5 1.5t17.5 1t12 1t8 1t5 0.5h3h1.5
t2 -1t2.5 -1q9 -4 10 -10.5t-10 -12.5q-11 -5 -30 -5q-4 0 -9.5 -1t-10.5 -1q-9 0 -14.5 -0.5t-7.5 -1.5q-13 0 -23 -2q-15 -3 -18 -5.5t-5 -10.5q-3 -12 -5 -27q-11 -64 -21.5 -89.5t-24.5 -20.5q-6 2 -7 18q-1 12 4 20q19 32 22 78l3 28l-21 -1q-6 -1 -12.5 -2t-9 -1
t-5.5 -1t-4 -2t-2.5 -3t-2.5 -6q-4 -12 -10.5 -43.5t-5.5 -34.5q2 -2 2 -7t-1 -7q-4 -9 -5.5 -12.5t-5.5 -6t-10 -2.5q-27 0 -5 64q10 28 12 42l2 15l-32 -1h-33q-5 -1 -8 9t0 15q4 5 33 6h14.5h11.5t9 0.5t7.5 1.5t5.5 2.5t3.5 4.5t2.5 8l3 15q0 5 -3.5 6t-23.5 0
q-37 -3 -48 -5q-20 -5 -26 7q-9 17 21 22q13 2 34 3q53 2 58 11q3 4 14 39.5t11 40.5q0 4 7 28t11 35q2 6 10.5 8t12.5 -4q3 -6 -2 -24q-26 -100 -26 -115l-2 -10h17q14 0 18.5 4.5t5.5 18.5q2 20 12 65q6 26 9 41q4 16 8 21zM174 350q-2 2 -18.5 1.5t-23.5 -3.5
q-5 -2 -8.5 -13.5t-0.5 -14.5q2 -4 13 -5t22 1q8 2 11 5.5t5 12.5q3 11 0 16z" />
    <glyph glyph-name="dollar" unicode="$" horiz-adv-x="290" 
d="M208 689q2 5 9.5 5t14.5 -5q5 -5 5.5 -12t-2.5 -35q-1 -9 -2.5 -20t-3 -20.5t-2.5 -12.5q-2 -12 -0.5 -14.5t9.5 -2.5q19 0 25.5 -8.5t-5.5 -23.5q-10 -12 -28 -5q-5 1 -7 -4.5t-7 -32.5q0 -4 -2 -13q-6 -34 -5.5 -40.5t9.5 -12.5q3 -2 5 -3q20 -14 40 -38t25 -39
q2 -2 4 -24q1 -20 -6 -32q-6 -18 -28 -47q-14 -18 -49.5 -40t-64.5 -30l-28 -9q-1 0 -9.5 -56t-12.5 -72q-4 -15 -10.5 -20.5t-14.5 0.5q-4 5 -4 12t4 34q3 18 5 31q9 62 9 69q0 2 -3 2t-9 -0.5t-15 0.5q-12 1 -32 15q-13 9 -24 27.5t-13 35t0.5 22.5t12.5 6q8 0 12.5 -8
t7.5 -28t18.5 -31.5t36.5 -11.5q12 0 14 9t21.5 118.5t18.5 110.5l-6 1.5l-18 4.5t-22 5q-35 9 -48 15.5t-13 15.5q0 13 32.5 34t80.5 41q15 5 18.5 9t5.5 15q12 86 27 88q4 0 12 0.5t9.5 9.5zM141 493q7 29 4 31t-43.5 -18.5t-40.5 -23.5q0 -7 53 -16l21 -4zM180 487
q3 14 4.5 26t2 17t-0.5 6q-3 0 -10 -43q-3 -20 -6 -32q-2 -9 0 -9l2 3q3 4 8 32zM151 316q17 109 10 107q-1 0 -3 -7q-6 -24 -21.5 -111.5t-15.5 -93.5t2 -6.5t11 2.5q13 4 14.5 5.5t-3.5 6.5q-5 2 -4 19t10 78zM224 388q-7 7 -12 10.5t-8.5 4t-5.5 -1.5t-3 -7
q-4 -18 -14.5 -94t-9.5 -77.5t13 6.5t25.5 19t18.5 17q1 1 8 8.5t11.5 13.5t6.5 13q7 11 7 26q0 13 -7 23q-4 12 -30 39z" />
    <glyph glyph-name="percent" unicode="%" horiz-adv-x="341" 
d="M277 321q17 6 27 0.5t14 -23.5q8 -29 -17 -57q-25 -29 -48 -29q-13 0 -18.5 7t-8.5 26q-3 17 -7 21q-10 10 6 27q12 14 52 28zM295 286q0 10 -2.5 11t-16.5 -4q-19 -7 -25 -19t2 -24q4 -5 6 -5t11 5q25 13 25 36zM69 492q10 8 26.5 7.5t23.5 -8.5q14 -14 8.5 -38
t-26.5 -36q-14 -9 -28.5 -19.5t-19.5 -10.5q-6 0 -12.5 10.5t-6.5 20.5q0 12 13 39.5t22 34.5zM104 465q0 3 -3.5 4t-8 -1t-8.5 -5.5t-5.5 -9t-0.5 -9.5t4 -4q4 0 13 10t9 15zM271 548q21 24 23 24q3 0 7 -4.5t4 -8.5q0 -5 -15 -29t-15 -25.5t-21 -32.5q-17 -25 -39 -61
t-22 -38q0 -4 -57 -91q-48 -75 -59 -107q-6 -20 -10.5 -26t-11.5 -4q-9 1 -15 8q-5 4 -3 10.5t18 36.5q22 42 55 94q91 144 124 202q16 28 37 52z" />
    <glyph glyph-name="ampersand" unicode="&#x26;" horiz-adv-x="287" 
d="M188 479q3 9 3 13q0 6 -8 11q-2 0 -6 1.5t-5 1.5q-5 2 -13 0q-15 -4 -28 -12q-18 -12 -21 -23q-1 -4 3 -18q3 -12 5 -17q3 -9 12 -23q1 -2 11 7.5t23 25.5q22 27 24 33zM179 242q0 3 -6.5 15t-18.5 36q-8 14 -15 29t-15 29q-2 5 -4 7.5t-3 2.5t-8 -7q-28 -27 -38 -42
q-10 -13 -16 -24q-13 -24 -15 -31q-2 -17 19 -30q2 -1 6 -2.5t9 -2.5t7 -2q11 -3 24 -3q7 0 17.5 2t24.5 6q30 9 32 17zM278 142q-2 -10 -13 -10q-8 0 -20 10q-5 5 -23 29q-7 10 -12 18q-1 1 -4 5.5t-4 6.5t-3 4.5l-4 5t-2 3.5q-1 0 -6 -2l-12.5 -5t-15.5 -6
q-15 -6 -28 -8.5t-22 -2.5q-40 0 -66 12q-37 17 -30 55q2 13 8.5 27t18.5 31q7 8 17.5 20.5t25.5 29.5q5 7 11 13l8.5 8.5t2.5 3.5t-4 11l-9 21q-6 16 -8 28.5t-1 21.5q5 27 34 43q30 16 49 16q10 0 20 -2q9 -2 17 -8q8 -8 12 -15q5 -8 2 -18q-2 -13 -11.5 -28.5
t-28.5 -34.5q-33 -33 -34 -41q-1 -2 5 -15t18 -35q5 -13 8 -16q4 -8 8 -15q1 -3 3.5 -7.5t3.5 -5.5q0 -1 2.5 -7t4.5 -8q10 -19 11 -19q2 0 7 3q9 7 12 11q23 20 26 22q5 2 8 0l4 -2q2 -1 3.5 -4.5t0.5 -6.5q-1 -11 -28 -33l-21 -18q0 -7 29 -45q19 -23 23 -26q8 -9 7 -15z
" />
    <glyph glyph-name="quotesingle" unicode="'" horiz-adv-x="90" 
d="M80 775q3 9 14 7q8 -2 9.5 -10.5t0.5 -37.5q-1 -14 -3.5 -30.5t-6.5 -30.5t-8.5 -26t-9 -18t-8.5 -5q-8 2 -3.5 59.5t15.5 91.5z" />
    <glyph glyph-name="parenleft" unicode="(" horiz-adv-x="259" 
d="M217 823q21 23 30 7q4 -7 -20 -43q-71 -107 -128 -315q-47 -172 -51 -275t35 -188q20 -46 2 -46q-8 0 -16.5 14t-21.5 50q-17 44 -22 76.5t-4 86.5q5 154 71 356q71 219 125 277z" />
    <glyph glyph-name="parenright" unicode=")" horiz-adv-x="198" 
d="M53 855q9 9 26 -5q6 -6 25.5 -52.5t31.5 -84.5q11 -37 27 -122.5t22 -140.5q5 -52 5 -132q0 -115 -19 -181.5t-70 -126.5q-23 -28 -36 -21q-3 2 -3 11q0 4 18 28q37 48 53.5 89.5t22.5 101.5q24 211 -49 479q-10 40 -28 83t-27 49q-4 3 -3.5 11.5t4.5 13.5z" />
    <glyph glyph-name="asterisk" unicode="*" horiz-adv-x="250" 
d="M88 384q4 5 7 5q6 0 14.5 -8t14.5 -20q12 -21 14 -21q1 0 3.5 3.5t7.5 10t9 10.5q16 18 22 19q7 1 10.5 -4.5t3.5 -10.5q0 -1 -14 -17q-6 -7 -14 -16q-9 -10 -6 -11h6q10 1 17 0h2q11 0 15.5 -0.5t9.5 -1.5t6.5 -3.5t1.5 -6.5q0 -14 -28 -13q-24 1 -26 -1.5t7 -18.5
q10 -19 11 -24q2 -3 -0.5 -7t-7.5 -5q-16 -5 -26 16q0 1 -1 2q-8 18 -10 19t-9 -8q-3 -3 -4 -6q-9 -11 -20 -35q-17 -37 -30 -26q-5 5 -5 9q5 22 25 52q15 23 11.5 26t-23.5 0q-19 -1 -26 -4q-19 -8 -22 7q-2 8 5 13q14 12 47 12q16 0 22 2t2 8q-6 11 -16 30t-6 24z" />
    <glyph glyph-name="plus" unicode="+" horiz-adv-x="203" 
d="M104 358q4 6 11 6t10 -6q6 -9 -4 -34q0 -1 -5 -19q-1 -5 4 -4h6q13 2 24 2q25 1 30 -3q7 -7 0 -18q-4 -5 -12 -5q-4 0 -11 -1t-17 -1h-5q-22 0 -26 -2.5t-7 -17.5q-2 -13 -5 -21q-1 -5 -3 -14q-4 -18 -7 -23t-9 -5q-12 -1 -14 6t4 31q3 16 6 25l0.5 3.5t0.5 6.5
q2 7 -1.5 7.5t-23.5 -4.5q-7 -1 -12.5 -1.5t-7.5 -0.5q-4 1 -8 7t-3 13q2 6 46 13q9 1 12 1.5t6.5 3t3.5 4t2.5 9.5t4.5 14q9 26 10 28z" />
    <glyph glyph-name="comma" unicode="," horiz-adv-x="83" 
d="M43 234q5 3 8.5 1.5t9.5 -10.5q12 -17 9.5 -40.5t-17.5 -46.5q-10 -15 -30 -34.5t-25 -19.5q-15 0 1 26q6 9 15 19t18.5 27.5t11.5 27.5q2 14 -3 23q-10 19 2 27z" />
    <glyph glyph-name="hyphen" unicode="-" horiz-adv-x="195" 
d="M59 278q18 7 56.5 6.5t51.5 -7.5q10 -5 8 -15q-1 -5 -8.5 -6t-35.5 0q-42 2 -68 -6q-23 -6 -32 -4.5t-9 12.5q0 13 10.5 13.5t26.5 6.5z" />
    <glyph glyph-name="period" unicode="." horiz-adv-x="81" 
d="M39 228q8 12 22 -2q9 -9 8 -15.5t-12 -14.5t-15.5 -8.5t-8.5 6t-1 18t7 16.5z" />
    <glyph glyph-name="slash" unicode="/" horiz-adv-x="387" 
d="M353 774h3q7 1 10 -1t2.5 -6t-0.5 -9q-19 -42 -97 -209.5t-122 -269.5t-69 -175q-4 -11 -12 -12h-2q-3 0 -5 0.5t-4.5 4t-4.5 10.5q20 60 58 151t63.5 148t82.5 179.5t66 143.5q19 40 31 45z" />
    <glyph glyph-name="zero" unicode="0" horiz-adv-x="171" 
d="M90 550q5 8 11.5 14.5t9.5 6.5q9 0 18 -7.5t13 -17.5q4 -9 9 -44.5t5 -55.5q0 -41 -11 -104.5t-28 -115.5q-8 -25 -15 -37t-20 -28l-20 -14l-13 2q-13 12 -18.5 30.5t-9.5 70.5q-7 80 3 177t27 115q4 4 6 2t5 -11q8 -27 13 -10q2 6 15 27zM123 502q-5 27 -12 26
q-9 -1 -35 -69q-2 -5 -4.5 -12.5t-4.5 -12.5l-4 -10t-3.5 -7.5t-2.5 -2.5q-10 -3 -13 -74q-2 -39 2 -83.5t9 -61.5q10 -30 33 30q34 87 41 189q0 4 1 9q2 38 -7 79z" />
    <glyph glyph-name="one" unicode="1" horiz-adv-x="153" 
d="M90 613q6 9 8 9.5t6 -7.5q2 -6 -17 -168l-17 -163v-12q6 -19 1 -29q-3 -6 -6 -40q-5 -47 -11 -47q-5 1 -13 28q-7 24 -4 53q30 340 53 376z" />
    <glyph glyph-name="two" unicode="2" horiz-adv-x="197" 
d="M89 556q19 9 42 -7q26 -18 41.5 -46.5t14.5 -58.5q0 -31 -35 -90q-37 -63 -59 -90l-12 -15h19q17 0 39.5 -10.5t36.5 -26.5q21 -22 14 -36q-6 -15 -35 15q-19 19 -31.5 24t-38.5 5q-21 0 -30.5 -4.5t-32.5 -26.5q-21 -20 -28.5 -24.5t-12.5 -1.5q-8 5 -1.5 15t31.5 37
q14 15 22 24q79 88 114 170q20 45 2 75q-11 20 -25 34.5t-24 9.5q-21 -9 -39 -44q-9 -18 -13 -22.5t-9 -2.5q-9 2 -9 9q-1 18 14 41q24 37 45 47z" />
    <glyph glyph-name="three" unicode="3" horiz-adv-x="184" 
d="M71 539q17 9 40 9q22 0 33 -5.5t20 -20.5q13 -24 4 -47t-48 -60q-24 -24 -28 -29.5t-4 -10.5q2 -10 24 -33q66 -70 66 -107q0 -9 -10.5 -20.5t-24.5 -18.5q-19 -9 -27.5 -12.5t-24.5 -7t-40 -5.5q-8 0 -21 -0.5t-15 0.5q-47 3 -54 7q-3 3 -3 8q0 11 16 15.5t33 -1.5
q27 -9 76.5 3.5t58.5 28.5q8 13 -4 32l-7 10.5t-5 7l-2 2.5q-1 1 -3.5 4.5t-3.5 4.5q-3 5 -13 14q-1 1 -2.5 3t-5.5 7t-10 11q-19 19 -25 29t-6 22q0 15 26 37q74 59 57 91q-7 13 -26 13q-17 0 -29 -8q-17 -11 -26 -7q-27 12 14 34z" />
    <glyph glyph-name="four" unicode="4" horiz-adv-x="216" 
d="M57 599q3 4 5 4t9 -3q5 -2 6 -6t1 -19q0 -38 -27 -92q-9 -17 -12 -38q-2 -14 -1.5 -19.5t5.5 -15.5q14 -29 54 -30h23l3 11q2 7 7 32.5t7 37.5q5 23 13.5 32.5t13.5 5.5q9 -8 -2 -48q-6 -23 -8 -44l-4 -29l13 1q3 0 7.5 1t17.5 3q24 3 27.5 3t10.5 -5q9 -5 10 -11t-8 -9
q-3 -2 -29 -8q-16 -3 -29 -4q-5 -1 -12 -1.5t-11 -1l-4 -0.5q-2 0 -8.5 -34t-13.5 -77t-10 -66q-5 -41 -9 -41q-2 0 -8 5q-8 8 -8 20q-2 40 15 130q5 31 10 53q-1 4 0 6t-2 2.5t-4.5 1t-6.5 0.5q-25 0 -53 16.5t-35 34.5q-14 37 22 123q14 31 17.5 52.5t7.5 26.5z" />
    <glyph glyph-name="five" unicode="5" horiz-adv-x="184" 
d="M188 563q10 3 20 1q5 -1 6.5 -4t2.5 -13l-5 -8l-26 -8q-3 -1 -12 -3t-17.5 -4t-14.5 -4q-8 -2 -8.5 -2t-5.5 -2q-5 -1 -8 -2.5t-4.5 -2t-2.5 -1.5q-13 -3 -31 -12q-1 -1 -7 -3.5t-8 -3.5t-6.5 -4t-7 -5.5t-5 -7t-4.5 -9.5q-4 -13 -4 -54q0 -22 11.5 -43.5t47.5 -70.5
q19 -26 20 -31q4 -19 -4.5 -30t-31 -23.5t-33.5 -14.5q-29 -7 -30 5q-1 5 0 8.5t4.5 5t15.5 6.5q40 14 44 23q4 10 -0.5 20.5t-24.5 38.5q-3 5 -10.5 15.5t-9.5 13t-7 10.5t-6 10l-4 8t-3.5 9.5t-2 9.5t-2.5 11t-1 12q-2 25 2 48q0 2 1.5 13t2.5 16q2 14 8.5 20.5t20.5 14.5
q39 21 102 38q8 2 17 4t14.5 3.5t6.5 1.5z" />
    <glyph glyph-name="six" unicode="6" horiz-adv-x="190" 
d="M183 606q10 7 20 8q6 1 9 -3t3 -8q-1 -11 -8 -15q-23 -13 -69 -78.5t-66 -115.5q-20 -49 -15 -52q3 -2 17 4q11 5 31.5 3.5t31.5 -10.5q12 -9 19 -17.5t15 -30.5t9 -53q1 -39 -45 -75q-15 -12 -38 -14q-24 -2 -41 7q-22 13 -34 38q-19 41 -15 76q0 5 9 42q14 55 41 114
q3 7 12.5 24.5t11.5 23.5q8 17 48 69.5t54 62.5zM133 303q-17 19 -38 17q-20 -1 -30 -9q-17 -14 -24 -27t-4 -38q5 -39 30 -64q5 -5 16.5 -6.5t21.5 1.5q22 9 36 27q13 17 13 41q0 34 -21 58z" />
    <glyph glyph-name="seven" unicode="7" horiz-adv-x="224" 
d="M31 563q18 2 46 1t38 -4q26 -8 36 -18.5t13 -32.5q5 -31 -15 -95q-9 -30 -8 -32q2 -2 28 -1q40 1 45.5 0.5t10.5 -5.5q12 -12 4 -17q-2 -1 -50 -4q-38 -2 -43.5 -3t-9.5 -9q-5 -7 -16 -41.5t-14 -52.5q-3 -23 -1 -43q2 -19 -2 -26.5t-15 -7.5l-10 5l-2 15q-6 48 17 118
q11 31 9.5 35.5t-15.5 2.5q-17 -3 -33 -8.5t-19 -10.5q-6 -8 -12.5 -4t-6.5 17q0 12 17.5 19.5t61.5 14.5l21 3l7 17q13 28 18.5 69t-1.5 53q-6 8 -16.5 11.5t-33.5 3.5q-28 0 -35 -7l-8 -4l-11 10q-7 8 -8.5 11.5t0.5 9.5q3 8 13 10z" />
    <glyph glyph-name="eight" unicode="8" horiz-adv-x="184" 
d="M132 547q15 11 23.5 11t15.5 -9q8 -11 8.5 -46t-6.5 -58q-13 -42 -37 -84l-12 -20l19 -41q17 -35 22 -50.5t5 -33.5q0 -27 -18 -43t-50 -16q-26 0 -39 9.5t-25 34.5q-20 43 1 86q10 21 23 36q11 12 13.5 17t0.5 16t-13 31q-18 31 -25 37t-16 -4q-6 -6 -22.5 -11t-22.5 -3
q-12 4 7 23q9 10 22 17q14 6 21 17.5t15 11.5q6 0 14.5 6.5t34.5 30.5q24 23 41 35zM152 510q-2 7 -4.5 8t-8.5 -3q-8 -4 -35.5 -31t-32.5 -34q-3 -5 -2 -10t10 -23q2 -3 5 -8t4.5 -8l3.5 -7l3 -6t2.5 -4.5t2.5 -4t2.5 -2.5t2.5 -1.5t2 -0.5q6 0 20.5 27t19.5 50q10 42 5 58
zM126 274q-19 39 -24.5 42t-21.5 -14t-22 -31t-4.5 -35.5t12.5 -36.5q10 -13 34 -15q19 -2 31 9q11 12 12 26q0 21 -17 55z" />
    <glyph glyph-name="nine" unicode="9" horiz-adv-x="164" 
d="M142 561q15 11 23 -7q7 -14 -35 -213q-12 -58 -15.5 -74t-6.5 -50q-6 -53 -18 -53q-1 0 -4.5 -1.5t-5.5 -1.5q-3 -1 -4.5 1t-2 6.5t0 9t1.5 10.5q3 30 8 52q3 18 8 52q2 9 14 66q16 74 15 77q-1 5 -20 -5l-4 -2q-18 -9 -41 -8.5t-33 9.5q-1 2 -4 4.5t-4 3.5t-3 3.5
t-2.5 4.5t-1.5 5t-2 7q-5 59 45 92q46 31 72 21q4 -1 8.5 -4.5t6 -4.5t5.5 0zM129 526q-1 5 -5.5 10.5t-9.5 6.5q-30 2 -57 -25t-23 -53q2 -13 21 -15.5t40.5 9.5t30.5 33q8 20 3 34z" />
    <glyph glyph-name="colon" unicode=":" horiz-adv-x="96" 
d="M54 221q9 9 24 -5q12 -11 10.5 -19t-17.5 -19q-9 -8 -16 -5t-7 19q2 25 6 29zM57 362q12 7 25 -6q8 -9 8.5 -13t-6 -12t-11 -8t-12.5 9q-8 8 -9 17t5 13z" />
    <glyph glyph-name="semicolon" unicode=";" horiz-adv-x="96" 
d="M64 245q8 13 17 2q4 -4 2 -26q-3 -23 -27 -84q-6 -14 -6 -20q0 -7 -6 -13t-11 -4t-3 19t12.5 49.5t13.5 50.5t8 26zM62 353q6 10 16 10q19 0 12 -28q-3 -14 -8.5 -17.5t-15.5 1.5q-10 4 -10 14t6 20z" />
    <glyph glyph-name="less" unicode="&#x3c;" horiz-adv-x="228" 
d="M106 238q-11 4 -16 7q-6 4 -8 5q-8 4 -17 15q-10 14 -12 23q-2 12 8.5 27.5t27.5 29.5t34 27t29.5 20.5t13.5 6.5q10 -1 11 -6q2 -7 -1 -13q-3 -7 -16 -16q-22 -16 -26 -19q-1 0 -5 -3.5t-11 -9t-13 -10.5q-23 -16 -25 -25q0 -5 3.5 -13.5t10.5 -12.5q15 -9 34 -16
q23 -8 32 -14q17 -12 16 -20q-1 -5 -8 -9q-5 -2 -12 1t-15 8.5t-18 10.5q-3 2 -17 6z" />
    <glyph glyph-name="equal" unicode="=" horiz-adv-x="331" 
d="M175.5 272q10.5 3 35.5 4q16 0 21.5 -1t8.5 -6q5 -7 3.5 -11.5t-11 -8.5t-14.5 -2q-6 1 -47 -6t-68 -9t-29 4q-3 9 8 14.5t43 11.5q39 7 49.5 10zM174 382q40 6 54 -4q20 -16 11 -25q-4 -4 -35.5 -2t-46.5 -2q-57 -15 -68 -11q-7 3 -8 10.5t4 11.5q12 10 89 22z" />
    <glyph glyph-name="greater" unicode="&#x3e;" horiz-adv-x="247" 
d="M93 411q3 5 5 6.5t4 1.5t6 -2.5t8 -5.5q8 -7 19 -13q2 -1 13.5 -8.5t15.5 -9.5q17 -8 30 -25q9 -12 3 -26q-7 -18 -23.5 -37t-34 -34t-35 -27.5t-28.5 -19t-12 -6.5q-6 1 -10 10q-2 7 5 15q5 5 30 24t54 45q13 12 21.5 23.5t6.5 14.5q-2 6 -14 13q-18 11 -36 23
q-20 13 -26 22q-6 11 -2 16z" />
    <glyph glyph-name="question" unicode="?" horiz-adv-x="257" 
d="M127 640q16 5 40 4q46 -2 67.5 -29.5t11.5 -72.5q-14 -59 -68 -172q-22 -48 -32 -76.5t-10 -42.5t2 -31q3 -22 -6 -29q-5 -5 -12 2t-9 19q0 2 -1.5 12t-1.5 14t0.5 15.5t4 23t8.5 28.5t14.5 39.5t22.5 49.5q63 132 64 166q1 17 -4 28q-12 21 -41.5 26.5t-53.5 -9.5
q-26 -16 -34 -38.5t1 -56.5q11 -44 -8 -40q-10 2 -18 25t-7 45q2 38 20 64.5t50 35.5zM109 101q15 23 25.5 22.5t9.5 -24.5q-1 -10 -8 -16.5t-18 -6t-13.5 7.5t4.5 17z" />
    <glyph glyph-name="at" unicode="@" horiz-adv-x="558" 
d="M302 546q31 11 65 11q56 1 79 -20q18 -16 24 -37.5t6 -61.5q0 -25 -6.5 -52.5t-13.5 -37.5q-4 -5 -11 -17q-27 -47 -90 -79q-14 -7 -33 -12t-27 -3q-9 2 -19 17t-12 31q-2 18 -4 20t-16.5 -1.5t-29 -3.5t-21.5 8q-13 17 2 47q13 26 46.5 41.5t55.5 4.5q24 -11 21 -47
q-1 -20 -10 -21q-13 -3 -14 -19q-3 -38 11 -43q20 -7 67 26t63 65q16 34 16 84.5t-16 65.5q-22 21 -62 20q-47 -2 -97 -25q-69 -33 -132 -82t-90 -90q-12 -20 -16 -32.5t-2 -33.5q3 -52 54 -73q14 -7 25 -11.5t37 -9.5q35 -6 145 -2.5t161 12.5q35 6 76.5 8t56.5 -1
q7 -1 16 -2q20 0 -5 -13q-13 -7 -23 -5.5t-36 -1.5t-53.5 -6t-59.5 -8q-91 -13 -187 -12q-60 0 -76.5 1t-39.5 7q-88 24 -114 76q-6 14 -7 43.5t5 45.5q15 38 56 80t100 81q72 47 135 68zM279 365q-2 19 -25 6q-11 -6 -21 -18q-4 -5 -5.5 -9.5t-1 -7t0.5 -3.5q9 -9 31.5 5
t20.5 27z" />
    <glyph glyph-name="A" unicode="A" horiz-adv-x="181" 
d="M132 702q19 50 31 3q10 -36 12 -91q3 -58 3 -80q1 -4 0.5 -15.5t-1 -34.5t-0.5 -46l-1 -85l13 2q20 3 25 1q9 -5 7 -16q-1 -7 -23 -11l-22 -5v-77q1 0 3 -71q1 -11 0 -30q-1 -11 -2 -16q-1 -3 -7 -1q-18 6 -19 113l-2 75l-11 -2q-4 -1 -52 -15l-39 -11l-12 -35
q-12 -41 -20.5 -59t-19.5 -20q-8 -2 -10 12q-2 13 14 53q17 42 13 46q-6 7 6 20q33 39 93 317q12 55 21 79zM151 439q1 28 0 78.5t-3 88t-2 38.5l-7 -42q-2 -4 -5.5 -20.5t-9 -40t-9.5 -39.5q-18 -63 -22 -78l-18 -58q0 -1 -2 -6.5l-4 -11l-4 -11t-2.5 -9l-0.5 -3.5
q6 0 47 12l40 10z" />
    <glyph glyph-name="B" unicode="B" horiz-adv-x="334" 
d="M8.5 635q7.5 13 13.5 16q4 2 6 -17q1 -7 2 -15t1 -10.5t2 -2.5l8 3t27 11t39 16q61 23 108 -16q26 -20 21 -75l-5 -61l45 -11q132 -30 39 -174q-51 -78 -126 -133.5t-112 -41.5q-19 8 -34 47t-15 89q0 49 -6 61q-20 36 -13 81q5 36 0 107l-3 55q-16 -7 -26 2q-5 5 2 13
q5 5 9 8t6 3.5t3 1.5t1 3q0 27 7.5 40zM196 597q-17 18 -37 19q-25 2 -54 -8q-70 -23 -71 -35q0 -3 1 -22t1 -27q0 -28 4 -84q1 -2 2 -2t4 2t6.5 4.5t8.5 6t10 6.5q29 16 82 23q41 6 46 14q8 13 10 49q3 38 -13 54zM142 416q36 34 33 37q-2 1 -9.5 1.5t-22 -1.5t-28.5 -7
q-35 -11 -56 -29q-10 -8 -14 -21.5t-1 -22.5q7 -15 33 -3t65 46zM306 430q-26 15 -43.5 20.5t-33.5 0.5t-28 -14t-32 -30q-40 -41 -78 -59q-27 -12 -32 -17q-8 -7 -5 -16q1 -4 1.5 -16t1.5 -29.5t3 -31.5q6 -45 16 -65q9 -17 28 -17q40 0 122 85q80 81 94 131q12 42 -14 58z
" />
    <glyph glyph-name="C" unicode="C" horiz-adv-x="361" 
d="M282 654q40 19 70 5q13 -6 16.5 -18t0.5 -40q-4 -33 -11 -54.5t-24 -49.5q-11 -18 -19 -24.5t-19 -6.5q-13 0 -13 11.5t12 20.5q19 12 37 65q11 33 5 61q-3 13 -15 13q-31 0 -98 -61q-40 -36 -66 -67.5t-52 -74.5q-33 -55 -48.5 -97t-21.5 -93q-3 -33 7 -58
q12 -32 43 -41q12 -3 41 -3.5t50 4.5q77 19 94 26q34 14 52 23q1 1 16.5 10t20.5 12q3 2 6.5 4t5.5 3.5t4.5 3t3.5 1.5t2 -1q17 -26 -41 -51l-16 -8q0 -1 -4 -2.5t-8.5 -4t-8.5 -4.5t-17.5 -7t-15.5 -6q-7 -4 -17.5 -7t-26 -6.5t-20.5 -5.5q-29 -8 -67 -10t-63 2
q-26 5 -50 35q-26 29 -22 83q4 65 37 137q24 54 54.5 97.5t77.5 93.5q68 71 108 90z" />
    <glyph glyph-name="D" unicode="D" 
d="M393 396q-16 -43 -74 -115q-57 -71 -109 -111q-61 -48 -91 -46q-27 2 -31 44q-2 24 7 40.5t32 45.5q4 5 3 84q-3 183 -15 251q-3 17 -4 28t-0.5 19t3.5 11t9 3q3 -1 8 -3q7 -3 11.5 -17t7 -42.5t3.5 -52.5t2 -70q3 -158 4 -194q2 -41 1 -57t-10 -16q-5 -1 -10 2t-6 8
q-2 11 -14 -9q-1 -2 -2 -5t-1.5 -5l-0.5 -2q-5 -15 -1 -24q4 -11 15 -11q13 0 23 8q2 2 17.5 13t24.5 20q217 197 180 308q-8 25 -39.5 60t-67.5 55q-62 35 -145 44q-41 5 -81 -8q-17 -6 -27 -5q-3 0 -7 2.5t-3 8.5q2 11 30 22q11 4 35 8q42 7 96 -6q76 -19 114 -39
q35 -19 70.5 -55t44.5 -62q16 -52 13 -74l-6 -32z" />
    <glyph glyph-name="E" unicode="E" horiz-adv-x="280" 
d="M228 633q56 31 56 3q0 -8 -5.5 -13t-31.5 -19q-79 -43 -100 -67q-12 -14 -15 -32.5t4 -33.5q4 -9 7.5 -11.5t13.5 -2.5q15 0 52 16q59 28 59 6q0 -8 -56 -37q-99 -51 -161 -117q-26 -27 -32 -41t0 -38q7 -30 38 -46.5t79 -16.5q37 0 87 16q11 4 29 11.5t29.5 12.5t13.5 4
q12 -9 -0.5 -20.5t-38.5 -24.5q-49 -24 -112 -28q-34 -3 -55 1.5t-47 20.5q-70 42 -52 117q4 14 10.5 23.5t27.5 29.5q32 32 62 55.5t33.5 27t-7.5 15.5q-41 43 2 105q10 15 43 40t67 44z" />
    <glyph glyph-name="F" unicode="F" horiz-adv-x="354" 
d="M209 714q13 4 17.5 -1t3.5 -21q0 -13 14.5 -14.5t100.5 0.5q17 1 26 1q48 1 74 1.5t42 -1t20.5 -4.5t4.5 -8q0 -13 -22 -30t-39 -16q-15 1 -2 6t13 14q0 8 -108.5 8.5t-121.5 -7.5q-11 -7 -18 -78q-2 -8 -5 -28.5t-11 -60.5q-1 -13 -5 -30q-4 -16 0 -17.5t30 4.5
q41 9 76 15q95 30 103 25q32 -20 -121 -60q-25 -6 -50 -10.5t-36.5 -6.5t-13.5 -5q-2 -4 -4.5 -8.5t-5 -13t-4.5 -16.5t-5 -23t-6 -29t-8 -38.5t-10 -46.5q-5 -94 -26 -94q-15 0 -10 43q9 87 36 179q6 19 6 41q0 4 -34 2q-47 -4 -77.5 1.5t-30.5 18.5t64 9q33 -2 64 2
q3 1 8 1.5t6.5 0.5t5 2.5t5 5.5t4.5 11t4.5 17.5t5 26t6.5 35.5t8 47q2 11 4 25.5t3.5 20t2 12.5t0 8.5t-2.5 4.5t-5 2t-8.5 -1t-12 -1.5t-16.5 -2t-21 -0.5q-137 -8 -137 23q0 9 5 11t18 -1q53 -10 149 1q24 2 30 5.5t7 17.5q1 21 10 25z" />
    <glyph glyph-name="G" unicode="G" 
d="M307 766q37 15 61 15q22 0 29.5 -5.5t-3.5 -17.5q-10 -11 -24 -8q-11 3 -31.5 -1.5t-37.5 -13.5q-44 -24 -92 -66q-83 -75 -147 -232q-19 -48 -19 -84q0 -46 11 -71q10 -23 28 -42.5t37 -27.5q31 -14 84.5 -16t80.5 9q14 6 22.5 19t22.5 50q25 71 6 90q-12 12 -68 7
q-40 -4 -40 10q0 31 75 22q41 -5 55.5 -20t13.5 -52q0 -22 -12 -58q-9 -26 -10 -34t5 -11q4 -2 0.5 -14.5t-11.5 -17.5q-20 -15 -36 -55q-2 -4 -4.5 -12t-4.5 -11q-13 -27 -19 -44q-8 -23 -18 -26q-8 -1 -12 2.5t-3 17.5q0 3 0.5 6t3 8l4.5 9t6.5 13.5t9.5 18.5q19 41 20 46
l3 8l-13 -4q-7 -3 -32.5 -5t-45.5 1q-13 -2 -65 9l-35 11q-25 12 -43 32t-33 59q-10 28 -10 73v9t0.5 14t2.5 18t6 25t11.5 31t18.5 41q44 89 70.5 127.5t71.5 78.5q33 30 54.5 43.5t55.5 25.5z" />
    <glyph glyph-name="H" unicode="H" horiz-adv-x="272" 
d="M135 820q7 14 17 9t-10 -161q-30 -237 -27 -248q1 -4 61 9l39 9l12 143q12 112 22 132q13 23 22 11q5 -6 4 -14q-9 -62 -16 -108q-5 -40 -8.5 -74t-4.5 -45.5t0 -14.5q-1 -3 -1 -7.5v-7v-5.5v-4v-1q11 1 22.5 3.5t18.5 3.5t12 1q23 -1 21 -11q-3 -12 -37 -21
q-9 -2 -20.5 -4t-15.5 -3v-2.5t0.5 -8t0.5 -11.5v-30.5v-29v-26t-0.5 -25t-1 -21.5t-1 -19.5t-1.5 -15.5t-2.5 -13t-2.5 -8q-20 -34 -23 51v49v103q-1 1 -54 -9l-49 -9l-12 -72q-17 -109 -18 -116q-7 -62 -19.5 -97.5t-24.5 -34.5q-3 0 -7 10l2 9t5.5 29.5t8 47t11 67.5
t12.5 85l7 67l-31 -3q-44 0 -42 15q1 11 51 15l23 2l24 197q24 196 33 212z" />
    <glyph glyph-name="I" unicode="I" horiz-adv-x="352" 
d="M202 561q14 13 23 -5q1 -2 1.5 -4t-0.5 -5.5t-2 -6t-4 -9t-4 -10.5q-10 -26 -16 -36q-14 -25 -43 -144q-16 -67 -15 -121v-20h93q67 -1 70 -3q5 -3 -3 -10q-13 -10 -44 -13.5t-120 -3.5q-75 0 -98 1t-33 6q-10 4 -13 8t-3 11q0 13 8.5 14t24.5 -6q16 -5 52 -5l36 1l1 21
q1 37 7 72q6 41 20 94q27 100 31 109q12 29 17.5 43.5t13.5 21.5zM159 635q78 4 95 2q32 -2 37 -3q26 -2 51 -7q4 0 14 -3.5t15 -4.5q38 -6 38 -21v-2.5v-2t-0.5 -1.5t-1 -1.5t-2.5 -1t-4.5 0t-6.5 0.5t-9 0.5t-13 1.5q-12 2 -35 5.5t-31 4.5q-42 4 -97 4t-108.5 -4.5
t-72.5 -11.5q-31 -11 -41 3q-3 5 1 13q12 22 171 29z" />
    <glyph glyph-name="J" unicode="J" horiz-adv-x="184" 
d="M144 669q6 6 16.5 -0.5t9.5 -15.5q0 -7 3 -9t-1.5 -7t-4.5 -9t-5 -36q-4 -31 -7 -51q-3 -19 -4 -23q0 -2 -0.5 -5.5t-1 -11.5t-1.5 -15q-1 -6 -2.5 -18.5t-1.5 -14.5q-1 -1 -1 -3.5t-1 -4.5q0 -3 -0.5 -8.5t-0.5 -6.5q0 -7 -1 -11.5t-1 -7v-3.5q-2 -15 -8 -53
q-2 -14 -1.5 -16t-2.5 -29t-3.5 -36.5t-2.5 -22t-5 -43t-4 -41.5l-2 -11l7 7q12 13 14 15q10 9 13 12q2 2 12 11l5 5l-1 -1l2 2q4 4 13 9l8 4q7 2 9 1q4 -2 6 -7q2 -3 -1 -11q-4 -9 -16 -16q-7 -6 -12 -10q-2 -2 -10 -8q-4 -3 -14 -13q-3 -2 -13 -14q-30 -34 -30 -48
q0 -25 -11 -69q-2 -10 -5.5 -20.5l-5.5 -16.5t-4 -11.5l-2 -5.5q-7 -21 -33 -57q-10 -14 -19 -25q-14 -19 -33 -35q-23 -19 -32 -19q-17 0 -22.5 18t1.5 49q8 32 22 62q16 32 34 56q11 14 22 30q2 3 5.5 8t7 9l3.5 4q2 2 6 6.5t10 12t11 12.5q13 16 18 31q5 16 7 25
q2 13 5 43q1 13 4 32.5t6 45.5q3 27 5 37q1 15 1 19q0 3 1.5 11t0.5 11l1 4t1.5 10.5t1.5 9.5q1 7 2 18t1 13q5 32 8 79q2 22 4.5 32.5t0 12t-12.5 -8.5q-14 -12 -36.5 -21t-39.5 -8q-10 1 -13 0q-2 0 1 -9.5t9 -21t10 -18.5q17 -24 14 -28q-2 -2 -12 6q-7 5 -13 13
q-5 7 -10.5 16.5t-8.5 13.5q-2 2 -5 8q-8 15 -13 21q-2 3 -6.5 9t-8.5 10.5t-7 8.5q-16 17 -17 21q-3 11 2.5 20t12.5 5q4 -2 10 -9.5t6 -10.5q0 -2 15.5 -13.5t28 -11.5t15 0.5t14.5 3.5q9 1 24 9l18 12q8 6 19 21t19 83q1 8 4 12zM66 39q1 1 2 7.5t1 8.5q4 13 4 15.5
t-1 2.5q-4 0 -13 -11q-3 -4 -5 -6.5t-2 -3.5l-13 -15q-33 -40 -54.5 -81.5t-25.5 -66.5q-3 -20 3 -20q1 0 6.5 4t14.5 12.5t16 18.5q32 41 41 57q8 12 19 48q3 11 7 30z" />
    <glyph glyph-name="K" unicode="K" horiz-adv-x="261" 
d="M221 567q52 80 55 43q1 -9 -10.5 -28.5t-56.5 -84.5q-21 -30 -34 -49q-14 -21 -33.5 -45.5t-30.5 -37.5t-11 -14q1 -2 44 -29q50 -32 69 -50q6 -6 15 -13.5t18 -14.5t12 -9q1 -2 5 -5t5 -4l3.5 -3.5l3.5 -3.5t2 -3.5t1.5 -4.5t-0.5 -4v-6l-1 -2q0 5 -2 2
q-4 -8 -10.5 -8.5t-13.5 8.5q-1 2 -7.5 7.5t-7.5 6.5q-8 10 -44 37.5t-60 42.5q-11 6 -23 13t-17.5 10.5t-11.5 7.5t-8.5 7t-3.5 7t-1 10q0 4 1 8t5 10t7.5 10t12.5 14.5l15 17.5q36 43 44.5 57.5t17.5 24.5t51 75zM45 674q12 7 14 -13q2 -13 0 -41q-2 -44 -4 -272l-2 -231
l-8 -4q-4 -4 -11.5 0t-10.5 9q-9 16 -6 48q5 43 8 238q2 153 6 206.5t14 59.5z" />
    <glyph glyph-name="L" unicode="L" horiz-adv-x="337" 
d="M113 683q3 57 14 58q1 0 3 -1q13 -6 4 -137q-11 -163 -53 -348q-14 -60 -10 -64q2 -2 9 1t22.5 9.5t27.5 11.5q32 12 97 16q45 2 79 -1t40 -8q20 -17 -6 -20q-16 -2 -71 -2q-134 3 -203 -56q-3 -3 -6.5 -6t-5 -4.5t-4 -3.5t-3.5 -1.5l-3 1.5q-23 15 13 153
q16 63 34 195.5t22 206.5z" />
    <glyph glyph-name="M" unicode="M" horiz-adv-x="514" 
d="M175 669q9 20 15 21.5t15 -12.5q7 -11 7 -45t-7 -162q-4 -82 0.5 -114t4.5 -36q0 -13 19 5q4 4 7 9q13 14 43 59t49 77q17 29 41 91q51 129 60 129q5 0 14.5 -10t9.5 -38q-1 -43 -17 -123q-6 -27 -11.5 -101t-5.5 -130q0 -52 8 -72t29 -22q24 -2 41 12q27 22 33 14
q16 -17 -25.5 -45t-80.5 -5q-25 15 -32 74q-4 33 -1 108.5t9 127.5q4 29 9.5 57.5t7.5 39.5t0 12q-1 0 -9.5 -18t-21.5 -46t-21 -44q-38 -76 -108 -170q-12 -15 -28.5 -22.5t-31.5 -4.5q-12 2 -15 14q-9 36 -10 128q0 19 1.5 43t3 43.5t3 36.5t2 26l0.5 9q-3 -4 -77 -207
q-81 -221 -113 -221q-3 0 -5 1t-2.5 4.5t-0.5 4.5v7q0 4 13 31t35 73.5t37 85.5q33 85 52 142q11 32 23 70.5t19 59.5t12 33z" />
    <glyph glyph-name="N" unicode="N" horiz-adv-x="335" 
d="M385.5 702q4.5 5 14.5 5q17 0 19 -40q1 -17 -11 -29q-21 -23 -68.5 -169.5t-65.5 -245.5q-3 -14 -12 -25t-17 -8q-26 10 -85 235q-6 23 -20 62t-18 43q-2 3 -5 -4q-1 -2 -1 -4q-18 -78 -56 -197q-46 -145 -46 -185q0 -49 -14 -48q-5 0 -13 5.5t-7 28.5q2 48 51 197
q60 181 60 259q-1 27 0.5 34t9.5 11q11 8 17.5 1.5t14.5 -33.5q9 -31 17 -48q20 -39 39 -118q10 -47 28.5 -108.5t23.5 -66.5q6 -6 9 2q1 5 5 21q31 135 105 333q15 42 18 64.5t7.5 27.5z" />
    <glyph glyph-name="O" unicode="O" horiz-adv-x="364" 
d="M389 591q43 -83 -30.5 -241.5t-161.5 -207.5q-50 -31 -85 -33q-40 -3 -71 47q-40 126 -12 248q35 153 90 193.5t141 58.5t129 -65zM62 184q11 -35 44 -39.5t72 21.5q41 25 84.5 78.5t76.5 133.5q53 128 21 206q-13 32 -48.5 38t-86.5 -9q-112 -29 -149 -157
q-15 -53 -22.5 -89t-6.5 -85.5t15 -97.5z" />
    <glyph glyph-name="P" unicode="P" horiz-adv-x="224" 
d="M78 817q68 34 144 9t103 -91q24 -56 -8.5 -111.5t-146.5 -154.5q-9 -8 -20 -17.5t-18.5 -16t-14.5 -12.5t-10.5 -9.5t-4.5 -5.5q-11 -29 -25 -121t-11 -117q5 -44 -10 -44q-4 1 -9 6q-16 15 -4.5 116.5t45.5 256.5q17 79 21.5 92t13.5 13q8 0 9 -8t-2 -39
q-1 -11 -4.5 -27t-7.5 -31t-4 -17q-4 -19 4 -19q9 0 78.5 66t85.5 91q32 49 10.5 97.5t-86.5 73.5q-31 12 -71 5q-35 -7 -72 -34t-39 -54q0 -12 1 -26t2 -22t5.5 -31t6.5 -31q5 -38 -4 -51q-2 9 -6 22.5t-12 38t-15 50.5q-6 21 -6 40t2 29.5t10 23.5t10.5 15.5t11.5 12.5
q14 15 48 32z" />
    <glyph glyph-name="Q" unicode="Q" horiz-adv-x="379" 
d="M292 660q25 6 44 -2q9 -4 23 -24t23 -43q14 -37 15.5 -93t-12.5 -92q-10 -26 -43 -66q-8 -11 -21.5 -25t-19.5 -22t-6 -12q2 -14 20 -52.5t30 -59.5q2 -3 6.5 -8.5t6.5 -10t2 -9.5v-2q0 -4 -0.5 -5.5t-3 -3t-7.5 -1.5q-9 -1 -15 4q-7 5 -34 64q-31 65 -33 66
q-1 1 -29 -18q-49 -32 -113 -30q-24 0 -55.5 19.5t-45.5 43.5q-18 28 -18 72q0 43 19 85q15 32 42.5 73.5t43.5 56.5q27 24 39 9q4 -5 -18 -28q-30 -30 -45 -55q-21 -33 -27 -46q-31 -70 -25 -114q7 -61 82 -83q54 -16 122 34l18 13l-15 45q-9 28 -10 35t3 12q8 8 16 -2.5
t19 -37.5q3 -5 5.5 -13t4 -12.5t2.5 -4.5q7 0 32 31t35 50q21 42 20 108.5t-28 105.5q-8 12 -13 15t-17 4q-21 2 -34.5 -4.5t-34.5 -29.5q-55 -59 -81 -134q-17 -45 -23 -45q-7 4 -2 33.5t17 58.5q25 60 62.5 100t76.5 50z" />
    <glyph glyph-name="R" unicode="R" horiz-adv-x="254" 
d="M60 649q9 3 37 1q57 -4 96 -24t54 -52q13 -27 7.5 -52t-32.5 -58q-45 -57 -85 -57h-14l3 -29q3 -36 19 -83.5t39 -78.5q25 -34 65 -2q29 23 31 1q1 -9 -16 -23t-39 -20q-9 -3 -15 -3t-16 5q-28 14 -58 77q-34 70 -40 120q-2 17 -4 19t-6.5 -15t-10 -46.5t-11.5 -59
t-10 -47.5t-7.5 -35.5l-5.5 -27.5t-3 -19t-0.5 -14.5t1.5 -9.5q5 -15 0 -21q-8 -11 -20 -3t-12 23q0 10 30.5 164t40.5 208q9 51 13.5 65.5t11.5 16.5q6 1 9.5 0t5 -7t0.5 -15.5t-4 -26.5q-10 -59 -10 -61q-1 -7 0 -9.5t5 -2.5q7 0 9 -7l2 -3q10 0 29.5 5.5t23.5 11.5
q38 29 47 70q7 30 -15 53q-33 35 -121 41q-35 3 -38 6q-4 3 1 12t13 13z" />
    <glyph glyph-name="S" unicode="S" horiz-adv-x="292" 
d="M294 703q30 11 43 7.5t11 -21.5q-2 -11 -8.5 -14.5t-25.5 -3.5q-28 0 -64 -23t-90 -79q-33 -33 -43 -51t-2 -31.5t37 -30.5q43 -25 76 -66t41 -83q5 -23 3 -43t-17 -47q-26 -49 -62 -70q-2 -1 -7 -3q-17 -11 -26.5 -15.5t-27 -8.5t-41.5 -6q-47 -2 -68.5 9.5t-21.5 39.5
q0 22 22 45.5t100 76.5q21 15 47 29t39.5 21.5t13.5 8.5q0 12 -31.5 43t-61.5 50q-34 20 -44 34.5t-3 41.5q9 34 86.5 104t124.5 86zM247 276q0 14 -3.5 28.5t-8.5 14.5q-13 2 -102 -57t-100 -81q-9 -18 4 -29.5t47 -10.5q61 1 112 42.5t51 92.5z" />
    <glyph glyph-name="T" unicode="T" horiz-adv-x="209" 
d="M381 776q23 7 48 6q37 -1 40 -22q1 -2 1.5 -10.5t0.5 -13.5q5 -32 1 -36q-5 -4 -8.5 -2t-9.5 15q-8 16 -17 24q-16 13 -43.5 7.5t-87.5 -29.5q-57 -23 -63 -34q-1 -3 -2.5 -8t-4 -17.5t-5 -26t-7.5 -42t-10 -57.5q-28 -151 -45 -275q-16 -116 -27 -141q-3 -9 -13.5 -9
t-16.5 5q-9 7 -6 50q2 38 0 53q-7 50 -2 58q4 6 14 -14q3 -6 6 -15q2 -5 4.5 -11.5t3.5 -10.5l1 -4q3 0 16 89q25 168 45 268q11 59 11 72q0 8 -0.5 11.5t-2 4t-3.5 0.5h-2q-6 0 -71.5 -32.5t-72.5 -38.5q-1 -1 -2 -2.5t-1 -3v-4v-6v-9.5q-1 -22 -5 -22q-1 0 -5 2
q-5 3 -11.5 16t-8.5 25q-1 8 0.5 11.5t9.5 10.5q19 18 214 110q96 46 137 58z" />
    <glyph glyph-name="U" unicode="U" 
d="M349 638q14 14 22 -1q9 -16 -4.5 -91t-35.5 -139q-23 -66 -58 -120t-77 -79l-9 -6t-8.5 -5t-8.5 -4.5t-9 -3.5t-10.5 -1.5t-11.5 0.5q-24 2 -48 30q-29 32 -44.5 109t-11 156.5t29.5 118.5q7 13 19 13q21 0 4 -36q-23 -51 -23 -125q0 -86 13 -139.5t43 -85.5
q10 -10 19 -12t25 3q21 7 62 48q6 6 13.5 17t12.5 19t11 19t7 13q16 27 37 95.5t27 117.5q8 54 8 60q1 24 6 29z" />
    <glyph glyph-name="V" unicode="V" horiz-adv-x="249" 
d="M368 769q1 2 4 4t5 1t0 -9q-5 -35 -35 -120t-85 -206q-20 -57 -104 -234q-10 -22 -14 -30.5t-10.5 -19.5t-12 -14.5t-12.5 -3.5l-7 3q-5 0 -15.5 26.5t-28 86.5t-36.5 139l-10 66q-2 7 2 17t12 8q5 0 8.5 -6t6.5 -19t5.5 -26.5t6.5 -36t8 -40.5q14 -74 50 -172h5
q2 2 6 8.5t10.5 20.5t13 29t18 40t20.5 46q10 22 26 59.5t25.5 60t16.5 33.5q1 4 11 26.5t19.5 44.5t24 58.5t27.5 73.5q27 77 39 86z" />
    <glyph glyph-name="W" unicode="W" horiz-adv-x="424" 
d="M32 602q6 17 16.5 20.5t16.5 -8.5q1 -3 -0.5 -11.5t-5.5 -25.5t-5 -23q-17 -82 -20 -172.5t7 -139.5q2 -9 4 -25q1 -13 2 -17.5t4.5 -6.5t8.5 4t15 20q5 7 29.5 49.5t35.5 60.5q40 63 65 114q6 12 13 23t12 16.5t7 5.5q6 0 9 -13q4 -14 13 -113q11 -115 18 -121
q0 -1 1 -2q2 -2 5 0q2 2 4 3q27 16 133 196q14 23 27 42t21 28.5t11 10.5q13 4 8 -14q-6 -20 -39 -75q-9 -15 -27 -47q-27 -47 -42 -71.5t-38.5 -56.5t-41.5 -42.5t-34 -3.5q-12 5 -21 41t-12 83q-3 64 -7 70q-3 3 -7 0t-12 -16t-16.5 -28t-25.5 -44t-33 -56
q-41 -67 -59 -90t-31 -24t-18.5 16.5t-11.5 79.5q-9 90 -2 203.5t23 159.5z" />
    <glyph glyph-name="X" unicode="X" horiz-adv-x="375" 
d="M42 604q3 8 13 6t18 -13q11 -12 29 -47q13 -27 40 -65t45 -60l18 -22l58 58q15 15 38 40t40 44t18 20q9 8 18 9t10 -3q2 -3 -10 -23q-8 -14 -17 -24q-1 0 -16 -17.5t-33 -37l-30 -32.5q-53 -55 -52 -59q4 -9 64 -72.5t82 -81.5q16 -13 19 -17q6 -9 -2.5 -12t-19.5 -1
q-14 3 -115 102q-17 15 -30.5 31t-18 21.5t-6.5 5.5q-2 -1 -9.5 -8t-23 -22.5l-28.5 -28.5t-15.5 -14.5t-6.5 -5.5q-5 -6 -16 -19t-14 -16q-48 -48 -59 -111q-3 -18 -5.5 -23t-7.5 -6q-12 0 -14.5 10t1.5 38q2 22 6.5 32t20.5 35q4 8 9 15t9 12.5t11.5 13.5t11 12.5t13.5 15
t14.5 14.5t18 17.5l19 19l14 14l13 13t9 9.5t6 8t1.5 4q-7 12 -16 24q-48 61 -85 126q-7 13 -18.5 30.5t-16 26.5t-2.5 14z" />
    <glyph glyph-name="Y" unicode="Y" horiz-adv-x="216" 
d="M87 108q-3 6 -5 8q0 2 -2 8q0 2 -1 8q-3 19 1 51q1 9 3 23t3 18q2 7 12 37q9 27 12 32q4 8 9 22t7 19q13 32 18 50q1 3 2.5 7t1.5 5q1 2 1 7.5t-1 7.5q-2 2 -6 5.5t-8.5 8l-8.5 8.5l-5 5q-16 20 -33 41t-33 44q-10 15 -21 39q-12 26 -18 55v5t-1 9l-1 10q-1 4 -1 6v8
q0 1 1.5 4t1.5 5q2 0 3 2l2 1q2 1 6 1t6 -1q1 0 2 -3t2 -4q0 -2 1.5 -5t2.5 -7.5t2.5 -9t2.5 -6.5q11 -55 34 -94q30 -49 69 -87q3 -3 9 -6t8 -2l3 3q16 21 28 46t22.5 49.5t21 48.5t22.5 45l2 3l4 6l4 6t2.5 3.5t2 4t2.5 4.5q1 2 4 6.5t4 4.5q0 1 3 1q4 0 5 -1q1 0 4 -3.5
t4 -4.5v-8q-1 -1 -2 -7t-2 -8q0 -1 -2 -4l-2 -3q-10 -21 -23 -49t-27 -58l-29 -61q-14 -30 -27 -56q-1 -1 -2.5 -6t-1.5 -5.5t-2 -3.5t-2 -5q-6 -11 -10.5 -24t-10.5 -26q0 -1 -2 -4q0 -1 -1 -2.5l-1 -1.5q-8 -18 -21 -56q-16 -48 -19 -61q-6 -35 -6.5 -62t4.5 -46
q0 -1 -1 -3.5t-2 -3.5q-1 0 -3.5 -1.5t-4.5 -2.5h-4l-5 2.5t-4 1.5q0 1 -3 7z" />
    <glyph glyph-name="Z" unicode="Z" horiz-adv-x="354" 
d="M303 585q40 9 47 -4q4 -9 1.5 -17.5t-58.5 -81.5q-13 -16 -28.5 -35t-23 -28t-6.5 -9q10 0 42 5q42 6 53.5 6t12.5 -6q4 -9 -1 -13q-14 -11 -81 -19h-8q-36 -5 -49 -14t-58 -59q-16 -19 -26 -30l-63 -73l38 -1q122 6 211 21q4 0 13.5 2t13 2.5t9.5 0t8.5 -3.5t3.5 -9
q2 -10 0 -12.5t-16 -5.5q-36 -9 -166 -19q-39 -3 -71.5 -3.5t-45.5 -1t-23 -3.5q-19 -6 -27 0q-9 7 0 21q3 5 23 26.5t50 53t38 39.5q12 13 31 35.5t18 24.5q-1 1 -28 -4q-62 -12 -62 11q0 4 4 7t18.5 6t41.5 7q2 0 6 1q39 5 48 8.5t22 20.5q6 9 11 15t33 40t41.5 52
t11.5 19q0 1 -12 -1t-33 -4.5t-38 -4.5q-123 -13 -132 -1q-4 6 -1 10q7 8 131 19q50 4 76 10z" />
    <glyph glyph-name="bracketleft" unicode="[" horiz-adv-x="343" 
d="M65 862q9 5 39 1t57 -15q6 -2 19 -6.5t18 -6.5q20 -8 24.5 -11.5t4.5 -9.5q0 -25 -34 -10q-5 2 -10.5 4.5t-9.5 4t-5 2.5q-8 3 -32 9q-35 8 -48 8q-8 0 -9.5 -4t-3.5 -21q0 -4 0.5 -50t1.5 -104.5t0 -85.5q-4 -228 -7 -257q-2 -12 -3.5 -44t-3 -66.5t-1.5 -42.5l-3 -46
l9 3q9 2 48 21q31 15 43 16t15 -11q2 -9 -1.5 -13t-18.5 -9q-62 -24 -70 -30q-2 -2 -14 -6q-11 -5 -16 -7q-27 -12 -32 2v4.5t1.5 11t2.5 23.5q18 171 21 454q1 32 0 102.5t-1.5 110t0.5 54.5q5 19 19 25z" />
    <glyph glyph-name="backslash" unicode="\" horiz-adv-x="393" 
d="M141 771l61 -198l130 -455l6 -20q0 -16 -17 -12q-8 4 -34 87.5t-77.5 263t-66.5 233.5q-21 73 -21 90q2 11 6.5 14.5t8 1.5t4.5 -5z" />
    <glyph glyph-name="bracketright" unicode="]" horiz-adv-x="311" 
d="M229 847q56 5 70 0t8 -30q-6 -29 -15 -105q-1 -8 -6.5 -67t-11 -115t-6.5 -60q-6 -32 -10 -89q-2 -32 -7 -60q-2 -8 -4 -55q-4 -77 -13 -168q-2 -17 -4 -21.5t-9 -6.5q-9 -4 -18 13q-2 3 -3.5 5t-4 3.5t-5 2.5t-7 2t-8.5 2t-11.5 2t-13.5 2t-16.5 2t-20.5 2q-5 1 -14 2
q-15 2 -21 3t-12.5 3.5t-8 6t0.5 9.5q1 6 3.5 7.5t16.5 1t45 -3.5q54 -7 66 -6.5t15 8.5q4 9 8.5 65t6 69.5t4 49.5t10.5 103q5 42 12 118.5t12 134t6 66.5q4 20 7 46l2 30l-39 -3q-12 0 -34.5 -1.5t-32.5 -1.5q-46 -3 -66.5 -0.5t-20.5 11.5q1 12 12 14.5t64 4.5q47 2 74 4
z" />
    <glyph glyph-name="asciicircum" unicode="^" horiz-adv-x="255" 
d="M130 557q11 14 18 15.5t11.5 -5t10.5 -24.5q14 -38 30 -48q15 -9 19 -17.5t-7 -13.5q-10 -3 -25.5 7t-26.5 30q-3 5 -6.5 12l-5.5 11t-2 5q-1 1 -20 -17q-26 -25 -46 -33.5t-28 -1.5q-14 12 14 26q17 9 33 21q13 9 31 33z" />
    <glyph glyph-name="underscore" unicode="_" horiz-adv-x="416" 
d="M18 176q-3 -7 3 -10q11 -5 150 1q10 1 61 2.5t97.5 3.5t47.5 2q12 0 17 6q1 1 3 2q5 5 4 10q-1 2 -8 5.5t-12 4.5q-7 1 -8 -1q0 -2 -15 -3q-7 -1 -133.5 -5.5t-138.5 -4.5q-52 1 -55 0q-8 -4 -13 -13z" />
    <glyph glyph-name="grave" unicode="`" horiz-adv-x="194" 
d="M81 572q-3 3 -8 7q-15 12 -19 13t-11 -3q-16 -11 18 -39q25 -22 40 -36q11 -12 28 -19.5t20 -3.5q9 10 -17 35q-28 27 -51 46z" />
    <glyph glyph-name="a" unicode="a" horiz-adv-x="153" 
d="M74 338q16 5 35.5 0t23.5 -15q3 -8 0 -28q-10 -74 -2 -91q4 -6 6.5 -5.5t13.5 9.5q21 17 24 6q1 -2 0 -7q-3 -8 -18 -23.5t-25 -17.5q-11 -3 -15 1.5t-10 28.5q-2 7 -3.5 16t-2 14.5t-1.5 5.5q-3 3 -27 -26q-33 -40 -53 -35q-7 2 -10 7t-7 21q-7 29 19 80.5t52 58.5z
M103 301q-4 10 -14 10t-22 -10q-28 -25 -37 -71q-6 -27 0 -27t26 25q3 3 8 9q13 16 19 23.5t12.5 17t8 14.5t-0.5 9z" />
    <glyph glyph-name="b" unicode="b" horiz-adv-x="239" 
d="M268 214q-2 -12 -6 -16.5t-17.5 -7.5t-21.5 -6q-26 -10 -52 -37q-26 -28 -45 -30t-44 21q-27 26 -20.5 37.5t53.5 17.5q4 1 30 0t30 5q4 15 0 40q-9 51 -37.5 54t-74.5 -49q-42 -54 -50 -54q-7 0 -10 13t-1 38.5t8 60.5q10 54 42 192.5t36 145.5q11 18 19 7q6 -8 1 -26
q-20 -81 -40 -192q-6 -30 -16 -66q-8 -26 -14 -68l-6 -46q27 36 37 45q45 33 71 32q22 0 41.5 -26.5t20.5 -49.5q1 -7 1.5 -16.5t1.5 -12.5t2.5 -6.5t5 -3t9.5 2t17 5.5q9 5 16 5t13 -9zM150 163q0 4 -25 4q-22 0 -22 -5q0 -4 8 -9.5t14 -5.5t15.5 6t9.5 10z" />
    <glyph glyph-name="c" unicode="c" horiz-adv-x="173" 
d="M97 353q45 22 62 4q9 -9 9 -12.5t-6 -15.5q-5 -10 -14 -10.5t-14 8.5q-4 7 -10 6.5t-21 -9.5q-33 -21 -54.5 -55t-14.5 -62q8 -33 72 -20q21 4 63 25q32 16 32 10q1 -4 -4 -14q-12 -30 -93 -46q-22 -5 -46.5 -1.5t-34.5 14.5q-30 34 -16 79q8 21 37.5 54.5t52.5 44.5z
" />
    <glyph glyph-name="d" unicode="d" horiz-adv-x="209" 
d="M182 302q-5 -19 -6 -26q0 -1 -1.5 -8t-1.5 -15q-1 -6 -1 -12.5v-9.5v-5v-1v-7q1 -17 5 -17q6 -1 16 5q2 1 8 6t11 8t8 4q8 1 10 -4t1 -14q0 -3 -10 -11.5t-17 -12.5q-2 -1 -4.5 -2.5t-4.5 -2.5l-2 -1l-9 -3q-8 -2 -13 -1q-10 3 -18 9q-4 5 -6 16q-2 18 -3 35q0 5 0.5 9
t1 6t0.5 2.5t-3 -2.5l-9 -9l-10 -10q-9 -8 -17.5 -14.5t-12.5 -9.5l-4 -3q-8 -8 -16 -12q-2 -1 -7 -4t-6.5 -3.5t-5.5 -2.5t-6.5 -2.5t-6.5 -1.5t-8.5 -1h-9.5q-11 0 -18 7q-4 5 -6 16q-1 6 1 18q5 29 32 68q29 42 52 53q17 7 27 3q12 -5 19 -11q10 -10 12 -14l2.5 -2.5
t3 -3.5t1.5 -3q1 2 1.5 16.5l1.5 43.5t3 53q4 55 17 109t35 81q13 15 26 11.5t13 -21.5q1 -12 -0.5 -28.5t-6 -38.5t-8.5 -41t-11.5 -47.5t-12.5 -46.5t-13.5 -49t-12.5 -45zM212 508q16 73 7 67q-6 -5 -26 -55q-6 -25 -10.5 -58.5t-6 -56.5t-0.5 -25q2 -2 5 3.5t6 16
t5.5 21t5 22t3.5 14.5q0 1 4.5 19.5t6.5 31.5zM119 302q-3 4 -12 6q-17 4 -36 -21q-37 -47 -40 -64q0 -1 -0.5 -3.5t-0.5 -5.5q0 -6 1 -7q3 -5 11 -2q5 2 18 9l12 8q2 0 14 11q2 2 6 5t5 3q14 11 23 20q3 4 5.5 6.5l3 3l1 1t0.5 1.5q1 14 -2 19q-2 3 -9 10z" />
    <glyph glyph-name="e" unicode="e" horiz-adv-x="135" 
d="M64 314q24 18 31 20.5t18 -3.5q25 -13 13 -49q-21 -62 -95 -88q-9 -3 -8 -12q6 -34 58 -1q6 4 16 11q26 16 31.5 19t10.5 0q9 -10 6.5 -16t-17.5 -16q-3 -1 -19.5 -11t-24.5 -15q-42 -29 -72 -6q-19 13 -20 39t17 61q2 3 5.5 10t5 9.5t5 8.5t6.5 9.5t8 8.5t11 10t14 11z
M90 275q17 26 5.5 24.5t-39.5 -30.5q-10 -10 -17 -20.5t-9.5 -16.5t-0.5 -7q4 -5 26.5 13.5t34.5 36.5z" />
    <glyph glyph-name="f" unicode="f" horiz-adv-x="105" 
d="M61 122l-22 -186l-5 -97q-2 -45 0 -96l2 -5h7l4 3l1 6q6 36 13 36h3q9 0 9 -27q-9 -54 -39 -55l-9 1q-15 0 -20 84l4 64l17 171q0 26 -14 47t-48 54q0 42 75 67q32 470 44 470h3q11 0 10 -15q-10 -237 -27 -420l-1 -25h4l50 22q12 -7 2.5 -21.5t-24.5 -18.5
q-11 -3 -15 -4t-9.5 -4t-6.5 -4t-3 -6.5t-2 -8.5t-1 -13.5t-2 -18.5zM-3 131q20 -39 29 -39h4l9 68q-19 -5 -30.5 -13t-11.5 -16z" />
    <glyph glyph-name="g" unicode="g" horiz-adv-x="236" 
d="M115 291h-5q-4 1 -7 5l-1 8l2 8q-2 5 -4 7q-1 -1 -4 -2q-14 -8 -22 -13t-21.5 -19.5t-24.5 -36.5q-2 -5 -2 -12l2 -5l3 -3q11 0 39 22l12 11l13 10q3 3 7 6t6.5 5.5t3.5 4.5zM24 -218v-29q0 -63 35 -94q8 -6 18 -1q120 61 116 344l-7 133q-63 -65 -127 -204
q-35 -92 -35 -149zM211 159q17 -142 14 -186q-8 -152 -46 -241.5t-106 -105.5q-11 -2 -23 2q-56 37 -56 140v10q0 93 44.5 187t141.5 211q-6 54 -11.5 75t-15.5 27h-3q-98 -81 -122 -81q-25 0 -29 32q0 69 96 119h15q20 -4 20 -46q14 11 27 11q20 0 30.5 -26.5t15.5 -86.5
v-5q5 4 13.5 11t16.5 12.5t19 11.5q7 -10 7 -17t-9 -17q-2 -2 -18.5 -16t-20.5 -21z" />
    <glyph glyph-name="h" unicode="h" horiz-adv-x="170" 
d="M57 655q4 4 6.5 3t7 -6.5t5 -16t-1.5 -48.5q-2 -48 -15 -155.5t-24 -146.5q-10 -37 -4 -34q3 1 10 13q32 58 43 59q2 1 4 -1q9 -8 12 -19.5t8 -49.5q2 -18 3.5 -28.5t3.5 -16.5t2 -7.5t3 -3.5l3 -2q11 -10 39 13q17 16 23 13q5 -4 3.5 -11t-9.5 -17t-20 -17
q-15 -10 -25 -10q-23 -1 -31 8q-8 10 -10 17.5t-7 43.5q-4 28 -8 34.5t-9.5 -1t-19.5 -35.5q-18 -33 -29.5 -46.5t-20.5 -9.5q-7 0 -5 33t14 82.5t23.5 136t14.5 152.5q4 70 11 74z" />
    <glyph glyph-name="i" unicode="i" horiz-adv-x="57" 
d="M34.5 303.5q6.5 2.5 10.5 -3t-4 -67.5q-5 -37 -3 -40q5 -8 -5 -17t-19 -6q-3 1 -6.5 7.5t-4.5 11.5q-2 7 1 8t3 15q0 18 5 43t10 35q6 11 12.5 13.5zM34 389q7 8 13.5 8t11.5 -8t3 -19q-2 -18 -10 -18.5t-16 16.5q-7 13 -2 21z" />
    <glyph glyph-name="j" unicode="j" horiz-adv-x="231" 
d="M123 525q15 2 30 -3.5t12 -12.5q-2 -6 1 -11q12 -19 -7 -19q-13 0 -15 -6q-3 -7 -8 -6t-9 9q-21 46 -4 49zM93 348q7 7 20 6q15 -1 15 -11.5t-14 -25.5q-9 -10 -9 -27q-6 -19 -10 -34t-8.5 -30.5l-13.5 -46.5q-24 -84 -22 -87q4 -3 30.5 12t50.5 34q17 14 44 36
q44 35 55.5 41.5t22.5 -0.5q4 -5 -5.5 -18t-27.5 -26q-8 -6 -25.5 -20t-18.5 -15q-5 -4 -23.5 -17t-24.5 -18q-17 -14 -43 -28q-44 -24 -52 -48q-13 -39 -32 -198q-12 -94 -23 -130t-30 -42q-27 -10 -64.5 20.5t-65.5 84.5q-18 34 -18 69q0 11 0.5 19t3 15.5l3.5 10.5
t5.5 12l5.5 11q13 27 51 64t87 70q21 15 38 28t20 16q6 9 21.5 66.5t28.5 120.5q9 37 14 56t6.5 23t4 4.5t3.5 2.5zM2 9q2 10 -4 10q-9 0 -53 -35t-71 -62q-24 -25 -32 -36.5t-11 -25.5q-17 -67 45 -133q44 -47 61 -38q12 7 23 53.5t17 113.5q7 76 25 153z" />
    <glyph glyph-name="k" unicode="k" horiz-adv-x="153" 
d="M58 503q18 -3 18 -19q-1 -7 -2 -12.5t-2 -7.5v-3l-28 -180l2 2q49 54 87 88l9 6q12 1 13 0q8 -5 1 -18q-5 -11 -35 -38q-58 -57 -58 -62q40 -64 62 -64l32 23q4 2 8 0q4 -3 7 -7q3 -6 0 -8q-29 -37 -50 -37h-4q-25 0 -77 74l-9 -11l-13 -67q0 -3 1.5 -9t1.5 -11
q-1 -6 -9 -11h-8q-12 0 -12 28l40 207l2 20l2 13v3v2l2 11l1 10v3l1 12q1 5 2 15q5 32 7 40t8 8z" />
    <glyph glyph-name="l" unicode="l" horiz-adv-x="146" 
d="M126 653q12 13 27 13q13 0 16.5 -4.5t7.5 -27.5q8 -40 -9 -117.5t-55 -172.5q-30 -77 -30 -81q0 -15 7.5 -36.5t18.5 -24.5q10 -3 17 3q26 18 30 16q2 -2 3 -7q0 -10 -7.5 -19.5t-17.5 -14.5q-26 -10 -46 2.5t-26 41.5q-2 13 -8 13t-11 -10q-6 -11 -23 -26t-23 -15
q-7 0 -9 7t3 15q0 1 28 37q22 29 27 45q3 8 15 118q14 114 28 167.5t37 77.5zM148.5 581q2.5 53 -2.5 53t-14 -17.5t-16 -41.5q-8 -25 -19 -94t-13 -105q-2 -33 0 -33q1 -1 4 3q8 10 22.5 52t23.5 82q12 48 14.5 101z" />
    <glyph glyph-name="m" unicode="m" horiz-adv-x="344" 
d="M48 373q2 15 4.5 19.5t8.5 4.5q10 0 12 -6.5t-1 -26.5q-2 -15 -10.5 -46.5t-13.5 -45.5l10 9l2 2q9 9 14 15q32 31 45.5 40.5t22.5 7.5q11 -3 15.5 -14.5t5.5 -38.5q0 -31 2.5 -31t28.5 27q22 24 33 31t21 5q35 -9 35 -82q0 -18 6 -26.5t18 -13.5q23 -10 46 16q5 6 11 -5
q6 -9 0 -16q-19 -25 -45 -24q-29 1 -47 16.5t-18 60.5q0 14 -3 28t-5 16q-4 2 -13 -6t-36 -36q-46 -48 -52 -48q-15 0 -17 12t4 52q5 37 2 41q-6 5 -24.5 -12.5t-40 -46t-33.5 -54.5q-18 -37 -24 -37q-18 0 -18 13q0 9 7 38.5t12 40.5q5 13 11 37q1 6 6 18.5t8 22.5
q5 19 10 43z" />
    <glyph glyph-name="n" unicode="n" horiz-adv-x="187" 
d="M17 323q28 12 35 -4q3 -8 3 -32q0 -6 -0.5 -14.5t-0.5 -11t1 -4.5q0 -1 2 0.5t5.5 5t5.5 6.5t7 8l3 3q25 28 42 29q10 0 13.5 -8t7.5 -40q5 -37 8 -51q3 -12 15 -12t24 15q5 6 13 11q3 1 4.5 -1.5t1.5 -7.5q0 -2 0.5 -5.5t0 -5t-2 -5t-4.5 -7.5q-19 -23 -39.5 -23
t-30.5 17.5t-17 60.5q-1 5 -1.5 11t-1 9l-0.5 3q-2 2 -11 -7.5t-23 -28.5t-30 -43q-13 -19 -19.5 -24t-14.5 0q-6 4 -5.5 12t8.5 39q7 24 11 60q3 18 1.5 20.5t-12.5 -2.5q-11 -6 -18 4q-3 4 3 11t16 12z" />
    <glyph glyph-name="o" unicode="o" horiz-adv-x="135" 
d="M18.5 341q4.5 3 13.5 3t7 -13q0 -1 -7 -24q-5 -18 -1 -42q4 -33 14.5 -45.5t24.5 -1.5q6 5 12 20t5 23q0 4 -3 5.5t-16 2.5q-17 0 -21 4q-4 3 -3.5 19t5 25t15 15t20.5 6q8 0 13 -4t16 -18l7 -9l15 6q27 12 31 0q3 -8 -2.5 -13.5t-21.5 -10.5q-14 -4 -18 -9t-10 -31
q-12 -55 -40.5 -67.5t-53.5 26.5q-20 30 -20 70q-1 29 6.5 44.5t12 18.5zM90 299q-1 8 -7 9.5t-8 -5.5q-3 -12 9 -12q7 0 6 8z" />
    <glyph glyph-name="p" unicode="p" horiz-adv-x="257" 
d="M50 376q13 12 19 13q7 1 11.5 -6t7 -27t2.5 -57l-1 -50l28 33q20 25 52 46q49 31 69.5 15t8.5 -78q-10 -48 -35 -86.5t-51.5 -53.5t-42.5 -2q-8 9 -4.5 35.5t10.5 36.5q6 9 17 7q7 -1 4 -10q-11 -34 2 -38q11 -5 35 32q46 72 40 109q-3 17 -20 16q-32 -4 -75 -53t-40 -77
q4 -38 -12 -158t-26 -158q-1 -3 -11 -41.5t-18.5 -67.5t-14.5 -43q-6 -13 -12.5 -17.5t-12 3t-8.5 25.5q-13 84 5 196.5t60 214.5q20 46 24.5 72t3.5 70q-1 24 -2 36q-2 22 -5.5 22t-18.5 -31q-6 -11 -10 -18q-3 -6 -6 -10.5t-7.5 -9t-8.5 -2.5t-7 10q-4 10 17 50.5t33 51.5
zM56 83q3 31 -2 32q-3 -3 -21 -63.5t-23 -88.5q-17 -99 -18 -187v-8q4 7 16.5 55t27 124t20.5 136z" />
    <glyph glyph-name="q" unicode="q" horiz-adv-x="162" 
d="M149 364q9 11 17 4q9 -7 5 -24q-1 -6 -9.5 -36t-14.5 -64q-8 -45 -25 -133q-23 -129 -28 -224q-1 -43 2 -95.5t9 -62.5q4 -9 -5 -12t-17.5 4t-12.5 21q-12 39 -2 172.5t33 246.5q8 35 6 36l-20 -15q-18 -14 -35 -17q-11 -1 -16.5 1t-14.5 12q-5 6 -10.5 15t-7.5 16
q-4 15 -2 41.5t9 47.5q8 23 30 30q16 7 44.5 3.5t43.5 -16.5q2 -2 5 4q0 1 6 21q6 19 10 24zM90 299q-36 11 -49 -7q-14 -20 -13 -50t15 -43l11 -4l25 14q41 29 36 55q-7 30 -25 35z" />
    <glyph glyph-name="r" unicode="r" horiz-adv-x="200" 
d="M44 355q10 5 15 4.5t19 -7.5q16 -8 43 -6q39 4 44 -13q5 -16 -26 -72q-34 -62 -28 -69q3 -3 16 -3q5 0 10 0.5t10 1.5t8 2t8.5 3.5t8 4t8.5 5t7 4t7.5 4.5t7.5 5q9 6 16.5 3t5.5 -14q-4 -12 -29 -27q-40 -23 -76 -20t-36 34q0 11 8 32.5t19 36.5q9 12 15.5 25t9 20t2.5 8
q-4 1 -7.5 1t-13.5 -2q-8 -1 -10.5 -5.5t-4.5 -17.5q-7 -35 -56 -75q-46 -37 -58 -21q-1 2 -2 3q-4 12 25 27q25 12 43.5 34t25.5 45q2 6 -0.5 8t-14.5 2q-17 0 -23 5t-7 17t10 17z" />
    <glyph glyph-name="s" unicode="s" horiz-adv-x="163" 
d="M98 340q36 20 55 -39q9 -33 6 -65.5t-18 -57t-34 -24.5q-20 0 -35 24.5t-2 37.5q16 16 21 -13q2 -12 9.5 -15.5t12.5 0.5q20 13 21 62t-22 58q-7 2 -30 -30q-51 -68 -72 -87q-14 -11 -23 -9t-9 13q0 3 3 6t10 8.5t13 11.5q10 10 48 64q35 49 46 55z" />
    <glyph glyph-name="t" unicode="t" horiz-adv-x="150" 
d="M194 919q15 9 15 -5q0 -13 -13 -76q-55 -261 -74 -361q-17 -93 -17 -108q0 -2 -1 -5t-0.5 -4t4.5 -2.5t11.5 -2t23.5 -2.5q34 -2 45.5 -6.5t7.5 -14.5q-1 -2 -1.5 -3.5t-2 -3t-2.5 -2t-4 -0.5h-5.5h-7.5t-9.5 0.5t-12.5 1t-16 0.5q-25 2 -32 1.5t-9 -7.5
q-5 -19 -13 -81.5t-12 -109.5q-5 -69 -15 -68q-3 0 -7 7q-9 17 6 160q2 22 5.5 48t5 40l1.5 14q-2 2 -28 5q-25 4 -36 7.5t-11 7.5t1 9q2 8 12 9t39 -2q30 -3 31 -2l2 13t6 38t8 48q19 98 54 264q8 37 18 81.5t15 67t5 23.5q0 4 4.5 11t8.5 10z" />
    <glyph glyph-name="u" unicode="u" horiz-adv-x="234" 
d="M80 346q13 5 19 -8q3 -7 -2 -21q-4 -13 -5.5 -40t1.5 -42q5 -25 14 -29q13 -6 23 0.5t23 23.5q4 5 7 8.5t4 5.5t2 3.5t1 2v1t1 0.5q8 11 10 21q1 3 4.5 12t5.5 14q9 30 12 35.5t10 5.5q9 0 15 -9.5t1 -15.5q-3 -3 -9 -26q-7 -33 -2 -50t24 -29q10 -8 10 -11.5t-10 -10.5
q-3 -3 -11 -0.5t-13 6.5q-3 1 -11 13.5t-10 16.5q-4 13 -5 13t-6 -8q0 -1 -9 -13q-12 -17 -30 -29q-15 -10 -31 -8q-33 3 -44 39q-4 12 -4 42q0 4 -0.5 4.5t-1.5 -0.5l-1 -2q-2 -4 -4 -9q-1 -1 -6 -8q-1 -1 -3.5 -5.5t-7.5 -11.5t-11 -14q-15 -19 -22 -19t-10.5 3.5
t-1.5 8.5q0 3 29 45q13 19 21 34q4 7 11 19.5t9 17.5q8 18 8 19q0 3 6 5z" />
    <glyph glyph-name="v" unicode="v" horiz-adv-x="157" 
d="M98 328q7 7 14 -0.5t12 -26.5v-2q2 -9 3 -12.5t3.5 -9t5.5 -5.5t8 -2.5t12 0.5q9 2 13.5 5.5t6.5 2.5q13 0 8 -15q-5 -12 -18 -17q-6 -3 -17 -4.5t-17 1.5q2 -9 -1 -15q-4 -16 -17 -35.5t-27 -29.5q-24 -18 -39 -8.5t-26 51.5q-2 6 -4.5 18t-5 20.5t-3.5 12.5
q-12 32 -3 45q15 22 28 -17q5 -17 12 -51q8 -42 11 -46q6 -11 21 6q34 36 21 87q-10 38 -1 47z" />
    <glyph glyph-name="w" unicode="w" horiz-adv-x="239" 
d="M226 368q3 4 11.5 2.5t13 -6t0.5 -20.5q-1 -4 -5 -12q-1 -2 -1.5 -3.5t-1 -4t-4.5 -11.5t-10 -25q-85 -194 -125 -92q-3 8 -6 31.5t-3 24.5q-1 1 -2.5 -2t-4 -8.5t-5.5 -12t-7 -14t-7 -13.5q-17 -30 -27 -39t-22 -4q-5 2 -10 5.5t-6 6.5q-9 18 2 100q5 34 10 47.5
t14 16.5q17 8 17 -11q0 -9 -6 -22q-1 -3 -6 -25q-2 -6 -3 -13q-1 -12 -2.5 -39t1.5 -32q5 0 20.5 30.5t28.5 69.5q19 50 24 54t12 -2q5 -4 6 -14.5t0 -51.5q-1 -84 14 -85q7 -1 17 10q19 20 41.5 68.5t25.5 74.5q1 8 6 21z" />
    <glyph glyph-name="x" unicode="x" horiz-adv-x="161" 
d="M12 372q3 3 7 4q5 0 21.5 -16t30.5 -34q5 -6 10.5 -13.5t9.5 -12t5 -5.5t19.5 16.5t38.5 38.5q12 13 18 -1q5 -14 -5 -23q-12 -11 -25 -24.5t-16 -16.5l-16 -14l14 -22q43 -68 38 -74v-3t-2 -5.5t-8 -2.5q-11 0 -35 41q-28 47 -29 47t-7.5 -6t-20 -17.5t-25.5 -21.5
q-15 -13 -23.5 -19t-16 -10.5t-11.5 -3t-5 8.5q-2 8 7.5 18.5t45.5 39.5q39 31 39 36q-1 13 -46 61q-15 15 -17 23t4 11z" />
    <glyph glyph-name="y" unicode="y" horiz-adv-x="180" 
d="M145 286q45 67 53 69q16 3 15 -11q-1 -9 -12 -24q-3 -4 -10.5 -15.5t-8.5 -14.5q-2 -1 -7.5 -10.5t-13.5 -22.5t-13 -21q-6 -10 -14 -22.5t-13 -20t-7 -11.5q-17 -29 -33 -51q-28 -43 -104 -175.5t-97 -175.5q-21 -45 -48 -101q-27 -57 -35 -62q-26 -16 5 61
q61 145 250 463l24 38l-38 71q-66 100 -36 100q10 0 50 -65q9 -14 19.5 -33.5t16 -30.5t7 -11t8 10t19.5 30.5t23 35.5z" />
    <glyph glyph-name="z" unicode="z" horiz-adv-x="203" 
d="M120 344h12q59 -3 59 -31v-2q0 -26 -105 -104l-14 -11v-5q18 2 40.5 3.5t33.5 2.5t18 3q24 7 39 10q7 -2 12 -16q0 -15 -95 -26q-10 -1 -24 -2.5t-18.5 -2t-14 -1.5t-11.5 -1.5t-9.5 -1t-9 -0.5h-10h-12h-14.5q-11 1 -11 11q0 18 29 23q81 45 143 107l3 11v2q-15 5 -27 5
h-5q-38 0 -78 -23q-16 7 -16 19q2 22 85 30z" />
    <glyph glyph-name="braceleft" unicode="{" horiz-adv-x="343" 
d="M314 774q0 -4 -6 -6t-24.5 -4t-32.5 -5q-52 -10 -82.5 -30.5t-30.5 -45.5q0 -24 13 -37l2 -3l2 -3q29 -39 38.5 -58.5t9.5 -40.5v-8q-2 -17 -57 -54q22 3 24 2q21 -7 21 -22q0 -6 -11.5 -20.5t-33 -40t-33.5 -40.5q-31 -40 -48.5 -80t-18.5 -78q0 -40 28 -65t79 -30
q32 3 62 24q9 4 13.5 -0.5t4.5 -9.5q-30 -43 -82 -43q-73 10 -106.5 42t-28.5 88q8 108 138 242l-5 1h-23q-13 4 -17.5 7.5t-5.5 12.5l-1 8q1 7 4 9.5t21 12.5q27 16 35.5 26t6.5 21q4 4 -3 22q-8 11 -21.5 31.5t-20.5 31.5t-13 24.5t-6 23.5q0 79 154 113q28 0 40 -3
t15 -15z" />
    <glyph glyph-name="bar" unicode="|" horiz-adv-x="151" 
d="M138 729q14 10 20 10q10 0 22 -9.5t20 -22.5l2 -4q13 -23 13 -50q-2 -119 -105 -346l-20 -39l-3 -127q2 -108 -4 -124l-5 -11l-4 12q-5 12 -9.5 49t-4.5 68q0 3 1 33.5t0 33.5l-1 38l-26 -24q-26 -22 -34.5 -27t-14.5 -1q-7 7 0 17t35 37l36 41v37q0 37 5 94
q20 276 77 315zM175 688q-6 10 -13 12q-8 1 -19.5 -15.5t-19.5 -43.5q-13 -39 -25 -133t-12 -145l1 -28l12 27q40 87 65 178q11 42 14.5 88t-3.5 60z" />
    <glyph glyph-name="braceright" unicode="}" horiz-adv-x="348" 
d="M227 813q96 0 96 -49q0 -37 -116 -192l-4.5 -8t-7.5 -15.5t0 -11.5q0 -14 26 -19l22 -4q19 0 26 -15v-14q0 -6 -5 -10.5t-23 -15.5t-28 -17q-27 -21 -32 -44q0 -37 64 -136q9 -19 12 -41v-20q0 -31 -22 -49.5t-71 -26.5q-23 0 -33.5 4t-10.5 16v-1q0 4 11 6.5t33.5 6
t37.5 7.5q29 14 29 40v8q0 14 -71 140q-14 26 -8 55q6 24 29.5 47.5t39.5 29.5q-24 5 -42 21t-18 26v12q0 15 24 51t79 108q24 35 27 52v6q-1 5 -9.5 11.5t-17.5 7.5q-41 7 -103 -4h-6q-27 -6 -27 15q0 23 99 23z" />
    <glyph glyph-name="asciitilde" unicode="~" horiz-adv-x="264" 
d="M91 297q10 7 12.5 7.5t8.5 -2.5q10 -5 24 -40q6 -15 8 -18q1 -1 3 -5t3.5 -3.5t8 2t16.5 6.5l16 8q12 6 17 8t11 4t8.5 0t3.5 -7q3 -10 -15 -19q-33 -17 -34 -18q-22 -9 -26 -10q-20 -5 -27 3q-4 4 -11 23q-11 30 -13 32t-12 -6q-18 -13 -26 -21q-18 -17 -32 -3
q-4 4 14 23q19 19 42 36z" />
    <glyph glyph-name="exclamdown" unicode="&#xa1;" horiz-adv-x="184" 
d="M108 471q8 3 11 -3q2 -3 2 -15t-0.5 -31t-1.5 -36t-2.5 -38t-1.5 -30q0 -10 -3.5 -57t-6.5 -90.5l-3 -43.5q0 -12 -6 -17l-3 -3q-5 -5 -10 -4q-3 1 -6.5 8t-4.5 12q-1 7 1 7q1 1 3 16q0 3 7.5 135t8.5 142q1 6 1.5 14t1 13t1.5 8q6 11 12 13zM99 564q6 8 14 8t13 -8.5
t3 -20.5q-3 -20 -11.5 -20.5t-17.5 17.5q-7 15 -1 24z" />
    <glyph glyph-name="cent" unicode="&#xa2;" horiz-adv-x="113" 
d="M47 754q18 22 28 9q3 -5 1 -13q-12 -35 -9 -153q2 -151 3 -155q1 -21 2 -21q4 -1 55 5q53 5 74 11q13 3 17 1t2 -9q-3 -7 -8.5 -11.5t-20.5 -8.5q-40 -11 -78 -12l-40 -3l5 -75q17 -177 -4 -177q-13 0 -15 55q-1 27 -8 112l-4 81l-47 -4q-46 -3 -50 14q-2 12 42 16l51 4
l-7 160q-2 159 11 174z" />
    <glyph glyph-name="sterling" unicode="&#xa3;" horiz-adv-x="119" 
d="M125 863q6 15 14 15.5t9 -19.5q0 -4 -4 -32.5t-9.5 -77t-9.5 -90.5q-9 -88 -19 -168q-5 -38 -2 -38q1 0 3 2q2 1 3 1q22 9 38.5 12.5t24.5 2.5t8 -5q0 -12 -58 -33q-25 -9 -25 -11q0 -1 -2 -17t-6 -50t-7 -58q-14 -115 -14 -143.5t-8 -38.5q-5 -7 -7 -7.5t-7 6.5
q-15 17 10 211q12 86 9 88q-1 1 -11 -3.5t-31 -12.5t-41 -13q-2 -1 -6 -2q-47 -12 -50 -4q-2 6 3 11.5t19.5 11.5t27.5 10.5t36 11.5q51 16 60 23q0 1 1 5.5t2.5 16.5t3.5 27t5 43t6 58t8.5 78t11.5 98q9 79 14 91z" />
    <glyph glyph-name="section" unicode="&#xa7;" horiz-adv-x="164" 
d="M77 744q2 3 9.5 3t9.5 -17q2 -18 0 -111t-7 -183q-6 -106 -8.5 -160.5t-4.5 -79.5q0 -2 -0.5 -5.5t-0.5 -6t-0.5 -5.5t-0.5 -5v-3.5v-2.5v-1q1 0 46 24q61 32 68 31q5 -1 4 -12q0 -4 -2 -7.5t-7 -7t-9.5 -7t-12.5 -8t-13.5 -7.5t-15 -8t-14.5 -7q-37 -20 -42 -23t-6 -8
q0 -1 -23 -211q-23 -215 -28 -234q-6 -25 -13 -8q-8 22 20 287q9 91 12 122l4 36l-20 -8q-18 -3 -24 2q-11 10 24 30q2 2 7.5 5t7.5 4t5 3t4 3.5t1 3.5q0 1 6 96q6 100 10 205q4 98 6 149q5 126 8 132z" />
    <glyph glyph-name="dieresis" unicode="&#xa8;" horiz-adv-x="130" 
d="M100 376q5 2 11.5 2.5t12 1l5.5 0.5q3 1 10.5 -0.5t10.5 -3.5t5 -6t-0.5 -8t-11.5 -4q-51 -1 -69.5 -44.5t5.5 -104.5q12 -31 9 -41q-3 -8 -22.5 -15.5t-37.5 -10t-26 2.5q-8 8 -2.5 16.5t19.5 8.5q15 0 23 6q15 11 9 32q-14 44 -14 66q1 27 5 41.5t16 30.5q16 21 42 30z
" />
    <glyph glyph-name="copyright" unicode="&#xa9;" horiz-adv-x="431" 
d="M426 277q0 -52 -51 -99q-47 -44 -90 -44h-44q-83 0 -146 28q-91 39 -91 125t60 154q63 72 151 72q62 0 108 -39q28 -23 64 -91q39 -71 39 -106zM398 269q0 31 -24 81q-26 54 -62 90q-42 42 -83 42q-77 0 -137 -57q-63 -59 -63 -137q0 -67 83 -100q56 -22 113 -22h25
q46 0 91 24q57 31 57 79zM286 279q-6 -9 -29 -18q-27 -9 -63 -9q-27 0 -49 16q-23 18 -23 42q0 18 29 50t50 32q9 0 26.5 -7t21.5 -13v-14q-87 0 -87 -54q0 -15 28 -23q19 -7 33 -7q3 0 24.5 6.5t25.5 6.5t8 -4t5 -4z" />
    <glyph glyph-name="ordfeminine" unicode="&#xaa;" horiz-adv-x="137" 
d="M81 415.5q8 2.5 26 2.5t21.5 -6t2.5 -9q-1 -4 -8 -9.5t-10 -4.5q-5 2 -35 -4t-49 -7q-18 -2 -21 8q-3 7 5.5 11.5t30.5 9.5q29 6 37 8.5zM64 518q12 3 26.5 1.5t17.5 -6.5q2 -4 1 -12q-3 -25 -3 -30t1.5 -8t6.5 -1q6 3 10.5 -1t2.5 -9q-5 -12 -18.5 -15.5t-19.5 11.5
q-3 8 -4 9q-2 1 -13 -10q-18 -19 -37 -17q-9 1 -14 14q-6 16 9 42.5t34 31.5zM81 492q-5 7 -17 -2q-10 -7 -14 -22q-1 -9 4 -8q3 2 9 8l8 8q12 13 10 16z" />
    <glyph glyph-name="guillemotleft" unicode="&#xab;" horiz-adv-x="329" 
d="M247 370q11 4 14 4t7 -5t-4 -14q-4 -5 -35 -23q-11 -7 -18.5 -14t-10.5 -11.5t-3 -6.5q2 -10 14 -19q13 -10 25 -14q28 -9 31 -10q18 -10 20 -14q1 -4 0.5 -6t-2 -3.5t-1.5 -2.5q-1 -1 -8.5 -0.5t-20 3.5t-24.5 7q-37 12 -52 32t-4 43q5 10 28 28t44 26zM109 240
q-12 4 -16 7q-6 4 -8 5q-8 4 -17 16q-10 14 -12 23q-2 11 8.5 26.5t27 30t34 27t30 20t13.5 7.5q9 -2 11 -7q1 -7 -1 -13q-3 -6 -16 -16q-22 -16 -26 -18q-1 -1 -5 -4.5t-11 -9t-14 -9.5q-22 -17 -24 -25q-1 -5 3 -13.5t11 -12.5q15 -9 34 -16q23 -9 32 -15q17 -12 16 -19
q-1 -5 -8 -9q-5 -3 -12 0.5t-15 8.5t-18 10q-4 2 -17 6z" />
    <glyph glyph-name="logicalnot" unicode="&#xac;" horiz-adv-x="224" 
d="M306 919q22 11 24 -6q1 -10 -6 -14q-11 -6 -30 -43t-37 -89q-14 -39 -48 -127q-41 -103 -62 -179q-11 -40 -16 -51.5t-16 -57.5t-28 -102q-22 -74 -15 -74l8.5 3t25 8.5t31.5 9.5q20 5 32 7t17 4q12 3 29 7q31 8 31 5v-3q-1 -4 -1 -6q0 -9 -18 -17t-63 -20l-106 -30
l-10 -36q-10 -37 -14 -51q-24 -87 -31 -134q-8 -50 -9 -132q0 -60 1 -74t7 -26q12 -23 20 -26q2 -3 5 -3.5t6 0l6 1t5.5 2t3.5 1.5l4 4l6 3q8 6 11.5 5.5t3.5 -8.5q0 -19 -31 -30q-20 -6 -39 10t-29 49q-6 19 -7 34t0 76q3 83 12 141q11 68 39 158q9 29 7 30.5t-35 -6
t-43.5 -18.5t-19.5 -8t-16 11q-5 5 -4.5 7t5.5 8q15 15 82 30q34 7 38 11.5t16 48.5t19 63.5t19.5 70t36.5 124.5q28 86 85 232q27 68 36 97t18 45.5t12 26.5t12.5 21t19.5 17z" />
    <glyph glyph-name="registered" unicode="&#xae;" horiz-adv-x="395" 
d="M389 289q0 -47 -46 -91q-44 -40 -84 -40h-40q-76 0 -134 25q-84 37 -84 115q0 79 55 142q58 66 139 66q58 0 99 -36q26 -21 60 -84q35 -65 35 -97zM363 282q0 28 -22 74q-24 50 -57 83q-39 38 -76 38q-70 0 -126 -52q-58 -54 -58 -126q0 -61 77 -92q52 -20 103 -20h24
q41 0 83 22q52 28 52 73zM261 268q-6 -13 -13 -13q-27 0 -100 77q-4 -4 -4 -30q0 -18 14 -75q-6 -6 -11 -6q-29 0 -29 85q0 54 10 78q15 39 59 39q16 0 26.5 -11.5t10.5 -24.5q0 -15 -15.5 -35.5t-15.5 -19.5q0 -4 25 -25q32 -26 43 -39zM192 385l-15 4l-17 -12
q-10 -8 -10 -19v-12q13 5 26 17.5t16 21.5z" />
    <glyph glyph-name="degree" unicode="&#xb0;" horiz-adv-x="137" 
d="M57 435h-5q-17 -1 -25.5 12t-3.5 27q15 41 53 51q10 2 21.5 -2.5t17.5 -13.5q2 -2 4 -6t3 -5q4 -10 1 -19q-5 -12 -9 -17q-10 -12 -26 -19.5t-31 -7.5zM94 484q1 4 -1 7.5t-6 3.5q-5 1 -7 1q-10 1 -18 -5t-12 -16q-1 -5 3 -10t8 -3q14 4 20 7q5 2 10 8z" />
    <glyph glyph-name="uni00B2" unicode="&#xb2;" horiz-adv-x="499" 
d="M489 496q10 14 15 12q10 -3 7 -42.5t-22 -134.5q-17 -86 -23 -146t-6 -145q0 -98 7 -127q10 -45 27.5 -68.5t53.5 -41.5q40 -20 22 -24q-4 -1 -12 0q-18 1 -43.5 14.5t-38.5 28.5q-24 30 -34 70t-10 113q-1 101 7 178t29 180q10 49 9 50q0 1 -4 -7.5t-12 -29t-21 -52.5
t-32 -81q-18 -47 -29 -61t-28 -12q-10 1 -13 4t-8 19q-8 21 -10 55q-2 33 -4 73q-4 69 -14 69q-18 0 -61 -121q-23 -64 -37 -77q-19 -17 -28 12q-6 16 1 72q7 69 5 96.5t-16 42.5q-21 23 -61 4.5t-80 -70.5q-31 -39 -31 -12q0 11 17.5 35t38.5 42q20 18 46 30q17 9 25 10.5
t23 0.5q28 -3 40.5 -15t20.5 -44q11 -40 0 -111q-6 -43 -4 -45l2 4.5t5.5 13t6.5 18.5q20 58 48 106.5t40 48.5q10 0 23 -17q16 -21 21 -130q4 -75 8 -79t12 9q10 16 50 125q44 121 72 157z" />
    <glyph glyph-name="uni00B3" unicode="&#xb3;" horiz-adv-x="162" 
d="M654 846q102 28 108 18q5 -6 -5 -10q-8 -4 -56 -19q-105 -35 -207 -70q-47 -16 -102.5 -35t-84.5 -29l-58 -20t-42 -15.5t-17 -8.5q-5 -5 -49 -187.5t-55 -242.5q-10 -58 -16 -80.5t-16 -28.5q-5 -4 -7 0t-3 13q-3 18 3 49q25 133 38 176q1 1 3.5 13t5.5 28t5 25
q9 36 20 78q11 40 23 90t10 52q-5 5 -107 -42q-66 -30 -87 -36.5t-25 2.5q-2 7 13.5 18.5t50 28.5t91.5 40l73 30l10 42q9 41 14 53t11 11q8 -2 10 -18t-3 -39q-9 -35 -3 -37q2 -1 7 1q2 0 18 6.5t44.5 17t58.5 19.5q101 33 190 63q117 39 136 44z" />
    <glyph glyph-name="acute" unicode="&#xb4;" horiz-adv-x="217" 
d="M101 583q19 19 28.5 24.5t18.5 1.5q18 -9 -13 -36q-25 -22 -46 -49q-10 -13 -26 -25t-20 -8q-10 9 13 40q14 18 18 23t12.5 13.5t14.5 15.5z" />
    <glyph glyph-name="periodcentered" unicode="&#xb7;" horiz-adv-x="102" 
d="M40 158q8 11 21 -2q7 -8 6.5 -13.5t-10.5 -13.5t-14.5 -8.5t-8 6t-0.5 17t6 14.5z" />
    <glyph glyph-name="uni00B9" unicode="&#xb9;" horiz-adv-x="355" 
d="M394 697q15 11 16 -15q1 -30 -35 -232q-36 -203 -47 -245.5t-34 -63.5q-113 -102 -278 27q-74 58 -25 81q7 3 9 1.5t0 -10.5q-5 -17 25 -44.5t75 -46.5q13 -6 18 -8t11.5 -4t8 -2t10.5 -2t15 -3q15 -3 28 -2.5t21.5 2t18.5 6t14.5 7t13.5 8.5q32 20 45.5 70.5t51.5 288.5
q29 180 38 187z" />
    <glyph glyph-name="ordmasculine" unicode="&#xba;" horiz-adv-x="137" 
d="M57 435h-5q-17 -1 -25.5 12t-3.5 27q15 41 53 51q10 2 21.5 -2.5t17.5 -13.5q2 -2 4 -6t3 -5q4 -10 1 -19q-5 -12 -9 -17q-10 -12 -26 -19.5t-31 -7.5zM94 484q1 4 -1 7.5t-6 3.5q-5 1 -7 1q-10 1 -18 -5t-12 -16q-1 -5 3 -10t8 -3q14 4 20 7q5 2 10 8zM79.5 415.5
q7.5 2.5 26 2.5t22 -6t2.5 -9q-2 -4 -8.5 -9.5t-10.5 -4.5q-4 2 -34 -4t-49 -7q-11 -1 -15.5 1.5t-6.5 6.5q-2 7 6.5 11.5t30.5 9.5q29 6 36.5 8.5z" />
    <glyph glyph-name="guillemotright" unicode="&#xbb;" horiz-adv-x="350" 
d="M106 403q9 11 16 5q1 -1 7 -5.5t11.5 -8.5t14 -12t15.5 -17q23 -30 24 -40q2 -13 -20 -32q-17 -16 -46 -34t-40 -28q-8 -6 -13 -8q-8 -1 -11 3q-2 2 0 9q0 5 5 13q7 9 27 23q8 6 20.5 13.5t17.5 11.5q30 21 31 25q2 6 -21 32q-5 7 -15.5 15t-17.5 13.5t-7 7.5q-2 10 2 14
zM207 402q3 5 4.5 6.5t3.5 1.5t5.5 -2.5t7.5 -5.5t12 -8q2 -1 6 -3.5t8 -4.5t7 -4q16 -7 25 -20q9 -15 4 -26q-6 -16 -20.5 -33.5t-31 -31t-32 -24.5t-25.5 -17t-11 -6q-6 1 -9 9q-3 6 5 14q4 4 26 21q23 17 50 41q11 11 19 21.5t6 13.5q-2 5 -13 12l-11.5 7t-16.5 10
q-11 5 -17 15t-2 14z" />
    <glyph glyph-name="questiondown" unicode="&#xbf;" horiz-adv-x="257" 
d="M160 98q-16 -5 -40 -4q-46 2 -67.5 29.5t-11.5 72.5q14 59 68 172q22 48 32 76.5t10 42.5t-2 31q-3 22 6 29q5 5 12 -2t9 -20q0 -1 1.5 -11t1.5 -14.5t-0.5 -15.5t-4 -22.5t-8.5 -28.5t-14.5 -39.5t-22.5 -49.5q-63 -132 -64 -166q-1 -17 4 -28q12 -21 41.5 -26.5
t53.5 8.5q26 17 34 39t-1 56q-11 45 8 41q10 -3 18 -25.5t7 -44.5q-2 -39 -20 -65t-50 -35zM178 637q-15 -23 -25.5 -22.5t-9.5 24.5q1 10 8 16.5t18 5.5t13.5 -7.5t-4.5 -16.5z" />
    <glyph glyph-name="Agrave" unicode="&#xc0;" horiz-adv-x="181" 
d="M131 700q19 49 31 3q10 -36 12 -91q3 -59 4 -81q0 -3 -0.5 -14.5t-0.5 -34.5t-1 -47l-1 -85l14 3q20 3 24 1q10 -5 7 -17q-1 -7 -22 -11l-23 -4v-78q1 0 4 -70q0 -11 -1 -30q-1 -11 -2 -16q-1 -3 -7 -1q-18 6 -19 113l-2 75l-11 -2q-4 -1 -51 -15l-40 -12l-12 -34
q-11 -41 -20 -59.5t-20 -20.5q-7 -1 -9 13q-2 13 14 53q16 42 13 46q-7 6 5 20q33 39 93 316q12 55 21 80zM150 437q1 28 0 78.5t-2.5 88t-2.5 38.5l-7 -42q-2 -4 -5.5 -20.5t-8.5 -40t-10 -40.5q-17 -62 -22 -77l-18 -58q0 -2 -2 -7t-4 -10.5t-3.5 -11t-2.5 -9t0 -3.5
q5 0 46 12l40 10z" />
    <glyph glyph-name="Aacute" unicode="&#xc1;" horiz-adv-x="181" 
d="M130 701q19 50 31 3q10 -35 12 -90q3 -59 4 -81q0 -3 -0.5 -14.5t-0.5 -34.5t-1 -47l-1 -85l14 2q20 4 24 2q10 -6 7 -17q-1 -7 -22 -11l-23 -5v-77q1 0 4 -70q0 -12 -1 -31q-1 -11 -2 -15q-1 -3 -7 -1q-18 6 -19 112l-2 76l-11 -3q-4 0 -51 -15l-40 -11l-12 -35
q-11 -40 -20 -58.5t-20 -20.5q-8 -1 -9 13q-2 13 14 53q16 42 13 46q-7 6 5 20q33 39 93 316q12 55 21 79zM149 439q1 27 0 77.5t-2.5 88.5t-2.5 39l-7 -42q-2 -4 -5.5 -21t-8.5 -40.5t-10 -39.5q-17 -62 -22 -77q-18 -58 -18 -59t-2 -6.5t-4 -10.5t-3.5 -11t-2.5 -9.5
t0 -3.5q5 0 46 13l40 10z" />
    <glyph glyph-name="Acircumflex" unicode="&#xc2;" horiz-adv-x="181" 
d="M131 701q19 50 32 3q9 -35 12 -90q2 -59 3 -81q0 -3 -0.5 -14.5t-0.5 -34.5t-1 -47v-85l13 2q20 4 24 2q10 -6 7 -17q-1 -7 -22 -11l-23 -5v-77q1 0 4 -70q0 -12 -1 -31q0 -11 -2 -15q-1 -3 -7 -1q-18 6 -19 112l-2 76l-11 -3q-3 -1 -51 -15l-40 -11l-12 -35
q-11 -40 -20 -58.5t-20 -20.5q-7 -1 -9 13q-2 13 14 53q16 42 13 46q-7 6 5 20q33 39 93 316q12 55 21 79zM150 439q1 27 0 77.5t-2.5 88.5t-2.5 39l-7 -42q-1 -4 -5 -21t-9 -40.5t-10 -39.5q-17 -62 -22 -77q-18 -58 -18 -59t-2 -6.5t-3.5 -10.5t-3.5 -11t-3 -9.5t0 -3.5
q5 0 46 13l40 10z" />
    <glyph glyph-name="Atilde" unicode="&#xc3;" horiz-adv-x="181" 
d="M131 702q18 50 31 3q9 -36 12 -91q2 -58 3 -80v-15.5t-0.5 -34.5t-0.5 -46l-1 -85l13 2q20 3 25 1q9 -5 7 -16q-2 -7 -23 -11l-23 -5l1 -77l3 -71q1 -11 -1 -30q0 -11 -1 -16q-1 -3 -7 -1q-18 6 -19 113l-2 75l-11 -2q-4 -1 -52 -15l-39 -11l-12 -35q-12 -41 -21 -59
t-20 -20q-7 -2 -9 12q-2 13 14 53q17 42 13 46q-7 7 5 20q33 39 94 317q11 55 21 79zM149 439q1 28 0 78.5t-2.5 88t-2.5 38.5l-7 -42q-1 -4 -4.5 -20.5t-9 -40t-10.5 -39.5q-17 -63 -22 -78l-17 -58q-1 -1 -3 -6.5t-3.5 -11t-3.5 -11t-3 -9t0 -3.5q5 0 47 12l40 10z" />
    <glyph glyph-name="Adieresis" unicode="&#xc4;" horiz-adv-x="185" 
d="M128 378q5 1 5 1.5t11 -2.5q9 -4 12 -13t-3 -19q-5 -6 -7 -7t-8 2q-9 5 -33 -14q-27 -22 -40 -40q-8 -12 -17.5 -32t-10.5 -27q-2 -14 -3 -22q-1 -7 -1.5 -12t0.5 -6.5t2 -1.5q14 0 41 32q29 34 53 75q21 38 38 6q12 -22 12 -95q0 -107 -8 -162q-1 -6 -3 -17.5t-3 -17.5
q-2 -16 -3.5 -18.5t-5.5 -27t-7 -31t-9 -28.5q-11 -43 -42 -116q-4 -11 -8.5 -23.5t-14.5 -31.5q-9 -17 -15 -29q-32 -64 -67 -64q-7 0 -21.5 14.5t-19.5 27.5q-16 36 -2 101q7 32 14 27q4 -2 2.5 -5t-4.5 -34q-5 -63 6 -76q7 -9 7 -11.5t10 -6.5q18 -8 36 24q11 18 15 22
q6 6 34 75q32 81 36 94q16 53 21 78q10 49 13.5 70t4.5 30q0 1 0.5 3.5t1.5 9.5t1.5 13t1.5 16q1 16 0 87q0 28 -8 65q0 2 -20 -27q-31 -47 -67 -71q-22 -15 -41 3q-21 19 -3 75q15 45 56 89q8 9 31.5 27t29.5 21z" />
    <glyph glyph-name="Ccedilla" unicode="&#xc7;" horiz-adv-x="362" 
d="M284 658q22 11 46 9q15 -1 21.5 -3t12.5 -10q7 -8 8 -14.5t-1 -30.5q-4 -54 -29 -100t-46 -40q-19 7 4 34q16 19 22 30q13 26 18 58t-3 42q-26 31 -136 -79q-142 -142 -164 -297q-7 -41 1 -66.5t31 -41.5q10 -7 19.5 -8.5t38.5 -1.5q53 0 113.5 19t116.5 53q32 17 33 3
q0 -18 -60 -47q-67 -33 -136 -47q-38 -7 -38 -13t18 -37q22 -38 29 -68t-2 -42q-11 -12 -35.5 -16t-45.5 4q-15 5 -24 18q-7 13 -6.5 20t9.5 5.5t19 -11.5q11 -12 27 -13t28 8q7 5 7.5 9t-3.5 18q-5 20 -23.5 51t-20.5 44q-2 10 -4.5 12t-13.5 2q-50 0 -80 30
q-19 18 -25.5 36t-6.5 53q1 58 31.5 130.5t81.5 139.5q42 53 89.5 98.5t78.5 59.5z" />
    <glyph glyph-name="Egrave" unicode="&#xc8;" horiz-adv-x="278" 
d="M228 629q56 31 56 4q0 -8 -5.5 -13.5t-31.5 -18.5q-79 -43 -100 -68q-12 -13 -15 -32t4 -34q4 -9 7.5 -11.5t13.5 -2.5q15 0 51 17q60 27 60 6q0 -8 -56 -37q-99 -51 -161 -117q-26 -27 -32 -41.5t0 -37.5q7 -30 38 -47t79 -16q37 0 87 16q11 3 29 11t29.5 12.5t13.5 3.5
q12 -9 -0.5 -20.5t-38.5 -23.5q-49 -25 -113 -29q-33 -2 -54 2.5t-47 19.5q-70 42 -52 117q4 14 10.5 23.5t27.5 30.5q32 32 62 55t33.5 27t-7.5 15q-41 43 2 106q9 14 42.5 39t67.5 44z" />
    <glyph glyph-name="Eacute" unicode="&#xc9;" horiz-adv-x="281" 
d="M230 632q56 31 56 3q0 -8 -5.5 -13t-31.5 -19q-79 -43 -100 -67q-12 -14 -15 -33t4 -33q4 -10 7.5 -12t13.5 -2q15 0 51 16q60 28 60 6q0 -8 -56 -37q-99 -51 -161 -117q-26 -27 -32 -41t0 -38q7 -30 38 -46.5t79 -16.5q37 0 87 16q11 4 29 11.5t29.5 12.5t13.5 4
q12 -9 -0.5 -20.5t-38.5 -24.5q-49 -24 -113 -29q-33 -2 -54 2.5t-47 20.5q-70 41 -52 117q4 14 10.5 23.5t27.5 29.5q32 32 62 55.5t33.5 27t-7.5 14.5q-41 44 2 106q9 15 42.5 40t67.5 44z" />
    <glyph glyph-name="Ecircumflex" unicode="&#xca;" horiz-adv-x="275" 
d="M230 632q57 31 57 4q0 -8 -6 -13.5t-31 -18.5q-79 -43 -101 -67q-12 -14 -15 -33t4 -34q4 -9 8 -11.5t14 -2.5q15 0 51 17q59 27 59 6q0 -8 -56 -37q-98 -51 -161 -117q-26 -27 -31.5 -41.5t-0.5 -37.5q7 -30 38 -47t79 -16q38 0 88 16q11 3 29 11t29.5 12.5t12.5 3.5
q12 -9 -0.5 -20.5t-37.5 -23.5q-50 -25 -113 -29q-34 -2 -54.5 2.5t-46.5 19.5q-71 42 -52 117q3 14 10 23.5t27 30.5q32 32 62 55.5t34 27t-7 14.5q-41 43 1 106q10 14 43 39t67 44z" />
    <glyph glyph-name="Edieresis" unicode="&#xcb;" horiz-adv-x="286" 
d="M306 797q9 0 36.5 -3t42.5 -8q35 -13 56.5 -44t21.5 -68q1 -57 -61.5 -134.5t-162.5 -143.5q-24 -16 -60 -34t-47 -22t-16.5 -13.5t-10.5 -38.5q-6 -41 -6 -54t5 -19q12 -12 1 -27q-6 -8 -17 -6q-9 2 -16 20q-6 17 2 64v6q13 78 21 106t21 31q9 3 11.5 -3t-1.5 -20
q-4 -17 -2 -18q3 -4 44.5 20t92 60t73.5 60q56 61 81.5 110.5t9.5 90.5q-11 29 -41.5 44t-73.5 15q-34 0 -62.5 -7t-72.5 -31q-22 -12 -43 -27.5t-35 -28.5t-44 -41q-41 -38 -53.5 -68.5t-4.5 -66.5q7 -29 4.5 -29.5t-9.5 5.5q-22 17 -23 55.5t20 71.5q22 32 81.5 83.5
t97.5 70.5q57 29 95 36q25 6 45 6z" />
    <glyph glyph-name="Igrave" unicode="&#xcc;" horiz-adv-x="370" 
d="M164 633q3 3 82 -0.5t119 -7.5q13 -2 22.5 -3.5t18.5 -3l15 -2.5q47 -8 64.5 -17.5t15.5 -30.5q0 -8 -4 -12.5t-16 -12.5q-18 -13 -24 -13q-14 0 -5 16q2 4 7 9q16 17 -7 24q-12 4 -50 8q-18 3 -71 7q-86 8 -94 -1q-7 -7 -32.5 -154.5t-34.5 -235.5l-3 -25l38 3
q39 3 56 10q17 8 20.5 7.5t2.5 -10.5q-1 -6 -5.5 -10.5t-17.5 -10.5q-55 -27 -200 -15q-51 5 -72.5 15.5t-14.5 29.5q4 10 17 10t22.5 -7.5t64.5 -13.5l55 -5l2 12q1 10 10 66q14 94 21 155q10 77 20 131q9 48 9 52q-5 2 -37 1.5t-76 -2.5t-62 -5q-25 -4 -35.5 -0.5
t-10.5 16.5q0 12 5 13q14 5 117 9q66 2 68 4z" />
    <glyph glyph-name="Iacute" unicode="&#xcd;" horiz-adv-x="358" 
d="M78 181q38 6 54 6t50 -5q42 -6 86 -11q30 -4 30 -11q0 -24 -122 -8q-21 2 -39 2.5t-27.5 -0.5t-20.5 -3t-14 -2q-25 -3 -43.5 0.5t-25.5 12.5t1 17q6 7 16 1q12 -5 55 1zM4 638q4 5 10 5t35 -7q29 -6 84 -10t76 -1q25 3 33.5 0.5t40.5 -3.5q114 -4 130 -15
q10 -7 12 -19.5t-6 -24.5q-5 -8 -22 -18t-21 -6q-6 6 -4 12.5t8 11.5q7 5 6 12q0 5 -6 7t-27 3q-107 9 -114 0q-5 -5 -18 -74.5t-24 -148.5q-4 -32 -10.5 -68t-6.5 -47q1 -9 -6.5 -26.5t-14.5 -22.5t-13 -1.5t-7 13.5q0 12 11 63q8 41 20 114t14 100q2 22 10.5 56.5
t8.5 42.5q0 6 -62 8q-138 3 -141 34q0 5 4 10z" />
    <glyph glyph-name="Icircumflex" unicode="&#xce;" horiz-adv-x="358" 
d="M189 490q20 26 23 21q1 -2 2 -5q2 -13 -36 -95q-29 -62 -38 -93q-12 -40 -22.5 -82.5t-8.5 -44.5q3 -3 20.5 0t26.5 6q1 1 6.5 2.5t11.5 3.5t9 4q25 13 54 30q8 4 23.5 10.5t18.5 6.5q12 0 -4 -17q-4 -4 -10 -9q-54 -43 -120 -64q-2 0 -7 -1.5t-7 -2.5t-6 -2t-6 -2
l-5 -2.5t-4.5 -3l-3.5 -3.5t-3 -4q-10 -16 -20.5 -15.5t-15.5 16.5q0 1 -1 2q-2 9 -5.5 11.5t-16.5 6.5q-24 6 -36 14.5t-16 22.5q-4 12 0 23.5t15 16.5q15 8 45 8q9 0 -4 -13q-3 -4 -7 -7q-2 -1 -6 -3.5t-6.5 -4t-5 -5t-4.5 -6.5q-1 -2 4.5 -5t13.5 -6.5t17 -6.5t14.5 -3.5
t6.5 1.5q5 27 20 83q14 51 42.5 118.5t51.5 98.5zM97 604q23 3 114 3q146 1 212 -11t71 -40q2 -12 -4.5 -14.5t-20.5 6.5q-21 14 -61.5 19t-157.5 7q-100 1 -129.5 -0.5t-52.5 -8.5q-32 -9 -47 -18t-25 -4q-11 5 -8.5 13.5t17.5 17.5q41 23 92 30z" />
    <glyph glyph-name="Idieresis" unicode="&#xcf;" horiz-adv-x="358" 
d="M78 181q38 6 54 6t50 -5q42 -6 86 -11q30 -4 30 -11q0 -24 -122 -8q-21 2 -39 2.5t-27.5 -0.5t-20.5 -3t-14 -2q-25 -3 -43.5 0.5t-25.5 12.5t1 17q6 7 16 1q12 -5 55 1zM4 638q4 5 10 5t35 -7q29 -6 84 -10t76 -1q25 3 33.5 0.5t40.5 -3.5q114 -4 130 -15
q10 -7 12 -19.5t-6 -24.5q-5 -8 -22 -18t-21 -6q-6 6 -4 12.5t8 11.5q7 5 6 12q0 5 -6 7t-27 3q-107 9 -114 0q-5 -5 -18 -74.5t-24 -148.5q-4 -32 -10.5 -68t-6.5 -47q1 -9 -6.5 -26.5t-14.5 -22.5t-13 -1.5t-7 13.5q0 12 11 63q8 41 20 114t14 100q2 22 10.5 56.5
t8.5 42.5q0 6 -62 8q-138 3 -141 34q0 5 4 10z" />
    <glyph glyph-name="Eth" unicode="&#xd0;" horiz-adv-x="1000" 
 />
    <glyph glyph-name="Ntilde" unicode="&#xd1;" horiz-adv-x="311" 
d="M149 569q4 5 13 10q4 0 8 -2q6 -7 6 -12l-7 -23q-19 -56 -27 -103q-1 -9 -6.5 -35.5t-7.5 -36.5q-6 -43 -8 -49q-5 -19 -4 -21.5t11 -0.5q14 3 36.5 1.5t32.5 -7.5q11 -5 21 -14.5t10 -13.5t5 -8q6 -5 33 15q43 31 70 33q8 0 8 -5q2 -14 -3 -20.5t-23 -10.5
q-15 -4 -57 -36q-8 -6 -11 -11q-1 -5 -1 -19q0 -17 -6 -38.5t-13 -31.5q-7 -8 -23 -23q-19 -18 -33 -15.5t-18 25.5q-4 20 8.5 47.5t36.5 49.5q9 9 10 12t-3 10q-5 9 -5 12.5t-14.5 12t-41.5 6.5q-30 -3 -35 -8t-9 -39q-1 -10 -2 -10t-2 -7q-1 -8 -4 -29q-4 -21 -9.5 -48.5
t-7.5 -47t-4 -23t-6 -25.5q-5 -26 -8.5 -43.5t-5 -23t-2.5 -9.5l-2 -8q-2 -12 -3.5 -17.5t-3.5 -22.5q-1 -13 -5 -37.5t-5 -33.5t-3 -23t-3.5 -32t-2.5 -46q-3 -95 5 -102q6 -4 6 -7.5t-7.5 -7t-11.5 -1.5q-11 4 -15 24q-3 12 -2 91q0 42 4 70q0 3 0.5 7.5t0.5 8.5v5
q1 7 4 25q1 6 2.5 16.5l2.5 17.5q7 44 23 117q5 25 10.5 56.5t10.5 61.5q5 29 11 62q5 32 9 50.5t2 20.5t-14 -5t-24 -19q-7 -7 -14 -15q-2 -2 -7 -9q-1 -2 -1.5 -3.5t-1.5 -1.5q-1 -2 -5 -5q-1 -1 -2 -1.5t-2.5 -1.5t-8.5 -2q-1 0 -5 3t-4 6q-2 12 1 16q10 15 34 36.5
t39 29.5q21 10 23.5 15.5t10.5 49.5q2 11 3.5 22.5t2.5 17t2 9.5q3 15 5 24.5t3.5 15.5t3.5 17q1 4 3 14.5t5.5 25.5t9 36t7.5 29q4 12 7 16zM212 169q6 18 4 20q-2 1 -8 -6.5t-12.5 -19t-8.5 -19.5q-5 -14 -1 -14q13 0 26 39z" />
    <glyph glyph-name="Ograve" unicode="&#xd2;" horiz-adv-x="364" 
d="M389 590.5q43 -82.5 -30 -241t-162 -208.5q-50 -30 -85 -33q-39 -2 -71 47q-39 126 -12 249q35 152 90 192.5t141 58.5t129 -64.5zM62 184q11 -36 44.5 -40t71.5 21q41 25 84.5 79t76.5 134q54 127 21 205q-13 32 -48 38t-87 -9q-111 -28 -149 -157q-15 -53 -22 -89
t-6.5 -85.5t14.5 -96.5z" />
    <glyph glyph-name="Oacute" unicode="&#xd3;" horiz-adv-x="364" 
d="M388 592.5q43 -82.5 -30 -241t-162 -208.5q-50 -30 -85 -33q-39 -2 -71 47q-39 126 -12 249q35 152 90 192.5t141 58.5t129 -64.5zM61 186q11 -36 44.5 -40t71.5 21q41 25 84.5 79t76.5 134q54 127 21 205q-13 32 -48 38t-87 -9q-111 -28 -149 -157q-15 -53 -22 -89
t-6.5 -85.5t14.5 -96.5z" />
    <glyph glyph-name="Ocircumflex" unicode="&#xd4;" horiz-adv-x="364" 
d="M389 591.5q43 -82.5 -30 -241t-162 -208.5q-50 -30 -85 -33q-39 -2 -71 47q-39 126 -12 249q35 152 90 192.5t141 58.5t129 -64.5zM62 185q11 -35 44.5 -39.5t71.5 20.5q41 25 84.5 79t76.5 134q54 127 21 206q-13 31 -48 37.5t-87 -8.5q-111 -29 -149 -158
q-15 -53 -22 -89t-6.5 -85.5t14.5 -96.5z" />
    <glyph glyph-name="Otilde" unicode="&#xd5;" horiz-adv-x="364" 
d="M389 591.5q43 -82.5 -30 -241t-162 -207.5q-50 -31 -85 -33q-39 -3 -71 46q-39 126 -12 249q35 152 90 192.5t141 58.5t129 -64.5zM62 185q11 -35 44.5 -39.5t71.5 20.5q41 26 84.5 79.5t76.5 133.5q54 127 21 206q-13 32 -48 38t-87 -9q-111 -29 -149 -158
q-15 -52 -22 -88.5t-6.5 -86t14.5 -96.5z" />
    <glyph glyph-name="Odieresis" unicode="&#xd6;" horiz-adv-x="837" 
d="M129 366q9 4 17 -1q6 -5 6 -10t-6 -20.5t-8 -17.5q-3 -2 -11 -15t-10 -32q-1 -14 -0.5 -17.5t6.5 -9.5q15 -15 62 -19q60 -4 185.5 -4t161.5 3q35 4 110 5q161 1 161 13q0 2 5 2q4 0 15.5 -12t11.5 -16q0 -2 -7 -10.5t-18 -7.5t-13.5 4t-48.5 2q-82 -2 -146 -1
q-47 0 -55 -1q-51 -7 -98.5 -8t-201.5 2q-85 1 -97.5 5.5t-19.5 4.5q-5 0 -16.5 7.5t-17.5 14.5q-3 4 -6.5 21.5t-2.5 22.5q1 3 5.5 19.5t9.5 23.5t8 14q3 4 2.5 4.5t-5.5 -1.5q-28 -15 -46 -52q-13 -27 -16 -49q0 -3 -2 -7t-3 -10t-4.5 -14.5t-5.5 -19.5q-1 -10 -4.5 -13.5
t-11.5 -5.5t-11 5q-5 13 16 80q4 12 8 27q5 23 5 24q2 11 0 11t-12 -9q-5 -4 -10 -6q-3 -1 -8 2q-2 2 -2 8q0 8 18 25q32 28 43 22q6 -4 7 -11l1 -7l11 9q12 10 27 16q15 7 22 10z" />
    <glyph glyph-name="Ugrave" unicode="&#xd9;" 
d="M347 635q15 15 23 -1q8 -15 -5 -90.5t-35 -138.5q-24 -67 -58.5 -120.5t-76.5 -79.5q-3 -1 -9.5 -5t-8.5 -5.5t-8.5 -4.5t-9 -3t-10 -1.5t-12.5 -0.5q-23 3 -48 30q-29 32 -44.5 109t-10.5 157t29 119q8 13 20 13q21 0 4 -36q-24 -51 -24 -125q1 -87 14 -140.5t42 -84.5
q10 -11 19.5 -13t24.5 3q21 7 63 48q6 7 13.5 17.5t12 19t10.5 19.5t8 13q16 27 36.5 95.5t27.5 117.5q7 54 8 60q1 24 5 28z" />
    <glyph glyph-name="Uacute" unicode="&#xda;" 
d="M347 637q15 15 23 -1q8 -15 -5 -90.5t-35 -138.5q-24 -67 -58.5 -120.5t-76.5 -79.5q-3 -1 -9.5 -5t-8.5 -5.5t-8.5 -4.5t-9 -3t-10 -1.5t-12.5 -0.5q-23 3 -48 30q-29 32 -44.5 109t-10.5 157t29 119q8 13 20 13q21 0 4 -36q-24 -51 -24 -125q1 -87 14 -140t42 -85
q10 -11 19.5 -13t24.5 3q21 7 63 48q6 7 13.5 17.5t12 19t10.5 19.5t8 13q16 27 36.5 95.5t27.5 117.5q7 54 8 60q1 24 5 28z" />
    <glyph glyph-name="Ucircumflex" unicode="&#xdb;" 
d="M347 635q15 15 23 -1q8 -15 -5 -90.5t-35 -138.5q-24 -67 -58.5 -120.5t-76.5 -79.5q-3 -1 -9.5 -5t-8.5 -5.5t-8.5 -4.5t-9 -3t-10 -1.5t-12.5 -0.5q-23 3 -48 30q-29 32 -44.5 109t-10.5 157t29 119q8 13 20 13q21 0 4 -36q-24 -51 -24 -125q1 -87 14 -140.5t42 -84.5
q10 -11 19.5 -13t24.5 3q21 7 63 48q6 7 13.5 17.5t12 19t10.5 19.5t8 12q16 28 36.5 96.5t27.5 117.5q7 54 8 60q1 24 5 28z" />
    <glyph glyph-name="Udieresis" unicode="&#xdc;" horiz-adv-x="161" 
d="M77 416q2 3 9 2t10 -6t3 -18q0 -9 1 -11t7 -3q8 -2 22 -14q13 -11 11 -17q-2 -9 -7 -13q-13 -10 -15 -12q-6 -6 -6.5 -9.5t1.5 -18.5q4 -24 18 -52q10 -19 28 -21q17 -1 17 -18q0 -9 -6.5 -11t-30.5 7q-20 7 -25 16q-18 29 -23 55q-8 39 -11 35q-2 -4 -12 -33
q-20 -58 -30 -79q-8 -17 -24 -56q-5 -12 -12 -15.5t-13 2.5q-4 4 -4 6.5t6 12.5q7 14 11 28.5t7 20.5q8 14 18 44q6 18 10 27q10 23 20 53q11 31 10 35l-8 1q-12 10 6 21q11 7 11 28q-1 10 1 13zM102.5 349.5q1.5 5.5 -2.5 5.5t-7 -5t-3 -11q0 -3 1 -3t4 3q6 5 7.5 10.5z
" />
    <glyph glyph-name="Yacute" unicode="&#xdd;" horiz-adv-x="307" 
d="M194 384q14 7 24 0.5t10 -22.5q0 -11 -15 -31t-15 -24q0 -8 15 -35t22 -34q4 -6 9 -5t20 14q13 11 31.5 18.5t26.5 6.5q5 -1 6 -3t3 -10q0 -4 -1.5 -8t-3.5 -5q-34 -8 -55 -24q-13 -11 -13.5 -15.5t9.5 -26.5q12 -28 10 -46t-19 -31q-10 -8 -26 -8q-33 0 -44 24
q-19 40 18 79q9 9 10 15t-6 15.5t-19 33.5l-13 23l-47 -47q-33 -34 -41.5 -44.5t-18.5 -30.5q-18 -37 -41 -54q-25 -19 -31 10q-2 10 4 20.5t24 29.5q20 23 24 31q8 16 -9 72q-17 51 -12 70q4 12 14 16t39 4q30 0 41 -5q18 -9 4 -17q-7 -3 -33 -1q-27 1 -32.5 -2t-4.5 -20
t11 -46t10 -37t2.5 -9.5t45.5 40.5l42 42l2 26q2 42 23 51zM247 168q-11 26 -25 8q-24 -31 -8 -51q6 -7 16 -7q16 0 21 14.5t-4 35.5z" />
    <glyph glyph-name="agrave" unicode="&#xe0;" horiz-adv-x="199" 
d="M87 364q40 16 50 -32q4 -17 11 -17q15 0 26 -81q2 -14 5 -21.5t6 -8t7 -0.5q4 2 12 7q10 7 11 8q5 2 8 0t3 -7q0 -10 -15 -25q-12 -12 -27 -12q-13 0 -26 22q-6 10 -10 37q-5 38 -10 38q-1 0 -5.5 -7t-12.5 -19t-15 -21q-18 -21 -45.5 -38.5t-42.5 -17.5q-26 0 -14 58
q10 45 35.5 86t48.5 51zM110 333q-4 4 -11 4t-15 -9t-24 -32q-12 -18 -20 -41.5t-8 -31.5q-1 -18 4 -19q4 0 26 20q22 19 37 39q34 47 11 70z" />
    <glyph glyph-name="aacute" unicode="&#xe1;" horiz-adv-x="178" 
d="M61 352q14 9 23 7q6 -2 16 -10q1 0 11 -10l2 -2l2.5 -2.5t2.5 -3.5q4 -5 10.5 -2.5t12.5 -2.5q5 -4 8 -25q1 -7 2 -20t2 -18q0 -4 1.5 -12.5t1.5 -9.5q0 -4 3 -19q3 -18 6 -18q5 0 13 9q4 4 10 6q6 1 9 -5q4 -6 3 -8q-1 -7 -9 -13q-3 -2 -6.5 -6l-3.5 -4q-4 -3 -7 -4
q-5 -2 -13 -3q-7 -1 -14 4q-6 4 -9 16q-9 34 -11 63q-1 12 -4 18q0 1 -4 -3t-10 -12q-7 -7 -27 -29q-3 -4 -13 -12q-9 -8 -13 -11.5t-11.5 -6.5t-18.5 -4q-7 -1 -16 6q-7 5 -7 14q-1 3 -1 7.5t-1 8.5q-1 22 20 63.5t40 53.5zM95 327q-3 2 -8 2q-17 1 -30 -23
q-11 -19 -26 -57q-1 -4 -2 -10q-1 -4 2 -7q2 -2 10 2q10 5 13 9q2 1 5.5 4t5.5 5q1 1 4.5 4t4.5 5q2 2 5 4.5t5 4.5l3 3q12 15 14 17q14 20 14 23q0 1 -10 8q-2 2 -6 4z" />
    <glyph glyph-name="acircumflex" unicode="&#xe2;" horiz-adv-x="190" 
d="M116 364q18 7 32 1q13 -5 15 -14q3 -11 0 -37t-8 -39q-6 -14 -6 -33t5 -29t18.5 -8t27.5 14q13 12 24 3q3 -5 3 -6t-6 -11q-7 -12 -23.5 -20.5t-34.5 -6.5q-17 1 -24.5 8.5t-12.5 28.5q-1 1 -1.5 7t-0.5 12v10l-29 -26q-29 -26 -50.5 -32t-31.5 8q-7 11 -5 36t12 45
q13 27 41.5 53.5t54.5 35.5zM137 320q2 3 2 16q-2 1 -7 2l-5 1q-12 0 -36.5 -20.5t-37.5 -41.5q-23 -39 -16 -59q4 -9 43 23q2 2 5 3q16 14 16 27q1 13 12 24q20 17 24 25z" />
    <glyph glyph-name="atilde" unicode="&#xe3;" horiz-adv-x="191" 
d="M207 227q10 2 13 -4q1 -2 1 -6.5v-4.5q-6 -9 -19 -20q-10 -9 -27 -16q-19 -8 -28 -4q-7 3 -12 9q-3 4 -8 38q-2 10 -2.5 27t0.5 20q-3 -3 -12.5 -14.5t-10.5 -11.5q-18 -19 -29 -27q-30 -22 -43 -26q-14 -4 -22 6t-8 23q-1 22 14 54q1 3 4.5 9t4.5 8q6 11 14 22
q5 8 8.5 13t4.5 7l1 2q5 6 7 8q2 1 12 12q9 8 18 13q16 8 34 -1q23 -12 25 -51q4 -89 6 -102q2 -7 9.5 -7t14.5 5q4 2 8.5 5l7.5 5q10 8 14 9zM122 335q-8 7 -15 6q-14 -2 -32 -26q-10 -13 -12.5 -17.5t-3.5 -5.5l-2.5 -4.5t-5.5 -9.5t-5 -8q-19 -31 -17 -47q2 -13 48 31
q29 28 44 52q7 12 9 13q6 4 -3 12q-3 2 -5 4z" />
    <glyph glyph-name="adieresis" unicode="&#xe4;" horiz-adv-x="184" 
d="M108 334q7 2 13 2q8 1 18 -6q4 -2 10 -7l2 -3t5 -4q14 -4 16.5 -12t-2.5 -41q-2 -14 -3 -24t-1 -16t1 -9t2 -3q6 0 10 4q4 5 12.5 4.5t12.5 -4.5q6 -8 -9 -21q-16 -12 -26 -13.5t-19 7.5q-14 13 -10 51l2 17l-36 -38q-47 -47 -79 -52q-14 -2 -21 10q-13 22 3 61
q5 11 9 18q3 6 8 13l11 15q8 10 16 17q22 23 55 34zM140 300q-31 20 -73 -27q-38 -43 -38 -68q0 -2 2 -4.5t4 -1.5q8 3 9 4q7 4 8 5l8 6q13 4 72 69q12 14 8 17z" />
    <glyph glyph-name="ccedilla" unicode="&#xe7;" horiz-adv-x="131" 
d="M68 354q20 16 32.5 14.5t13.5 -10.5q1 -8 -6.5 -19.5t-16.5 -17.5t-13 0q-2 3 -10 -4.5t-17 -19.5t-14 -23q-8 -16 -8 -36q0 -13 3 -19t14 -17q11 -12 16 -14t17 0q17 2 41 19q37 26 32 5q0 -2 -1 -5q-4 -10 -22 -23t-35 -18q-16 -4 -16 -6.5t10 -15.5q44 -58 6 -77
q-22 -12 -46 0q-27 14 -27 27q0 8 7 9.5t14 -6.5q15 -15 35 -11q18 3 -8 47q-15 26 -37 46q-17 15 -24 28t-7 31q0 26 19.5 60t47.5 56z" />
    <glyph glyph-name="egrave" unicode="&#xe8;" horiz-adv-x="151" 
d="M69 332q22 11 35 11.5t26.5 -9t13 -27t-14.5 -33.5q-14 -17 -54 -41q-8 -4 -16.5 -8t-12.5 -5.5t-8.5 -3.5t-4.5 -4t1 -7q3 -9 7 -14.5t10.5 -7t11.5 -2t14 3t14.5 5.5t16.5 7.5t17 7.5l17 8.5t15.5 7t5.5 0.5q0 -6 1.5 -10.5t-3.5 -10t-8 -9t-11.5 -8t-14 -7.5t-16.5 -8
q-42 -20 -73.5 -8t-36.5 54q-2 26 11 56q11 27 21.5 38t35.5 24zM115 304q1 19 -28 7q-24 -9 -36 -27q-14 -22 -17 -30q-3 -10 -1 -11t12 4q21 11 45 29.5t25 27.5z" />
    <glyph glyph-name="eacute" unicode="&#xe9;" horiz-adv-x="136" 
d="M82 349q14 7 21 7.5t17 -6.5q25 -15 -45 -85q-39 -39 -42 -45.5t-6 -24.5q-1 -11 0 -24q0 -3 5 -3t53 18q16 6 36.5 20t21.5 15q9 3 15 -8q1 -2 0 -7t-2 -5v-0.5t-1.5 -2l-3.5 -3.5q-4 -3 -7 -4q-12 -8 -14 -9q-3 -2 -5.5 -3t-3.5 -2t-5 -3t-5 -2q-3 -4 -11 -7l-6 -3
t-5 -2q-10 -4 -11 -4h-1q-1 -1 -2.5 -1t-4 -1t-5.5 -2q-13 -5 -15 -5l-10 -3q-7 -3 -20 0q-11 3 -16 10q-10 15 -2 58q9 54 38 99q15 24 42 38zM72 300q16 19 14 19q-1 0 -9 -7t-10 -10q-17 -21 -15 -23q1 -1 8.5 7.5t11.5 13.5z" />
    <glyph glyph-name="ecircumflex" unicode="&#xea;" horiz-adv-x="148" 
d="M61 323q10 4 13.5 3.5t8.5 -5.5q4 -5 4 -9q1 -15 0 -20q-3 -16 -14 -41q-2 -4 -15 -22q-5 -7 -12 -13q-9 -9 -8 -17q4 -21 11 -23q6 -2 37 13q2 1 43 23q22 13 37 24q8 6 15 11.5t12 9.5q2 2 3.5 3t2.5 3q6 4 9.5 6.5l3.5 2.5l5 0.5t8 -2t0 -9.5q-5 -12 -20 -25t-44 -32
t-30 -20q-13 -10 -52 -29q-12 -5 -28 -6t-20 4q-4 4 -12 13t-8 18q0 8 -2 9t-11 -3q-7 -4 -11 -3q-4 2 -6 9q-1 5 3 7q2 2 4.5 4t2.5 3q3 2 7.5 6.5l5.5 5.5q6 5 10 22q4 15 12.5 35.5t12.5 24.5t8 10t14 9zM56 273q10 17 8.5 18t-5 -3.5t-7.5 -11.5q-6 -11 -7 -16t1 -4
q1 1 10 17z" />
    <glyph glyph-name="edieresis" unicode="&#xeb;" horiz-adv-x="436" 
d="M99 339q15 8 21.5 9t12.5 -4q6 -4 6 -18q0 -7 -6 -21q-5 -12 -5 -13t-3.5 -7.5t-6.5 -12.5q-8 -16 -13 -21q-15 -14 -25 -22q-22 -16 -35 -21t-16 -9t-3 -18q0 -25 15.5 -34.5t55.5 -9.5q53 0 116 14q28 6 37.5 7.5t34 7.5t61.5 13q54 10 57 18q1 2 5 2t9.5 -2.5
t8.5 -5.5q11 -10 10.5 -19t-12 -14t-28.5 -2q-16 3 -25 0.5t-54 -10.5t-56 -11t-17 -4.5t-48 -10.5q-16 -3 -37.5 -6.5t-23.5 -4.5q-8 -1 -29 -2q-6 -1 -26 1q-47 3 -65.5 23t-15.5 64q2 22 15 49q22 47 49 69q11 9 14 13t22 13zM107 309l2 6q-3 -1 -23 -18t-22 -22
q-2 -3 -5.5 -7t-3.5 -5l-6 -9q-7 -12 -2 -13q3 -1 8 3t11 11l1 0.5t3.5 3l7.5 7.5q22 23 29 43z" />
    <glyph glyph-name="igrave" unicode="&#xec;" horiz-adv-x="127" 
d="M75 303q16 23 28 20q6 -2 6 -10q0 -10 -14 -42q-30 -70 -13 -76q3 -1 16.5 4t25.5 14q33 24 35 12q2 -18 -26.5 -37.5t-53.5 -19.5q-18 0 -25 19q-5 13 -3 25q1 9 -1 9l-23 -21q-2 -2 -4 -3q-12 -11 -21.5 -14.5t-14.5 -1t-6 9.5q-1 5 17 20l4 4q32 29 73 88zM100 464
q3 10 15.5 10.5t24.5 -8.5q13 -10 9 -19t-23 -9q-17 0 -24 6.5t-2 19.5z" />
    <glyph glyph-name="iacute" unicode="&#xed;" horiz-adv-x="74" 
d="M39 344q11 7 14 -9q5 -25 -12 -103q-3 -16 -5 -27q-3 -20 -17 -20q-6 0 -10.5 10t-3.5 20q2 11 2 16.5t3 5.5q4 0 10 57q2 12 8.5 29.5t10.5 20.5zM52 537q11 2 23 -2.5t10 -10.5q-2 -4 1 -8q9 -15 -6 -15q-10 0 -12 -5t-6 -4.5t-7 7.5q-17 36 -3 38z" />
    <glyph glyph-name="icircumflex" unicode="&#xee;" horiz-adv-x="74" 
d="M39 344q11 7 14 -9q5 -25 -12 -103q-3 -16 -5 -27q-3 -20 -17 -20q-6 0 -10.5 10t-3.5 20q2 11 2 16.5t3 5.5q4 0 10 57q2 12 8.5 29.5t10.5 20.5zM52 537q11 2 23 -2.5t10 -10.5q-2 -4 1 -8q9 -15 -6 -15q-10 0 -12 -5t-6 -4.5t-7 7.5q-17 36 -3 38z" />
    <glyph glyph-name="idieresis" unicode="&#xef;" horiz-adv-x="127" 
d="M75 303q16 23 28 20q6 -2 6 -10q0 -10 -14 -42q-30 -70 -13 -76q3 -1 16.5 4t25.5 14q33 24 35 12q2 -18 -26.5 -37.5t-53.5 -19.5q-18 0 -25 19q-5 13 -3 25q1 9 -1 9l-23 -21q-2 -2 -4 -3q-12 -11 -21.5 -14.5t-14.5 -1t-6 9.5q-1 5 17 20l4 4q32 29 73 88zM100 464
q3 10 15.5 10.5t24.5 -8.5q13 -10 9 -19t-23 -9q-17 0 -24 6.5t-2 19.5z" />
    <glyph glyph-name="ntilde" unicode="&#xf1;" horiz-adv-x="275" 
d="M350 680q6 12 10 14.5t16 3.5q17 1 18 -4.5t-14 -19.5q-10 -8 -23 -36.5t-15 -36.5q0 -3 -7 -20q0 -1 -2 -4t-4 -8l-4 -10q-7 -23 -9.5 -27t-9.5 -32t-18 -58q-3 -7 -5.5 -15t-3.5 -12.5t-2 -5.5q0 -1 -1.5 -5t-3.5 -10t-3 -10q-12 -34 -17 -56q-9 -33 -41 -112
q-23 -56 -29.5 -67.5t-14.5 -11.5q-7 -1 -9.5 0.5t-6.5 7.5q-5 8 -5.5 19.5t2.5 62.5q4 70 9 130q7 80 4 80q-1 -1 -17 -44q-19 -54 -42 -103q-1 -3 -6 -15q-4 -10 -7 -15q-7 -12 -17.5 -37.5t-32.5 -66.5t-23 -56q-2 -14 -12.5 -27t-19.5 -13q-4 1 -11 12q-5 7 -2 15.5
t25 46.5q30 53 46 86q52 111 105 264q17 48 24 64t12 18q8 3 16.5 -3t9.5 -15q0 -8 -6.5 -40.5t-5 -34t-1.5 -17t-3.5 -29t-4.5 -43.5q-6 -42 -10 -105t-1 -63q5 1 33.5 79t53.5 159q51 163 86 226z" />
    <glyph glyph-name="ograve" unicode="&#xf2;" horiz-adv-x="211" 
d="M50 385q4 4 5.5 3.5t6.5 -6.5q7 -8 6 -13q-1 -3 2 -3t9 1q9 1 21 -4q8 -3 11 -9q1 -2 5 -6q8 -9 16 -33q2 -7 16 -4.5t28 12.5q14 11 30 22q19 13 21 8t-3.5 -16.5t-12.5 -19.5q-9 -9 -30 -20.5t-31 -14.5q-7 -1 -8.5 -3.5t-1.5 -16.5q1 -26 -9.5 -55t-26.5 -45
q-24 -24 -50 -24q-17 0 -26 5q-9 6 -20 22q-9 15 -7 47q2 48 8 61q3 7 12 35q19 65 29 77zM103 328q-9 14 -22.5 16t-19.5 -10q-4 -9 -4 -10q0 -4 22 -14q14 -7 19 -7q12 -2 12 4q0 8 -7 21zM54 295q-9 5 -12 -6q-2 -4 -2 -5q-13 -43 -13 -77q0 -21 9 -33q7 -11 16 -11
q11 0 30 17.5t24 33.5q1 3 3 8t2 6q1 4 4 21q4 20 1 25q-2 2 -15 2q-9 0 -29 8q-2 1 -18 11z" />
    <glyph glyph-name="oacute" unicode="&#xf3;" horiz-adv-x="104" 
d="M45 332q17 8 32.5 -0.5t15.5 -14.5q0 -4 5.5 -14.5t4.5 -38.5t-2.5 -32t-5.5 -20q-5 -22 -21 -34.5t-35 -8.5q-11 3 -12 6t-5 7t-4 7l-2 7t-2 13q-2 28 -2 29q1 9 2 17.5t1.5 12.5l0.5 4l-2.5 -3t-6 -7t-5.5 -6q-7 -7 -12 -3q-11 10 1 29q7 12 26 30q17 16 28 20zM72 303
q-5 8 -9 7q-13 -4 -15 -11q-1 -1 0 -2.5t1 -3.5q0 -9 -2 -10t-7 -22q-5 -18 -4 -29q0 -36 16 -34q5 1 10 6q13 15 16 57q1 31 -6 42z" />
    <glyph glyph-name="ocircumflex" unicode="&#xf4;" horiz-adv-x="102" 
d="M41 328q20 11 47 -7.5t27 -43.5q0 -29 -24 -60.5t-45 -31.5q-16 0 -31 19.5t-15 39.5q0 19 14 48t27 36zM78 291q-9 10 -21 10q-5 0 -14.5 -16.5t-12.5 -28.5q-3 -13 3 -26.5t15 -13.5q8 0 21 15t17 30q3 11 1.5 17t-9.5 13z" />
    <glyph glyph-name="otilde" unicode="&#xf5;" horiz-adv-x="117" 
d="M48 324q35 9 43 -34l1 -11l25 -2q25 -2 65 -0.5t46 -4t6 -9.5t6 -8l7 -5l-7 -6q-14 -12 -35 -2q-9 6 -63 8t-59 -2q-4 -3 -8 -18q-3 -13 -15.5 -27.5t-21.5 -16.5q-8 -2 -15.5 6t-12.5 24q-13 37 -5 72q5 20 10 26.5t14 6.5q11 1 19 3zM68 295q-2 7 -17 4q-16 -3 -9 -12
q5 -6 17 -8q8 -1 10 2t-1 14zM45.5 258.5q-12.5 3.5 -14.5 2.5t0 -8q1 -9 1 -15t3 -10.5t9 1.5q4 3 9 12t5 12q0 2 -12.5 5.5z" />
    <glyph glyph-name="odieresis" unicode="&#xf6;" horiz-adv-x="135" 
d="M18 341.5q5 2.5 14 2.5q9 1 6 -13l-6 -23q-5 -18 -2 -42q5 -33 15.5 -45.5t24.5 -1.5q6 4 12 19.5t5 22.5q-1 5 -4 6.5t-15 1.5q-18 1 -22 4q-4 4 -3.5 19.5t5 24.5t15 15.5t21.5 6.5q7 0 12 -4t17 -19l6 -9l16 7q26 11 31 -1q3 -7 -3 -13t-22 -10q-13 -4 -18 -10
q-3 -4 -9 -30q-12 -55 -41 -67.5t-54 26.5q-19 30 -20 70q0 28 7 44t12 18.5zM89 300q-1 8 -7 9.5t-8 -6.5q-3 -11 9 -11q7 0 6 8z" />
    <glyph glyph-name="divide" unicode="&#xf7;" horiz-adv-x="195" 
d="M88 355q8 12 22 -3q9 -8 8 -14.5t-12 -14.5t-15.5 -8.5t-8.5 6t-0.5 18t6.5 16.5zM82 223q8 12 22 -2q9 -9 8 -15.5t-12 -14.5t-15.5 -8.5t-8.5 6t-0.5 18t6.5 16.5zM59 278q18 7 56.5 6.5t51.5 -7.5q10 -5 8 -15q-1 -5 -8.5 -6t-35.5 0q-42 2 -68 -6q-23 -6 -32 -4.5
t-9 12.5q0 13 10.5 13.5t26.5 6.5z" />
    <glyph glyph-name="ugrave" unicode="&#xf9;" horiz-adv-x="161" 
d="M20 325q9 9 18 -1q6 -6 2 -11.5t-8 -21.5q-4 -14 -1 -39q3 -23 8.5 -33t7.5 -10l4 -2q2 -2 6 -3q10 -3 24 8q11 9 25 35q21 40 18 58q-1 4 4 12q6 10 19.5 5t12.5 -18q-1 -7 -5.5 -7.5t-14.5 -34.5q-23 -74 -71 -83q-43 -8 -57 34q-14 40 -9 69q4 28 17 43z" />
    <glyph glyph-name="uacute" unicode="&#xfa;" horiz-adv-x="161" 
d="M127 338q7 4 12 -1t-2 -28q-12 -40 -12 -91q0 -22 6 -22q2 0 5.5 2t7 4.5t9.5 7t9 6.5q18 13 19 12q1 0 2.5 -0.5t3 -2t1.5 -3.5q1 -10 -3 -15q-4 -6 -23.5 -20.5t-25.5 -17.5q-12 -6 -21 0q-17 12 -15 57q1 22 -3 22q-4 1 -18 -17l-4 -6q-9 -12 -18 -19q-19 -15 -36 -7
q-13 6 -16 20q-2 7 -4 18l-1 15v14q0 2 -0.5 11t-0.5 12q-1 6 1 24q1 8 5 13q5 6 14 5q4 -1 5 -10.5t2 -49.5q1 -43 3 -44q8 -6 22.5 11t48.5 66q20 30 27 34z" />
    <glyph glyph-name="ucircumflex" unicode="&#xfb;" horiz-adv-x="136" 
d="M35 319q9 8 15.5 3.5t6 -9.5t-6.5 -19q-14 -29 -19 -58q-3 -19 -0.5 -34t9.5 -14q15 2 50 65q8 14 12 32q1 1 2 7t2 8q0 2 1 4t1 3t1 1q1 4 3 8q5 11 8 14q9 9 12 10q9 3 16 -6q8 -9 3 -17q0 -1 -0.5 -4t-0.5 -4q-3 -7 -4 -8l-1 -3q-1 -2 -3 -7l-5 -8q-14 -22 -18 -31
q-52 -104 -87 -94q-19 6 -25 26q-9 26 -1 60q4 15 5 20q2 10 11.5 31t12.5 24z" />
    <glyph glyph-name="udieresis" unicode="&#xfc;" horiz-adv-x="186" 
d="M9 332q2 17 6 20q0 3 5 5q12 4 16 -9q3 -8 -2 -22q-5 -12 -8 -37.5t-2 -41.5q2 -10 7.5 -23t10.5 -17q22 -15 60 31q19 22 19 24t4.5 9t11.5 25q10 30 13 35.5t8 5.5q8 -1 13 -11.5t0 -15.5q-2 -2 -9 -26q-10 -32 -4.5 -48.5t27.5 -27.5q10 -4 11.5 -14t-8.5 -12
q-3 -1 -16 4.5t-17 8.5q-3 2 -10 11t-7 13q-4 9 -6 10t-6 -2q-2 -2 -5 -6.5t-4 -5.5q0 -3 -11 -14.5t-19 -16.5q-17 -13 -42 -10q-14 2 -26.5 17t-16.5 36q-5 24 -5 48q0 5 3 19t5.5 26.5t3.5 11.5z" />
    <glyph glyph-name="yacute" unicode="&#xfd;" horiz-adv-x="264" 
d="M34 297q27 30 40 8q6 -9 -10 -28q-12 -14 -24 -38q-6 -12 -10 -39.5t0 -29.5t10.5 3t18 18.5t18.5 22.5t23 29q56 71 62 71q12 0 16.5 -18t-2.5 -49q-2 -4 -4 -11t-2.5 -10t0.5 -3q5 0 35 23t34 29q4 10 20 11q15 1 22.5 -4.5t9.5 -19.5l-4 -10l-16 -4q-13 -2 -47 -23
q-47 -29 -59.5 -45t-29.5 -69q-42 -132 -112 -281q-49 -105 -66 -124q-14 -15 -35.5 -17t-35.5 11q-57 53 41 242q43 81 77 126t91 96q35 31 39 40q7 18 14 38.5t4 20.5q-2 0 -33 -44q-51 -73 -97 -87q-9 -3 -15 3q-7 8 -6.5 41t8.5 67q5 23 9.5 33t15.5 21zM113 134
q0 11 -22 -12q-10 -9 -36 -36q-7 -8 -13 -15t-10.5 -11.5t-9.5 -12t-7 -10t-7.5 -11.5t-7 -11t-8.5 -13.5t-9 -15.5q-35 -60 -59.5 -120t-27.5 -92t2 -42q6 -11 16.5 -11t21.5 11q9 11 40.5 72t52.5 111q17 40 24 56q15 32 37.5 94t22.5 69z" />
    <glyph glyph-name="ydieresis" unicode="&#xff;" horiz-adv-x="221" 
d="M222 709q11 5 14.5 4.5t5.5 -6.5q2 -8 -4 -17l-7 -9h43q43 0 54.5 -1.5t28.5 -3.5q35 -4 35 -12q0 -3 6 -5t20 -15t21 -23q6 -9 5.5 -18.5t-7.5 -9.5q-4 0 -20 14q-31 27 -53 34q-23 7 -85 9l-54 2l-4 -9q-9 -21 -25 -96q0 -2 -25 -140q-1 -10 -5 -37.5t-6 -36.5
q-4 -26 -4 -31.5t5 -10.5t0 -44q-6 -43 -12 -59t-16 -16q-7 0 -11 4q-11 14 8 150q1 11 4.5 39t5.5 37q13 88 18 113q2 6 9 41.5t13 55.5q9 29 10 30l2 8l-33 -2q-76 -5 -110 -29q-9 -6 -16 -2t-7 10t8 14t21 14q18 9 26 9t18 3q14 5 64 10q25 3 33 6.5t12 13.5q3 8 14 12z
" />
    <glyph glyph-name="circumflex" unicode="&#x2c6;" horiz-adv-x="352" 
d="M29 527l114 173h57l113 -173h-28l-114 105l-113 -105h-29z" />
    <glyph glyph-name="tilde" unicode="&#x2dc;" horiz-adv-x="348" 
d="M310 675q-10 -50 -34 -75t-62 -25h-2q-24 0 -55 11q-32 12 -55 12q-19 0 -29.5 -10t-16.5 -35h-27q9 52 33 77.5t63 25.5q22 0 56 -12q31 -11 54 -11h2q18 0 28.5 9.5t17.5 32.5h27z" />
    <glyph glyph-name="quoteleft" unicode="&#x2018;" horiz-adv-x="205" 
d="M132 686h-11q-84 0 -92 34v114q0 14 92 91h11q23 0 23 -22q0 -11 -46 -69v-22q57 0 57 -35v-57q0 -16 -34 -34z" />
    <glyph glyph-name="quoteright" unicode="&#x2019;" horiz-adv-x="205" 
d="M63 925h12q84 0 91 -34v-114q0 -14 -91 -91h-12q-23 0 -22 22q0 11 45 69v23q-57 0 -57 34v57q0 16 34 34z" />
    <glyph glyph-name="quotedblleft" unicode="&#x201c;" horiz-adv-x="396" 
d="M132 686h-11q-84 0 -92 34v114q0 14 92 91h11q23 0 23 -22q0 -11 -46 -69v-22q57 0 57 -35v-57q0 -16 -34 -34zM323 686h-11q-84 0 -91 34v114q0 14 91 91h11q23 0 23 -22q0 -11 -46 -69v-22q57 0 57 -35v-57q0 -16 -34 -34z" />
    <glyph glyph-name="quotedblright" unicode="&#x201d;" horiz-adv-x="396" 
d="M63 925h12q84 0 91 -34v-114q0 -14 -91 -91h-12q-23 0 -22 22q0 11 45 69v23q-57 0 -57 34v57q0 16 34 34zM255 925h11q84 0 91 -34v-114q0 -14 -91 -91h-11q-23 0 -23 22q0 11 46 69v23q-57 0 -57 34v57q0 16 34 34z" />
    <glyph glyph-name="ellipsis" unicode="&#x2026;" horiz-adv-x="765" 
d="M128 205l60 -35q14 -8 25 -93l-23 -40q-8 -14 -94 -25l-19 11l11 20l-59 35q12 21 12 33t-9 17l11 20q75 39 85 57zM385 205l59 -35q14 -8 26 -93l-23 -40q-8 -14 -94 -25l-19 11l11 20l-59 35q12 21 12 34q0 11 -9 16l11 20q75 39 85 57zM642 205l60 -35q14 -8 25 -93
l-23 -40q-8 -14 -94 -25l-19 11l11 20l-59 35q12 21 12 34q0 11 -9 16l11 20q75 39 85 57z" />
  </font>
</defs>
</svg>
