<?xml version="1.0" standalone="no"?>
<!DOCTYPE svg PUBLIC "-//W3C//DTD SVG 1.1//EN" "http://www.w3.org/Graphics/SVG/1.1/DTD/svg11.dtd" >
<svg xmlns="http://www.w3.org/2000/svg" xmlns:xlink="http://www.w3.org/1999/xlink" version="1.1">
<metadata>
Created by FontForge 20180930 at Mon Oct  8 19:18:35 2018
 By root
Destroy X (c)junkohanhero 2015. All Rights Reserved
</metadata>
<defs>
<font id="DestroyX" horiz-adv-x="80" >
  <font-face 
    font-family="Destroy X"
    font-weight="400"
    font-stretch="normal"
    units-per-em="2048"
    panose-1="2 0 0 0 0 0 0 0 0 0"
    ascent="1638"
    descent="-410"
    x-height="1303"
    cap-height="1340"
    bbox="-550 -443 1765 1632"
    underline-thickness="150"
    underline-position="-292"
    unicode-range="U+0020-2122"
  />
    <missing-glyph />
    <glyph glyph-name="space" unicode=" " horiz-adv-x="440" 
 />
    <glyph glyph-name="space" unicode="&#xa0;" horiz-adv-x="440" 
 />
    <glyph glyph-name="exclam" unicode="!" horiz-adv-x="448" 
d="M191 -18h-7q-142 -2 -144 159q21 109 140 111h7q129 -19 131 -147v-7q1 -88 -127 -116zM226 374l-34 6v-7l-7 7l-87 -1l-48 6v7l7 7l-7 6l-1 27l7 7l-7 7l6 68l-2 142l6 34l-6 -1l6 7l-3 196l7 7l-7 7l6 34l-1 88l6 47h-6l6 7l-1 61h14v-13h14l13 13v7l7 -6l40 7
q-30 40 -54 40l-21 -7v-7l14 -13l-6 -21l-21 20v34l6 7l-7 6v28h14l-1 6h-13v7l6 68h20q0 -34 34 -33l20 7l1 -20l20 20l-14 13l14 1l20 -7v-7h-14l1 -7l20 1v13h13v-20h14q0 34 -34 34h-7v6l20 7q27 1 28 -40h6l7 34h20l54 -12l7 7h7v-7l-20 -21l-34 7v-14h14v-6l-7 -7v-7
l-74 12l-7 -6v-7l41 -6l6 6l1 -20h20v14h6l21 -13h20v7h-13v6l20 1v-14h7l-7 -7v-6l8 -48h-7l7 -6l-7 -34l1 -41h-13v-7l13 -20l1 -27l-7 -7l7 -6v-34l-12 -41l13 -20l-12 -61l7 -34l1 -68l-6 -27l6 -6l-6 -34l-2 -325l-7 -7zM313 889v27h-7l1 -27h6zM148 1076v7l-20 7v-7
l7 -7h13zM107 1164h-7v13h20zM187 1199q0 13 -27 13v13h-20v-20zM106 1231l-7 21l-7 -1v-33zM98 1279v6q-13 0 -14 20h-6l-7 -34l7 1z" />
    <glyph glyph-name="quotedbl" unicode="&#x22;" horiz-adv-x="530" 
d="M40 1224l15 45v23l-8 -7h-7v7l15 22l-8 23l8 8h7l7 -8l8 8h14v-15l23 15l7 -8v-7l30 15l37 -15l7 7q0 -14 23 -14l7 -24l-7 -7v-7l7 -23h-7l7 -8v-7l-7 -23l7 -23l-7 -8h15l-15 -15l15 -60h-15l15 -83l-8 -9h15v-7h-15v-7l8 -38l-38 -15v7l-29 -15l-8 8h-29l-30 -8l-37 8
v98l-7 167h-15zM490 1088l-15 -45v-23l8 7h7v-7l-15 -22l8 -23l-8 -8h-7l-7 8l-8 -8h-14v15l-22 -15l-8 8v7l-30 -15l-37 15l-7 -7q0 14 -23 14l-7 24l7 7v7l-7 24h7l-7 7v7l7 23l-7 23l7 8h-14l14 15l-14 60h14l-14 83l7 9h-15v7h15v7l-7 38l37 15v-7l29 16l8 -9h29l30 9
l37 -9v-98l7 -167h15z" />
    <glyph glyph-name="numbersign" unicode="#" horiz-adv-x="546" 
d="M417 1337l41 -7l-25 -284h73l-8 -35v-103h-57l-16 -14v-28l8 -7v-7l-96 -35h-32v7l8 77h-8l-24 7l-8 -7h-48v-14l-8 -70h-8l-81 7l-16 -27h-8v104h-32l-8 -7h-8l-16 55v14l8 28l-8 7v7l8 34h64v28l8 62l-8 7l8 35v90q10 69 32 69h25l8 -7l8 7h56l-16 -284l8 -7h32
q56 0 56 83l-8 7v7l8 69l-8 7q0 118 48 118zM361 1095v-14q20 0 40 -21h8l-32 35h-16zM361 1039l16 -14h16v21zM450 769v-14l-9 -35h9l-9 -6v-14l9 -7l-9 -7v-56l-8 -34h8l-8 -7v-76l17 -14h48v-7q-10 -132 -32 -132h-49l-24 -353h-112l-8 7h-8l16 55v90l16 146h-8l8 7v48
h-80l-8 -21l8 -34l-16 -166v-7l-8 -7v-7h8l-8 -7v-56l-8 -48h-113v35q0 109 16 145l-8 7v7l24 159h-64v76q0 34 24 70l8 -7h32l8 7h8l-8 7v48l8 35h-8l8 7v27l-8 7l8 7v76h16q0 21 16 21h89l-16 -242h80l16 138l-8 7l8 35v55l120 35h9zM193 533q0 -34 -33 -34v-7h8
q41 4 41 41h-16zM112 471l24 -21v7l-16 14h-8zM144 430l-8 -28h16l8 -7l8 7v14l9 7l-9 7l-24 6v-6z" />
    <glyph glyph-name="dollar" unicode="$" horiz-adv-x="474" 
d="M281 1454v-80q131 -78 131 -176q0 -29 -58 -58v7q-22 0 -22 -21h-22q0 58 -80 72q0 -14 -37 -29q0 -22 -22 -22v-58l-14 -15l-66 8v-8q-44 15 -44 37q16 146 44 146h7l-7 36l88 73v44l-8 37l8 7h102zM215 1352v-22l58 -15v15q-36 0 -36 22h-22zM325 1228l-8 -8v-14h8
l7 22h-7zM120 1191v-22l15 15l-7 7h-8zM427 1082l7 -8v-102l-15 -14h-36v7l22 22q0 38 -37 58l-7 -7v-7l-7 7h-15v-15q22 0 22 -43l15 -15l-8 -7h-43l-8 7h-7l7 36l-7 8l7 7v44l44 14l29 -14zM62 1045q22 0 22 -29l36 15q59 -9 59 -30l-8 -7q20 -146 88 -219
q159 -180 175 -350v-109q-36 -270 -124 -270l-29 -22l7 -8v-65l-15 -14h-87v79l-80 59q-32 50 -66 182l7 102v22l-7 51h15v8l7 -8h22l73 8l7 -8v-22l-7 -7l7 -7v-37l-7 -7l7 -7v-29l-7 -8q0 -63 51 -95h51q31 2 58 139q-33 138 -73 182l-109 154l-66 124v29l7 -7h22l-7 36
h22l-15 15l-7 -8h-7q-37 0 -37 88v66zM171 819l30 -95h7l7 22l-7 7v15h7l7 -7h8v7q-37 40 -37 66h-7zM62 367l7 -22l51 14v15l-7 7v8zM361 352l-7 -7v-15h22v7zM62 213v-7l14 -14v21h-14z" />
    <glyph glyph-name="percent" unicode="%" horiz-adv-x="928" 
d="M199 1349q129 0 153 -158v-22l-9 -7h9l-9 -7v-58l-8 -180h8l-8 -7v-79q0 -147 -34 -252v-8l-8 8h-9q0 -29 -85 -29v-7q-152 28 -152 72l-17 50q0 655 85 655q0 20 84 29zM631 1327l9 -7h8v7l34 -7v-14l-262 -756l-9 -7h-17v14h-8l-60 -29h-8l-9 29q60 130 68 187
q19 0 110 310q26 30 102 266l8 7h34zM182 1234q-33 -22 -33 -94h-9l9 -7v-7l-9 -43l9 -8l-9 -36v-115l-8 -7l8 -7l-8 -108v-108q13 -29 50 -36q46 0 51 122l-8 7v8l8 79v65l9 7l-9 7l9 36v194q0 51 -60 51zM665 874q116 0 153 -137l-9 -7v-7l9 -22h-9l9 -7v-58
q0 -50 -60 -50l-42 14v51l-9 72l9 7l-42 29q-60 0 -60 -166l9 -22l-9 -7h-17q-42 0 -42 15l-8 -8h-17l-17 15v101l8 7l-8 7v7q28 166 152 166zM1238 672h17v-3l-12 -4l-5 4v3zM1404 672h12l-8 -7h-4v7zM1425 672h21v-3h-21v3zM899 665v-7h-21q-20 -18 -64 -18h-12
q0 11 29 14v7l17 -10h4q0 12 47 14zM1332 665h16v-4h-16v4zM780 658v-7q-34 -4 -34 -11l-12 3q0 7 21 11l4 -3h4zM958 658h9l21 -4v-7h-13v7l-4 -3h-4zM1086 658h4v-4l-17 -3q0 7 13 7zM696 643l12 -3l13 3v-3l-4 -4v-3l-4 3h-9l-4 -3h-4v10zM590 640h17l17 -4l16 4l5 -4h4
l4 4h4l22 -4v-3q0 -8 -26 -8v-3l-21 7l-4 -4h-13q-22 0 -25 11v4zM767 521l8 -7l9 7h8l26 -14h8l25 14l9 -7h8l-8 -22l8 -43q-27 -410 -59 -410q-35 -58 -127 -58q-109 0 -135 130l-9 43l9 65v86l8 7l-8 7l8 51v14l-8 29l8 29v50h85q25 -7 25 -43v-14l-8 -36h8l-8 -8v-28h17
l-17 -22l-9 -187q12 -51 34 -51h17q59 0 59 389zM140 492l68 -21l8 7l17 -22l43 7h17v-14h-26l-51 -7q-40 0 -84 36l8 7v7zM403 478h59v-29l-9 -29l26 -50v-7h-9l-25 14h-9q0 -34 -16 -50l8 -22q-33 0 -59 -137l17 -14v-7l-9 7h-8l-9 -7v-8q60 0 60 -14q-43 0 -43 -36
q-54 0 -76 -72l-17 -28l-8 7h-68l-9 21l127 360l9 22q11 0 17 50q48 0 51 29zM496 413l8 -7h9l8 7h9l8 -7v-7l-25 -8l-26 8l9 7v7zM436 197l26 -7l-17 -15l-17 15zM102 92q9 0 9 -11v-4h-5zM335 56v-7h-17v3z" />
    <glyph glyph-name="ampersand" unicode="&#x26;" horiz-adv-x="559" 
d="M215 1304h175v-65l7 -44l-7 -7v-8l7 -7v-7l-7 -44l-7 7h-161q-13 0 -51 -58l-80 -15l-44 22q38 226 168 226zM135 1337l22 -22h7v8l-15 14h-14zM157 1082l29 -8l-7 -36v-131q0 -86 51 -110h87v110l8 7l-8 7v15l37 7l7 -7h7l8 7v-7l22 7l7 -7h7l29 7l8 -7v-139h126v-182
q-134 0 -134 -15l8 -7l-8 -7v-8l8 -29l-8 -29v-7l8 -8l-8 -22l8 -7v-7l-8 -29l8 -8l-8 -7v-241l-7 -44l15 -58l-8 -7l8 -37v-14h-110l-7 -8h-7q-15 40 -15 103h-7q-35 -110 -102 -110h-15q-118 0 -139 190v66l-7 7l15 36l-8 8v124q0 124 29 146l-7 36q18 49 59 80l7 22
q-61 0 -88 212l8 7v7l-8 8l8 36v73l36 7l29 -14zM492 958h30v-15h-15zM171 462v-81l-7 -7l7 -7v-30l-7 -7q0 -138 80 -138q53 0 73 102l-7 7v7l7 29l-7 8l7 51v204l-14 15h-37q-95 0 -95 -153zM91 491q22 -20 58 -102h15v14q-22 0 -22 37v36l-36 15h-15zM62 294v-8
q19 -38 44 -43q-12 33 -44 51z" />
    <glyph glyph-name="quotesingle" unicode="'" horiz-adv-x="303" 
d="M40 1224l15 45v23l-8 -7h-7v7l15 22l-8 23l8 8h7l7 -8l8 8h14v-15l23 15l7 -8v-7l30 15l37 -15l7 7q0 -14 23 -14l7 -24l-7 -7v-7l7 -23h-7l7 -8v-7l-7 -23l7 -23l-7 -8h15l-15 -15l15 -60h-15l15 -83l-8 -9h15v-7h-15v-7l8 -38l-38 -15v7l-29 -15l-8 8h-29l-30 -8l-37 8
v98l-7 167h-15z" />
    <glyph glyph-name="parenleft" unicode="(" horiz-adv-x="465" 
d="M363 1494h57l19 -18l-10 -76h10l-10 -9v-113h-75l-47 -75l9 -47h-9l9 -10l-19 -75l19 -28l-9 -94v-179l9 -84l-9 -66l9 -10l-9 -9l9 -28l-9 -104v-37l9 -10v-9l-9 -9h-10l-56 9l-9 -9h-10l-9 9h-10l-37 -9l-19 28v479l56 10q0 28 -56 47v216h9l10 -9h9v9l-19 28v19
q0 190 132 245zM344 1372q0 -19 29 -19h9v10zM175 874v-19l19 -19v38h-19zM279 742v-38l18 19v19h-18zM156 366h10l56 -19l-37 -56h9q66 37 66 56h19l9 -9l9 9h19l10 -47q0 -147 -38 -179l-9 10h-10l-47 -10l-19 19l-28 -28h10l37 9v-9l-19 -28h10l103 37v-18
q0 -103 85 -103h38v-188q0 -19 -29 -19l-9 9h-10l-9 -9h-9q-153 0 -207 160v74l28 38v9l-38 -28v38l10 9l-10 10v9l47 132q-37 -24 -37 -66h-10v85l10 37l-10 38v28z" />
    <glyph glyph-name="parenright" unicode=")" horiz-adv-x="400" 
d="M22 1492q253 -19 253 -159q28 -95 28 -225v-37l-9 -10l9 -9v-9l-9 -28l9 -10h-9l9 -9l-9 -47v-178l9 -37l-9 -28l9 -28h-9l9 -9v-10l-9 -9v-9l9 -47h-9l9 -10v-168l-9 -9l9 -10v-74h-56q-19 0 -19 28h-19l-28 -19l-9 9l-9 -9h-28l9 9l-9 10v215l9 9l-9 9v187l9 10l-9 9v9
l9 29l-9 46v131l9 38l-9 37v47l9 9q-12 131 -66 131h-18v9l-10 -9h-18l-19 19v187l9 9v10zM181 1117v-9l28 9v19h-9zM163 1080v-37h9l19 18zM209 958v-28l19 19v9h-19zM144 285h56q103 -39 103 -65v-103l-9 -38l9 -28q-44 -233 -122 -233q0 -28 -121 -28h-47v65l9 113h-9
l9 37h28l10 -9q50 0 84 93l-9 28l9 37l-9 10v9l9 37l-9 10l9 9v56z" />
    <glyph glyph-name="asterisk" unicode="*" horiz-adv-x="754" 
d="M325 1324h114q0 -45 21 -45q-11 -123 -31 -145l10 -8v-7l-20 -115h10l239 137l41 -160l-83 -15h-11l-9 8h-11q0 -28 -146 -38v-23q154 -187 188 -206q-16 -35 -125 -107l-10 23h10l-115 259h-9q-22 0 -126 -267h-9l-114 92l197 221q-91 38 -249 61l-11 8v7l31 107v30h21
l197 -114l-31 -61h20q0 23 42 46l10 38z" />
    <glyph glyph-name="plus" unicode="+" horiz-adv-x="906" 
d="M353 993h56l14 -9l14 9h83v-183l14 -8l-14 -9v-9l14 -8l-14 -9v-9l14 -8l-14 -9v-35l28 -17h291v-165h-291l-14 -9h-14l14 -43q0 -18 -69 -18v-8l69 -44v-17l-14 -9l14 -9v-34l-14 -9l14 -9v-34l-14 -9l14 -9v-26l-139 -17h-28v69l-14 9l14 9v8l-14 9l28 52l-28 70l14 34
l14 -8h70l-14 8l-70 18q0 34 -55 34l-42 -8v8l-14 27h-69v-18q42 0 42 -17h-181v165h14l55 -9l98 9h125l27 17l-14 9l14 9v34l-14 9l14 9l-14 43l14 113z" />
    <glyph glyph-name="comma" unicode="," horiz-adv-x="337" 
d="M86 275l11 -8l12 8h46l46 -8l45 8h13v-55l11 -41h-11l11 -7l-11 -55v-8l11 -55h-11l-195 -9l-24 64l11 8h-11l11 7v9l-11 7v8l11 31l-11 33q14 63 46 63zM142 102h35l69 -32q0 -48 -91 -253h-58q-24 0 -24 24q0 67 47 159v8l-23 15l-11 -7h-13l-22 22v17q0 47 91 47z" />
    <glyph glyph-name="hyphen" unicode="-" horiz-adv-x="748" 
d="M613 1472h16l-8 -30h-8v30zM204 1462h8l33 -30l-9 -31h-16l-16 51v10zM171 1452h8l17 -20h-9zM318 1442v-41l-24 31zM179 1422v-10l-16 -21v10zM122 1401h24v-20l-24 10v10zM400 1391v-10l-16 -20h-8zM220 1361l41 -30l8 10l8 -40l-8 -10h-8q0 27 -41 30v40zM40 1311
l16 -20v-10l-16 20v10zM736 1260v-10h24v20zM187 1260l9 -10v-10h-33v10zM277 1250v-30h-16v10zM253 1119h24l-16 -20l-8 10v10zM531 1099l25 -10v-20l-25 10v20zM220 1089l25 -30h-9l-16 20v10zM89 938l16 -20v-11l-16 21v10zM589 1177q36 0 49 -40h33l-8 -10v-10l41 -10
q0 -51 -107 -51v11l-57 70v10l8 -10h9q0 23 32 40zM597 766l24 -30h-8l-16 20v10zM629 565h25v-10q0 -23 -41 -31l-8 10v11l8 10l8 -10h17l-9 10v10zM572 555h25l16 -51h-16l-17 20l8 10zM484 800l64 -20h32l-10 10v10h10l31 -20l33 10l10 -10v-10l-10 -11l10 -10v-21h-21
l21 -31l-10 -10h-11l21 -42l-21 -51l11 -11q-21 0 -21 -32l-33 -10l-10 10h-10l-33 -10v10l-10 -10h-10l-33 10l-31 -10l-12 10v-20l-20 20l-85 -20v20l-116 -20l-12 10v-21h-10v21h-11l-53 -10l-20 52h10l-22 41l12 11v41l-12 42l12 52h137l233 10v20zM556 343h24v-20
l-24 10v10zM760 252l17 -20h-33zM752 192q0 -21 -33 -21q0 -20 25 -20l24 10v10z" />
    <glyph glyph-name="hyphen" unicode="&#xad;" horiz-adv-x="748" 
d="M613 1472h16l-8 -30h-8v30zM204 1462h8l33 -30l-9 -31h-16l-16 51v10zM171 1452h8l17 -20h-9zM318 1442v-41l-24 31zM179 1422v-10l-16 -21v10zM122 1401h24v-20l-24 10v10zM400 1391v-10l-16 -20h-8zM220 1361l41 -30l8 10l8 -40l-8 -10h-8q0 27 -41 30v40zM40 1311
l16 -20v-10l-16 20v10zM736 1260v-10h24v20zM187 1260l9 -10v-10h-33v10zM277 1250v-30h-16v10zM253 1119h24l-16 -20l-8 10v10zM531 1099l25 -10v-20l-25 10v20zM220 1089l25 -30h-9l-16 20v10zM89 938l16 -20v-11l-16 21v10zM589 1177q36 0 49 -40h33l-8 -10v-10l41 -10
q0 -51 -107 -51v11l-57 70v10l8 -10h9q0 23 32 40zM597 766l24 -30h-8l-16 20v10zM629 565h25v-10q0 -23 -41 -31l-8 10v11l8 10l8 -10h17l-9 10v10zM572 555h25l16 -51h-16l-17 20l8 10zM484 800l64 -20h32l-10 10v10h10l31 -20l33 10l10 -10v-10l-10 -11l10 -10v-21h-21
l21 -31l-10 -10h-11l21 -42l-21 -51l11 -11q-21 0 -21 -32l-33 -10l-10 10h-10l-33 -10v10l-10 -10h-10l-33 10l-31 -10l-12 10v-20l-20 20l-85 -20v20l-116 -20l-12 10v-21h-10v21h-11l-53 -10l-20 52h10l-22 41l12 11v41l-12 42l12 52h137l233 10v20zM556 343h24v-20
l-24 10v10zM760 252l17 -20h-33zM752 192q0 -21 -33 -21q0 -20 25 -20l24 10v10z" />
    <glyph glyph-name="period" unicode="." horiz-adv-x="337" 
d="M218 281l30 -21h15l-5 10v11h5l14 -21l15 10l5 -10v-10l-5 -11l5 -10v-21h-10l10 -30l-5 -11h-5l10 -42l-10 -51l5 -11q-9 0 -9 -32l-16 -10l-4 10h-5l-15 -10v10l-5 -10h-5l-15 10l-15 -10l-5 10v-20l-10 20l-39 -20v20l-54 -20l-6 10v-20h-4v20h-5l-25 -10l-10 52h5
l-10 42l5 10v41l-5 42l5 52h64l109 10v21z" />
    <glyph glyph-name="slash" unicode="/" horiz-adv-x="732" 
d="M650 1321l7 -3l6 9l-3 -8l-13 5l-2 -10l56 5l10 6l6 -3l6 -23l7 -3l6 17l7 -3l-10 -55l-42 -102l7 -43l-7 4l-2 11l-7 2l-28 -76l2 -32l-3 -7l-3 10l-5 3l-17 -42l3 -12l-31 -45l-13 -34l6 -43l-18 -11l6 -3l-10 -6l-9 -25l-10 -45l-3 10l-6 2l-9 -34q-13 -24 -1 -33
l-3 -26l-97 -224l-10 -6l21 -22l-25 -6l-3 -9l-12 6l-12 -74l-13 6l-4 -9l3 -11l-9 -7l-3 -8l4 -10l-4 -9l-19 -31l6 -3l-29 -37l-12 -74l-13 5l-4 -8l5 -11l-4 -9l-16 -23l6 -3l-9 -5l-4 -8l4 -13l-3 -8l-23 -46l-11 -21q-14 0 -64 2h-47l-10 -5l-67 16l-6 3l-6 3l38 75
l19 52l35 74l12 53l7 -2l6 78l13 -7l9 25l9 46l11 6l-7 3l9 6l10 25l-4 12l11 6l5 16l-3 12l36 54l-8 23l14 -7l-3 12l25 68l5 57q20 -9 30 17l-7 2l-9 -4l-7 2l15 23l107 267l-8 17l-3 11l6 -3l3 -11l7 -3l29 57l-26 12l9 25l3 -11l14 -5l35 73l-16 18l3 7q15 -7 57 75
l-12 5l8 6l4 9l-3 11q10 22 43 20l7 -23l12 5l7 6l12 -14l3 8l-3 1l4 9l6 -3l13 6l6 -3l15 -9z" />
    <glyph glyph-name="zero" unicode="0" horiz-adv-x="766" 
d="M417 -68l-2 3h-2v-3l2 -3h-2l-6 6h-4l-2 -3l-2 3h-2l-2 -3v3h-2l-2 -3v6l-2 -3l-21 6l-2 -3l-2 3h-14v3q-40 17 -66 36l-30 27l-8 11q-31 52 -35 52q-34 90 -37 171h2l-4 55l2 14v58l2 3l-2 3v8l2 3h-2l2 3l-2 13l2 12v57l2 3l-4 12h2l-2 12l2 18v9l-2 15l2 3v3l-2 3h2v3
l-2 3v6l2 15l-2 18v54l2 3h-2l2 3l-2 16v53l-2 16l2 9v36l2 2l-2 3v52l-2 3l6 12q29 -4 29 -15h10q18 0 29 -24q24 0 31 -15h2l3 3l-13 26l-12 -3q-10 0 -19 10l-17 18h-2l-2 -3q-8 9 -24 18q-11 8 -11 24l2 2h-2l4 16h-2l5 30v3l-3 3q11 68 23 111h-4q0 -12 -14 -12l-7 3
h-2l-2 -3v3h-2v-3l2 -3v-3h-4q-5 6 -23 9v9h8l3 -3v3h4q-8 21 -15 21v6l2 -3l6 9v3l-6 -6h-2l-2 3l-2 -3h-2v3l4 9l23 -6l-2 -3v-6h2v6l6 -3l-2 -9l2 -15l-2 -9v-3l4 6v21l11 -2h8v-6h2v6l-2 2v3l2 3l-6 9l4 6v4h-2l-2 -4h-4l6 13h2v-6h2l2 3h6l8 -33h2v20l15 -6h2l2 3l4 -6
l2 9l6 -3h2l3 3v-3l4 6l-4 7l2 14l2 -3h2l-2 3v3q18 4 18 9q19 -2 23 -9h6v3q0 6 -6 6v7h12l6 6q5 0 7 -16l14 24q0 -14 6 -17v9h3l4 -6l-4 -13l8 -6l19 6l-2 -3v-3l6 9v7l-2 3q8 0 8 11h6q0 -8 4 -8h4q0 8 10 11h2l2 -3l2 3h3l2 -3v3l2 3l6 -3l19 3h2l2 -3l8 6v-6h2l2 12
l5 -6l6 6h4l16 -6l10 3v7l-2 3l13 14h2v-5h2q0 8 4 8h2l2 -3v3l11 -5v2q10 0 10 12h2l2 -3l-2 -3v-3l2 -3l11 6q18 18 24 18h15v-6l6 9q4 0 4 -9h2v6h4l2 -3q0 -12 7 -12q12 -23 18 -23v-3l-2 -4v-3l2 3l11 -3v-6q-2 -6 -11 -11v3l-29 -9l-16 6l-2 -3h-7l-2 3v-3l-2 3
l-12 -6l-8 6l16 -31q17 -23 27 -60q0 -6 -6 -6q-15 -28 -21 -30v-6h2v6q11 0 11 9l6 -3h2l2 3l8 -3l19 -84h-2v-3l2 -3v-15l-2 -3l2 -3v-3l-2 -3q3 0 6 -18l-2 -3v-6q0 -15 6 -15v-7h-2l-2 3v-14l2 -3q-3 0 -4 -16v-6l2 -3l-2 -2v-3l2 -3l-2 -3v-6l2 -3l-2 -4l2 -14l-2 -3
l6 -6l-4 -9v-4h2l2 4v-4l-6 -12v-5l2 -12l-2 -13v-50l-2 -3l4 -13l-4 -30l4 -9v-3l-2 -3h2l-2 -15v-6l2 -3l-2 -3v-12l2 -12l-2 -12v-15l2 -3l-2 -3v-3l2 -3h-2l2 -18l-2 -18l2 -9l-2 -3v-9l2 -12v-3l-2 -3l2 -30l-2 -9l2 -3v-16l-2 -3l2 -2v-51l-2 -3h2l2 -4l-2 -12v-3
l2 -2l-4 -28h2l-2 -8v-3l2 -3l-2 -3v-4l2 -3l-2 -3v-3l2 -3l-2 -3v-6l2 -3h-2l2 -2l-6 -25l2 -3v-15l-2 -3l2 -3v-3l-4 -6v-3l2 -3q-7 0 -7 -8l3 -4h-5v-3l2 -3v-9h-2q-6 -30 -10 -30l2 -3q-11 -41 -31 -60l2 -3l-2 -9l2 -9h-4v9q-20 -20 -20 -33q-11 0 -11 -8h-2l-2 2
l-12 -18h-3l-2 3v-6h-2l-2 3l-6 -9l-2 3l-21 -21l-4 7q-16 -7 -16 -13l-2 3l-15 -12h-2l-2 3l-4 -6q-8 0 -8 9l-9 -9h-2l-2 3v-3l-2 3q-10 0 -10 -15h-7v3h4v9zM455 -74v3l6 3h2l2 -3v3l5 -6l-7 -3zM409 92v9h-6v-3l4 -6h2zM395 98q0 6 8 6v6l-2 3l10 9l2 -9q-6 0 -6 -6v-3
h2l11 3v-3l2 -3q6 0 6 12h12l5 -6q5 0 20 15q5 21 11 21l-4 12q4 0 10 24h-2l-2 3l2 3l-2 3l4 6q0 9 -6 9v4q12 0 12 42h-2v2l2 3v35l2 27l-2 13l2 17l-4 12h4v4l-2 3v3l2 3l-2 3v3l2 3l-2 2v3l2 16l-2 3v3l2 3l-2 3v8l2 16l-2 3v3l2 3l-2 15l2 9l-2 12l2 3l-2 3v2l2 4l-2 3
v3l2 3h-2l2 3l-2 36l2 24l-4 31v3l2 2l-2 3v12l2 3h-2v3l2 3v15l-4 6v3l2 3v27q0 23 -6 25q0 5 6 5v6l-2 12v4l2 3l-2 20v3h4q0 10 -10 10v9h4l2 -3l2 9l-2 21l2 15v2l-2 3h2q2 46 10 69l-2 3q6 0 6 9v3l-2 3l2 18v3h-2l-2 -3h-2q-5 42 -8 42q-5 52 -12 52q0 24 -67 38
l-2 -2h-8l-2 2l-8 -5v3l-21 -13l-14 -18l-13 -39l2 -3l-4 -6l2 -3q-5 -13 -10 -72h2l-4 -18l2 -12l-5 -15l3 -30l-3 -11l3 -12v-3l-3 -3l3 -24l-5 -6v-6l2 -16h-4l-2 3l4 -27l-4 -20l4 -10l-2 -9h2l-2 -3l4 -14v-3l-2 -4h2l-2 -15v-21h5l-5 -9v-9h5v-8h-5l2 -3l-2 -16v-3h2
l3 3l-3 -9l3 -24h-5l2 -3v-3l-2 -3v-3l2 -3h-2v-6h2v6h3v-9h-5l2 -9l-2 -12v-6l2 -3h-2v-4l2 -2l-2 -12l5 -12l-5 -12v-12l2 -3h-2l2 -3l-2 -10l5 -23h-5v-6l9 -15h-4l-3 2l5 -14l-2 -3l-3 3h-2q15 -23 17 -33v-3l-2 -3l10 -3l-2 -10h-2v6h-4l4 -12l-4 -17l6 6v-10l-6 -23
l-4 27v3l2 3h-8l-2 -3l2 -3l-5 -30v-3q7 0 7 -6h-4l-3 3v-6q11 0 11 -5h2q0 11 13 11l2 -14h-7l2 -3l-4 -10q9 0 9 -9v-6q-5 0 -5 12l-6 -9q-6 0 -6 12l-6 -6h-2l-3 3v-3l3 -3v-6l-3 -3l7 -5l-2 -4v-3l2 -3v-3l-2 -3l8 -3v-3l-2 -3h4v-3h-4v-8h2q4 0 4 8h2q0 -5 7 -5l-5 -10
h5v-6q-5 0 -9 -15v-3h4q0 -9 7 -9v-3l-2 -3v-3l2 -3l10 3h2v-3l-2 -3v-3q0 -5 15 -12l8 3zM364 110v3h2q6 0 6 -6zM377 125h4v-3l6 -9l-4 -6q-4 0 -6 18zM451 128h2v-9h-4zM366 128h9v-6h-9v6zM434 125l6 9h3l-9 -12v3zM403 131v15h2l2 -3l-2 -3v-2l2 2l6 -2h2l2 2v-2l3 -4
h-7v-3l2 -3h-2zM368 140q7 0 7 9h2v-11h-9v2zM440 149h9q-3 -11 -6 -11h-3v11zM424 149v3l2 3h2l2 -3h2l2 3l2 -3l-2 -12h-4q0 9 -6 9zM356 158h2l2 -9h-2l-2 -3h-2zM343 158v9h-4v-9h4zM364 167v4l2 3h2l2 -3h7v3l-11 23h4l15 -21h-4l-2 3v-5h4l-4 -7v-3l2 -3l-4 -6h-2
q0 12 -11 12zM383 164v3l6 -9v-3zM438 171v5l11 -5l-2 -10h-2zM474 182h2l2 -11l-6 -10zM341 185q15 -3 15 -11h-4zM381 188h6l6 -9v-3q-8 0 -12 12zM463 188h2l3 -9h-5v9zM343 194l-2 3v3l2 3q7 0 7 7h4l2 -3l2 3v-3l-4 -10l-7 3h-2v-6h-2zM379 197v3l8 3l4 -6v-3h-4l-2 3
v-3zM358 203q6 0 6 15h6q0 -10 -10 -21h-2v6zM453 210h2l2 -3l-4 -7v10zM391 210l4 5l2 -8v-4zM387 218h2v-3q0 -8 -4 -8zM358 230v3h4l2 -9h-2zM385 230v6l8 -3v-3l-4 -6zM451 233l2 3l-6 4v3h8v-16h-4v6zM352 254l2 3l-2 3l8 -3q0 -5 -8 -8v5zM443 254v3h4l2 -3v3l4 -6v-2
l-2 2h-2l-2 -2zM372 260l5 -6v-3h-5v9zM341 266h2l4 -6h-6v6zM391 299v3l6 3v-6l-2 -3q6 0 6 -7v-23q-9 26 -10 33zM411 293h2v-27h-6zM347 293v3l7 3l4 -6l2 -4zM364 299h6v-6h-2zM333 302l-2 3l4 5l-2 12h-6l-5 -6v-3q9 0 9 -11h2zM411 307v-2l-4 -6h-2zM345 313l7 3l2 -9
h-2l-2 -2h-5v8zM364 310l4 6l7 -9v-2h-11v5zM370 322v4l9 -13h-2zM352 326v3h4v-10zM324 326l5 6h-7v-6h2zM341 332l4 6h2l-6 -9v3zM377 341l2 2l-2 3h4l2 -3l-4 -14h-2v12zM403 349h6l-4 -6h-2v6zM360 355h2l4 -6v-3h-8zM333 358l2 4l4 -7h-6v3zM364 368h-2l-2 -3h-2v6h8
v-9h-2v6zM383 371l6 9l-2 -15h4v-3h-6zM347 374h7v-3l-2 -3zM366 382h-2l-2 -2v11h4v-6h4l2 13h-2l5 6h2v-6l-2 -3l8 -4v-6h-8v-3h4l-7 -8zM347 388v3l-2 4h9v-4h-4v-3h4v-6l-2 -2l-2 2h-3l-2 -2h-4zM383 410h4l2 -3l-6 -9v12zM362 407v6l8 3l-2 2l4 6q0 -8 7 -8l4 5l4 -5
l-15 -9h-2l-2 3v-6zM372 431l7 3h6v-3l-4 -7h-4zM393 446h6v-3q-4 0 -4 -12h-4zM399 437h6v-3l-6 -3v6zM393 485v-9h-6zM329 524l4 6h2l-2 -9h-4v3zM364 533v3h4q0 12 7 12v-3h4v-6l-2 3q-7 0 -7 -12zM395 539l4 -6v-3h-4v9zM331 551l4 6h2l2 -3v6l-2 3h2q4 0 4 -9h2l2 3h3
v-6l-11 -3h-2l-2 3h-2l-2 -3v3zM331 572l2 3h6v-3l-6 -3h-2v3zM360 578h15l-5 -6h-10v6zM362 602v3h10v-3l-2 -2zM327 620h6l-4 -6h-2v6zM341 722h4l5 -6h-5zM447 755h6v-6h-2zM145 873l4 6h8v-3l-2 -3v-6h4v-7zM134 891v3h7v-6zM474 974h10v-3l-6 -3zM602 1017h2l-4 6h-2z
M100 1053v3h2l2 3v3l6 -3h2l2 3h2l2 -3l-2 10v3l20 -10l-8 -15h-4q-4 0 -4 9h-4v-6q-6 0 -6 -9h-6zM324 1089l-4 11h2v-14h19v3l-2 3v9l2 4l-8 3l4 6h2l6 -6v6l-4 5h-17l-10 -3l-2 3q0 -8 -4 -8h-4v5q-4 0 -4 -8l-6 -3v-4l-10 7l-2 -3h-11l-2 3v-3l-2 -4v-3q10 0 10 -6l-2 6
h2l2 -3h3l-3 -6v9h5q0 -12 4 -12q0 15 14 15v-6q0 -6 -10 -6l2 -3l-4 12v-3h4q0 -9 6 -9q0 10 18 6l-4 -10v-6zM335 1085l4 7v3h-6l-4 -6zM102 1069v3h2q6 0 6 -7zM238 1069h2l-4 6h-9v-3zM267 1072v3l2 3l-4 5h-4v-8zM213 1108l4 6h2v-6h2l2 3h2v-6l-2 -4zM347 1125v6h-10
v-3zM352 1131q6 0 6 10h2l2 -3l-4 -10h-6v3zM296 1141h4l-4 -7h-4zM428 1138h4l-4 9l-15 -3v-3zM364 1155h6l-4 -5h-2v5zM279 1164v3l3 4q32 13 32 41l-2 13v11h83q5 3 22 78h3v-59l-3 -4l3 -3v-30q34 -6 45 -18l-8 -9l-8 6l-13 -9l-25 9q0 -14 -22 -23h-2l-2 3h-2l-2 -3
l-13 9l-31 -3v-3l-31 -16zM569 1180l-4 6h-2v-6h6zM470 1200v6q16 -2 16 -12h-2zM629 1206h10v-3l-6 -3zM652 1209l4 9v12q0 5 -13 9v-3l-8 3l4 9l15 -9l6 9v7h-4v3q9 0 14 5l4 -15v-3l-2 -3h2l11 3v6h-5v10h2v-6l7 3l8 -3v-7q-15 -9 -15 -18l-2 3q-14 -12 -14 -30h-14v6z
M697 1261v5h6v9l-2 3l10 -3l2 16h2l2 -4h2v4l-2 3v8h2q4 0 7 -21l-17 -33zM674 1263l4 6v-6l-4 -5v5zM680 1272q9 0 9 9l10 -6q0 -5 -19 -9v6zM637 1291l-23 -13v-6q11 0 23 19zM46 1314l-6 3l2 -9z" />
    <glyph glyph-name="one" unicode="1" horiz-adv-x="470" 
d="M207 3v19l10 -10l-7 10h-8l-23 -10v10l-7 -10h-9l-22 10v9l8 9v10h-8l8 9v19l-8 9l8 9v29h-16v28l8 -9h8v19l-8 38l8 28h-16l16 28l-8 66l8 10h-16l8 9v9h-8l8 10v38l-8 9v10h16v18l-8 -9h-15l23 28l-23 85l15 19q0 47 -15 47l7 10v9l-7 9v10q0 28 23 28l-23 57l23 18
l-8 10v18l8 10v10h-16v37l16 19l-8 28l8 29h-16l16 28v9l-8 38l8 29l-8 -10h-8v19h16v56l2 51h-95l-11 63l2 5l9 10h7q-5 33 -16 33l9 9v19h-16v9l109 20l7 -10l7 10h9l7 -10l23 10l30 21l44 10l8 -10v10q30 -2 30 -18v-9l13 -28l4 -120l-7 -38l-3 -94l-7 -9h7l-7 -10v-9
l7 -48l-18 -28l16 -151l-8 -9h8l-8 -10v-18h15v-10h-15l31 -66v-9h-16v-28l8 -48l-8 9h-7v-9l15 -19l-15 -66h23l-23 -75l15 -18q-15 0 -15 -48l-16 -19l8 -9v-29l-8 -56l8 -28l-8 -66l8 -57l-8 -47l8 -9l-15 -19l-38 9h-23l2 1h-7l-9 10z" />
    <glyph glyph-name="two" unicode="2" horiz-adv-x="662" 
d="M287 1321h88q142 0 177 -127l-14 -35l14 12h15q30 -45 30 -127v-115q0 -160 -148 -368q-192 -218 -192 -368l30 -23h295v-172h-148v11q45 0 45 23h-45l-59 -34h-280v69l15 11l-15 12v11l15 12l-15 11v12l30 161h-15q85 188 251 402q88 132 88 345q-36 104 -74 104h-14
q-118 0 -118 -138h14l-14 -12v-57l14 -12v-11h-14l14 -12v-11l-29 -23h-133v184q0 174 192 265zM-126 1148l45 -12l14 12v11l-14 12h-15zM405 607v-34h29l15 57h-15zM361 124l-15 -34h15l14 11v23h-14zM434 90l30 -23h15l-30 23h-15z" />
    <glyph glyph-name="three" unicode="3" horiz-adv-x="687" 
d="M297 1349h75q156 0 236 -176l-193 -53q-21 38 -75 38h-43q-50 0 -85 -99q-65 0 -65 -69h-21v8l11 8v7h-22l-75 -7v7q7 237 86 237h11v7h-22v8q69 84 182 84zM604 1144h11v-68l11 -8l-11 -8v-7l11 -8l-11 -8v-7l11 -61q-11 -107 -32 -138h10q-34 -70 -96 -114v-8
q96 -90 96 -122h-10l-54 15l-32 -7v-16h32q56 0 75 -38h11l10 -130h-10l10 -7v-31l-10 8h-11q0 -15 -32 -15l-11 7h-21v-7q85 -8 85 -23v-46q-42 0 -42 -15l10 -8h11q-14 -38 -54 -38v-54l-21 -23h11l75 84h10v-38l-10 -7l10 -23l-32 -61l-21 -16l11 -7v-8
q-43 -77 -151 -114l-43 -8h-42v8l21 23l-11 22h-21v-53h-22q-110 0 -193 99q-32 33 -32 61h11q32 0 32 31h-32v7l-11 -7h-21v23l21 23q-32 0 -32 15v46h11v-23h21v23l-11 7v8l11 8h11l32 -23h11v30h11l32 -69l10 8h22l-22 -23q140 -57 140 -114h21v7l-21 54h11q38 0 85 30
l43 -46q-13 -29 -53 -45q0 -27 -86 -54l-32 23h-11l-11 -38l32 -8l22 16h11l32 -16v31h21q25 0 32 -38l-21 -15v-8h21q0 16 33 16v30h-22v7q25 0 43 31l-11 7v8q0 32 43 61v23q-43 0 -43 31l-10 -8h-22v15l22 15v-15h21v8l-43 84l-11 38q21 35 43 38l32 -7l22 38l54 -8h21
v15l-64 16h-11q-64 -54 -86 -54v8q0 221 -139 221h-75v183l-11 8v8h75l11 -8q100 0 118 99v54l10 7l-10 8v76q0 18 171 107zM480 975v-8q16 -30 32 -30v7l-11 31h-21zM394 937l11 -23l21 15v8l-11 -8h-10zM336 717v-8q28 0 32 -38l11 -8h11v8l-11 8v7l11 23h-11l-32 8h-11z
M433 656v-8h21v23zM57 419l75 -8h22l11 8l10 -8h11l43 8v-23l11 -30q0 -54 -65 -54l-86 -8v16h22v15l-43 -15l-11 7v92zM79 404l-11 -8v-8h32zM551 312l-22 -15v-8h32v23h-10zM529 259l-11 -23h11l22 23h-22zM111 198v-31h11l10 8h11l-11 23h-21zM218 7l22 -15l21 15h-43z
" />
    <glyph glyph-name="four" unicode="4" horiz-adv-x="737" 
d="M495 1344h52v-15l-42 -7v-8h52v-29h-41q0 -15 31 -15l10 -8v-52h-10q-104 0 -145 -22h-52l-41 15q0 25 52 67l72 15v7h-21v7q0 18 83 45zM361 1337h41l-62 -52v7zM474 1314v-15l21 -14v29h-21zM547 1191h21v-111l10 -82l-10 -8l10 -37v-290l11 -7l-11 -8v-7l11 -75h-11
l11 -7v-30l-11 -30l11 -29v-15l-11 7h-10l-93 -7v7l-21 15q-20 -34 -41 -37l-11 7v209l-10 44l10 37h-10l10 8v7l-10 30l10 30l-10 59h10l-10 38h-21l11 -8l-176 -491l10 -7h135l82 15v-30h21l114 52q36 -30 73 -30h41v-89l10 -7l-10 -8v-82h-31l-52 8l-10 -23l10 -156v-74
h-186v15h10l-10 52v156l-21 15h-280v7h21v8l11 -8h10l21 15v15h-11l-31 -15v15l-31 8q-41 -4 -41 -23h-21v8l10 7l-10 37v45l41 30h52v15h-52l-10 -8h-10l-21 15q69 260 93 260l-10 8v7l21 22l-11 8v7q42 63 156 424l10 45l31 7l41 -15q111 30 176 30zM516 1180h62l21 -14
l-11 -8h-31l-41 15v7zM164 514v-15q52 10 52 23l-10 7h-21zM112 425l-10 -7v-8l10 -7h21v7zM496 284l20 -15l52 7v8h-72zM278 239v-7h73v15zM206 239l-11 -7v-8h52v8zM71 232h10l21 -15h-52zM454 53h31v15h-10zM547 53l11 -7h20v22h-10z" />
    <glyph glyph-name="five" unicode="5" horiz-adv-x="667" 
d="M131 1349h84v-7l-21 -22h11l52 29h11l148 -7l10 7l53 -7h11l95 7l31 -7v-185h-126l-74 8v-8l-11 8h-10l-11 -8h-10l-43 8l-10 -8l-11 8h-21l-21 -15v-66l-11 -8l11 -7l-11 -51v-59l-10 -8l10 -7l-10 -37v-44h10q80 73 169 73q190 0 190 -294v-177h-21q-126 55 -126 74
l10 22l-53 29v37l11 7l-11 8v37l11 7l-32 37q32 0 32 15h-11l-31 -15q0 29 -85 29q-66 0 -84 -95q-64 0 -127 88q-24 0 -42 29v30l10 7v8h-10l10 22l21 162h-10l21 81l-21 37l21 14v111l21 15l-10 7v44l10 8l-10 7v7zM-69 870h10v-15h-32zM479 797l-21 -30v-7h21l21 37h-21z
M57 745l21 -15v-7l-21 15v7zM40 730q131 -50 169 -103v-22h-169v125zM500 561v-8l21 -14l53 7v7zM430 522h32q0 -39 85 -59l10 -7l11 7h10l32 -36v-15l-11 -22l11 -37v-125l-11 -8l11 -7q-70 -213 -211 -213l-43 -8h-10q-248 0 -296 228v8l11 29q-21 32 -21 118v59h179
l-10 -37v-15l10 -36h-10l10 -8v-7l-10 -30q19 -125 116 -125h10q95 0 95 125v221z" />
    <glyph glyph-name="six" unicode="6" horiz-adv-x="704" 
d="M316 1360h22v-22l-11 -8v-7h44l11 37h67l22 -15q-78 0 -78 -22h11l11 7h12q132 -19 132 -37q-5 -16 -55 -30q0 22 -22 22h-22v-15q33 0 33 -22l88 15q28 -21 44 -90l-55 23l-11 -8v-7l77 -52l-11 -8l22 -89l-11 -30l-110 7h-33l-11 -7h-11l-11 7v67l-11 30l11 8v7
q-38 67 -111 67q-99 0 -99 -82v-30h-11q-22 0 -22 23l-11 7h-22q0 -52 77 -52v-22l-22 -15h-11l22 -45l-22 -38l11 -7v-90h-22l44 -59l11 37h11l11 -30l-22 -15q22 -45 66 -45v23q-24 20 -33 75h-11q0 38 110 67q178 0 232 -187l-22 -52q33 -44 33 -172l-11 -30h11
q0 -45 -187 -45v45l22 23l-33 30l11 37q0 135 -78 157h-55q-99 -44 -99 -135h11l-11 -7v-30l11 -8l-11 -7v-60l11 -7l-11 -8v-97q-101 0 -177 -52l-11 7v15h22v8h-22v216q0 15 66 15l-11 8v7l-11 -7h-11l-33 7v52l11 38l-11 45v37l11 7v8l-11 7h11l-11 8l11 52v22l-11 8
l11 37l55 -22v7l-55 38v127l22 104h11l11 -30h11l11 38l-33 29l11 8v15l-11 7v8l44 7l-11 45q83 97 199 97zM161 1248v-22l23 15l-11 7h-12zM117 1211v-8l22 -15h11zM161 1136v-7l23 -15h11v7l-22 15h-12zM515 1054l22 -15h11v22zM128 927v-7l33 -38h-11q-22 0 -22 23l-11 7
h-11l-11 -7v-8q33 0 33 -30h11l11 8l11 -8h12l22 15v15l-56 30h-11zM393 875v-15l144 -120l33 8v-8l11 -37l-66 22v-7l88 -60h11l-11 23l11 7v8l-33 59q-86 0 -132 97l-45 23h-11zM117 852l22 -15h22v15h-44zM603 390q0 -15 33 -15v-30l11 -23q-50 -313 -176 -313
q0 -22 -166 -30q-177 34 -177 82l-33 22l11 8v7q-66 25 -66 157q28 0 88 37l67 15h22q0 -141 110 -141q122 0 122 141v53l11 7v8l55 -8zM106 136l-11 -8v-7l33 -15h67v22l-45 -7z" />
    <glyph glyph-name="seven" unicode="7" horiz-adv-x="551" 
d="M407 1316l7 -9l8 9h15v-18l7 9h7l8 -9l7 9h45v-18l-7 -9l7 -9v-10l-7 -27h7l-7 -9v-19l7 -9v-9q-15 0 -30 -110h-7l7 -9v-10l-22 -46l7 -9l-15 -18h8l-45 -156l8 -9l-23 -37l8 -9v-9l-30 -83l7 -9v-9l-22 -83h7l-29 -101h7l-37 -101l7 -9v-9l-22 -74l7 -27
q-12 0 -37 -120h8q-31 -132 -45 -138l-23 10l-7 -10h-7l-23 10v27l30 9v19h-30l-15 -19l-7 10h-8l-22 -10l7 10l-7 9v18h7l23 -18h7l-7 9v9l7 9h-15v19l38 -10l7 10v9h-22l7 9v18q-22 0 -22 19l7 9h-22l-8 -9h-7l7 -9v-19h-22v9l8 28l-8 9q22 0 22 18h-14v19q22 0 22 37
l-15 18v9l15 55l22 -18h8v9q-23 0 -23 37l8 -9h7v9l-7 36l97 450q15 0 15 46l22 28l-7 9q11 37 22 37l-8 9v9q23 83 38 83l-23 27v9l-52 -9l-45 9l111 -9l-52 9l-97 -9h-45q0 28 -15 28l8 -9v-19h-8q-37 0 -37 28h-8l-7 -9h-8v46l8 -10h7l23 10v9l-15 27l-8 -9h-22v9l7 9
l-7 10v9q0 55 60 55v9l52 -18v18h30v-9q-23 0 -23 -18l23 -19h15l-8 9v28l30 9v-9l60 18h7l7 -9l8 9h15l-111 -18l15 18h172l7 -9h8v18zM62 1271l8 -28h7l15 18zM92 1215v-9q6 -46 23 -46h7l-15 28v9h15v9zM234 1142l-8 -9v-9h23zM161 352l15 -18l15 18v10l-8 -10h-7v19z
M228 306l-8 -27l23 9zM183 242v-9l22 -9l8 9v18zM176 205v-27l37 -9v9l-8 9v9l8 9h-37zM183 132l22 -9l23 9l-15 18v-9l-8 9h-7zM94 22l7 -9v-10h-22z" />
    <glyph glyph-name="eight" unicode="8" horiz-adv-x="670" 
d="M321 1338q116 0 222 -115v-15l-9 8h-20v-8q0 -14 49 -14q29 -102 38 -237l-9 -22h9q-27 -144 -58 -144h-9l9 -7v-29q-48 -38 -48 -57q64 0 116 -216q-6 -29 -77 -29h-49q-58 0 -58 51q0 68 -77 100h-20q-83 0 -106 -100l10 -8v-7l-10 -28v-8l10 -7v-7l-97 -22v-7l-10 7
h-10l-58 -14h-9v36q0 154 96 266v7q-26 6 -77 79l10 8l-39 115l10 36l-10 7h10l-10 7v7l10 7l-10 8v57q2 86 19 86l-9 8v7q69 187 251 187l10 7h10zM321 1295v-7q65 0 96 -58l20 -29l-20 -14l49 -15l19 15v21q-48 0 -48 22l9 7l-38 15l9 7v14q-29 0 -29 22h-67zM272 1273
l29 -21h29l-29 21h-29zM350 1252l19 -15h10v15h-29zM446 1252l29 -36h20l-10 36h-39zM272 1158q-58 -74 -58 -101v-129q0 -137 107 -137h19q58 14 87 87v7l-10 36l10 21l-19 115l9 22q-22 72 -96 72zM156 978v-14h29v14h-29zM437 906v-14h19l19 14h-38zM437 432h19l68 -15
l87 8v-15h10l-10 -36v-115l-10 -29l10 -7v-7q0 -93 -136 -209q-64 -21 -135 -21q-149 0 -194 72q-87 58 -87 287v8q39 0 39 43h10l29 -15l38 22h39l20 -14v-87q0 -144 135 -144q77 42 77 209zM456 137l-58 7l-10 -7v-7q58 0 58 -15v-7h-19v-14h10q69 36 106 36q0 16 -48 21z
" />
    <glyph glyph-name="nine" unicode="9" horiz-adv-x="665" 
d="M656 1549h20v-36l-20 14v22zM383 1354q82 -21 111 -51l-10 -7v-8q91 -88 91 -202h-10l10 -7v-123l-10 -8l30 -116h-10l10 -7v-58l-10 -7l20 -65l-30 -43l-71 36l-10 -8v-7q51 -21 51 -58l-10 -7h-10l-41 22v-22l71 -22h10v22l40 -36q0 -36 -30 -36l20 -29l-10 -7l10 -8
h-20l-20 15l-71 -7h-30l-10 36v58h-30q0 -62 -91 -94q0 -15 -71 -15h-30q-152 64 -152 239l-10 7v7h10l-20 66l10 7v58l-10 7v7l10 7h-10l10 8v7l-10 7v7l10 37l-10 7h-10l10 7v7l-10 58l10 116h10l-10 7q33 115 141 167l61 21h71zM393 1310q0 -22 -60 -22v-7h70v15h21v-15
h10l40 29h-10l-10 -7h-10l-51 14v-7zM464 1281l-20 -14v-15h30v29h-10zM171 1252l-10 -29h20l10 29h-20zM424 1245v-22h20v22h-20zM222 1042l10 -21h-10l10 -8v-7l-10 -7l10 -7v-15l-10 -7v-7q-59 4 -91 21v-21h60l11 -22l-11 -7h11l20 14l10 -29l-10 -7q6 -58 20 -58
l-10 -7v-15l10 -7l-10 -7v-7q0 -138 151 -138v7q0 51 51 51v7l-20 22v87l-11 36h11l-11 7v37l21 43q-23 0 -31 65l10 7l-10 37v28q26 0 31 37h-10l-11 -8l-20 22l20 22q-181 0 -181 -109v-29zM525 1028v-29l-11 7h-10v-7l10 -7h21v36h-10zM232 673q0 -18 -51 -21
q0 -37 -40 -37v-14h10l121 36v-7l10 7h31l-11 -36v-7h21v36l-21 36h-50l-10 7h-10zM343 637l-10 -7v-7q23 -44 40 -44q-10 58 -30 58zM323 543q0 -15 -41 -15v-7h20v-7l31 7v22h-10zM555 405l71 -14l10 7l10 -36h-10l10 -22l-10 -36h10l-10 -7v-36q0 -97 -71 -109l-51 29
q-20 0 -20 -22q-91 -12 -91 -29l51 -14v7l-20 15h10l30 -8q30 0 30 22l61 -14l10 -44q-56 -87 -121 -87q0 -14 -71 -14h-30q-273 0 -273 326v29h152l20 -15v-87q0 -60 91 -72h40q61 0 71 130v80q0 16 101 21zM242 145q0 -22 -40 -22v-14h30l50 7l-10 7v7l10 8l-10 7h-30z
M323 116l20 -15h40v8l-10 36zM161 123v-7h30v14z" />
    <glyph glyph-name="colon" unicode=":" horiz-adv-x="358" 
d="M109 948l9 -10l10 10h40l40 -10l40 10h10v-70l10 -50h-10l10 -10l-10 -69v-10l10 -70h-10l-169 -10l-20 80l10 10h-10l10 10v10l-10 10v9l10 40l-10 40q12 80 40 80zM159 359h60v-5h80l20 -4q0 -10 -20 -10l10 -2v-2l-10 -7l30 -2q0 -4 -50 -12l-50 4v-10h-20l10 2v2h-10
l-10 -2v4h-10v-4l-40 6l-10 -2h-10l-9 2v2h9l-9 2v8q0 18 39 30zM20 159h10l-20 -19h-10zM90 159h30v-19h-10zM80 120l20 -20l-10 -10l10 -10v-20h-30l-20 20l10 10l-10 10zM126 289l10 -10l10 10h40l40 -10l39 10h10v-70l10 -50h-10l10 -9l-10 -70v-10l10 -70h-10l-169 -10
l-20 80l10 10h-10l10 10v10l-10 10v10l10 39l-10 40q12 80 40 80z" />
    <glyph glyph-name="semicolon" unicode=";" horiz-adv-x="420" 
d="M149 948l9 -10l10 10h40l40 -10l40 10h10v-70l10 -50h-10l10 -10l-10 -69v-10l10 -70h-10l-169 -10l-20 80l10 10h-10l10 10v10l-10 10v9l10 40l-10 40q12 80 40 80zM157 348h70v-20h94l23 -19q0 -49 -23 -49l12 -10v-10l-12 -29l35 -10q0 -18 -59 -59l-58 20v-48h-24
l12 9v10h-12l-12 -10v19h-11v-19l-47 29l-12 -10h-12l-10 10v10h10l-10 9v40q0 80 46 137zM-6 152h11l-23 -19h-12zM76 152h35v-19h-12zM64 114l23 -20l-11 -10l11 -10v-19h-35l-23 19l11 10l-11 10zM239 137h35l70 -38q0 -59 -94 -313h-58q-24 0 -24 30q0 81 47 195v9
l-23 20l-12 -10h-12l-23 30v19q0 58 94 58z" />
    <glyph glyph-name="semicolon" unicode="&#x37e;" horiz-adv-x="420" 
d="M149 948l9 -10l10 10h40l40 -10l40 10h10v-70l10 -50h-10l10 -10l-10 -69v-10l10 -70h-10l-169 -10l-20 80l10 10h-10l10 10v10l-10 10v9l10 40l-10 40q12 80 40 80zM157 348h70v-20h94l23 -19q0 -49 -23 -49l12 -10v-10l-12 -29l35 -10q0 -18 -59 -59l-58 20v-48h-24
l12 9v10h-12l-12 -10v19h-11v-19l-47 29l-12 -10h-12l-10 10v10h10l-10 9v40q0 80 46 137zM-6 152h11l-23 -19h-12zM76 152h35v-19h-12zM64 114l23 -20l-11 -10l11 -10v-19h-35l-23 19l11 10l-11 10zM239 137h35l70 -38q0 -59 -94 -313h-58q-24 0 -24 30q0 81 47 195v9
l-23 20l-12 -10h-12l-23 30v19q0 58 94 58z" />
    <glyph glyph-name="less" unicode="&#x3c;" horiz-adv-x="1398" 
d="M1358 270l-9 -10l-270 60v-9q-232 71 -349 71h-9q0 -48 -18 -71l-35 20q0 30 -26 30q-34 81 -166 81l-436 101v21l9 11l-9 9v244q230 81 611 161l26 32l-9 -32l9 -30h44l9 10q0 61 52 61l9 10q419 99 419 122l8 -10l114 30l17 -50h-8l8 -10l-8 -31l17 -162l-9 -41
q-345 -81 -532 -101q-87 -13 -87 -132v-9l8 9q620 -80 620 -112v-273zM730 1040l-27 82l44 -11v-71h-17zM712 646l-9 9l-26 -30h35v21zM660 695h-9l-9 -9h-8l-9 41v9q-140 0 -192 -30h-9l-9 10l-17 -21l52 -9l9 9l26 -19h87q26 0 79 -51h9v70z" />
    <glyph glyph-name="equal" unicode="=" horiz-adv-x="671" 
d="M431 619l63 -24l32 -2l-10 11l1 10h10l30 -23l33 9l10 -11l-1 -10l-11 -10l10 -11l-1 -20l-21 1l19 -32l-11 -10l-10 1l18 -44l-23 -50l10 -11q-21 1 -23 -30l-33 -9l-10 11h-10l-33 -8l1 10l-11 -9h-11l-31 12l-32 -8l-11 11l-1 -21l-20 22l-85 -16l1 20l-117 -14
l-12 11l-1 -20h-10l1 21h-10l-54 -7l-18 53h11l-20 42l12 10l2 41l-9 43l15 50l137 -7l233 -3zM240 695l-63 24l-32 2l10 -11l-1 -10h-10l-30 22l-33 -8l-10 11l1 10l11 10l-10 11l1 20l21 -1l-19 32l11 10l10 -1l-18 44l23 50l-9 11q20 -2 22 30l33 9l10 -11l10 -1l33 9
l-1 -10l11 9h11l31 -12l32 8l11 -11l1 21l20 -22l85 16l-1 -21l118 14l11 -11l1 21l10 -1l-1 -20l10 -1l54 8l18 -54l-11 1l20 -43l-12 -9l-2 -41l9 -43l-15 -51l-137 8l-233 2z" />
    <glyph glyph-name="greater" unicode="&#x3e;" horiz-adv-x="1398" 
d="M40 543q0 32 620 112l8 -9v9q0 119 -87 132q-187 20 -532 101l-9 41l17 162l-8 31l8 10h-8l17 50l114 -30l8 10q0 -23 419 -122l9 -10q52 0 52 -61l9 -10h44l9 30l-9 32l26 -32q381 -80 611 -161v-244l-9 -9l9 -11v-21l-436 -101q-132 0 -166 -81q-26 0 -26 -30l-35 -20
q-18 23 -18 71h-9q-117 0 -349 -71v9l-270 -60l-9 10v273zM651 1040v71l44 11l-27 -82h-17zM686 625h35l-26 30l-9 -9v-21zM738 625h9q53 51 79 51h87l26 19l9 -9l52 9l-17 21l-9 -10h-9q-52 30 -192 30v-9l-9 -41h-8l-9 9h-9v-70z" />
    <glyph glyph-name="question" unicode="?" horiz-adv-x="522" 
d="M211 1338h25q171 0 204 -112q10 0 16 -43l-8 -7q19 0 33 -91l-8 -28l16 -43l-16 -56l8 -21l-8 7h-17v-14l9 7h8v-14h8l-57 -198h-41v-7q0 -14 24 -14q-32 -112 -73 -112l-41 -7l-8 7h-8l-49 -7v-7l8 -7v-8h-25v8q0 53 98 239l-8 7v7l25 42l-8 7l16 85v99q0 83 -57 105h-8
q-82 0 -82 -127v-56l-8 -7l8 -7v-70h-139v98l-8 28q16 162 41 183l-8 22q60 86 138 112zM465 1042l-9 -7v-21l17 14l-8 7l8 7h-8zM448 902l-8 -29h8l8 7v22h-8zM399 775v-21l17 -14l8 7v28h-25zM383 535l16 -14l-49 -141l8 -7v-14q-32 -27 -32 -49l8 -7h8q0 21 16 21l9 -7
l-9 -21l9 -21h-17l-8 7l-8 -7h-90l-16 14v56l8 7l-8 7v7q0 148 81 148l58 7zM220 183h147l-9 -49l9 -57l-41 8h-25l-8 28h-8v-21l8 -7l-33 -15v-14h9l24 7l16 -14h17v7l-8 21h8l24 -7l-8 -35v-21h16l-16 -14h-122v28l8 7l-8 7l8 28l-8 22l8 56z" />
    <glyph glyph-name="at" unicode="@" horiz-adv-x="807" 
d="M478 1298q176 0 242 -195q19 -51 32 -222h-6l6 -6l-6 -46v-85q-40 -286 -85 -286l-85 -26q0 18 -45 26l-7 -7l-32 7h-27l-6 -7h-7v20q-39 0 -39 -26l-97 19l-111 -19h-7l-52 13q-58 -4 -58 -13l-7 6h-13l-6 -6h-7l-26 19l-78 -45l-32 6l-20 -6l-13 13h-6v-20h-13v13h-7
l-72 -13l-6 7v-20h-7q-34 28 -91 39v-6l-6 6h-20l-6 -6q-20 0 -20 19h-26l7 -6v-7l-7 -6l-33 6v7h20v6h-13v7l7 19l-7 7q61 0 72 13h13l52 -20l39 20l78 -26h7l32 19q7 -21 26 -26l65 26l7 -6h19l32 26h7q0 -20 13 -20h7v59l6 98h-6l6 6v26l-6 7l19 32l-6 7q19 169 32 169
l-6 7v6q100 293 215 345q0 25 175 46zM361 1265v-6l13 -13l7 6v13h-20zM420 1207v-7l13 -13v7zM381 1168q0 -15 -78 -65q-99 -110 -131 -294v-13h-6l6 -6v-7q-19 0 -26 -260h7l-7 -20l20 -32l65 26l13 137h-7q35 319 92 319l52 32q58 0 91 -84h6l7 32h-7q9 39 20 39h78
q13 0 13 -19l-13 -85v-46q0 -33 -19 -39l13 -19l-26 -222v-58h32q42 31 72 195l6 7h7l6 -7v7l-19 32l6 33v71l7 7l-7 6l7 46v7q0 188 -130 260q-34 0 -53 20l-45 -7h-39l-7 7h-6zM342 588v-46l32 -32h33q31 3 52 143l-7 20l13 110q-22 46 -32 46h-33q-48 -14 -58 -241z
M518 614l-7 -7v-6l7 -7h6l7 7v6l-7 7h-6zM850 581q5 -26 52 -26v-13h-20l-6 7h-7q-14 -46 -123 -46v13l32 39q0 -19 13 -19q9 27 59 45zM446 386l104 -20h26q46 -18 46 -39h13q2 26 45 26q0 -13 20 -13q0 -47 -111 -110q-104 9 -104 39q-12 0 -13 65h-13q0 -35 -52 -85
l-52 -6q-72 20 -72 97l-6 7l6 26l26 6h20l13 -13v-6l32 6h33q0 13 32 13zM101 379l32 -13l26 13q0 -11 33 -19q0 -180 150 -274l78 -19q122 0 221 104h7q0 -182 -52 -182q0 -36 -144 -59h-78q-163 42 -163 91q-57 37 -104 215h7q-15 13 -26 137l6 6h7zM393 132h12l-8 -8
l-4 4v4z" />
    <glyph glyph-name="A" unicode="A" horiz-adv-x="712" 
d="M274 1397h393v-3l-7 -7v3l-4 -3h-7l-3 3l-25 -7l-3 4h-3l-11 -4v4l-3 -4h-63l-17 -3q0 -40 14 -62h-4l42 -139h-4q10 -28 25 -177h-4l4 -4v-21l-4 -3l7 -31l-3 -14l3 -11l-3 -3l3 -4h-3l3 -3v-3l-3 -4l7 -17l-4 -4v-21l4 -3v-3h-4l7 -21l-3 -4l17 -128l-3 -11l3 -3v-4
l-3 -3l17 -101h-4q7 -14 11 -55h-4l21 -83l-3 -4v-3l10 -39l-3 -13l10 -4l10 4v-11l-3 4l-3 -4h-4l-3 4h-4v-14h7v-4h-7l4 -14l3 4h4l3 -11q-8 0 -10 -17h7l-7 -17l7 -25h-4l7 -41h-3q6 -7 10 -77l3 -3h-3l3 -3v-4l-3 -3l7 -28l-4 -4l7 -52l-10 -3l-4 3h-3l-10 -3l-14 7
l-4 -4h-3q-56 5 -56 14l4 4v3q-7 0 -7 11l-14 6l-7 -6l-4 3q0 -14 -10 -14l-7 7l4 4v3q0 8 -18 10l4 4v14l-4 -4h-7q0 11 -10 11v-4l7 -7v-3h-7q-7 0 -7 14h-7l3 3v11q-15 10 -24 69h4l-7 14h3l-24 125q0 10 -24 10h-32l-3 -3l-4 3h-7l-3 -3l-3 3h-4l-3 -3h-4l-3 3v-3
l-52 10l-4 -3h-3l-4 3h-3v-3l-4 3h-3l-21 -3l-10 3q-11 -24 -49 -208l-7 -7v-10l4 -4v-3q-7 0 -11 -35l-7 -24l-17 -4h-4l-3 4l-4 -4l-34 4h-28l-7 7l-3 -4h-11l-7 7l-10 -3l-18 10v-3q-17 3 -17 17l14 7l-4 3v11h11v3l-14 4l-3 -4l-4 18l7 6l3 -3h14v7q-17 0 -17 21l17 48
l-7 7v4h7v3l-3 18l10 3l-7 10l14 53l-3 10l3 3h-3l21 87l-4 4v3q18 73 24 73l-3 3v4q10 10 38 135h4l-4 4l14 45h-3l6 28h-3l17 59l-3 10q6 0 17 45l21 87l21 94h-4l11 24l-4 3l11 38h-4q7 9 21 101h-3q7 16 7 45v4l-4 3l7 42l-3 45v7l3 3v4h-3l3 3v11l-3 3q4 38 13 38z
M323 714h3l-17 -63l4 -3v-4l-14 -76l14 -7l17 3l17 -3l4 3h3l4 -3h3l24 3l18 -3v3l3 -3h18l17 3v39l-3 3l3 4l-7 38h4l-4 3v14l4 4l-7 34l3 4l-7 69h4l-11 90h4l-4 4v7l4 3l-7 31l3 21l-7 35l4 3l-4 4h4l-4 3v46l-3 3v3h3l-3 14q-10 0 -25 -79q-31 -100 -59 -247zM59 953v-7
l18 -3v10l-4 -3h-3zM0 870v-4l11 -3v7h-11zM21 856v-7l17 -3v7l-6 6zM583 818v-4h14v4h-14zM-24 748v-3h7l3 3v4zM538 134l4 -3h3l7 7l-3 3h-4zM569 79l11 -11h-4l-7 7v4z" />
    <glyph glyph-name="B" unicode="B" horiz-adv-x="676" 
d="M505 1297l208 10l1 -10q0 -8 -25 -9v-3l-4 3l-18 -4l-32 -2l-31 -5l-5 4l-3 -1q-29 -3 -28 -8l-3 3h-4l-4 -4h-3l-11 3v-7l-21 6q0 -10 -7 -11h-4v7h-11v-4h7q1 -18 19 -17l-3 -3q2 -15 11 -15l-3 -3v-7q20 -14 43 -66q50 -69 53 -122l3 -11l-2 -14l4 -11l-3 -11h3
l-5 -26l4 -4v-3l-3 -15v-14l-7 -1l4 -3v-11q-6 -8 -6 -25l-6 -7l4 -4q6 -32 -6 -32l3 -4v-3l-10 -1v-4l14 1l-4 12l-11 7l-4 -4l1 -4q11 1 11 -6l-4 -11h-7q0 14 -11 13h-3q0 -7 11 -6v-7l-10 -16l11 -2l-3 -4v-11h7v8h4v-8l-3 -10l-15 6v-4l4 -9l-3 -1l3 -3v-7l-10 2l3 4v4
h-3l-11 -4l8 -11l3 4h7l1 -4l-13 -18h3l-3 -3v-4l4 -11h-3l-16 3l-9 -4l-5 3l-3 -14l8 1q7 0 7 10h7v-7l3 4l4 1v-7q-11 -1 10 -11q-10 0 -10 -7l-4 2l-4 -3h-3l-4 3h-3l1 -14q9 0 10 -7v-11h-3l-4 4l-30 -9l-1 7h-4l-10 -4l1 -3l31 -3v-3q-24 -3 -23 -12v-4l3 -3v-4h-7v7
h-3v-7l3 -3l-10 -9l-4 11h-4v-7h-3l4 -4v-3q-29 -31 -101 -48l-15 -5l-68 -3l-2 -4h-4l-4 3l1 -3l-5 3h-3l-17 -4l-5 3l1 -7l-3 -1l-4 4h-4l-3 -4v-3l-25 6q-3 -32 -12 -44l7 -7q-6 0 -14 -25l5 -4v-3l-3 -18l4 -4l-3 -18l2 -45l-3 -3l5 -34l1 -18q1 -18 -6 -19l4 -2l1 -18
l-3 -18l4 -3h-4l4 -4v-7l-2 -97l8 -7l-7 -7l3 -50l3 -3v-4l-3 -4l-4 -1l4 -2l3 -57l-3 -15l5 -14l-4 -11h4l-5 -28l3 -4v-3l-3 -11l-10 -1l-15 -3l-15 6l-2 -4l-84 4l-3 -5h-4l-21 6l3 10h-3q-14 -1 -15 17l2 12l-4 13l3 5v2l-8 18l4 4l-3 57l3 4l-3 3l-2 39l-4 4l3 4v7
l-4 3l4 4l-1 7l-4 3l4 4l-1 25l-4 3l6 19l-4 3v4l3 3v4l-4 11h3l-3 3l-1 22l3 3l-3 4l-1 7l3 14l-4 11l3 3h-3l3 4l-4 77l4 3l-5 24l-1 10l4 4l-4 4q-3 44 13 85l-4 4q2 21 7 21l-4 4v3l5 34l-3 9l2 12l-4 20v4l3 5l-9 34l4 61l-3 4l-1 3q24 88 22 136l-4 3l3 4l4 1l-4 2
l-1 18l4 5v3l-4 -1l5 33l-4 18v12l-24 120l2 15l-3 -1l2 12l-7 13l7 1l-1 11l-7 -1l6 30l-3 -1l17 76l-4 17l-1 11l301 19l75 4l4 -4h3l4 5q0 -11 18 -10q-1 14 45 16zM228 1090q7 -42 14 -42l-4 -4v-4l19 -84l-4 9h4l-4 -4l1 -25l4 -3l-6 -32l4 -4v-4l-3 -3v-4l4 -14h-3
l4 -4l1 -17l-4 -4v-4h4l-4 -3l1 -14l4 -4l-4 -4v2l-2 -22l3 -3l1 -4l-3 -10l3 -4l-3 -4l4 -3l-3 -4l-4 -1q1 -21 33 -19l43 -2v4l-6 -4h3l36 9l4 -3h3q10 1 49 56q26 38 24 86l-4 14l3 4v60l4 4q-6 22 -18 44h4q-18 55 -61 76l-52 15l-17 -5l-29 -1l-21 3q-22 -6 -22 -16z
M540 805v-3l12 -3l-1 7zM563 792v-7l18 -3v7l-7 8zM508 716v-3l18 1l3 3v4zM471 -52q-18 0 -19 -11l-4 4l-3 1l-4 -4l-75 2l-159 -7v11l4 17l12 238l8 34l-3 4l7 65l-1 121l5 53l-9 58l-3 64l62 -9l123 16l72 36v-3l3 3h4l3 -3l-4 34l15 -4l-43 46v-3l-4 -4h3v-7h4l4 11
l10 -9l-3 -2l20 -6l3 -1l-20 6h7l20 -3l-3 -3v-4q0 -9 13 -11v-3l-21 -3v-3l10 -5h4v7l21 -8l14 5h3v-11q-1 -7 -21 -7v-14l3 -1l4 3l13 1l4 -3l4 2q0 -7 10 -7q-1 -11 10 -11v-7h-4l-3 4v-7h-7q0 10 -7 10h-18l14 -13l4 3l10 -4l15 4l3 -1l-3 -10v-4l3 -4l-3 1l13 -19v-4
h-7l-4 4l-7 -10l10 -5h3l1 4l-3 4l10 3v-7l-4 -4h3l-3 -10l-10 -4l24 7l-6 -11v-8h-4v8h-7l-1 -11l4 -4l-11 -2l11 -16l-1 -7q-11 1 -11 -6h3q11 -1 12 13h7l3 -10q0 -7 -11 -7v-4l4 -4l10 8l3 -18h-14v-4h10v-3l-3 -4q12 -1 18 -53l-4 -4l8 -37q0 -17 6 -25v-11l-3 -3h7
l-1 -14l4 -15v-3l-4 -4l5 -46h-3l3 -11l-4 -11l3 -14l-4 -11q-1 -53 -51 -124q-22 -52 -41 -66v-7l3 -3q-9 1 -11 -14l3 -4q-18 1 -19 -17h-7v-4h11v7h4q7 0 7 -10l21 6v-7l11 2h3l4 -3h4l3 3q0 -5 29 -8h3l4 4l32 -5l32 -1l18 -4l4 3v-3q25 -1 24 -9v-10l-208 7
q-46 2 -45 16zM237 119l22 4l29 -1l16 -5l73 15q42 22 60 77l-4 1q11 21 17 63l-4 4l9 60l-3 4l4 14q-1 98 -27 166q-40 54 -70 55h-3l-4 -3l-36 9h-3l-4 -4v4l-43 -3q-32 1 -33 -20h4l3 -4l-3 -3l3 -4l-3 -4l2 -10v-4l-3 -3l2 -22l-1 -28l4 -4l-4 -4v-14l4 -3h-4l-1 -4
l4 -4v-17l-4 -4h4l-4 -34v-4l4 -3l1 -34l-4 -4l7 -32l-4 -3l-1 -25l4 -4h-4l4 -11l-18 -84v-4l3 -4q-7 0 -12 -42q0 -10 21 -16zM543 524v7l-11 -4v-3h11zM566 533l7 8l10 7l-18 -3l-10 -8zM522 646v4l-2 3h-8v-3z" />
    <glyph glyph-name="C" unicode="C" horiz-adv-x="758" 
d="M959 307l3 35l-16 1v-8l7 -10v-8l-9 -8zM943 387l1 9l13 -19v-9zM945 1096l1 -8l-25 -19l-7 -1zM964 495l15 -2l-2 -17l-7 9l-7 1q-15 -90 -45 -48l-7 -40q41 98 53 97zM882 1073l9 -7h7l7 10l9 -8l1 -17l-8 7h-8q-23 -3 -20 -29l-8 -1l-2 26zM444 851l16 -2v49
q-30 3 -29 20l1 9l23 -2l-1 -18l24 15l-1 -8l28 -78v-39l-32 -5l-7 39l-8 1l-8 -38zM958 538l10 43l16 -2l-9 -8l15 -44l-1 -9zM974 642l-2 9l1 9l3 8l-5 1l1 8h7l-2 -26l2 -1q3 26 14 25l-1 -17l9 -1q4 -1 10 34l1 8l-5 1l-3 -9l1 9l-2 9l7 25l1 9l6 -9q11 10 -62 41l2 35
l2 43l3 9l4 78l2 17l3 8q1 166 -10 167q-2 -26 -9 -25l-2 9h-2q-12 1 50 -119l1 -26l-12 -86l-1 -43l-1 -9l-3 -8l1 -9l-1 -9l-2 -8l2 -9q-14 -104 -19 -103l1 -26q9 -1 8 -19h2zM392 4l-3 3h-3v-3l3 -3h-3l-9 6h-6l-3 -3l-3 3h-3l-4 -3v3h-3l-3 -3v6l-3 -3l-31 6l-3 -3
l-3 3h-21v3q-59 18 -99 37l-44 28l-12 12q-46 53 -52 53q-51 93 -56 176h3l-6 56l3 15v59l3 3l-3 3v9l3 3h-3l3 3l-3 13l3 12v59l3 3l-6 12h3l-3 13l3 18v9l-3 16l3 3v3l-3 3h3v3l-3 3v6l3 16l-3 18v56l3 3h-3l3 3l-3 16v55l-3 16l3 9v37l3 3l-3 3v53l-3 3l9 12
q43 -4 43 -15h16q27 0 43 -25q36 0 46 -15h3l4 3l-19 27l-18 -3q-15 0 -28 10l-25 18h-3l-3 -3q-12 10 -37 19q-16 8 -16 24l3 3h-3l6 16h-3l7 31v3l-4 3q16 70 34 114h-6q0 -12 -21 -12l-10 3h-3l-3 -3v3h-3v-3l3 -3v-3h-6q-7 6 -34 9v9h12l4 -3v3h6q-12 22 -22 22v6l3 -3
l9 9v3l-9 -6h-3l-3 3l-3 -3h-3v3l6 9l34 -6l-3 -3v-6h3v6l9 -3l-3 -9l3 -16l-3 -9v-3l6 6v22l16 -3h12v-6h3v6l-3 3v3l3 3l-9 9l6 6v4h-3l-3 -4h-6l9 13h3v-6h3l3 3h10l12 -34h3v21l22 -6h3l3 3l6 -6l3 9l9 -3h3l4 3v-3l6 6l-6 7l3 15l3 -3h3l-3 3v3q27 4 27 9q28 -2 34 -9
h10v3q0 6 -10 6v7h19l9 6q7 0 10 -16l21 25q0 -15 9 -18v9h4l6 -6l-6 -13l12 -6l28 6l-3 -3v-3l9 9v7l-3 3q12 0 12 12h9q0 -9 7 -9h6q0 8 15 12h3l3 -3l3 3h4l3 -3v3l3 3l9 -3l28 3h3l3 -3l12 6v-6h3l3 12l7 -6l9 6h6l25 -6l15 3v7l-3 3l19 15h3v-6h3q0 9 6 9h3l3 -3v3
l16 -6v3q15 0 15 12h3l3 -3l-3 -3v-3l3 -3l16 6q28 18 37 18h21v-6l10 9q6 0 6 -9h3v6h6l3 -3q0 -12 10 -12q18 -24 27 -24v-3l-3 -4v-3l3 3l16 -3v-6q-2 -6 -16 -12v3l-43 -9l-25 6l-3 -3h-9l-3 3v-3l-3 3l-19 -6l-12 6l25 -31q25 -24 40 -62q0 -6 -9 -6q-22 -29 -31 -31
v-6h3v6q15 0 15 9l9 -3h4l3 3l12 -3l28 -86h-3v-3l3 -3v-16l-3 -3l3 -3v-3l-3 -3q5 0 9 -19l-3 -3v-6q0 -15 9 -15v-7h-3l-3 3v-15l3 -3q-5 0 -6 34v-6l3 -3l-3 -3v-3l3 -3l-3 -3v-6l3 -3l-3 -4l3 -15l-3 -3l9 24l-6 -9v-4h3l3 4v-4l-9 -12v-6l3 -22l-53 -3l-40 -12l-53 17
l-14 7l-16 -191l-44 -9v-3l-3 -3h3l-3 -16v-6l3 -3l-3 -3v-12l3 -13l-3 -12v-15l3 -4l-3 -3v-3l3 -3h-3l3 -18l-3 -79l3 -9l-3 -3v-9l63 -3l50 7l47 -3l63 -11l-3 -9l3 -3v4l-3 -3l3 -3v-22l-3 -3h3l3 -4l-3 -12v-3l3 -3l-6 -58h3l-3 -9v-3l3 -3l-3 -3v-4l3 -3l-3 -3v-3
l3 -3l-3 -3v-6l3 -3h-3l3 -3l-9 -25l3 -3v-16l-3 -3l3 -3v-3l-6 -6v-3l3 -3q-10 0 -10 -9l4 -4h-7v-3l3 -3v-9h-3q-10 -31 -15 -31l3 -3q-17 -42 -46 -62l3 -3l-3 -9l3 -9h-6v9q-31 -20 -31 -34q-16 0 -16 -9h-3l-3 3l-18 -19h-4l-3 3v-6h-3l-3 3l-9 -9l-3 3l-31 -22l-6 7
q-25 -7 -25 -13l-3 3l-22 -12h-3l-3 3l-6 -6q-12 0 -12 9l-13 -9h-3l-3 3v-3l-3 3q-15 0 -15 -15h-10v3h6v9zM448 -2v3l9 3h3l3 -3v3l7 -6l-10 -3zM380 189v9h-9v-3l6 -6h3zM358 195q0 7 13 7v6l-3 3l15 9l3 -9q-9 0 -9 -6v-3h3l16 3v-3l3 -4q9 0 9 13h18l7 -6q8 0 30 15
q7 22 16 22l-6 12q7 0 15 25h-3l-3 3l3 3l-3 3l6 6q0 9 -9 9v4q18 0 18 43h-3v3l3 3v15l4 58l-4 13l4 18l-7 -18h7v4l-4 3v3l4 3l-4 3v3l4 3l-4 3v3l4 -14l-4 3v3l4 3l-4 3v9l4 -14l-4 3v3l4 3l-4 16l4 9l-4 12l4 3l-4 3v3l4 64l-4 3v3l4 3h-4l4 3l-4 37l4 25l-7 31v3l3 3
l-3 3v12l53 3h-3v3l13 63v116l-6 6v3l3 3l-10 -132q0 103 -9 105q0 6 9 6v6l-53 12v4l3 3l-3 21v3h6q0 10 -15 10v-21h6l3 27l3 -21l-3 22l3 15v3l-3 3h3q3 -24 16 0l-3 3q9 0 9 9v3l-3 3l3 19v3h-3l-3 -3h-3q-8 43 -13 43q-7 53 -18 53q0 25 -99 40l-3 -3h-12l-4 3l-12 -6
v3l-31 -13l-21 -18l-19 -40l3 -4l-6 -6l3 -3q-8 -13 -15 -74h3l-6 -18l3 -13l-7 -15l4 -10l-4 -12l4 -12v-3l-4 -3l4 -25l-7 -6v-6l3 -16h-6l-3 3l6 -28l-6 -21l6 -10l-3 -9h3l-3 -3l6 -15v-3l-3 -4h3l-3 -15v-22h7l-7 -9v-9h7v-9h-7l3 -3l-3 -16v-3h3l4 3l-4 -9l4 -25h-7
l3 -3v-3l-3 -3v-3l3 -3h-3v-7h3v7h4v-10h-7l3 -9l-3 -12v-6l3 -3h-3v-4l3 -3l-3 -12l7 -12l-7 -13v-12l3 -3h-3l3 -3l-3 -10l7 -24h-7v-6l13 -16h-6l-4 3l7 -15l-3 -3l-4 3h-3q22 -23 25 -34v-3l-3 -3l15 -3l-3 -10h-3v6h-6l6 -12l-6 -18l9 6v-10l-9 -3l-6 7v3l3 3h-12
l-3 -3l3 -3l-7 -10v-3q10 0 10 -6h-6l-4 3v-6q16 0 16 -6h3q0 12 19 12l3 -15h-10l3 -3l-6 -10q13 0 13 -9v-6q-7 0 -7 12l-9 -9q-9 0 -9 12l-9 -6h-3l-4 3v-3l4 -3v-6l-4 -3l10 -6l-3 -4v-3l3 -3v-3l-3 -3l12 -3v-3l-3 -3h6v-3h-6v-9h3q6 0 6 9h3q0 -6 10 -6l-7 -10h7v-6
q-7 0 -13 -15v-3h6q0 -10 10 -10v-3l-3 -3v-3l3 -3l15 3h3v-3l-3 -3v-3q0 -5 22 -13l12 4zM312 208v3h3q9 0 9 -6zM331 223h6v-3l9 -9l-6 -6q-6 0 -9 18zM442 226h3v-9h-6zM315 226h13v-6h-13v6zM417 223l9 9h4l-13 -12v3zM371 229v16h3l3 -3l-3 -3v-3l3 3l9 -3h3l3 3v-3
l4 -4h-10v-3l3 -3h-3zM318 239q10 0 10 9h3v-12h-13v3zM426 248h13q-5 -12 -9 -12h-4v12zM402 248v3l3 3h3l3 -3h3l3 3l3 -3l-3 -12h-6q0 9 -9 9zM300 257h3l3 -9h-3l-3 -3h-3zM281 257v9h-6v-9h6zM312 266v4l3 3h3l3 -3h10v3l-16 24h6l22 -21h-6l-3 3v-6h6l-6 -7v-3l3 -3
l-6 -6h-3q0 12 -16 12zM340 263v3l9 -9v-3zM423 270v6l16 -6l-3 -10h-3zM476 282h3l3 -12l-9 -10zM278 285q22 -3 22 -12h-6zM337 288h9l9 -9v-3q-12 0 -18 12zM460 288h3l4 -9h-7v9zM281 294l-3 3v3l3 3q10 0 10 7h6l3 -3l3 3v-3l-6 -10l-10 3h-3v-6h-3zM334 297v3l12 3
l6 -6v-3h-6l-3 3v-3zM303 303q9 0 9 16h9q0 -11 -15 -22h-3v6zM445 310h3l3 -3l-6 -7v10zM352 310l6 6l4 -9v-4zM346 319h3v-3q0 -9 -6 -9zM303 331v3h6l3 -9h-3zM343 331v6l12 -3v-3l-6 -6zM442 334l3 3l-9 4v3h12v-16h-6v6zM294 356l3 3l-3 3l12 -3q0 -5 -12 -9v6z
M430 356v3h6l3 -3v3l6 -6v-3l-3 3h-3l-3 -3zM324 362l7 -6v-3h-7v9zM278 368h3l6 -6h-9v6zM352 381v3l10 3v-6l-4 -3q10 0 10 -7v-3q-14 6 -16 13zM383 375h3v-7h-9zM287 375v3l10 3l6 -6l3 -4zM312 381h9v-6h-3zM266 384l-3 3l6 6l-3 12h-9l-7 -6v-3q13 0 13 -12h3z
M383 390v-3l-6 -6h-3zM284 396l10 3l3 -9h-3l-3 -3h-7v9zM312 393l6 6l10 -9v-3h-16v6zM321 405v4l13 -13h-3zM294 409v3h6v-10zM253 409l7 6h-10v-6h3zM278 415l6 6h3l-9 -9v3zM331 424l3 3l-3 3h6l3 -3l-6 -15h-3v12zM371 433h9l-6 -6h-3v6zM306 439h3l6 -6v-3h-12z
M266 442l3 4l6 -7h-9v3zM312 452h-3l-3 -3h-3v6h12v-9h-3v6zM340 455l9 9l-3 -15h6v-3h-9zM287 458h10v-3l-3 -3zM315 467h-3l-3 -3v12h6v-6h6l3 13h-3l7 6h3v-6l-3 -3l12 -4v-6h-12v-3h6l-10 -9zM287 473v3l-3 4h13v-4h-6v-3h6v-6l-3 -3l-3 3h-4l-3 -3h-6zM340 495h6l3 -3
l-9 -9v12zM309 492v6l12 3l-3 3l6 6q0 -9 10 -9l6 6l6 -6l-22 -9h-3l-3 3v-6zM324 517l10 3h9v-3l-6 -7h-6zM355 532h10v-3q-7 0 -7 -12h-6zM365 523h9v-3l-9 -3v6zM355 572v-9h-9zM260 612l6 7h3l-3 -10h-6v3zM312 622v3h6q0 12 10 12v-3h6v-6l-3 3q-10 0 -10 -12zM358 628
l7 -6v-3h-7v9zM263 640l6 6h3l3 -3v6l-3 4h3q6 0 6 -10h3l3 3h4v-6l-16 -3h-3l-3 3h-3l-3 -3v3zM263 662l3 3h9v-3l-9 -3h-3v3zM306 668h22l-7 -6h-15v6zM309 693v3h15v-3l-3 -3zM257 711h9l-6 -6h-3v6zM278 816h6l7 -6h-7zM436 930h9v-6h-3zM-15 971l6 6h12v-3l-3 -3v-6h6
v-7zM-31 989v3h10v-6zM476 1054h15v-3l-9 -3zM667 1119h3l-6 6h-3zM-83 1156v3h3l3 3v3l10 -3h3l3 3h3l3 -3l-3 10v3l30 -10l-12 -15h-6q-6 0 -6 9h-6v-6q-9 0 -9 -9h-10zM253 1172l-6 12h3v6h28v3l-3 3v9l3 4l-12 3l6 6h3l9 -6v6l-6 6h-25l-15 -3l-3 3q0 -9 -6 -9h-6v6
q-7 0 -7 -9l-9 -3v-4l-15 7l-3 -3h-16l-3 3v-3l-3 -4v-3q15 0 15 -6l-3 -15h3l3 -3h4l-4 15v9h7q0 -12 6 -12q0 15 21 15v-6q0 -6 -15 -6l3 -3l-6 -9v-3h6q0 12 9 12q0 -11 28 -15l-6 -10v-6zM269 1168l6 7v3h-9l-6 -6zM-80 1172v3h3q10 0 10 -7zM124 1172h3l-6 6h-13v-3z
M167 1175v3l3 3l-6 6h-6v-9zM87 1212l6 6h3v-6h3l3 3h3v-6l-3 -4zM287 1230v6h-15v-3zM294 1236q9 0 9 10h3l3 -3l-6 -10h-9v3zM210 1246h6l-6 -7h-6zM408 1243h6l-6 9l-22 -3v-3zM312 1261h9l-6 -6h-3v6zM618 1286l-6 6h-3v-6h9zM470 1307v6q24 -2 24 -12h-3zM708 1313h15
v-3l-9 -3zM742 1316l6 9v13q0 5 -19 9v-3l-12 3l6 9l22 -9l9 9v7h-6v3q14 0 21 6l6 -16v-3l-3 -3h3l16 3v6h-6v10h3v-6l9 3l12 -3v-7q-21 -9 -21 -18l-3 3q-22 -13 -22 -31h-21v6zM775 1372l7 6v-6l-7 -6v6zM785 1381q12 0 12 9l16 -6q0 -5 -28 -9v6z" />
    <glyph glyph-name="D" unicode="D" horiz-adv-x="825" 
d="M488 -10l1 9l21 -2l1 7q-46 6 -56 77l2 9l22 7l1 9l-5 9q1 17 22 15l4 35l-6 9l16 16l1 8l-14 2l1 9l8 8l-20 3l1 9l15 15l-5 10l13 50h6l6 -9l7 -1q3 23 91 33l-1 -8l7 -1l1 8l-6 10l7 -1l19 -19l7 -1q14 -2 18 33l7 -10l50 12h8l6 -10l-8 -8l-1 -9l6 -10l-1 -8l-6 9
l-8 1l11 -37l-1 -8l-7 1l-7 9l-7 1l25 -38l-27 -41l8 -1q-9 -78 -38 -75l-1 -9l6 -9l-16 -16l-14 2l-2 -18l14 -1q-96 -122 -135 -117l-29 3zM416 -108l8 7l13 -19l-22 3zM80 8l-43 5l-4 28l22 5l2 18l-8 -8l-18 28l11 35l-8 62l8 -1l-7 10l11 25l-4 36l4 35l9 8
q-15 1 -8 62l12 43l-6 10l10 25l15 -2l18 -28l-1 -9l53 20l-1 -8l7 -1l-11 27q21 -2 23 15l14 -2l1 -52l36 5l14 -2l6 -10l-8 -8l3 -35l-1 -9l-8 -8l-1 -8l6 -10l-8 -8l13 -19l-1 -9l-9 -8l-2 -17l3 -44l-9 -8l42 -14l1 9l7 -1l6 -10l21 -2l36 5l6 -10l24 15l14 -1l-1 -9
l-8 -9l-1 -9l14 -1l1 9l-6 10q21 -3 40 30l-15 2l1 9q22 -3 25 23l7 -1l6 -9q-3 -26 11 -28q-14 -42 -26 -41l4 -27l-1 -9l-6 10l-7 1l17 -37l-14 1l-1 -9l42 -66q-2 -18 -24 -15l13 -18l-1 -9l-9 -8q-35 0 -37 -22l-41 22l-2 -17l-6 9l-37 -4l2 17l-30 -14l1 9l-6 9
l-51 -12l-48 23l-8 -7l-14 2l-12 18l-66 -18zM423 13l-3 28l-29 -6l-1 -9zM675 86l6 -1l12 -19l-7 1zM441 100l1 9l-6 10l14 -2l12 -19l-1 -9l-28 3zM407 113l2 17l-33 31l-1 -9q1 -18 32 -39zM483 231l22 -2l-1 -9l-9 -7zM505 229l12 42l1 9l-29 4l2 17l16 16l-2 -18l8 -1
q7 62 49 57l7 -1l-1 -9l-8 -8q-28 3 -31 -23q38 -4 45 -40l-4 -35l-7 1l-5 27h-6l-2 -9l7 -8l-2 -9l-13 1l2 17l-7 1l-1 -8l10 -28l-1 -9l-21 -6zM509 407l42 47q-36 4 -34 22l28 -3l-11 27l14 -1l2 18h-7l-8 -8l12 43l-11 28l1 9q21 -3 24 23q-9 1 -8 54l16 16l-29 -6
l-1 -8l6 -10l-3 -26l-7 1l2 17l-7 1l-8 -8h-7l-2 36l20 -2l1 9l-5 9l27 -3l-17 37l14 -1l-6 9l16 16l-2 -17l16 15l3 27l-14 1l-1 -8l6 -10l-1 -9l-7 1l-6 9l11 34l1 9l-6 10l8 7l-10 29l13 -2l2 9l7 7l1 9l-7 1l-8 -8l3 18l8 8l-21 2l10 25l7 -1l5 -9l3 25q-27 4 -25 22
l1 8h7l6 -10l7 -1l1 9l-16 46l-7 1l-8 -8l2 17l8 8q-24 3 -40 31l-2 -17l-14 1l2 17l8 8l-23 -6l-7 1l-17 29l-8 -8l-14 1l-6 10l-9 -8l-7 1l2 17l-7 1l-1 -8l3 -36l17 15l26 -12v-8l-8 -8l-6 10l-38 -14l-7 1l1 9l8 8l-14 2l-8 -9l1 9l-6 9l21 -2l-18 29l-21 -51
q-3 -26 19 -28l-1 -9l-22 2l-1 -9l15 -1l-17 -16l7 -9l-12 -34q-2 -18 20 -21l-1 -8l-16 -16l8 -54l-1 -8l-8 -8l-1 -9l6 -10l-17 -24l14 -2l3 26l7 -1l-4 -34l-21 2l-2 -17q21 -2 19 -20l-7 1l-20 -50l26 -22q-22 -49 -42 -47l8 -63l-15 1l13 -18l-12 -43l-22 2l-121 67
q-5 -43 -19 -41l-21 2q-16 28 -33 30l18 33l-8 54q-14 2 -17 -25l-22 3l-6 9l-1 -8l-11 19l15 15l20 -19q3 26 31 22l3 26l-6 10l8 8l-11 28l21 -3q2 18 -19 20l2 17l14 -1l1 9l-14 1l-8 -8l1 9l16 16l-4 27l17 24l-14 2l1 9l14 -2l2 17l-6 10l7 -1l1 9l-6 10l1 9l8 7l-14 1
l2 18l14 -1l2 17l-6 9l8 8l1 9l-21 -6l-13 18l17 17l-3 -18l23 15l-11 28h-6l3 27q21 -2 23 24l-13 1l2 17l13 -1l1 9l-13 1l1 9l14 -2q5 44 -23 47l2 17l7 -1l6 -8l7 -1l1 8l-6 10l1 9l14 -2l-2 44l-14 2l-8 -8l2 17l14 -2l-18 38l15 -1l1 8l-6 9l14 -1l6 -10l3 27l-7 1
l-8 -8l2 16q28 -3 32 32l20 -19l22 14l-2 -17l14 -1l2 16l14 -1l-2 -17l7 -1l2 17l-6 10l7 -1l9 7q-4 -34 17 -36l16 15l7 -1l6 -8l9 7l12 -19l7 -1l8 8l13 -1l6 -10q3 26 18 24l-2 -17l60 19l7 -1q-2 -17 -31 -14l-1 -8l28 -12l2 17l20 -10l7 -1l8 7l6 -9l21 -2l8 7l-2 -17
l14 -2l2 17l-14 2l1 9l21 -3l-4 -35l8 9l61 -34l8 8l15 -2l6 -9l7 7l7 -1v-8l-8 -8l-1 -9l22 16q0 -35 18 -37l28 -4l8 8l-2 -17l-8 -9l-7 1l-6 10l-7 1l12 -20l14 -1l8 8l-10 -25q-2 -16 27 -21l-1 -9l-8 -7q21 -3 18 -30h7l8 8l6 -1l-1 -9l-7 -7l-1 -9l5 -10l-8 -8l18 -37
l-2 -17l-9 -8l7 -10l-1 -9l-9 -7l8 -1l8 7l7 -1l-8 -7l3 -35l-1 -9l-8 -8l7 -1q-6 -53 8 -55l-10 -25l12 -18l-1 -9l-8 -8l-1 -9l6 -10l-16 -15l21 -2l-8 -9l-1 -9l6 -8l-2 -18q-5 -44 -27 -50q-2 -17 19 -20l-20 -51l14 -1l-17 -25l-1 -9h7l8 8l7 -1l-16 -15l-1 -9l6 -10
l-21 2l-1 -9l14 -1l-3 -26l-12 -43l14 -1l-2 -17l-14 1l-1 -9h7l26 -22q-2 -19 -81 -16l-6 9q-2 -18 -60 -20l-34 13l-6 1l-2 -17l13 -2l-1 -9l-43 -4l2 18l-7 1q-3 -27 -39 -23zM125 472l20 -20l-16 -16l-8 1zM479 505l1 9l7 -1l20 -11l-16 -15zM506 556l7 -1l-1 -9
q-3 -26 -17 -24zM44 706l9 25l22 -3l-9 -7l-1 -9l8 -1l8 8h7l-2 -18q-22 2 -25 -24l7 -9l-22 2zM60 783l21 -2l-2 -18l-8 1zM88 904l16 15v-8l-17 -16zM509 1014l14 -1q-2 -18 20 -21l-1 -9l-29 4zM110 1096l17 15l2 -45l-14 2zM804 1147l29 6l-1 -9l-16 -15zM764 1170
l37 13l7 -1l-1 -9l-8 -7q-21 2 -23 -15zM569 1342l7 -1l-17 -15h-7zM147 1418l22 -3l3 -37l-14 2zM465 1372l-8 -8h-7l2 18l48 -14l-2 -18zM176 1414l21 -2l-1 -9l-8 -8zM751 1374l8 -1l-17 -16l-7 1zM272 1446l2 18l7 -10l8 8l27 -12l-2 -17l-7 1l-6 9l-7 1l-2 -17l-7 1z
M241 1477l20 -2l-1 -9l-22 -7zM375 1462l21 5l-1 -8l-16 -16l-6 1zM366 1507l16 15l41 -14q-2 -20 -59 -19zM279 1508l-6 10l17 15l4 -27zM937 1493l-6 10l3 26l7 -1l4 -27l-1 -9zM531 1575l-6 10l29 -3l-1 -9l-23 -6zM424 1632l6 -1l-16 -15l-7 1z" />
    <glyph glyph-name="E" unicode="E" horiz-adv-x="688" 
d="M249 1292l4 -3l41 3h120v-6l4 3l3 -3l10 3l38 -10l-3 -14l-4 3h-3l7 -10l10 4l-3 3l3 3v7q0 7 -10 7v7h17q0 -10 7 -10h3l-3 3v7q48 -2 48 -10v-11l-7 -6q-10 0 -10 10l-7 -7l24 -7l3 4l10 -4l-3 -3v-4l7 -7l7 21l-11 14h7v3h-10v4l21 3l6 -7l21 7q5 -14 10 -14
q0 14 7 14l17 -7q-7 -20 -20 -31l3 -3h4l3 3l4 -3v3l-4 4v3q14 0 14 7h3l4 -14l-7 -10l-10 3v-10q-28 6 -28 14l4 3l-4 4v3l7 7l3 -3h4v10l-24 7q-3 -11 -14 -14v-7h-3v7h-4l-3 -14l7 -7l-11 -7l-24 11v-4l7 -7v4l10 -4v-10q-20 0 -20 10h-4l-3 -17h-3l-14 14l3 3h-7
q0 -6 -13 -6l-4 -18l28 -13v3l-7 10l20 7v4h4v-7q0 -10 -14 -10v-4q17 -2 17 -17l4 3l3 11h4l20 -7l14 3v-7l3 4h7v-7h-7l7 -7l14 4v-4l3 4h7v-7l4 3l13 -3v-4q0 -7 -10 -7v-3h4l10 3l3 -3l4 3l7 -10v-3l-4 -4l4 -3v-4l-4 -24h-20l-4 -3l-3 3h-107l-37 -3l-4 3l-17 -3h-17
l-31 3l-10 -3l-4 3h-3l-11 -7q-27 3 -27 7l-3 -3h-21v-7h-4l7 -24l-3 -3v-4l3 -14l-3 -10h3l-3 -3v-4l3 -27l-3 -4v-3l3 -3l-7 -59l4 -3v-4l-17 -158l3 -3v-3l-3 -21l20 -7l4 3l3 -3h4l185 -7l14 -7l-7 -51h3l-7 -31l4 -3v-4l-4 -10l4 -17l-4 -4h-3l7 -14l-4 -3l4 -3h-4
l4 -4l-4 -24h-51l-3 4l-4 -4h-55l-3 4l-4 -4h-27l-4 4l-3 -4h-31l-14 4l-34 -7v-24l3 -4v-3h-6v-4l3 -3v-3l-3 -11l3 -3l-3 -4h3l-3 -3v-4l3 -3l-3 -3v-14l3 -14l-7 -24l4 -3v-7l-4 -4l4 -3v-27l-4 -18h4l-4 -3l4 -24l-4 -17h7l-7 -24l4 -11l-4 -30l4 -4l-4 -3v-11h7v-17
l-3 -3v-4q6 0 6 -13h7v-7l-7 -7l-10 3v-17h4v7l17 -3q0 -7 -17 -7v-11l-4 4h-3l7 -14l-4 -14l4 4h17l3 -4h4v4l3 -4h3l4 4h3v-4l11 4l13 -4l4 4h3q7 -6 59 -11v4l3 -4h14l3 4l10 -4l76 -6l3 3l35 -3h20l4 3l27 -10l-13 -130l3 -4q-4 -34 -10 -34l3 -3v-7l-48 3l-24 -3l-31 3
l-3 -3l-4 3h-3l-10 -3l-38 7l-21 -7l-3 3h-35l-3 4l-3 -4h-21l-3 4l-4 -4h-38l-13 4l-14 -4l-17 4v-4l-4 4h-3l-4 -4h-3v4l-10 -4l-4 4h-3l-4 -4l-13 4q-134 2 -134 13l-4 38h4l-4 3v14l4 14l-7 30l3 4v20l-3 18l3 3l-10 10v7q10 0 10 7v3h-7l7 31l-13 4v10l13 4l-10 24
l-10 -7h-4v7h7q0 10 -10 10l7 7h13l-3 -4v-3h7l7 14l-4 3v3l4 4h-7v3h7l-7 7h-7q0 -10 -10 -10q0 7 -14 7v7l7 7h3l11 -7l6 13q0 11 -10 11v7h7l-3 3v3q13 18 20 18v20l4 4l-4 3l7 55l-3 3v4l17 127l-4 3v4l4 27l-4 10q4 35 11 35l-4 3v10l14 103l-3 4l6 27l-3 11l7 13l-4 4
q7 30 7 82v21l-3 3l7 17l-4 14v4l4 3l-4 3v4l4 3v4l-4 13l4 4l-4 3l4 17v7l-4 11l4 17v68l3 31l-3 18l3 3v3l-3 4v3l7 24h-4l4 4v3l-4 14l4 24h3v-10h7l-4 3v3l7 24l-3 4l27 14l4 -4q0 11 7 11v-7q0 -11 -14 -11v-3l17 -7l7 10h-4l4 4v3l-7 11h7v6h-4l-3 -3h-3v7h-7
q0 -14 -11 -14v7l-17 -3q0 6 -17 6q0 14 -14 14v4l24 3h83zM85 1289h17v-3h-17v3zM160 1286v-7h4l10 3v4h-14zM397 1265v-10l3 3l4 -3h7l7 7v3l-4 -3h-3zM212 1258l-4 -3v-7h4l3 10h-3zM445 1255l-3 -4v-3l3 -4h3l7 7v4h-10zM589 1251l4 -3v-7h-4l-3 3h-4v-7h7v-3
q0 -6 -20 -10l-4 17zM212 1244v-3l6 -7v3zM596 1234l4 -3v-4l3 4h7v-4l-7 -7l-14 4v3zM150 1217v-4h14v4h-14zM538 1217l10 -4v-3l-17 -3v3zM613 1186h11v-7l-11 4v3zM452 723l-4 -4v-7h11v4zM287 218v-7l10 -3v3zM67 184l7 -7h4v7h-11zM325 170h3l-7 -7h-3z" />
    <glyph glyph-name="F" unicode="F" horiz-adv-x="660" 
d="M93 7v213l9 9h-9l9 26l-9 54v9l9 9h-9l9 35l-9 97v44l9 9l-9 9v18l9 9l-9 9v9l9 44l-18 26l9 9v53l-26 9h-9l-9 -9l-26 27v-27l-27 9h-8l-9 -9h-9v18l9 9h9l8 -9h9v18h-17v8l8 9q27 0 27 18h8l9 -9h9l18 18l-18 18l44 62l-9 265l-9 27l9 9v44l-9 106h9l9 9h211l149 9
l9 -9l9 9h140l9 -177v-53l-26 -9h-9l-9 9l-26 -9h-9l-9 9l-53 -9h-149v-80l-9 -35l9 -35v-63l-17 -70l17 -18l-9 -27l35 -18l44 18l44 -9l9 9h9l9 -9h8l9 9q0 -12 79 -18v36h9l26 -27h-26l35 -35l-9 -44v-45l9 -44l-9 -9v-8l9 -9h-9l9 -9l-17 -36l-36 9l-35 -9h-123l-8 -9
l-9 9h-9l-9 -9l-9 9q-17 0 -26 -106l9 -9v-88l-9 -9h9q0 -71 -33 -62v-9q44 0 44 -44l-9 -45l9 -9l-9 -35v-96l-81 -19l-97 10l-44 -10z" />
    <glyph glyph-name="G" unicode="G" horiz-adv-x="790" 
d="M1125 179l4 35l-18 1v-8l7 -10v-8l-10 -8zM1537 201l19 16l16 -19l-2 -17l-8 1zM1107 259l1 9l15 -19v-9zM1049 291l8 -1l16 -19l-1 -8zM955 664q13 -1 29 33l-6 26q-22 2 -30 -32l-8 1l-8 9l47 40l-8 9l2 17l-19 -15h-8l-8 10l-9 1q-3 -35 -29 -32l1 8l19 16l-16 19
l-26 2l-13 -42l-17 1l1 9l32 67q18 -2 15 -28l87 1l2 17l-26 3l-44 -5l9 8l-12 53l-43 4l-51 14l-9 1l13 -45l-17 1l-2 -25q-2 -13 32 -30l-22 -41l8 -10l-1 -8l-9 -8l17 -2l2 17h9l15 -19l-1 -9l-9 -8l17 -1l10 7l-15 28l8 -1q18 -1 14 -36v-9l26 7l26 -3l-1 -17zM1131 367
l17 -2l-2 -17l-8 9l-8 1q-17 -90 -40 -48l-8 -40q35 98 49 97zM998 305l2 26l9 -1q-3 -26 23 -29h9l9 7l-1 -17l-10 -8l-8 10h-8l-10 -7zM1561 269l18 -2v49q-34 3 -33 20l1 9l26 -2l-1 -18l27 15l-1 -8l32 -78l-1 -9l-36 -5l-7 9l-9 1l-9 -8zM1600 349l27 6l-2 -17l-9 -8z
M1135 410l12 43l18 -2l-10 -8l5 -44l-1 -9zM848 831l1 9l26 -2l-2 -18zM970 829l-5 35l-9 1l-19 -16l17 -1v-9l-10 -8zM784 907l-2 9l1 9l4 8l-6 1l1 8h8l-2 -26l2 -1q3 26 16 25l-1 -17l10 -1q4 -1 11 34l1 8l-5 1l-4 -9l1 9l-2 9l8 25l-49 9l7 -9q12 10 20 41l3 35l2 43
l3 9l5 78l2 17l3 8q1 166 -11 167q-2 -26 -10 -25l-2 9h-3q-13 1 17 -119l1 -26l-14 -86l-1 -43l-1 -9l-4 -8l2 -9l-1 -9l-3 -8l2 -9q-15 -104 -21 -103l1 -26q10 -1 9 -19h2zM1462 514l1 8l19 16l9 -1l-2 -17l-9 -8l8 -1l-1 -8l-9 32zM1515 517h9l-3 14l-17 1zM815 1004h8
l-1 -18l-26 3zM333 638h13l-5 24l7 5v7l-6 17h7l-6 6v6l8 18l7 -1l6 -6l7 -1v7l7 -7l13 -1l7 6l7 -6l21 -1l1 12l20 -1l-7 -6v-6l13 -1l28 6l20 -8l1 12l20 -13l48 4l7 -6l1 12l6 -6l7 -1v6l-69 -2l7 -7l69 -3l34 4l7 -6l-1 -6q62 1 63 9l6 -6l14 -1v12h7l14 -13l-8 -5l7 -6
v-7l-8 -5l7 -18l-11 -46l7 -19l-8 -5l7 -1q-19 -46 -30 -45h-7l-20 6l-111 -6l-27 7l41 -14l-13 13l-7 -5l-22 1l-40 7l-21 -4l-48 7l-41 -3l-34 7l-7 -5l-13 11l8 30l1 17l-6 7v5l8 7zM388 1365h-6v3h10q0 -15 15 -15l3 3v-3l3 3h3l13 -9q0 9 12 9l6 -6l3 3h3l22 -12l3 3
q0 -6 25 -13l6 7l31 -22l3 3l9 -9l3 3h3v-6l3 3h4l18 -19l3 3h3q0 -9 16 -9q0 -14 31 -34v9h6l-3 -9l3 -9l-3 -3q29 -20 46 -62l-3 -3q5 0 15 -31h3v-9l-3 -3v-3h7l-4 -4q0 -9 10 -9l-3 -3v-3l6 -6v-3l-3 -3l3 -3v-16l-3 -3l9 -25l-3 -3h3l-3 -3v-6l3 -3l-3 -3v-3l3 -3
l-3 -3v-4l3 -3l-3 -3v-3l3 -9h-3l6 -28l-3 -3v-3l3 -12l-3 -4h-3l3 -3v-22l-3 -3l3 -3v4l-3 -3l3 -9l-63 -11l-47 -3l-50 7l-63 -3v-9l3 -3l-3 -9l3 -109l-3 -18h3l-3 -3v-3l3 -3l-3 -4v-15l3 -12l-3 -13v-12l3 -3l-3 -3v-6l3 -16h-3l3 -3v-3l44 -9l16 -91l14 7l53 -3
l40 -12l53 -3l-3 -22v-6l9 -12v-4l-3 4h-3v-4l6 -9l-9 -6l3 -3l-3 -15l3 -4l-3 -3v-6l3 -3l-3 -3v-3l3 -3l-3 -3v-6q1 -16 6 -16l-3 -3v-15l3 3h3v-7q-9 0 -9 -15v-6l3 -3q-4 -19 -9 -19l3 -3v-3l-3 -3l3 -3v-16l-3 -3v-3h3l-28 -86l-12 -3l-3 3h-4l-9 -3q0 9 -15 9v6h-3v-6
q9 -2 31 -31q9 0 9 -6q-15 -38 -40 -62l-25 -31l12 6l19 -6l3 3v-3l3 3h9l3 -3l25 6l43 -9v3q14 -6 16 -12v-6l-16 -3l-3 3v-3l3 -4v-3q-9 0 -27 -24q-10 0 -10 -12l-3 -3h-6v6h-3q0 -9 -6 -9l-10 9v-6h-21q-9 0 -37 18l-16 6l-3 -3v-3l3 -3l-3 -3h-3q0 12 -15 12v3l-16 -6
v3l-3 -3h-3q-6 0 -6 9h-3v-6h-3l-19 15l3 3v7l-15 3l-25 -6h-6l-9 6l-7 -6l-3 12h-3v-6l-12 6l-3 -3h-3l-28 3l-9 -3l-3 3v3l-3 -3h-4l-3 3l-3 -3h-3q-15 4 -15 12h-6q-7 0 -7 -9h-9q0 12 -12 12l3 3v7l-9 9v-3l3 -3l-28 6l-12 -6l6 -13l-6 -6h-4v9q-9 -3 -9 -18l-21 25
q-3 -16 -10 -16l-9 6h-19v7q10 0 10 6v3h-10q-6 -7 -34 -9q0 5 -27 9v3l3 3h-3l-3 -3l-3 15l6 7l-6 6v-3l-4 3h-3l-9 -3l-3 9l-6 -6l-3 3h-3l-22 -6v21h-3l-12 -34h-10l-3 3h-3v-6h-3l-9 13h6l3 -4h3v4l-6 6l9 9l-3 3v3l3 3v6h-3v-6h-12l-16 -3v22l-6 6v-3l3 -9l-3 -16l3 -9
l-9 -3v6h-3v-6l3 -3l-34 -6l-6 9v3h3l3 -3l3 3h3l9 -6v3l-9 9l-3 -3v6q10 0 22 22h-6v3l-4 -3h-12v9q27 3 34 9h6v-3l-3 -3v-3h3v3l3 -3h3l10 3q21 0 21 -12h6q-18 44 -34 114l4 3v3l-7 31h3l-6 16h3l-3 3q0 16 16 24q25 9 37 19l3 -3h3l25 18q13 10 28 10l18 -3l19 27l-4 3
h-3q-10 -15 -46 -15q-16 -25 -43 -25h-16q0 -11 -43 -15l-9 12l3 3v53l3 3l-3 3v37l-3 9l3 16v55l3 16l-3 3h3l-3 3v56l3 18l-3 16v6l3 3v3h-3l3 3v3l-3 3l3 16v9l-3 18l3 13h-3l6 12l-3 3v59l-3 12l3 13l-3 3h3l-3 3v9l3 3l-3 3v59l-3 15l6 56h-3q5 83 56 176q6 0 52 53
l12 12l44 28q40 19 99 37v3h21l3 3l3 -3l31 6l3 -3v6l3 -3h3v3l4 -3h3l3 3l3 -3h6l9 6h3l-3 -3v-3h3l3 3v9zM456 1365l10 -3l-7 -6v3l-3 -3h-3l-9 3v3zM373 1171l-6 -6v-3h9v9h-3zM339 1158l-12 4q-22 -8 -22 -13v-3l3 -3v-3h-3l-15 3l-3 -3v-3l3 -3v-3q-10 0 -10 -10h-6v-3
q6 -15 13 -15v-6h-7l7 -10q-10 0 -10 -6h-3q0 9 -6 9h-3v-9h6v-3h-6l3 -3v-3l-12 -3l3 -3v-3l-3 -3v-3l3 -4l-10 -6l4 -3v-6l-4 -3v-3l4 3h3l9 -6q0 12 9 12l9 -9q0 12 7 12v-6q0 -9 -13 -9l6 -10l-3 -3h10l-3 -15q-19 0 -19 12h-3q0 -6 -16 -6v-6l4 3h6q0 -6 -10 -6v-3
l7 -10l-3 -3l3 -3h12l-3 3v3l6 7l9 -3v-10l-9 6l6 -18l-6 -12h6v6h3l3 -10l-15 -3l3 -3v-3q-3 -11 -25 -34h3l4 3l3 -3l-7 -15l4 3h6l-13 -16v-6h7l-7 -24l3 -10l-3 -3h3l-3 -3v-12l7 -13l-7 -12l3 -12l-3 -3v-4h3l-3 -3v-6l3 -12l-3 -9h7v-10h-4v7h-3v-7h3l-3 -3v-3l3 -3
v-3l-3 -3h7l-4 -25l4 -9l-4 3h-3v-3l3 -16l-3 -3h7v-9h-7v-9l7 -9h-7v-22l3 -15h-3l3 -4v-3l-6 -15l3 -3h-3l3 -9l-6 -10l6 -21l-6 -28l3 3h6l-3 -16v-6l7 -6l-4 -25l4 -3v-3l-4 -12l4 -12l-4 -10l7 -15l-3 -13l6 -18h-3q7 -61 15 -74l-3 -3l6 -6l-3 -4l19 -40l21 -18
l31 -13v3l12 -6l4 3h12l3 -3q99 15 99 40q11 0 18 53q5 0 13 43h3l3 -3h3v3l-3 19l3 3v3q0 9 -9 9l3 3q-13 24 -16 50h-3l3 3v3l-3 15l3 22l-3 9l-3 -3h-6v9q15 0 15 10h-6v3l3 21l-3 3v4l53 12v6q-9 0 -9 6q9 2 9 25l10 -32l-3 3v3l6 6v16l-13 63v3h3l-53 3v12l3 3l-3 3v3
l7 31l-4 25l4 37l-4 3h4l-4 3v3l4 3l-4 94v3l4 3l-4 3l4 12l-4 9l4 16l-4 3v3l4 3l-4 -14v9l4 3l-4 3v3l4 3l-4 -14v3l4 3l-4 3v3l4 3l-4 3v3l4 3v4h-7l7 -18l-4 18l4 13l-4 28v15l-3 3v3h3q0 43 -18 43v4q9 0 9 9l-6 6l3 3l-3 3l3 3h3q-8 25 -15 25l6 12q-9 0 -16 22
q-22 15 -30 15l-7 -6h-18q0 13 -9 13l-3 -4v-3l-16 3h-3v-3q0 -6 9 -6l-3 -9l-15 9l3 3v6q-13 0 -13 7zM320 1155q0 -6 -9 -6h-3v3zM336 1155l6 -6l-9 -9v-3h-6q3 18 9 18zM435 1143h6v-9h-3zM311 1140h13v-6h-13v6zM413 1140l13 -12h-4l-9 9v3zM382 1134h3l-3 -3v-3h10
l-4 -4v-3l-3 3h-3l-9 -3l-3 3v-3l3 -3l-3 -3h-3v16zM314 1124h13v-12h-3q0 9 -10 9v3zM422 1124h4q4 0 9 -12h-13v12zM407 1121h6l3 -12l-3 -3l-3 3h-3l-3 -3h-3l-3 3v3q9 0 9 9zM293 1115h3l3 -3h3l-3 -9h-3zM271 1103v-9h6v9h-6zM324 1106h3l6 -6l-3 -3v-3l6 -7h-6v-6l3 3
h6l-22 -21h-6l16 24v3h-10l-3 -3h-3l-3 3v4q16 0 16 12zM345 1106v-3l-9 -9v3zM429 1100h3l3 -10l-16 -6v6zM469 1100l9 -10l-3 -12h-3zM290 1087h6q0 -9 -22 -12zM351 1084v-3l-9 -9h-9q6 12 18 12zM456 1081h7l-4 -9h-3v9zM280 1066v-6h3l10 3l6 -10v-3l-3 3l-3 -3h-6
q0 7 -10 7l-3 3v3l3 3h3zM339 1066v-3l3 3h6v-3l-6 -6l-12 3v3zM299 1063h3q15 -11 15 -22h-9q0 16 -9 16v6zM441 1060l6 -7l-3 -3h-3v10zM358 1057v-4l-4 -9l-6 6zM339 1053q6 0 6 -9v-3h-3zM305 1035h3l-3 -9h-6v3zM345 1035l6 -6v-3l-12 -3v6zM438 1032h6v-16h-12v3l9 4
l-3 3v6zM290 1010q12 -4 12 -9l-12 -3l3 3l-3 3v6zM432 1010l3 -3h3l3 3v-3l-6 -6v3l-3 -3h-6v3zM320 1007h7v-3l-7 -6v9zM274 998h9l-6 -6h-3v6zM364 992v-3q0 -7 -10 -7l4 -3v-6l-10 3v3q2 7 16 13zM373 992h9v-7h-3zM302 989l-3 -4l-6 -6l-10 3v3zM314 985h3v-6h-9z
M259 976q0 -12 -13 -12v-3l7 -6h9l3 12l-6 6l3 3h-3zM370 979h3l6 -6v-3zM280 973h7l3 -3h3l-3 -9l-10 3v9zM308 973h16v-3l-10 -9l-6 6v6zM327 964h3l-13 -13v4zM296 958v-10h-6v3zM246 951v-6h10l-7 6h-3zM274 948l9 -9h-3l-6 6v3zM327 948h3l6 -15l-3 -3h-6l3 3l-3 3v12z
M367 933h3l6 -6h-9v6zM299 930h12v-3l-6 -6h-3zM262 921h9l-6 -7l-3 4v3zM308 914h3v-9h-12v6h3l3 -3h3v6zM339 914h9v-3h-6l3 -15l-9 9zM290 908l3 -3v-3h-10zM320 902l10 -9h-6v-3h12v-6l-12 -4l3 -3v-6h-3l-7 6h3l-3 13h-6v-6h-6v12l3 -3h3zM274 896h6l3 -3h4l3 3l3 -3
v-6h-6v-3h6v-4h-13l3 4v3zM336 877l9 -9l-3 -3h-6v12zM314 871v-6l3 3h3l22 -9l-6 -6l-6 6q-10 0 -10 -9l-6 6l3 3l-12 3v6zM327 850h6l6 -7v-3h-9l-10 3zM348 843h6q0 -12 7 -12v-3h-10zM361 843l9 -3v-3h-9v6zM342 797h9v-9zM256 751h6l3 -10h-3l-6 7v3zM317 741
q0 -12 10 -12l3 3v-6h-6v-3q-10 0 -10 12h-6v3zM354 741h7v-3l-7 -6v9zM259 723l3 -3h3l3 3h3l16 -3v-6h-4l-3 3h-3q0 -10 -6 -10h-3l3 4v6l-3 -3h-3l-6 6v3zM259 701h3l9 -3v-3h-9l-3 3v3zM302 698h15l7 -6h-22v6zM317 670l3 -3v-3h-15v3zM253 655h3l6 -6h-9v6zM280 550h7
l-7 -6h-6zM438 516h3v-6h-9zM2 402v-7h-6v-6l3 -3v-3h-12l-6 6zM-25 374v-6h-10v3zM478 312l9 -3v-3h-15zM657 235h3l6 6h-3zM-81 216h10q0 -9 9 -9v-6h6q0 9 6 9h6l12 -15l-30 -10v3l3 10l-3 -3h-3l-3 3h-3l-10 -3v3l-3 3h-3v3zM234 201v-6l6 -10q-28 -4 -28 -15
q-9 0 -9 12h-6v-3l6 -9l-3 -3q15 0 15 -6v-6q-21 0 -21 15q-6 0 -6 -12h-7v9l4 15h-4l-3 -3h-3l3 -15q0 -6 -15 -6v-3l3 -4v-3l3 3h16l3 -3l15 7v-4l9 -3q0 -9 7 -9v6h6q6 0 6 -9l3 3l15 -3h25l6 6v6l-9 -6h-3l-6 6l12 3l-3 4v9l3 3v3h-28v6h-3l6 12zM256 188l6 -6h9v3l-6 7
zM-71 192q0 -7 -10 -7h-3v3zM104 185v-3h13l6 6h-3zM154 182v-9h6l6 6l-3 3v3zM98 155l3 -4v-6h-3l-3 3h-3v-6h-3l-6 6zM268 127v-3h15v6zM290 127h9l6 -10l-3 -3h-3q0 10 -9 10v3zM200 121h6l6 -7h-6zM382 114v-3l22 -3l6 9h-6zM308 105h3l6 -6h-9v6zM605 74v-6h3l6 6h-9z
M487 59h3q0 -10 -24 -12v6zM710 53l9 -3v-3h-15zM738 50h21q0 -18 22 -31l3 3q0 -9 21 -18v-6l-12 -3l-9 3v-6h-3v9h6v6l-16 3h-3l3 -3v-3l-6 -15q-7 6 -21 6v3h6v6l-9 9l-22 -9l-6 9l12 3v-3q19 4 19 9v13l-6 9v6zM771 -5l7 -6v-6l-7 6v6zM781 -14q28 -4 28 -9l-16 -6
q0 9 -12 9v6z" />
    <glyph glyph-name="H" unicode="H" horiz-adv-x="887" 
d="M153 1332l88 -9l8 9h9l52 -9h44l9 -61v-8l-9 -9l9 -26l-9 -35l9 -87v-279l61 -9v9l8 -9h140l17 17v9l-8 52l8 26l-8 9v9l8 26l-8 9l8 43v88l-8 8l8 9v44l-8 78l8 26h-8l8 9v9l-8 8q13 35 26 35h35l8 -8l26 8l9 -8h9l9 8h8l53 -8l8 8h9q44 -11 44 -26v-17l-9 -9l9 -9v-331
l8 -9l-8 -9v-139l8 -35q-14 -148 -43 -148l9 -9l-9 -9v-34q26 -32 26 -61v-105l-9 -35l9 -9l-9 -87v-131l-8 -35l8 -26q0 -52 -52 -52h-17l-9 9l-9 -9h-9l-26 9v-9l-9 9h-104v8l9 497l-53 53h-8l8 -9v-9h-8l-61 18l-27 -26v-9l-26 9l-26 -9q-9 35 -44 35l18 -53v-52l-9 -35
l9 -8l-9 -88l-9 -314l-26 -8l-43 8h-140l-26 27v8l9 9l-9 9v8l9 27h-9l9 26l8 392l-26 -17l-43 35l17 52v9l-9 -9h-17l17 52h44l17 18v662zM903 617h9l17 -17v-9l-43 9z" />
    <glyph glyph-name="I" unicode="I" horiz-adv-x="375" 
d="M180 1340v-18l30 9l7 -9h8l22 9v-9l7 9h8l22 -9v-9l-8 -9v-9h8l-8 -9v-18l8 -9l-8 -9v-28h15v-27l-7 9h-8v-18l8 -37l-8 -27h15l-15 -27l8 -64l-8 -9h15l-7 -9v-9h7l-7 -9v-37l7 -9v-9h-15v-18l8 9h14l-22 -27l22 -82l-14 -18q0 -46 14 -46l-7 -9v-9l7 -9v-9
q0 -27 -22 -27l22 -55l-22 -18l8 -9v-18l-8 -9v-10h15v-36l-15 -18l8 -27l-8 -28h15l-15 -27v-9l8 -36l-8 -28l8 9h7v-18h-15v-54l8 -9l-8 -10v-91l8 -45l-8 -9h-7q5 -82 15 -82l-8 -9v-18h15v-9l-15 -19l-7 10l-7 -10h-8l-7 10l-22 -10l-59 10l-23 -10l-7 10v-10
q-59 22 -59 37v9l7 27l-14 146l7 36l-7 91l7 9h-7l7 9v9l-7 46l7 27l-15 146l8 9h-8l8 9v18h-15v9h15l-30 64v9h15v27l-8 46l8 -9h7v9l-15 18l15 64h-22l22 72l-15 18q15 0 15 46l15 18l-7 9v28l7 54l-7 27l7 64l-7 55l7 45l-7 9l14 18l37 -9h22l8 9h7l8 -9zM321 704h14v-9
l-14 -18v27z" />
    <glyph glyph-name="J" unicode="J" horiz-adv-x="810" 
d="M69 450l166 10q54 -6 54 -27l1 -19v-18h9q2 -21 -16 -21q11 -175 79 -175l44 -8q91 0 107 250v72l8 35q-14 134 -35 134l-27 -8l18 27v18l-18 62h9q53 0 53 81v277l9 10v8l-9 9h9l-9 9l9 62v28l-9 9l9 35h231v-9l9 -89l-9 -9v-9l9 -9l-9 -45v-152l-9 -9l9 -9v-44l-9 -9
l9 -10v-9l-9 -35h9q0 -108 -71 -108v-44q0 -18 53 -18l9 -36l-9 -90l9 -9l-9 -44v-99q0 -195 -115 -357q-99 -99 -248 -99h-18q-160 0 -257 188q-45 40 -44 259h9l-9 9l-10 -67l8 66l10 25l-29 -41l19 9z" />
    <glyph glyph-name="K" unicode="K" horiz-adv-x="782" 
d="M144 1340l15 -18l22 18v-18h15v18h7v-18h8l7 9h8l29 -9l8 9h7v-100l-7 -37q0 -27 22 -27v-10q-18 0 -22 -36h15v-9l-15 -19l7 -9v-9l-7 -9l7 -9v-19l-7 -9l7 -9l-7 -46l7 -36l-7 -37v-18l7 -9l-7 -9v-19l7 -9l-7 -9v-9l22 -28l52 101q0 22 22 46q66 174 82 174
q104 210 126 210h15v9l8 -9h7l8 9l7 -9h45l7 9l7 -9h75l7 9l22 -9l-7 -9v-9l7 -9v-9q-14 0 -59 -83h-7l7 -9v-9l-52 -64l7 -9v-9l-22 -37l8 -28l-23 19l-29 -92l7 -9h-7l-8 9h-7v-9l7 -9v-9h-22l7 -9v-9q-89 -98 -89 -138l8 -9h7l-7 -9v-18q17 0 37 -46l-8 -9l37 -46l-7 -9
v-18h15l15 -19v-9l-8 -9v-9h8l7 9v-9l-7 -28h7q15 0 15 -45l30 -46l-8 -37q27 0 67 -110l-7 -9l37 -45l-8 -10v-18q23 0 23 -27l7 -10h8l-8 -9v-27h15l15 -18l-8 -10v-9l45 -110h-15l-22 10l-45 -10l-15 19h-7l-7 -9l-8 9h-7l-8 -9l-37 9h-59q-21 91 -45 91v9l8 10l-8 9v18
h15l-30 27l-7 -9l-15 83l-7 -9h-8l-7 73h15v18l-30 -18q0 30 -22 64h14v18l-7 -9h-15q-19 101 -44 101l7 9v9l-45 55l-52 -55l8 -9v-19q-22 0 -22 -27h-15v-18l7 -9l-15 -46h8l-8 -9l8 -46v-92l7 -9v-9l-15 -18l8 -28l-8 -9l15 -18q-22 0 -22 -28l15 -18v-18l-8 -9v-9
l15 -19l-7 -9h-37l-8 9h-7l-8 -9l-7 9l-8 -9v-9l-126 27l-7 46v64l-8 9l8 9v37l-8 9v9l8 10h-8l15 64l-15 36l15 64l-15 37l15 64h-15l8 46v18l-8 55l8 46v9l-15 18l22 37q0 27 -22 27l7 9v19l-7 91h7l-7 9v92l-8 55l8 27h-8l8 9v9l-8 74l8 9h-15l15 36l-8 10l8 45v28l-8 9
l8 27l7 -9l8 9h44l8 -9h7zM753 929v-9l-7 -46h-15q7 55 22 55zM508 316v-10l22 -9v9l-7 10h-15z" />
    <glyph glyph-name="L" unicode="L" horiz-adv-x="685" 
d="M71 1340h7v-18h8l8 9h7l31 -9v18l15 -18l8 9l38 -9h23l8 9l8 -9h7l8 9l23 -9l-8 -10v-19l8 -9l-8 -10v-9l8 -9v-10l-8 -28h8l-8 -10v-9l8 -10v-9l-8 -9v-10l8 -9v-10l-8 -28h8l-8 -9v-10l8 -9l-8 -10v-9l8 -10v-9l-8 -38h8l-8 -9v-10l8 -9l-8 -10v-9l8 -9l-8 -10v-28
l8 -38l-8 -38l8 -28l-8 10h-8l16 -48h-8l15 -47h-15v-9l15 -19l-7 -10v-37l7 -10l-7 -9v-47l7 -10l-7 -9v-19h15l-15 -28h15l-15 -29l7 -9h8l-8 -10v-9l8 -28h-15l15 -19l-8 -10v-19l8 -9l-8 -9v-10l8 -9l-8 -10v-9l8 -10v-9l-8 -28l23 -19l8 9l8 -9h7l8 9q54 -6 54 -19
l7 10h8l8 -10h7l8 10l54 -10h76l8 -9l8 9l38 -9l8 9l23 -28h7l-7 -47l7 -47h-7l7 -10l-23 -94h16v-10h-23l-8 10v-10l-8 10h-61l-38 9v-19l-92 19v-9l-62 19l-30 -10l-54 19l-8 -9v19l-38 -19l-23 9v-9l-7 9h-8l-8 -9l-53 19l-46 -19l-16 19l16 75l-8 10h-8l16 75l-16 28
l16 48l-8 9l8 9l-16 19l8 10h-8l16 37l-16 29q6 66 16 66l-16 38l16 56l-8 10v47l8 38l-16 28l8 47v19h-15l15 66l-8 66l8 9v10l-15 38l15 66l-8 9h-7l15 28l-8 10v9l8 29l-8 9h-7l7 38l-7 75l7 57h-15v19q0 19 31 19v18z" />
    <glyph glyph-name="M" unicode="M" horiz-adv-x="1121" 
d="M40 43l1 59l6 7h-6l7 6q38 587 60 587h-13l8 98h13l-13 13l7 7l-7 6l7 33l1 65l7 7h-7l7 6l-6 7v6l6 7v6l16 157v6l-7 7l14 45l-7 1l8 65l6 -7l14 13v7l-7 6q13 0 14 26v7l19 -7l14 13h-14l7 26h7l12 -40h13q1 17 27 19q0 14 -26 14l13 13l26 -1l7 -6l6 6h33v-7l-7 -6
l20 -1l-7 -6l20 -20h6l7 7v-14l-7 -6h6l7 -7v13h7l-1 -19l20 12h7l6 -6v6l7 7v6h-13l-7 -6v13l7 7l-6 6v7l32 -14l13 13v-20l-13 1l6 -7l-13 -13v-6l20 12h6l-6 -26l-1 -6l7 -7h-13l-7 -6l7 -7l-1 -13h20l7 6l12 -59v-19l-7 -7h7l6 7l79 -413h-6l43 -190h-13l13 -13h13
l14 78h-7l66 522l-6 6q9 0 14 52q1 56 27 78l-20 -12h-6v6l6 7l1 45h20l-14 -19v-7l7 -6l-7 -7h13v13l-6 7l6 6l7 -7h6l1 7l-7 6v7h13q0 -20 13 -20l7 33l-26 13v19l26 -6q0 -28 19 -40q33 0 33 -33h6q1 29 27 45l-13 14h-20l-13 -13h-6l-7 7h-6l-7 -7l-6 20l7 19h13
q-1 -16 26 -20q0 20 46 19h6v-7l-7 -6v-26q39 0 40 32l19 -13l13 13v12l33 -13h6l7 6l12 -45v-13q-19 0 -20 -20l-13 1l-6 6l-7 -6h-6v13h-7l-13 -13h20v-7l-13 1v-7l19 -7l7 7h13v-7l-7 -6l26 6q15 -1 26 -46h-7l48 -334v-7h-7l-6 7l-1 -13q27 0 26 -53v-6h-7v13h-6v-6
l19 -27v-19h-26l-7 7v-7h-6l-7 7l-7 -20v-6l7 6l19 -7l33 6v-13l6 -58l-7 -20q13 0 25 -92l-1 -6h-6l-6 6l-1 -13h13v-19q0 -33 -20 -33v-13h6q32 0 50 -197v-6h-13v-6q18 -1 31 -79h-6l12 -33h-6v-6l6 -7v-26l-7 -7q15 0 19 -72l-46 -6h-7l-6 7l-26 -6l-79 1l-32 -6l-7 7
v-7h-7l-52 432h6l-6 46l1 32h19l-12 13h-7l-7 -6l-17 164v6l7 6l-30 164q-16 0 -43 -228h-6v13h-7l-6 -6l6 -20h6l7 7l-29 -196h7l-7 -33q-39 -404 -58 -404l-72 1l-33 -6l-6 7l-59 -6l-52 1l-128 668v7l7 6q-13 0 -25 72l6 7q-13 0 -31 105h-13l-1 -66l-13 1v-7h13l-1 -46
l-6 -6h6l-7 -59l6 -33l-7 -6v-7l7 -6l-21 -105h6l7 7l-1 -79l-7 -6l6 -7v-45l-7 -7h7l-8 -65l-3 -196l-7 -46l7 -6l-15 -78l-215 -4zM619 375h-19v-6l6 -7zM757 432l1 19h-20l6 -19h13zM1033 519v7l-19 6l-7 1v-13zM1001 533v6l-7 7h-13v-7zM669 655v6l-6 1q-20 0 -20 -13z
M924 671h-19l-1 -6l7 -7zM741 680l-19 20h-6l-1 -20h26zM999 872v7h-7l-19 -6v-13zM999 892v6l-26 1v-7h26zM941 919l13 13h-7l-13 -13h7zM904 1096l-6 19l-13 1l13 -20h6zM827 1208v13h-13l-6 -19l6 -7zM964 1199l-13 14l14 19h-26l-1 -19l13 -13zM697 1210h6l-13 19
q20 0 20 13h-6l-20 -19zM364 1241l7 -1v20h-13l-7 -6zM247 1275v6l-20 -6v-6l7 -7zM893 1259l1 33h-13v7l6 6l1 13h-20l-7 -6v-7l7 -6l-1 -33zM306 1300l-6 26h-7l-20 -19l13 -20zM952 1278l20 19h7v-13l-14 -13h-13v7zM209 1334h6l7 -6l-7 -20h-7zM692 1334v13l13 12
q0 -19 13 -19v-6l-13 -13zM376 1445l21 -1v-5l-21 1v5zM382 1481v15l-21 11h-20l10 -15q26 -1 26 -11h5zM434 1491v5l-5 5v10l5 5l-16 1v-11l5 -5h-25l-1 -5q16 0 16 -10zM475 1500h11v-5l-11 -10v15zM330 1497l6 16l-16 5v-5l5 -5v-6l-5 -5h10zM392 1512l1 5l-16 5v-5l5 -5
h10zM491 1536h5v-20h-5v20zM326 1549v5h-11l16 21v5l-15 -5h-6l-5 5l-5 -15q15 -11 15 -26zM404 1574l5 -5l15 -1l11 11l-16 5l-5 -5v10l16 5h5v-10h5v10l-5 5q-36 -7 -36 -25h5zM342 1601v26h-5l-5 -16h5v-10h5z" />
    <glyph glyph-name="N" unicode="N" horiz-adv-x="765" 
d="M532 1411l51 -16v-4l51 -3l20 10l3 -3h4l3 3h3q38 -10 38 -27l40 10l20 -10l14 7l13 -10q-19 -13 -74 -21v-33l-3 -4l3 -3v-68h-3q-29 85 -37 88h-135v14l3 13q0 32 -54 47l-3 4v3zM205 1280q14 -2 14 -10h3l7 6v4l20 -7l14 3q9 -11 20 -50l3 -4l-3 -3q14 0 44 -88
l40 -108h-3l23 -60l-3 -4v-3l30 -74v-4h-3l47 -161l31 -75v-17h6l7 7q14 0 14 -13h3l3 10l-3 3v4q6 47 10 47l-3 3l6 58l-3 3l7 84l-4 4v3l4 13l-7 27l7 17v7h-4l4 34v47l3 3l-3 4v3l3 3l-3 4v3l3 31l-3 13l3 30v38l4 13l-4 3v4l7 47l-3 14v3l6 7h129q8 0 43 -112l-3 -3v-10
l3 -14l-3 -13v-14l3 -3l-3 -3v-4l7 -7l-7 -27q14 -5 14 -23l-4 3h-3l-7 -10v-7l3 -13l-3 -14v-6l3 -17l-3 -4h7l-7 -20h-3v-3l6 -10v-7h-6v-37l-4 -31l4 -3l-4 -17v-13l4 -4l-7 -40l3 -10l-3 -24l3 -3v-4l-3 -13l3 -3l-3 -4v-37l3 -3v-4h-3l7 -17l-4 4h-3l-3 -27l6 -17
l-3 -20l3 -4v-3l-6 -20l6 -14h-3l3 -3v-7l-3 4h-7l4 -4v-3l-4 -4v-3h4l-4 -3v-41l-3 -3l3 -4v-3l-3 -3v-4h3l-3 -3v-3l3 -4l-3 -3v-34l3 -3v-4h-7v-10h4l-7 -57l3 -4l-3 -3h7v-7h-7v-13l3 -3v-4l-6 -7l3 -16h-3l3 -4v-3l-3 -4v-3l3 -17l-3 -3l3 -4l-3 -3h-4l4 -3v-14l-4 -3
l4 -4v-3l-4 -3v-4h4l-4 -3v-3l4 -4l-4 -3v-4l4 -3l-4 -3v-4l4 -23l-4 3h-3l3 -3v-4l-3 -3v-3l7 -7h-7v-4h7v-10l-4 4h-3v-4l3 -3v-3l4 3h6l-3 -10h-3l-4 3h-3l7 -13l-7 -7l3 -3l-3 -4v-6l3 -4v-3h-3l7 -14l-7 -6h7l-7 -20h3l-3 -4v-3l3 -10l-3 -3h-3l3 -4v-3q-6 -20 -10 -20
l7 -17l-17 -7l-4 3v4l10 3v10l-6 -7l-10 4l3 3v7l-3 -3h-11l-3 3h-3l-4 -3v3l-3 -3h-17l-3 3h-4v-7h-3v7l-3 -3q-27 2 -27 6l-4 -3h-3l-4 3l-3 -3h-13l-4 3l-3 -3h-4l-3 3l-13 -6v6l-4 -3h-3l-3 3h-4v-3l-17 17l4 3v4l-21 63l-3 4h3l-20 60l4 4v3q-21 54 -44 148l-14 27l4 4
v3q-6 0 -14 37l-13 44l-7 14h3q-7 27 -17 27v16q0 24 -17 24l7 10v4h-7v3h7l-20 57h3l-27 95q-10 11 -33 114q-7 0 -7 14h-7v-14l-3 -16l3 -4h-3l3 -3v-4l-3 -3l3 -10l-3 -64l3 -4h-7v-3l4 -24l-4 -3v-3l4 -14l-4 -13l4 -14v-3l-4 -4v-3h4l-4 -3v-7l4 -14l-4 -3v-3l4 -10h-4
l4 -4v-3l-4 -14l4 -3h-7v-7l3 -3l-3 -3v-7h3l-6 -74h3l-7 -17h4l-4 -4v-6h10v-7l-10 -4l4 -10l-7 -33l3 -4v-3l-3 -4l3 -10l-3 -20l3 -13h-6v-4l3 -17l-3 -3h3l-3 -3v-10l3 -4l-3 -3v-4l3 -13l-10 -71l3 -10l-3 -3h3l-7 -21l4 -10q-3 -20 -7 -20l7 -34l-7 -6v-27
q0 -25 -20 -30l-31 6l-30 -3h-17l-3 3l-4 -3h-3l-57 7l-4 -4l-3 11l3 3v3l-3 14l3 13l-3 13l7 10l-7 14l10 17l-7 13l7 17l-3 3v4l3 27l-3 10l3 3h-3l3 4v3l-3 3q2 24 6 24l-3 3v4l3 20l-3 10l3 20v4l-3 3l7 17h-4l4 3v4l-4 3v4q3 20 7 20l-3 3v7l3 17l-3 20v17l3 3l-3 4v3
l3 3l-3 14q0 23 7 23l-4 4v13l4 4v3l-4 3h4l-7 21l3 3h4l-4 17l4 13l-4 4v3l7 17l-3 3v31l3 3l-3 3v7l3 14l-3 10l6 47l-3 3l10 81l-3 11l6 16l-3 4v3q3 35 14 47v4h-7v47l-4 13l4 14l-4 3v4h4l-4 3v3l7 11l-3 16l3 24l-3 3l3 24v54l-3 3l7 17l-4 10l4 27l-4 4l4 17v43l-4 4
v3l4 4h3l-7 13q20 20 20 34l-3 3h3l4 -3h3l-7 10l4 3v7l-17 3v7h10v3q-9 0 -13 21l3 3h3l-6 10l3 14h3l10 -7q0 10 21 10v3l3 -3h3l4 3h3l4 -3h3l27 3l20 -6q0 10 10 10zM101 1246l-4 -10l10 3zM752 899l10 -4v-3l-10 -10l-7 7zM495 612v-3l7 -14h4l6 7h-6v3l3 4v3h-14z
M506 585v-3h6l4 3v3zM509 571l3 -13l7 7v3zM779 548l3 -4v-3l-17 -7l-3 4v3l3 3h-7v4l21 3v-3zM286 504h4l13 -10h20v-7q-37 4 -37 14v3zM738 504h10l-6 -7l-4 4v3zM269 474h4l-7 -7h-3zM738 42h14l-7 -7h-7v7zM762 32l10 -4v-3h-10v7zM701 22h4v-10h-7zM718 12v-4l-3 -13
h-4l-3 10zM748 -28h7l7 -7h-14v7zM705 -32h3l-10 -10v3zM779 -248v-10l-10 -3l-21 7v3zM735 -265q0 -20 13 -20h7v-7h-20v-6h3l4 3h3v-10q-16 0 -44 -17h-10l-13 3l-11 -3v10l-6 -7l3 -10h-3l-4 -3h-3q0 17 -7 17h-10q16 23 24 23l10 -3q5 14 10 14l13 -4z" />
    <glyph glyph-name="O" unicode="O" horiz-adv-x="803" 
d="M362 1374v-8l7 8q199 0 315 -149l-7 -9v-18q21 0 21 -26h14v-9l-7 -9v-9l15 -17l-8 -9v-9h15l7 -26l-7 -9v-9l7 -9l-7 -9v-26h14v-9l-7 -9l14 -35l-14 -26l14 -36l-7 -8v-44q2 -45 14 -45l-14 -26q5 -70 14 -70l-14 -80h7l7 9l8 -35h-15v-35l7 -9l-7 -9v-79l7 -9l-14 -35
h7l-7 -9v-9l7 -9v-9l-21 -70l7 -27h-7l-22 -26h-7v-53l-71 -79q0 -32 -194 -80h-28q-72 0 -72 18l-21 -9l-22 9v-9q-136 53 -178 150l-43 106l7 9v8l-29 168l7 9v61l-7 36l7 35q0 44 -14 44l14 62l-7 35l7 44l-14 53l7 53v17l-7 9q45 282 93 282q0 20 50 53q63 42 179 70z
M348 1145l-8 9h-7q-26 0 -78 -88l7 -9l-7 -9v-52h-15v-9l15 -27h-15l15 -26v-9l-8 -9v-9l8 -8h-15v-18h15v-9l-15 -26q22 0 22 -18l-7 -9h-8l8 -9v-8l-8 -9l8 -9v-9l-8 -9v-8l8 -9v-9l-8 -9v-9l8 -8v-9l-8 -27h15v-8l-7 -9l7 -9v-27h-15l15 -26l-15 -18h15v-8l-7 -27l7 -9
l-7 -8h-8l15 -53l-7 -36h7l-7 -8v-9l28 -106l7 9h8q0 -33 71 -53v9l7 -9h7l58 9v-9q107 44 107 141v26l-7 44h7l-7 9v9l7 27l-7 96v9l7 9l-14 123l7 36h-7l7 8v18h-15l8 44v18l-8 53l8 26q0 155 -115 194l-21 -9l-7 9h-8z" />
    <glyph glyph-name="P" unicode="P" horiz-adv-x="848" 
d="M331 1332v-9l9 9q298 0 398 -124q21 0 61 -106l18 -17l-9 -27h27l-9 -9v-8h9l26 8h9v-8l-35 -18l-9 9l-9 -36h9l-9 -8l9 -45l-9 -26h9l9 9h9l8 -27v-9h-8v18l-27 -26l9 -9v-9l-18 -18l18 -17v-18q-35 0 -35 -18l-18 -44v-9l9 -8v-9q-36 -5 -36 -27v-9h45l-36 -44l-9 9h-8
q-71 -31 -71 -45l-9 9h-18v-27q-61 -39 -105 -54t-162 -15h-9l3 -18v-106l-9 -9l9 -9v-88l-9 -53l9 -9v-9l-9 -26h9l-9 -9v-185h-44l-27 -9l-44 9h-106l-18 17v150l9 9l-9 9v27l9 8v9h-9l9 9v62l-9 26l9 45v185q-88 20 -88 35v18l18 26l-9 45h17l9 -9h9q0 17 35 17l18 115
l-9 9l9 44v159l9 53l-9 27l9 79h-9l9 9v62q0 92 35 92zM393 1102v-70l-9 -9l9 -9l-17 -168l8 -8v-9l-8 -27h8l-8 -9v-53l35 -8q129 0 150 203v8q0 105 -88 159h-80zM861 952h9v-26l-9 -9h-9v9zM844 793l17 -17l-26 -9l-9 9v9l9 8h9zM164 643l-9 -9v-8q13 -36 26 -36h18l9 27
z" />
    <glyph glyph-name="Q" unicode="Q" horiz-adv-x="800" 
d="M386 12q24 42 85 39l2 11l-5 1l-5 -2l1 5l13 -2l4 -3v3l-4 3l2 10l9 5l-1 -6l5 2h4l4 -3l4 -1q5 13 15 12l-1 -5l5 2l3 -1l5 -3l-15 -14h-4l-4 3l-2 -8l32 10l8 -1v-3l-5 -2l-1 -8l4 -1l9 5l-7 11l14 1l8 -1v-2l-9 1l-1 -8l4 -3l5 2l7 -7l13 1l-4 4l9 4l5 -1
q34 -15 51 -27q4 -6 12 -7l29 -14l30 -23h-4l-5 -2l24 -14v-2l-5 -2l4 -1l4 -3q41 -43 79 -48l5 2l21 -3v3q44 7 57 28h-4q18 10 6 12l5 7l-10 18l9 -19l5 2l4 -3l9 4l11 -1h-20v2l9 5l4 -4l38 -2q22 -3 18 -24l-18 -38v-3l4 -3q-42 -37 -70 -42q-9 -17 -97 -12
q-29 4 -86 28h-5v-5h-4q1 9 -19 22l1 3l4 2l-22 13q-7 17 -27 19l1 3l4 2l-25 27q-17 17 -92 38l-12 1l-46 -22l4 -3l-10 -7l9 -1l-17 -3q-2 -13 -2 -10q-7 -5 -56 -12l-12 5q-10 1 -25 17l5 7q-5 1 -4 -3zM394 1265l3 -3h3v3l-3 3h3l9 -6h6l3 3l3 -3h3l4 3v-3h3l3 3v-6l3 3
l31 -6l3 3l3 -3h21v-3q59 -18 99 -37l44 -28l12 -12q46 -53 52 -53q51 -93 56 -176h-3l6 -56l-3 -15v-59l-3 -3l3 -3v-9l-3 -3h3l-3 -3l3 -13l-3 -12v-59l-3 -3l6 -12h-3l3 -13l-3 -18v-9l3 -16l-3 -3v-3l3 -3h-3v-3l3 -3v-6l-3 -16l3 -18v-56l-3 -3h3l-3 -3l3 -16v-55
l3 -16l-3 -9v-37l-3 -3l3 -3v-53l3 -3l-9 -12q-43 4 -43 15h-16q-27 0 -43 25q-36 0 -46 15h-3l-4 -3l19 -27l18 3q15 0 28 -10l25 -18h3l3 3q12 -10 37 -19q16 -8 16 -24l-3 -3h3l-6 -16h3l-7 -31v-3l4 -3q-16 -70 -34 -114h6q0 12 21 12l10 -3h3l3 3v-3h3v3l-3 3v3h6
q7 -6 34 -9v-9h-12l-4 3v-3h-6q12 -22 22 -22v-6l-3 3l-9 -9v-3l9 6h3l3 -3l3 3h3v-3l-6 -9l-34 6l3 3v6h-3v-6l-9 3l3 9l-3 16l3 9v3l-6 -6v-22l-16 3h-12v6h-3v-6l3 -3v-3l-3 -3l9 -9l-6 -6v-4h3l3 4h6l-9 -13h-3v6h-3l-3 -3h-10l-12 34h-3v-21l-22 6h-3l-3 -3l-6 6l-3 -9
l-9 3h-3l-4 -3v3l-6 -6l6 -7l-3 -15l-3 3h-3l3 -3v-3q-27 -4 -27 -9q-28 2 -34 9h-10v-3q0 -6 10 -6v-7h-19l-9 -6q-7 0 -10 16l-21 -25q0 15 -9 18v-9h-4l-6 6l6 13l-12 6l-28 -6l3 3v3l-9 -9v-7l3 -3q-12 0 -12 -12h-9q0 9 -7 9h-6q0 -8 -15 -12h-3l-3 3l-3 -3h-4l-3 3v-3
l-3 -3l-9 3l-28 -3h-3l-3 3l-12 -6v6h-3l-3 -12l-7 6l-9 -6h-6l-25 6l-15 -3v-7l3 -3l-19 -15h-3v6h-3q0 -9 -6 -9h-3l-3 3v-3l-16 6v-3q-15 0 -15 -12h-3l-3 3l3 3v3l-3 3l-16 -6q-28 -18 -37 -18h-21v6l-10 -9q-6 0 -6 9h-3v-6h-6l-3 3q0 12 -10 12q-18 24 -27 24v3l3 4v3
l-3 -3l-16 3v6q2 6 16 12v-3l43 9l25 -6l3 3h9l3 -3v3l3 -3l19 6l12 -6l-25 31q-25 24 -40 62q0 6 9 6q22 29 31 31v6h-3v-6q-15 0 -15 -9l-9 3h-4l-3 -3l-12 3l-28 86h3v3l-3 3v16l3 3l-3 3v3l3 3q-5 0 -9 19l3 3v6q0 15 -9 15v7h3l3 -3v15l-3 3q5 0 6 16v6l-3 3l3 3v3
l-3 3l3 3v6l-3 3l3 4l-3 15l3 3l-9 6l6 9v4h-3l-3 -4v4l9 12v6l-3 12l3 13v52l3 3l-6 13l6 31l-6 9v3l3 3h-3l3 16v6l-3 3l3 3v12l-3 13l3 12v15l-3 4l3 3v3l-3 3h3l-3 18l3 19l-3 9l3 3v9l-3 13v3l3 3l-3 31l3 9l-3 3v16l3 3l-3 3v52l3 3h-3l-3 4l3 12v3l-3 3l6 28h-3l3 9
v3l-3 3l3 3v4l-3 3l3 3v3l-3 3l3 3v6l-3 3h3l-3 3l9 25l-3 3v16l3 3l-3 3v3l6 6v3l-3 3q10 0 10 9l-4 4h7v3l-3 3v9h3q10 31 15 31l-3 3q17 42 46 62l-3 3l3 9l-3 9h6v-9q31 20 31 34q16 0 16 9h3l3 -3l18 19h4l3 -3v6h3l3 -3l9 9l3 -3l31 22l6 -7q25 7 25 13l3 -3l22 12h3
l3 -3l6 6q12 0 12 -9l13 9h3l3 -3v3l3 -3q15 0 15 15h10v-3h-6v-9zM338 1271v-3l-9 -3h-3l-3 3v-3l-7 6l10 3zM406 1080v-9h9v3l-6 6h-3zM428 1074q0 -7 -13 -7v-6l3 -3l-15 -9l-3 9q9 0 9 6v3h-3l-16 -3v3l-3 4q-9 0 -9 -13h-18l-7 6q-8 0 -30 -15q-7 -22 -16 -22l6 -12
q-7 0 -15 -25h3l3 -3l-3 -3l3 -3l-6 -6q0 -9 9 -9v-4q-18 0 -18 -43h3v-3l-3 -3v-15l-4 -28l4 -13l-4 -18l7 -12h-7v-4l4 -3v-3l-4 -3l4 -3v-3l-4 -3l4 -3v-3l-4 -16l4 -3v-3l-4 -3l4 -3v-9l-4 -16l4 -3v-3l-4 -3l4 -16l-4 -9l4 -12l-4 -3l4 -3v-3l-4 -4l4 -3v-3l-4 -3h4
l-4 -3l4 -37l-4 -25l7 -31v-3l-3 -3l3 -3v-12l-3 -3h3v-3l-3 -3v-16l6 -6v-3l-3 -3v-28q0 -23 9 -25q0 -6 -9 -6v-6l3 -12v-4l-3 -3l3 -21v-3h-6q0 -10 15 -10v-9h-6l-3 3l-3 -9l3 -22l-3 -15v-3l3 -3h-3q-3 -26 -16 -50l3 -3q-9 0 -9 -9v-3l3 -3l-3 -19v-3h3l3 3h3
q8 -43 13 -43q7 -53 18 -53q0 -25 99 -40l3 3h12l4 -3l12 6v-3l31 13l21 18l19 40l-3 4l6 6l-3 3q8 13 15 74h-3l6 18l-3 13l7 15l-4 10l4 12l-4 12v3l4 3l-4 25l7 6v6l-3 16h6l3 -3l-6 28l6 21l-6 10l3 9h-3l3 3l-6 15v3l3 4h-3l3 15v22h-7l7 9v9h-7v9h7l-3 3l3 16v3h-3
l-4 -3l4 9l-4 25h7l-3 3v3l3 3v3l-3 3h3v7h-3v-7h-4v10h7l-3 9l3 12v6l-3 3h3v4l-3 3l3 12l-7 12l7 13v12l-3 3h3l-3 3l3 10l-7 24h7v6l-13 16h6l4 -3l-7 15l3 3l4 -3h3q-22 23 -25 34v3l3 3l-15 3l3 10h3v-6h6l-6 12l6 18l-9 -6v10l9 3l6 -7v-3l-3 -3h12l3 3l-3 3l7 10v3
q-10 0 -10 6h6l4 -3v6q-16 0 -16 6h-3q0 -12 -19 -12l-3 15h10l-3 3l6 10q-13 0 -13 9v6q7 0 7 -12l9 9q9 0 9 -12l9 6h3l4 -3v3l-4 3v6l4 3l-10 6l3 4v3l-3 3v3l3 3l-12 3v3l3 3h-6v3h6v9h-3q-6 0 -6 -9h-3q0 6 -10 6l7 10h-7v6q7 0 13 15v3h-6q0 10 -10 10v3l3 3v3l-3 3
l-15 -3h-3v3l3 3v3q0 5 -22 13l-12 -4zM474 1061v-3h-3q-9 0 -9 6zM455 1046h-6v3l-9 9l6 6q6 0 9 -18zM344 1043h-3v9h6zM471 1043h-13v6h13v-6zM369 1046l-9 -9h-4l13 12v-3zM415 1040v-16h-3l-3 3l3 3v3l-3 -3l-9 3h-3l-3 -3v3l-4 4h10v3l-3 3h3zM468 1030q-10 0 -10 -9
h-3v12h13v-3zM360 1021h-13q5 12 9 12h4v-12zM384 1021v-3l-3 -3h-3l-3 3h-3l-3 -3l-3 3l3 12h6q0 -9 9 -9zM486 1012h-3l-3 9h3l3 3h3zM505 1012v-9h6v9h-6zM474 1003v-4l-3 -3h-3l-3 3h-10v-3l16 -24h-6l-22 21h6l3 -3v6h-6l6 7v3l-3 3l6 6h3q0 -12 16 -12zM446 1006v-3
l-9 9v3zM363 999v-6l-16 6l3 10h3zM310 987h-3l-3 12l9 10zM508 984q-22 3 -22 12h6zM449 981h-9l-9 9v3q12 0 18 -12zM326 981h-3l-4 9h7v-9zM505 975l3 -3v-3l-3 -3q-10 0 -10 -7h-6l-3 3l-3 -3v3l6 10l10 -3h3v6h3zM452 972v-3l-12 -3l-6 6v3h6l3 -3v3zM483 966
q-9 0 -9 -16h-9q0 11 15 22h3v-6zM341 959h-3l-3 3l6 7v-10zM434 959l-6 -6l-4 9v4zM440 950h-3v3q0 9 6 9zM483 938v-3h-6l-3 9h3zM443 938v-6l-12 3v3l6 6zM344 935l-3 -3l9 -4v-3h-12v16h6v-6zM492 913l-3 -3l3 -3l-12 3q0 5 12 9v-6zM356 913v-3h-6l-3 3v-3l-6 6v3l3 -3
h3l3 3zM462 907l-7 6v3h7v-9zM508 901h-3l-6 6h9v-6zM434 888v-3l-10 -3v6l4 3q-10 0 -10 7v3q14 -6 16 -13zM403 894h-3v7h9zM499 894v-3l-10 -3l-6 6l-3 4zM474 888h-9v6h3zM520 885l3 -3l-6 -6l3 -12h9l7 6v3q-13 0 -13 12h-3zM403 879v3l6 6h3zM502 873l-10 -3l-3 9h3
l3 3h7v-9zM474 876l-6 -6l-10 9v3h16v-6zM465 864v-4l-13 13h3zM492 860v-3h-6v10zM533 860l-7 -6h10v6h-3zM508 854l-6 -6h-3l9 9v-3zM455 845l-3 -3l3 -3h-6l-3 3l6 15h3v-12zM415 836h-9l6 6h3v-6zM480 830h-3l-6 6v3h12zM520 827l-3 -4l-6 7h9v-3zM474 817h3l3 3h3v-6
h-12v9h3v-6zM446 814l-9 -9l3 15h-6v3h9zM499 811h-10v3l3 3zM471 802h3l3 3v-12h-6v6h-6l-3 -13h3l-7 -6h-3v6l3 3l-12 4v6h12v3h-6l10 9zM499 796v-3l3 -4h-13v4h6v3h-6v6l3 3l3 -3h4l3 3h6zM446 774h-6l-3 3l9 9v-12zM477 777v-6l-12 -3l3 -3l-6 -6q0 9 -10 9l-6 -6l-6 6
l22 9h3l3 -3v6zM462 752l-10 -3h-9v3l6 7h6zM431 737h-10v3q7 0 7 12h6zM421 746h-9v3l9 3v-6zM431 697v9h9zM526 657l-6 -7h-3l3 10h6v-3zM474 647v-3h-6q0 -12 -10 -12v3h-6v6l3 -3q10 0 10 12zM428 641l-7 6v3h7v-9zM523 629l-6 -6h-3l-3 3v-6l3 -4h-3q-6 0 -6 10h-3
l-3 -3h-4v6l16 3h3l3 -3h3l3 3v-3zM523 607l-3 -3h-9v3l9 3h3v-3zM480 601h-22l7 6h15v-6zM477 576v-3h-15v3l3 3zM529 558h-9l6 6h3v-6zM508 453h-6l-7 6h7zM350 419h-9v6h3zM1047 224h9q0 -7 9 -12q-6 -14 -12 -16l-18 3h-4v-6l-12 6q0 9 31 16l-3 3v6zM991 199
q23 0 25 -9l-3 -3v-3l-16 6v-6h-3l-3 3h-3zM1099 190h7l6 -6l-19 -6l-3 3v3zM1084 184h3v-9h-3l-9 3l-3 -3l-4 3v3zM1115 184h12v-3h-12v3zM979 156l6 -6v-6h-6v-3l-3 3h-3l-16 -3v3zM949 -155l9 -3l-3 9zM871 -193l9 -3l22 3q12 -3 12 -12l15 3l4 -9h15q15 -5 15 -16l16 4
v-7h-34l-9 7l-19 -7q-15 4 -15 10v3l15 -3v3l-6 6l-3 -3h-3l-19 6h-6v-3h12v-3l-9 -3q-18 7 -18 12v6zM951 -239v-6l-12 -3v6zM979 -251l-3 -16h3l3 3l3 -3h9v3l-3 10l-9 -6v9h-3zM1090 -285v-6h16l-7 6h-9zM1109 -301l6 -6l3 3v3h-9z" />
    <glyph glyph-name="R" unicode="R" horiz-adv-x="910" 
d="M712 1004l-3 7q-12 -22 -22 -22v-14l25 22v7zM709 1058h-2v29h5zM672 1007v14h-5l2 -7l-5 -14l-3 28l8 8v-8h3l3 8l-6 14l6 15h9q0 -22 5 -22v-15q0 -14 -17 -21zM678 1108h9v-21zM648 1021h-2v15h2l3 7l-3 7v22q16 0 19 -29q-9 0 -19 -22zM648 977h-5v23h8zM589 556
l-8 7v-14h8v7zM545 422h-7l-3 -8q0 20 -20 30v-30h9l21 -7v15zM703 292h-7l-7 -33h14v33zM794 381v23l7 11l14 -22v-23zM669 547l-17 -7l102 94l-61 -37l71 37h6zM655 590l-10 -8v-7h10v15zM642 554v21q-10 0 -10 -28h-3l-3 7v-14h9zM505 531l-3 8l-7 -15h10v7zM492 517
l-14 -7v-7h11l3 7v7zM1164 1224v-9l-23 -14l-7 5v4zM954 1206v-5l15 9v5zM1014 1215v-14l22 5v9h-22zM1036 1196l-7 -5v-4q29 0 29 -20h9v29l-9 -5h-7l-7 5h-8zM1262 1201l37 -5v-5h-23l-7 5l-7 -5v10zM1239 1191h23v-9h-8zM1231 1167l23 -5l-15 -9l-8 5v9zM1127 1148v-5
l7 -4h15v4zM1187 1115l-23 -43h14q0 17 24 38l-8 5h-7zM1322 1115v-10h-31v5zM1262 1077h14q0 -10 23 -10v-15l-15 -9l-15 9l-7 -4v-5h7l-7 -14l-31 4l16 10l7 -5v10h-15q8 29 23 29zM1322 1072h22v-14zM1276 1038q31 -5 31 -28h-23l-8 5l-7 -5v-5h-15v5q22 15 22 28z
M1231 1015v-14h-22v9zM755 553v-14h15l-7 14h-8zM841 505l8 -34v-14h29q-10 34 -29 34l7 5v9h-15zM763 409h7v-19h-22v10zM593 1231v-12l23 5v7h-23zM519 993l30 -17l7 17l-7 6zM661 982h14l15 -11l-7 -5h-15zM533 966v-11l23 5v6h-23zM652 739l16 -10h7v10h-23zM690 712
v-12h15l7 23h-7zM668 700v-16q17 0 100 -2h9l-65 -25v16q-15 0 -15 17l-7 -6h-7v16h-15zM623 558v-11h-7l37 54h8l-23 -43h-15zM668 536l30 54h7l-22 -54h-15zM661 573v65h15l-7 6v-76q29 0 29 16h-22zM962 441v-17l15 11l-8 6h-7zM946 419l-7 -6v-17h7l9 23h-9zM650 353
l7 -5h8l8 5v12h-8zM946 364l-14 -12v-11h7l7 5h9v-10l22 10v-10h14l-7 5v5l7 6v5zM613 342q0 -10 -23 -10l-7 -6v-5l7 -6h16l14 27h-7zM887 346l-15 -16l8 -5h7l16 11zM932 286h37l-7 -16zM642 276v-5l8 5h15v-10l-37 -6v6zM10 545l12 27l-9 10l1 11l22 26l-9 1l10 8l1 9
l-7 30l10 -1l-9 10l73 369l-9 1l10 9l5 46l-5 49l10 8l9 -1l-5 48l12 28l-8 10l1 10l12 27l-9 11l10 8l11 -1l8 -10l2 19l-29 2l1 9q29 -2 33 45q2 21 493 -18l9 -11l1 10q249 -75 228 -308l8 -10l-1 -9q-22 -220 -252 -338l77 -17l-2 -29l38 6q47 -5 -27 -63l10 -1v9l65 60
l10 9l19 -2l-74 -58l19 -3q74 54 121 54l10 10l-31 -111l-10 1l-10 33q39 9 116 22l47 -5l-132 7l-29 -43l10 -1l-8 19l1 10l-29 -7l-1 -18l10 8l18 -2l-30 -25l-27 21l-48 -5l-9 11q27 24 -26 -85l-1 -10l149 -423l-1 -9l-171 6l-26 12l-1 -9l-9 10l-38 4l-10 -9l-9 1
q5 51 -33 60l2 20l10 8l1 10q-36 17 -64 129l12 28h-9q-19 2 -16 30q-28 14 -31 80q-33 46 -61 52l-37 -91l-10 -104l9 -10l-12 -28l5 -38l-11 -8l-1 -10l8 -29l-10 1l9 -10l-6 -56l-282 26l-38 -41l41 79l1 9l-7 39l11 -1l-10 10l4 28l10 9l-12 68l10 8l3 28l-7 30l14 46
l4 47l-8 11l1 9l9 -1q-40 48 -66 56l-41 -25l-54 24l-19 2l-2 -18l-28 2l2 19l-9 1l-2 -29l-85 18l-29 -6l-71 -93l-38 -6l-45 23l-1 -9l-27 12q-58 -4 -61 -23zM391 1151l-32 -235l-10 -8q6 -39 62 -45q138 -12 192 106q16 170 -145 185zM303 626l4 -57l31 26l9 -11l28 -3
l2 20l-34 40l-10 1z" />
    <glyph glyph-name="S" unicode="S" horiz-adv-x="717" 
d="M251 -10q-69 6 -69 17l-25 -8q-95 39 -95 59l-8 26q40 185 60 197q119 -43 163 -43l17 17v-17l25 17l9 -8l60 77v26q-46 145 -94 145l-95 77l-8 -8h-9q0 41 -42 68l-18 69l-8 -9h-9q-14 43 -43 43v8h18v9q-35 122 -35 180q21 177 77 239q28 55 163 129l9 -9h8l129 25
q229 -23 231 -68l-9 -77l9 -8l-17 -17h-9l9 -9v-8l-17 -86l8 -9l-8 -8h-35l-51 26l-26 -9q0 26 -111 26v8q-71 0 -111 -85h-9v-43l-8 -9q0 -78 119 -171l9 -9v-8l9 8h8l34 -17l9 9v8l128 -59l-8 -43l137 -52v-8h-9l-43 8v-8l-42 17l-52 -17q0 -17 26 -17l-9 -9
q2 -39 86 -111v-9l-17 -17l-9 9l-8 -26l17 -17l-9 -9l9 -8h25v17h9v-17l-9 -26l-34 17l-17 -17v-8h26l8 8h9v-17l-43 -60h26l-9 9v8l52 26l8 -9v-8l-8 -9h17q0 -19 -43 -25v-9l8 -9v-8l-8 -9h17l-17 -17h-34l-9 9h-8l8 -9v-26h-17l9 9v9h-35q-52 -124 -197 -197zM45 1068h17
v-9l-8 -8v-9l8 -9h-17v35zM45 974h9v-35h-9v35zM97 828v-9q-11 -42 -26 -42h-9q12 51 35 51zM-66 708h26l17 -17h-43v17zM114 640h25v-35h-25v35zM944 571l17 -17v-8l-17 17v8zM1235 554h9v-17l8 -9l-8 -8l-26 -17h-17v17q34 0 34 17h-17zM1364 537h17v-9q0 -17 -26 -17h-8
v9zM182 -28h9l-26 -25v8zM1304 -199v-8l-17 -18v9z" />
    <glyph glyph-name="T" unicode="T" horiz-adv-x="768" 
d="M74 695v-6l-10 -9l-4 3v3zM-24 683v-3l7 6v3zM4 689v-9l11 3v6h-11zM15 677l-4 -3v-3q14 0 14 -12h4v18l-4 -3h-3l-4 3h-3zM119 680l18 -3v-3h-11l-3 3l-4 -3v6zM109 674h10v-6h-3zM105 659l11 -3l-7 -6l-4 3v6zM57 647v-3l3 -3h7v3zM85 626l-11 -27h7q0 11 11 24l-4 3
h-3zM147 626v-6h-14v3zM119 602h7q0 -6 11 -6v-9l-7 -6l-7 6l-4 -3v-3h4l-4 -9l-14 3l7 6l4 -3v6h-7q3 18 10 18zM147 599h11v-9zM126 578q14 -3 14 -18h-10l-4 3l-3 -3v-3h-7v3q10 10 10 18zM105 563v-9h-10v6zM-291 342v-3l10 -3v3l-4 3h-6zM-110 213v-9h7l-4 9h-3z
M-271 177l4 -21v-9h14q-5 21 -14 21l3 3v6h-7zM-107 123h4v-12h-11v6zM-298 25v-3l10 -3v6h-10zM-208 -44l7 -6h7v6h-14zM-434 -98l20 -3v-9l-10 3h-14v-3h14q0 -7 -17 -9l-7 9v6q14 0 14 6zM-550 -101h7l7 -6v-6h-3l-11 9v3zM-522 -104h11l10 -6v6h7l7 -6v-3l-17 -3
q-18 4 -18 9v3zM-214 -103l6 -7l-3 -3v-7h10v-7h-5l-2 4h-3q0 -7 -8 -7l5 -7l8 3l5 -7l8 4v-7h-5v-4h2q13 5 13 11h-10v10l5 7h5l-2 -3v-4l7 -3l13 3l-5 -10l2 -11l3 4h5l-3 -4v-7h3l3 4h2l-2 3v4l5 7h2q0 -14 5 -14l-2 -4v-3h2l8 7q0 -21 18 -21v7h-10q1 21 7 21l3 -11
l-3 -3l8 -3v-32q-5 0 -10 -17q0 -7 7 -7v-7h-153l21 59l-8 4v10l3 3v4l2 -4h5v7h3l8 -3l2 3l3 -3l-3 10h-8l-2 -3h-3l-5 10l5 7l11 3l2 -3h5v7h3v-7l5 7l-3 3zM-183 -113h5q5 0 5 -10v-4h-2v7q-8 0 -8 7zM-152 -123h2l8 -4l-8 -10zM-244 -148q4 -13 8 -13h5q-1 7 -13 13z
M-201 -161v-7l5 -7l5 7zM-168 -179h8v7h-3zM-249 -175v-7q11 0 20 -11q-1 10 -13 18v-4l-2 4h-5zM-134 -179v-3l2 -4v-3l10 10h-12zM-226 -182v-4l12 -10v3l-2 4l2 3l-10 4h-2zM-211 -186v-17h5l5 14v3h-5v-7h-2v7h-3zM-190 698v-7l10 4v3h-10zM-225 550l14 -11l3 11l-3 3z
M-159 543h7l7 53l-4 -3h-7zM-218 593v-7l10 3v4h-10zM-163 451l7 -7h4v7h-11zM-145 434v-7h7l3 14h-3zM-156 427v-11q8 0 14 -20h4l3 3v10q-7 0 -7 11l-3 -4h-4v11h-7zM-290 351l-4 -11h7v11h-3zM-176 337v-7h-4l4 -10h3l3 17h-6zM-156 323v-10h4l3 10h-7zM-173 302v-10h7
l-4 3v4q14 0 14 10h-10zM-214 137v-11l6 7l-3 4h-3zM-221 123l-4 -4v-10h4l3 14h-3zM-159 88l3 -3h4l3 3v7h-3zM-221 88l-7 -7v-7h3l4 4h3v-7l10 7v-7h7l-3 3v4l3 3v4zM-176 81q0 -7 -11 -7l-3 -3v-3l3 -4h7l7 17h-3zM-249 78l-7 -10l4 -4h3l7 7zM-228 40h17l-3 -10z
M-163 40v-4l4 4h7v-7l-18 -3v3zM-270 36v-6l-3 -18q14 -1 14 -10v-6l-4 -4v-3l14 -4q0 -6 -21 -10l-7 17l4 10l-11 3l7 11l-3 3v4l3 3v4l-3 3zM-183 16h3v-11h-7zM-152 12l7 -7l-4 -3l-10 3zM-194 2v-6h7l11 6l10 -20l-4 -4v-7l18 4l3 -4h4q-3 -10 -21 -17l-7 14l-3 3h-4
l4 4v3l-4 14l-24 -3v3zM-163 -11l4 -4l3 4h7v-4l-3 -3v-4l-11 4v7zM-197 -25l10 -4v-7h-3l-11 4l-3 -4v4zM-218 -29h7v-7h3q-4 -17 -10 -17h-3l7 11l-4 -4h-7zM-180 -36h4l6 -6v-4l-10 4v6zM-228 -46h3l4 -10l-21 -7v3l3 4v3l4 -3h7v10zM-263 -49l7 -7l4 3h6l-3 -10h-10z
M-163 -49h4q0 -7 10 -7l-3 -4v-3l-14 3zM-197 -53h3l7 -7l-3 -3h-7l3 3v4zM-128 -53l7 -7v-7l-7 7v7zM-138 -74h6v-13h-6l3 3v4l-3 3v3zM-156 -80h4l-4 -14h-7v7zM-138 -91v-3l-4 -11h-7v4zM-208 -112h7l-3 -10h-4v10zM-246 -118h4l7 -7h-4zM-204 -122h14v-3l-7 -7h-4z
M-225 -174h4l7 -7v-3l-4 3h-3v-3l7 -7h-11v-7l21 7v-3l3 3h14v-3l-34 -14l-4 3v4l-3 -4h-7q0 11 -11 11l4 3v3l3 -3h7q7 0 7 17zM164 1232l11 -10l70 10h202l81 -10l80 10h122v-121q0 -131 -30 -131h-112l-50 -10l-10 -222v-10l-10 -41l10 -40v-20q-41 -47 -41 -41l10 -10
h11h20q2 -40 20 -40l-10 50l30 -151l-10 10l-31 -10v-21q46 0 91 -40l-10 -10v-10q0 -30 41 -30v-11l-11 -10l11 -10v-121l10 -91l-10 -10l10 -70v-1l10 -101l-31 -20h-70l-51 10v-10l-10 10h-10l-10 -10l-50 10h-71l-10 60l10 31l-10 10v10l10 40l-10 30h10l-10 11v20
l10 10v-130h-10l10 9v11l-10 10v10l10 60h-10l10 10l-10 71v10l10 10l-10 10v10l10 51l-10 30h10l-20 71l10 60v41q-30 0 -60 20l20 20l20 -30l40 10l-20 20l-10 -10l-60 40v10h-31q0 -50 -50 -50q0 -30 -30 -30l-31 10l10 10v30l-10 10l10 10v31h-20q0 -31 -30 -31v-30
l-61 61h-40q0 -61 -40 -61l-20 -20h-10l-10 10h-10v-20h-10l-21 20h21v10l-11 10v10l11 31l-11 10h-10l-10 -10h-10l10 -11v-30l-40 -10v10l10 10q-10 41 -40 41v20h10l30 -20h20l-10 10q24 10 40 10l-40 101q0 41 61 41l10 40q120 -54 120 -111h41q3 40 70 40v21l51 -11
q2 41 20 41l-10 10v10l10 141l-10 10v10l10 41l-40 10v-10l-10 10h-81l-11 -10q-40 15 -40 30v10l10 10l-10 10l10 121v71zM-259 627v-20h10v20l51 -10v-31l-31 -40l10 50v-10q-23 -61 -40 -61q0 31 -50 31v20l40 10v10l-30 -20v31zM265 596v-10l21 -20l20 20v10h-20
l-11 -10zM397 475l19 -30h11q40 15 10 30h-40z" />
    <glyph glyph-name="U" unicode="U" horiz-adv-x="918" 
d="M116 1326l202 -6q58 -8 57 -29l-12 -79l-1 -18h10l-12 -61l-8 -257l-11 -36l9 -9v-9q-3 -80 -72 -122v-9l18 -1l-1 -26l-19 -26v-9l48 16v-9l8 -35l-2 -62q-1 -45 -21 -44q13 -294 87 -296l47 -9q99 -3 125 244l2 71l10 35q-10 133 -33 134l-30 -7l21 25v18l-17 63l10 -1
q57 -1 60 79l9 275l10 8v8l-9 10l10 -1l-10 10l12 61l1 27l-9 10l11 34l250 -7v-9l7 -88l-10 -9l-1 -9l10 -9l-11 -44l-6 -151l-10 -9l10 -9l-2 -44l-10 -8l10 -10l-1 -9l-10 -34l9 -1q-3 -107 -80 -104l-2 -44q-1 -18 57 -20l9 -35l-13 -89l9 -9l-11 -44l-3 -98
q-7 -193 -137 -350q-111 -95 -273 -90l-19 1q-174 5 -273 193q-27 1 -50 259l10 -1l-9 10l1 54l15 140q-18 46 -56 47v9q22 -1 31 43l-19 19l1 17q48 -2 49 52l9 257l12 53l-9 36h10l-10 8l12 63l1 35l-9 9l10 9zM228 675l-10 -9v-9l19 -18l10 9v9z" />
    <glyph glyph-name="V" unicode="V" horiz-adv-x="806" 
d="M253 1316q27 0 96 -620l-8 -8h8q103 0 114 87q17 187 87 532l35 9l140 -17l26 8l9 -8v8l43 -17l-26 -114l9 -8q-20 0 -105 -419l-9 -9q0 -52 -52 -52l-9 -9v-44l26 -9l27 9l-27 -26q-69 -381 -139 -611h-210l-8 9l-9 -9h-18l-87 436q0 132 -70 166q0 26 -26 26l-17 35
q20 18 61 18v9q0 117 -61 349h8l-52 270l9 9h235zM681 705h61l9 -44l-70 27v17zM323 670v-35l26 26l-8 9h-18zM323 618v-9q44 -53 44 -79v-87l17 -26l-8 -9l8 -52l18 17l-9 9v9q26 52 26 192h-8l-35 9v8l8 9v9h-61z" />
    <glyph glyph-name="W" unicode="W" horiz-adv-x="1166" 
d="M1156 1314l-1 -59l-7 -7h7l-7 -6q-39 -590 -61 -590h13l-8 -99l-13 1l13 -14l-7 -6l7 -7l-7 -33l-1 -65l-7 -7h7l-7 -6l7 -7v-6l-7 -7v-6l-15 -158l-1 -6l7 -7l-14 -46h7l-8 -65l-6 6l-14 -12v-7l7 -7q-13 1 -14 -26v-6l-19 7l-14 -13l13 -1l-7 -26h-6l-13 40h-13
q0 -16 -26 -19q0 -13 26 -14l-14 -13l-26 1l-6 6l-7 -6h-33v7l7 6l-20 1l7 6l-19 20h-7l-7 -6l1 13l6 6h-6l-7 7v-13h-6v20l-20 -13h-7l-6 7v-7l-7 -6v-7h13l7 6v-13l-7 -6l6 -7v-6l-32 13l-14 -13l1 20h13l-7 6l14 13v7l-20 -13h-7l7 26v7l-6 6h13l7 7l-7 6v14h-19l-7 -7
l-12 60v19l7 7h-7l-6 -7l-80 415h7l-44 191l14 -1l-13 14h-13l-15 -79h7l-67 -524l7 -6q-9 0 -14 -53q-1 -56 -27 -78l19 13h7v-7l-7 -6v-46h-20l13 20v6l-6 7l7 6h-13l-1 -13l7 -6l-7 -7l-6 7h-7v-7l6 -6v-7h-13q1 20 -13 20l-7 -32l26 -14v-19l-26 7q0 27 -19 39
q-33 0 -32 33h-7q0 -28 -27 -45l13 -14h20l13 13h7l6 -7h7l6 7l7 -20l-7 -19h-13q0 16 -26 20q-1 -20 -47 -19h-6v7l7 6v26q-39 1 -40 -32l-19 13l-14 -12v-13l-32 13h-7l-7 -6l-12 45v14q20 -1 20 19h13l7 -7l6 7l7 -1v-13h6l14 13h-20v7h13v6l-19 7l-7 -6h-13v6l7 7
l-27 -6q-15 0 -25 46h6l-48 335l1 7h6l7 -7v13q-26 1 -26 53v7l7 -1v-13h6v7l-19 26v20h27l6 -7v7l7 -1l6 -6l7 19v7l-7 -6l-19 6l-33 -6v13l-6 60l7 19q-13 0 -25 92v7h7l6 -7l1 13h-13v20q0 33 20 33v13h-6q-33 0 -50 197v7h13v6q-18 1 -31 79h6l-13 33h7v7l-6 6v27l7 6
q-15 0 -19 73l46 6l7 -1l6 -6l26 6l79 -1l33 6l6 -7l1 7h6l53 -434h-7l6 -46v-33l-20 1l13 -14h7l6 7l18 -165v-6l-7 -7l30 -164q16 0 43 229h7l-1 -13h7l7 6l-7 20h-6l-7 -7l29 197h-6l7 33q38 406 58 406l72 -1l33 6l6 -7l59 6l53 -1l128 -671v-7l-7 -6q14 0 26 -73l-7 -6
q13 0 31 -105l13 -1l1 66h14v6l-14 1l1 45l7 7h-7l8 59l-6 33l6 6v7l-6 6l21 105h-7l-6 -6l1 79l7 6l-7 7l1 46l6 6h-6l7 66l3 196l7 46l-6 7l14 78l217 4zM574 981l19 -1v7l-6 7zM435 924v-20h19l-6 19zM158 836v-7l20 -7h6v13zM191 822v-6l6 -7h13v6zM524 699l-1 -6h7
q20 -1 20 12zM267 683h20v7l-6 6zM451 674l19 -20h7v20h-26zM192 481v-7h7l20 7v13zM192 461v-6l26 -1v7h-26zM251 434l-13 -13h6l13 13h-6zM288 256l6 -19h13l-13 19h-6zM365 144v-13h13l7 19l-7 7zM227 152l13 -13l-13 -19l26 -1v20l-13 13h-13zM496 142h-7l13 -20
q-19 1 -20 -13h7l20 20zM830 111h-6l-1 -20h13l7 7zM948 77v-7l19 6l1 7l-7 6zM298 92v-32l13 -1v-6l-7 -7v-13h20l7 6v7l-7 7l1 32zM888 51l7 -26h6l20 19l-13 20zM239 73l-20 -19h-6v13l13 13h13v-7zM986 17h-6l-7 7l7 19h7zM501 17v-13l-14 -12q1 19 -13 19l1 7l13 13z
M376 -83l21 1v-5l-21 -1v5zM377 -124q0 -10 -26 -11l-10 -15h20l21 11v15h-5zM413 -129q0 -10 -16 -10l1 -5h25l-5 -5v-11l16 1l-5 5v10l5 5v5zM475 -128l11 -10v-5h-11v15zM320 -140l5 -5v-6l-5 -5v-5l16 5l-6 16h-10zM382 -155l-5 -5v-5l16 5l-1 5h-10zM491 -159h5v-20h-5
v20zM315 -182q0 -15 -15 -26l5 -15l5 5h6l15 -5v5l-16 21h11v5zM399 -217q0 -18 36 -25l5 5v10h-5v-10h-5l-16 5v10l5 -5l16 5l-11 11l-15 -1l-5 -5h-5zM337 -244v-10h-5l5 -16h5v26h-5z" />
    <glyph glyph-name="X" unicode="X" horiz-adv-x="774" 
d="M695 1311l7 -3l7 9l-4 -8l-13 6l-3 -8l59 -1l10 5l7 -3l4 -23l7 -4l8 16l7 -3l-14 -54l-52 -97l4 -43l-7 3l-2 12l-7 3l-35 -74v-31l-4 -8l-2 11l-6 3l-20 -41l2 -10l-36 -43l-16 -33l3 -44l-20 -9l6 -3l-10 -5l-11 -24l-15 -45l-2 11l-6 4l-12 -34q-15 -23 -4 -32
l-5 -26l-119 -214l-10 -6l20 -23l-26 -4l-4 -9l-13 7l-18 -72l-13 6l-4 -7l2 -13l-11 -5l-3 -8l3 -11l-5 -8l-22 -29l7 -3l-34 -35l-18 -73l-13 7l-5 -8l4 -12l-4 -7l-19 -22l7 -4l-11 -4l-4 -8l3 -12l-4 -8l-27 -43l-14 -21q-14 2 -67 8l-49 2l-10 -4l-68 22l-7 3l-6 4
l46 71l24 50l41 71l17 52l7 -3l12 76l13 -7l12 24l13 45l11 5l-6 3l10 5l12 24l-3 13l11 4l7 16l-3 12l42 51l-6 22l14 -6l-2 11l31 65l10 56q20 -9 32 15l-7 3l-10 -4l-7 4l18 21l132 256l-8 17l-2 12l7 -4l2 -11l7 -4l34 54l-26 14l12 24l2 -11l14 -6l42 70l-15 18l3 8
q16 -8 66 68l-13 7l10 5l4 8l-2 12q12 20 47 17l5 -24l13 4l8 7l12 -17l3 9l-3 1l5 8l6 -3l14 4l6 -4l15 -9zM217 1344l18 8l6 2l14 -6l6 1l3 -9l-3 -1l2 -8l14 13l6 -8l12 -6l10 23q35 -3 43 -25l-4 -12l3 -8l8 -7l-13 -4q35 -84 52 -80l2 -8l-18 -14l28 -78l15 5l4 10
l7 -26l-27 -9l23 -60l8 3l4 11l7 2l-4 -11l-14 -16l-132 -256l-15 -62l94 -277l143 256l35 -106l-5 -11l15 4l-10 -21l32 -58l-5 -10l5 -18l9 -6l-5 -12l7 -26l11 -7l-9 -2l11 -6l4 -46l7 -27l15 5l-2 -77l7 1l8 -54l28 -77l15 -53l32 -79l-7 -2l-7 -2l-71 -9l-9 7l-50 5
q-52 3 -65 4l-11 23l-19 48l-2 8l4 12l-2 9l-9 6l7 2l-15 24l-3 10l6 9l-2 9l-15 -3l-5 74l-27 40l7 2l-16 33l-2 9l3 10l-2 9l-8 7l3 11l-2 9l-13 -4l-7 74l-13 -4l-2 9l4 11l-5 17l-9 7l-79 233l-7 26q21 7 16 23l-13 44l-6 -1l-5 -11l-5 46l-7 26l-10 7l8 2l-18 13l10 42
l-10 35l-28 49l4 10l-12 44l-7 -2l-4 -10l-2 8l5 31l-21 79l-7 -2l-4 -12l-7 -1l11 40l-32 106l-5 57l7 1l5 -17l8 2l8 21l7 3l9 -7l59 -10l-3 9l-13 -4l-2 9l5 -10l7 2z" />
    <glyph glyph-name="Y" unicode="Y" horiz-adv-x="771" 
d="M54 1332q120 -3 120 -12l7 7l84 -6l35 1l115 -660h14l125 649h7l204 -4h14l7 -7h7q-238 -1066 -272 -1150q-92 -142 -195 -143v-7l-7 7l-49 -15q-145 15 -169 33l-7 -8h-7l-1 64l7 -7h7v7l-15 28l7 7v7l-7 35l6 49l-7 7l7 7l7 1v-15l21 8l56 -6v7l7 -7q148 16 146 142
q-1 61 -86 98l-202 876l7 7h7z" />
    <glyph glyph-name="Z" unicode="Z" horiz-adv-x="753" 
d="M505 -13l-8 9h-9v-9l-23 8l-8 -9l-39 9l-182 -3l-39 8l1 -9l-8 9l-134 -2l-16 18l13 229h-8l353 766l-1 10l-102 16v-9l-8 9h-16l-8 -10l-8 10l-149 -2l-39 8l-2 156l7 9l-8 9q-1 91 31 92l24 -9l7 9v-9l8 9l40 -8l102 2l8 -9l8 9l23 1l32 -9l8 9l39 -8h7l9 8l24 -8
l275 -4l1 -110q3 -215 -67 -313l-284 -609h8l24 -9l8 9l39 -9l150 3l7 -9h8l8 9v-9l8 9q47 -5 48 -17l-5 -238l-9 -9z" />
    <glyph glyph-name="bracketleft" unicode="[" horiz-adv-x="447" 
d="M137 1508h257q18 0 18 -27l-9 -46h9l-9 -9v-9l9 -119h-73l-46 9l9 -9l-9 -46v-623l9 -36l-9 -37v-82l9 -37l-18 -119l9 -28h-9q-94 0 -119 -55l-28 10v110l-9 9l9 9v55l-9 36l9 37l-9 9l9 9v19l-9 9l9 9v37l-9 9l9 9v37l-9 9l9 9v128l-9 9l9 9v37l-9 9l9 9v641zM192 812
v-9l28 -27h9l-9 46zM586 263l9 -9v-9l-55 -10l-9 10v9zM275 254h18l-18 -19h-19zM357 254h37l-28 -28h-9v28zM412 254h37v-9l-9 -10l9 -9v-18h-19q0 27 -18 27v19zM504 254h9v-9q-19 0 -19 -28l-9 -9h-27l9 9v9l-9 9v10zM165 226l18 -18l-9 -9h-9v27zM293 217v-201h92
l18 -18v-174q0 -18 -28 -18l-247 9v137l9 9l-9 28l9 36l-9 27l19 37l-10 82h10l36 -18l37 37l27 -9l28 9l-9 9v9l9 9h18zM27 208l-9 -9v-9l9 -9h-9l-18 18l9 9h18z" />
    <glyph glyph-name="backslash" unicode="\" horiz-adv-x="816" 
d="M133 1251l17 8l6 3l14 -5l6 2l3 -8l-3 -1l4 -8l12 14l7 -6l13 -5l7 22q35 2 46 -19l-3 -11l3 -8l10 -6l-13 -5q43 -78 60 -71l3 -7l-17 -17l36 -70l14 5l4 10l10 -24l-27 -11l30 -55l7 3l3 11l7 3l-4 -11l-9 -16l112 -255l17 -22l-7 -2l-10 4l-7 -2q10 -25 30 -16l6 -55
l27 -65l-3 -11l14 6l-8 -22l37 -51l-4 -12l7 -15l11 -6l-4 -11l9 -24l11 -6l-7 -3l11 -5l9 -44l10 -24l13 6l7 -74l6 2l14 -51l36 -71l20 -49l40 -72l-7 -3l-7 -3l-69 -15l-10 5h-49q-54 -2 -67 -2l-12 20l-24 44l-4 8l4 12l-3 8l-10 4l7 3l-18 22l-3 9l4 10l-3 8l-14 -5
l-13 71l-30 35l6 3l-19 30l-4 8l4 10l-4 8l-10 6l3 11l-3 8l-13 -5l-13 70l-13 -5l-4 8l-26 6l23 21l-10 6l-102 214l-3 25q12 8 -1 31l-10 33l-6 -2l-4 -10l-10 43l-10 24l-10 6l7 3l-19 10l5 41l-13 33l-33 43l4 11l-17 40l-6 -2l-4 -10l-3 7l3 30l-30 73l-6 -2l-3 -11
l-7 -3l6 41l-43 97l-10 53l6 3l7 -17l8 3l6 22l6 3l10 -6l60 -4l-3 9l-13 -5l-4 8l7 -9l6 3z" />
    <glyph glyph-name="bracketright" unicode="]" horiz-adv-x="462" 
d="M39 1499h37l45 -9l-27 -92l9 -37q0 -50 -46 -73h-18v138h18v9l-18 27v37zM149 1499l28 -18l73 18h55l-9 -55l9 -9l-9 -64v-377l-9 -37l18 -64l-18 -55v-561l9 -46h-18q-74 0 -74 46h-9q0 -38 -46 -55l-9 9l9 9v9l-9 37l9 -9h28q-46 49 -46 138l27 9l-27 46l9 9l-9 9v111
l9 27l-9 46v450l27 -18h9v9l-18 19l-9 -10v19l9 27l-9 10h-9l9 9v18l-9 9l9 9v65q-37 0 -37 18l9 9h9l10 -9h9q0 28 18 28h9q28 0 28 -46h9v18h9q-24 101 -82 101l-19 55q19 0 19 28l9 9h9zM149 1462v-18l18 -18l10 9v27h-28zM66 1416l-9 -9v-18h28v9zM195 1398l18 -18h10
v36h-10zM-16 1031h9v-28l-9 -28h-9v28zM223 838l-10 -37h10l18 18v19h-18zM177 378v-9q27 0 27 -28h19l-10 37h-36zM-89 249l9 -9v-9l-55 -9l-10 9v9zM425 204q0 -19 -28 -19h-9v9zM39 194l27 -27h-27v27zM195 194h18l19 -18v-18h-9l-28 27v9zM167 185h19v-9l-83 -37v28z
M204 139l37 -9l27 9v-9q0 -28 28 -28h9v-311l-27 -10l-46 10h-101l-10 -10l-9 10h-18l-37 -10q-27 0 -27 37h-10l19 92l-9 9v9l9 37l-9 28h110v18h9l-9 9v9l9 37l-9 36v19z" />
    <glyph glyph-name="asciicircum" unicode="^" horiz-adv-x="715" 
d="M333 1326q140 0 140 -68h-12l82 -156v-6h-12v13h-23l11 -54h12q0 34 23 34l70 -149h-35v-20q70 0 70 -54q18 0 47 -75h-163l-152 352h-23q-23 0 -140 -277l-35 -61l-128 -14l-35 7l210 399h12v-13h11l93 6v21h-81l-12 -7h-11v7l35 88l11 -7h23v13h-23zM391 1285v-7l35 -6
v13h-35zM356 1278l-23 -54l12 -7h11l24 55l-12 6h-12zM717 1123h12l35 -27h-23zM65 1102v-20h-35zM-144 879h24l-12 -34h-23zM-190 798h11l-11 -34h-24v21zM-330 764q17 0 35 -27l-12 -34l12 -6h-12q-58 13 -58 47zM-412 642h12v-27h-12v27zM-51 426l35 -7v-20h-23l-12 7
h-11zM403 419v-20h-23v7zM752 372v-7l-46 -27l-12 7v7zM-62 318l11 -7h12q-23 -42 -58 -47v13z" />
    <glyph glyph-name="underscore" unicode="_" horiz-adv-x="662" 
d="M-30 -148h18l-9 30l9 7v8l-9 22h9l-9 7v8l9 22h9l9 -8h9v8l9 -8h18l9 8l9 -8h28v15h27l-9 -7v-8h18l37 8l27 -8v15l27 -15l64 8l9 -8v15l9 -7h9v7l9 -7h37l43 -8h91l45 8l9 -8v-7q82 5 82 15l9 -8h18v15h9l19 -15l-10 -7l10 -7v-8l-10 -7l10 -22l-10 -59l10 -23l-10 -7
h10q-22 -69 -37 -69h-9l-27 7l-146 -4l-36 7l-70 -20q0 15 -46 15l-18 15l-9 -7h-28l-54 7l-27 -7l-64 -3l-55 -7l-45 7l-9 -7l-18 14l9 37v22l-9 8v7l9 8z" />
    <glyph glyph-name="grave" unicode="`" horiz-adv-x="348" 
d="M51 1310h139l11 -54v-21h-11l-64 21l21 -21l-11 -11v-21l11 10h11l43 -10v10q50 -29 107 -182l-11 -10h-128v10h32v22q-60 0 -129 139l-32 21q11 43 43 43q-6 43 -32 43v11z" />
    <glyph glyph-name="a" unicode="a" horiz-adv-x="701" 
d="M910 908v-3l11 -4v4l-4 3h-7zM1089 760v-11h7l-3 11h-4zM931 718l3 -24v-10h14q-5 24 -14 24l4 3v7h-7zM1093 656h3v-14h-10v7zM903 472v-3l10 -3v6h-10zM992 463l8 -7h6v7h-14zM768 330l22 -3v-11l-11 5h-14v-5h14q0 -7 -17 -9l-7 9v8q13 0 13 6zM655 327h7l6 -6v-8h-3
l-10 11v3zM682 324h11l10 -8v8h7l7 -8v-3l-17 -3q-18 4 -18 11v3zM368 310v-11h-13l-4 5l-3 -5h-14q-17 0 -17 8l-18 -11h-6v8l-17 -11l-4 3h-4q-14 -2 -14 -10l-40 10l-11 -20h7l10 6q6 -17 25 -17h6l14 7l17 -4l31 8l4 -4l3 4v-4l35 21l35 -11l31 11l6 -7q8 7 28 7v3l3 -3
h17v3l-6 8l-8 -8q0 7 -17 11l-23 -14v11h-25l-3 -5h-3l-11 11h-11zM3 290v-18h4l6 14v4h-10zM558 290l11 -11h6q0 8 -17 11zM-28 279l8 -7h3v7h-11zM555 262v-3h6l4 3v3zM592 238h8l3 -11h-3l-8 7v4zM486 224l-3 -4l3 -3v-4l-3 -3v-3h3l7 13l-4 4h-3zM506 224l-6 -7l6 -7
l4 10v4h-4zM555 220h3l7 -7h-4zM514 210h10l-7 -7l-3 4v3zM475 162v-11h-3l-11 4v4zM575 162l8 -7v-4h-8v11zM517 155v-4l-3 -9h-4l-4 9zM427 151l11 -3v-6l-11 3v6zM472 148l11 -3v-8l-4 5h-4v-5l4 -3v-3l-4 -3h-3v6h-6v-6h-11l3 3v3q-11 0 -11 8zM444 137h3q0 -9 8 -9v-5
l-8 -6l-6 6h-3v-3h6l-3 -3v-3h6v-4h-12l-8 7l17 17v3zM496 137l14 -3l10 3l11 -3l3 3q0 -6 18 -6v-3l-35 -14l-14 3v11h7v3l-14 3l-3 -3h-7q0 6 10 6zM565 137l7 -6v-8h-7l4 5l-4 3v6zM555 128l10 -5v-3h-10v8zM576 91l8 -8l-5 -3v-7h14v-7h-6l-3 4h-5q0 -7 -9 -7l6 -7l11 4
l6 -8l11 4v-7h-7v-3h4q17 4 17 10h-14v10l6 7h8l-4 -3v-4l10 -3l18 3l-7 -10l3 -10l4 3h7l-4 -3v-7h4l3 3h3l-3 4v3l7 7h3q0 -14 7 -14l-3 -3v-4h3l11 7q0 -20 24 -20v6h-14q2 21 11 21l3 -10l-3 -4l9 -3v-31q-6 0 -13 -17q0 -7 10 -7v-7h-207l28 58l-11 4v10l4 4v3l4 -3h6
v6h3l11 -3l3 3l4 -3l-4 11h-9l-5 -4h-3l-6 10l6 7l14 4l3 -4h8v7h3v-7l6 7l-3 3zM493 117q-3 -11 -14 -14l-4 3v4zM618 80h6q8 0 8 -10v-4h-4v7q-10 0 -10 7zM461 114h14l-6 -8h-8v8zM496 114h4l14 -8l3 4v-7h-7l4 -3v-3l-8 -8h-3l-7 8v17zM524 110h14v-4h-14v4zM561 110h8
v-13q-14 0 -14 -18h-3v10l3 3h-7v5q-14 -6 -14 -11l4 -3v-4h-14l17 24l11 -3q9 0 9 10zM659 70h3l11 -4l-11 -10zM458 103l3 -3h8l3 3h3q0 -6 14 -6l-10 -11l-7 6h-3l-8 -6l-14 3zM493 97h3l7 -8v-3l3 3h8v-3l-11 -11v-3h-7q0 14 -7 14zM534 46q6 -14 11 -14h7q-2 7 -18 14z
M438 83q7 0 9 -18h-6v7q-11 0 -11 7l5 4h3zM561 83v-4l-3 -4v-6h3v6h4l7 -6v-4l-3 4q-17 -5 -17 -18h-8v14h-6l-4 -14l4 4h3l14 -14v7l10 -4v-6h-7v-4l3 -3v-4h-6q0 14 -11 14l-10 -10h-3l-4 3h-3l-10 -3l6 10v3l-17 4l3 -17l-3 3l-17 -7l-3 4v7h6v3h-6l3 3v4h-14v3l7 7v-7
h7l-3 4v3q10 0 10 7h21v-3h-8v-7h4q18 17 34 17l4 -3q0 7 13 14zM469 79h10l-4 -4l4 -3v-7q-10 0 -10 -14h-8l11 24zM593 32v-7l8 -7l6 7zM589 69h3l11 -4q0 -9 -20 -14v7q9 0 9 7zM561 62h4l7 -7v-7h-11l4 3v4l-4 3v4zM638 14h11v8h-4zM528 18v-7q15 0 28 -10q-2 9 -17 17
v-4l-5 4h-6zM683 14v-3l4 -3v-4l14 10h-18zM559 11v-3l17 -11v4l-3 3l3 4l-14 3h-3zM579 8v-17h8l6 13v4h-6v-7h-3v7h-5zM438 38h3l11 -11v-3l-14 7v7zM475 34l4 -3v-7h-10v-4q14 0 14 -6q-8 0 -8 -11l-3 -3h-17l-8 6v4q14 0 22 21l3 3h3zM565 34h7l11 -3l3 3v-3l-3 -4v-3
l-18 7v3zM538 31v-4l-4 -3v-4h4l3 4v-4q0 -6 -17 -6q0 -14 -7 -14l-3 3v3h6v11l-3 3v4zM565 14v-8h-10v4zM421 10l3 -4h3l3 4l5 -4l3 4l3 -4v-6h-3l-17 3v7zM510 6v-6h-10v3zM441 -127h6q-4 -14 -9 -14h-3zM455 -151v-3l11 -4l3 4v10zM214 -148v-6l3 3h6v-3l-3 -4v-3h3l8 13
h-17zM355 -144v-7l-11 -3l-3 3v3zM382 -158v-7q23 9 25 17h-4zM410 -148v-3h6l-9 -14h6l3 4l11 -4h25v4h-22q0 13 -17 13h-3zM448 -138v-4q21 7 21 14v3h-7zM849 -132v-3h14v3l-7 7zM908 -128h13v-14h-7v-7h7l-7 -14h-14v8h-3zM866 -146v-6h14v6h-4l-3 -3h-4zM259 1337h393
v-3l-7 -7v3l-4 -3h-7l-3 3l-25 -7l-3 4h-3l-11 -4v4l-3 -4h-63l-17 -3q0 -40 14 -62h-4l42 -139h-4q10 -28 25 -177h-4l4 -4v-21l-4 -3l7 -31l-3 -14l3 -11l-3 -3l3 -4h-3l3 -3v-3l-3 -4l7 -17l-4 -4v-21l4 -3v-3h-4l7 -21l-3 -4l17 -128l-3 -11l3 -3v-4l-3 -3l17 -101h-4
q7 -14 11 -55h-4l21 -83l-3 -4v-3l10 -39l-3 -13l10 -4l10 4v-11l-3 4l-3 -4h-4l-3 4h-4v-14h7v-4h-7l4 -14l3 4h4l3 -11q-8 0 -10 -17h7l-7 -17l7 -25h-4l7 -41h-3q6 -7 10 -77l3 -3h-3l3 -3v-4l-3 -3l7 -28l-4 -4l7 -52l-10 -3l-4 3h-3l-10 -3l-14 7l-4 -4h-3
q-56 5 -56 14l4 4v3q-7 0 -7 11l-14 6l-7 -6l-4 3q0 -14 -10 -14l-7 7l4 4v3q0 8 -18 10l4 4v14l-4 -4h-7q0 11 -10 11v-4l7 -7v-3h-7q-7 0 -7 14h-7l3 3v11q-15 10 -24 69h4l-7 14h3l-24 125q0 10 -24 10h-32l-3 -3l-4 3h-7l-3 -3l-3 3h-4l-3 -3h-4l-3 3v-3l-52 10l-4 -3
h-3l-4 3h-3v-3l-4 3h-3l-21 -3l-10 3q-11 -24 -49 -208l-7 -7v-10l4 -4v-3q-7 0 -11 -35l-7 -24l-17 -4h-4l-3 4l-4 -4l-34 4h-28l-7 7l-3 -4h-11l-7 7l-10 -3l-18 10v-3q-17 3 -17 17l14 7l-4 3v11h11v3l-14 4l-3 -4l-4 18l7 6l3 -3h14v7q-17 0 -17 21l17 48l-7 7v4h7v3
l-3 18l10 3l-7 10l14 53l-3 10l3 3h-3l21 87l-4 4v3q18 73 24 73l-3 3v4q10 10 38 135h4l-4 4l14 45h-3l6 28h-3l17 59l-3 10q6 0 17 45l21 87l21 94h-4l11 24l-4 3l11 38h-4q7 9 21 101h-3q7 16 7 45v4l-4 3l7 42l-3 45v7l3 3v4h-3l3 3v11l-3 3q4 38 13 38zM308 654h3
l-17 -63l4 -3v-4l-14 -76l14 -7l17 3l17 -3l4 3h3l4 -3h3l24 3l18 -3v3l3 -3h18l17 3v39l-3 3l3 4l-7 38h4l-4 3v14l4 4l-7 34l3 4l-7 69h4l-11 90h4l-4 4v7l4 3l-7 31l3 21l-7 35l4 3l-4 4h4l-4 3v46l-3 3v3h3l-3 14q-10 0 -25 -79q-31 -100 -59 -247zM44 893v-7l18 -3v10
l-4 -3h-3zM-15 810v-4l11 -3v7h-11zM6 796v-7l17 -3v7l-6 6zM568 758v-4h14v4h-14zM-39 688v-3h7l3 3v4zM523 74l4 -3h3l7 7l-3 3h-4zM554 19l11 -11h-4l-7 7v4z" />
    <glyph glyph-name="b" unicode="b" horiz-adv-x="698" 
d="M552 1320h208v-10q0 -8 -25 -8v-3l-4 3l-18 -3h-32l-32 -4l-4 4h-3q-29 -2 -29 -7l-3 3h-4l-4 -3h-3l-11 3v-7l-21 7q0 -10 -7 -10h-4v7h-11v-4h7q0 -18 18 -18l-3 -3q1 -15 10 -15l-3 -3v-7q19 -15 39 -68q47 -72 47 -125l3 -11l-3 -14l3 -11l-3 -11h3l-7 -26l4 -4v-3
l-4 -15v-14h-7l3 -3v-11q-7 -8 -7 -25l-7 -7l4 -4q4 -32 -8 -32l3 -4v-3h-10v-4h14l-4 12l-10 8l-4 -4v-4q11 0 11 -7l-4 -10h-7q0 14 -11 14h-3q0 -7 11 -7v-7l-11 -15l11 -3l-4 -4v-11h7v8h4v-8l-4 -10l-14 7v-4l3 -10h-3l3 -4v-7l-10 3l3 4v4h-3l-11 -4l7 -11l4 4h7v-4
l-14 -18h3l-3 -3v-4l3 -11h-3l-15 4l-10 -4l-4 4l-4 -14h8q7 0 7 10h7v-7l3 4h4v-7q-11 0 9 -11q-10 0 -10 -7l-4 3l-4 -3h-3l-4 3h-3v-14q10 0 10 -7v-11h-3l-4 4l-31 -7v7h-4l-10 -4v-3l31 -4v-3q-24 -2 -24 -11v-4l3 -3v-4h-7v7h-3v-7l3 -3l-11 -8l-3 11h-4v-7h-3l3 -4
v-3q-30 -29 -103 -43l-15 -4h-68l-3 -3h-4l-3 3v-3l-4 3h-3l-18 -3l-4 3v-7h-3l-4 4h-4l-3 -4v-3l-25 7q-4 -31 -14 -43l7 -7q-6 0 -15 -25l4 -4v-3l-4 -18l4 -4l-4 -18v-45l-3 -3l3 -34v-18q0 -18 -7 -18l4 -3v-18l-4 -18l4 -3h-4l4 -4v-7l-7 -97l7 -7l-7 -7v-50l3 -3v-4
l-3 -4h-4l4 -3v-57l-4 -15l4 -14l-4 -11h4l-7 -27l3 -4v-3l-3 -11h-11l-15 -3l-14 7l-3 -4l-83 8l-3 -4h-4l-21 7l3 10h-3q-14 0 -14 17l3 11l-3 14l3 4v3l-7 18l4 4v57l3 4l-3 3v39l-4 4l4 4v7l-4 3l4 4v7l-4 4l4 3v25l-4 4l7 18l-3 3v4l3 3v4l-3 11h3l-3 3v22l3 3l-3 4v7
l3 14l-3 11l3 3h-3l3 4v77l4 3l-4 24v10l4 4l-4 4q0 45 18 85l-4 4q3 21 8 21l-4 4v3l7 33l-3 10l3 11l-3 21v4l3 4l-7 35l7 61l-3 4v3q28 86 28 135l-3 3l3 4h4l-4 3v18l4 4v3h-4l7 32l-3 18v12l-18 122l3 14h-3l3 11l-7 14h7v11h-7l7 29h-3l21 75l-3 17v11l301 4h75l4 -4
h3l4 4q0 -11 18 -11q0 14 46 14zM265 1127q4 -42 11 -42l-4 -4v-4l15 -85l-4 9h4l-4 -4v-25l4 -3l-8 -32l4 -4v-4l-4 -3v-4l4 -14h-4l4 -4v-17l-4 -4v-4h4l-4 -3v-14l4 -4l-4 -4v2l-3 -22l3 -3v-4l-3 -10l3 -4l-3 -4l3 -3l-3 -4h-4q0 -21 32 -21l43 -4v4l-6 -4h3l36 7l4 -3
h3q10 0 52 53q28 37 28 85l-3 14l3 4l3 60l4 4q-4 22 -15 44h4q-16 56 -57 79l-52 18l-17 -4h-29l-21 4q-22 -5 -22 -15zM562 827v-3l11 -4v7h-11zM584 813v-7l18 -4v7l-7 8zM525 739v-3h18l3 3v4zM449 -26q-18 2 -19 -9l-3 4h-3l-4 -3l-75 6l-160 1l1 11l5 16l24 237l10 35
l-3 4l10 64l5 121l8 52l-6 59v64l62 -12l123 10l74 33v-3l3 2h4l3 -3l-3 34l15 -5l-41 48v-3l-4 -4h3v-7h4l4 11l10 -9l-3 -3l19 -7h3l-19 7l7 -1l19 -4l-3 -3v-4q-1 -9 13 -12v-3l-22 -2v-3l10 -5h4v7l21 -9l14 4h3l-1 -11q-1 -7 -21 -7l-1 -13l3 -1l5 3h12l4 -4l4 3
q0 -7 10 -8q-1 -11 10 -12l-1 -7l-4 1l-2 4l-1 -7l-7 1q1 9 -6 10l-18 1l13 -15l4 4l10 -5l15 3h3l-4 -11v-4l2 -3h-3l13 -19v-4l-7 1l-4 4l-8 -11l11 -4l3 -1v4l-3 5l11 2l-1 -7l-3 -4h3l-4 -10l-11 -4l25 6l-7 -10l-1 -8h-4l1 8h-7l-1 -11l4 -4l-11 -2l9 -16v-7
q-11 1 -12 -6h3q11 -1 12 13l7 -1l3 -10q0 -7 -11 -6v-4l3 -4l11 7l2 -18l-14 1v-4l10 -1v-3l-4 -4q12 -1 16 -53l-5 -4l7 -37q-2 -17 5 -26l-1 -11l-4 -3h7l-1 -14l3 -15v-3l-5 -4l3 -46h-3l3 -11l-4 -11l1 -14l-3 -11q-5 -53 -58 -121q-24 -51 -44 -64l-1 -7l3 -3
q-9 0 -12 -14l3 -4q-18 2 -19 -16l-7 1l-1 -4l11 -1l1 7h4q7 -1 6 -11l22 5l-1 -7l11 2h3l4 -3h4l3 2q0 -5 28 -9h3l5 3l31 -6l32 -3l18 -5l4 3v-3q25 -2 24 -10l-1 -10l-207 18q-46 3 -45 17zM225 157l21 3l29 -3l17 -5l73 12q43 19 64 74h-4q12 21 20 62l-4 5l12 59l-2 4
l4 14q4 98 -18 167q-38 56 -68 59h-3l-4 -3l-35 10l-3 1l-4 -4v4h-43q-32 2 -34 -19h4l3 -4l-4 -3l3 -4l-3 -4l2 -10v-4l-4 -3l1 -22l-2 -28l4 -4l-5 -4l-1 -14l4 -3h-4v-4l3 -4l-1 -17l-4 -4h4l-6 -34v-4l4 -3l-1 -34l-4 -4l5 -32l-4 -3l-2 -25l4 -4h-4l3 -11l-22 -84
l-1 -3l4 -5q-7 1 -15 -41q0 -10 21 -17zM551 546v7l-11 -3v-3zM574 554l7 8l11 7l-18 -3l-11 -7zM536 669v4l-2 3l-8 1v-3z" />
    <glyph glyph-name="c" unicode="c" horiz-adv-x="832" 
d="M612 1008l7 -8v-9l-7 -9v-8h15v34h-15zM991 965h8v-17l-15 -18l-17 18zM619 948v-9l-15 -17v8zM572 930v-8l-15 -18h-8zM580 922h8q21 0 31 -53h8l8 9v-17h-16q-12 0 -39 61zM518 913l7 -9h8l8 9l8 -9v-17l-8 8h-8q-23 0 -23 -26h-8v26zM991 904l8 -9h8l7 9l32 -9v-8
l-32 -35v-9l-23 18v-18h-24v9q0 17 32 17v9h-15zM1030 852l8 -9v-17l-24 9zM643 835v-9l-8 -43l8 -9h-16l-8 43zM916 661l8 -9v-8h-8l8 -49l-9 -17h-8l-6 17v49zM939 661h17v-66h-8zM1030 307l3 35l-16 1v-8l7 -10v-8l-9 -8zM1014 387l1 9l13 -19v-9zM1016 1096l1 -8
l-25 -19l-7 -1zM1035 495l15 -2l-2 -17l-7 9l-7 1q-15 -90 -45 -48l-7 -40q41 98 53 97zM953 1073l9 -7h7l7 10l9 -8l1 -17l-8 7h-8q-23 -3 -20 -29l-8 -1l-2 26zM515 851l16 -2v49q-30 3 -29 20l1 9l23 -2l-1 -18l24 15l-1 -8l28 -78v-39l-32 -5l-7 39l-8 1l-8 -38z
M1029 538l10 43l16 -2l-9 -8l15 -44l-1 -9zM1045 642l-2 9l1 9l3 8l-5 1l1 8h7l-2 -26l2 -1q3 26 14 25l-1 -17l9 -1q4 -1 10 34l1 8l-5 1l-3 -9l1 9l-2 9l7 25l1 9l6 -9q11 10 -62 41l2 35l2 43l3 9l4 78l2 17l3 8q1 166 -10 167q-2 -26 -9 -25l-2 9h-2q-12 1 50 -119
l1 -26l-12 -86l-1 -43l-1 -9l-3 -8l1 -9l-1 -9l-2 -8l2 -9q-14 -104 -19 -103l1 -26q9 -1 8 -19h2zM1758 646h7v-18l-23 3zM463 4l-3 3h-3v-3l3 -3h-3l-9 6h-6l-3 -3l-3 3h-3l-4 -3v3h-3l-3 -3v6l-3 -3l-31 6l-3 -3l-3 3h-21v3q-59 18 -99 37l-44 28l-12 12q-46 53 -52 53
q-51 93 -56 176h3l-6 56l3 15v59l3 3l-3 3v9l3 3h-3l3 3l-3 13l3 12v59l3 3l-6 12h3l-3 13l3 18v9l-3 16l3 3v3l-3 3h3v3l-3 3v6l3 16l-3 18v56l3 3h-3l3 3l-3 16v55l-3 16l3 9v37l3 3l-3 3v53l-3 3l9 12q43 -4 43 -15h16q27 0 43 -25q36 0 46 -15h3l4 3l-19 27l-18 -3
q-15 0 -28 10l-25 18h-3l-3 -3q-12 10 -37 19q-16 8 -16 24l3 3h-3l6 16h-3l7 31v3l-4 3q16 70 34 114h-6q0 -12 -21 -12l-10 3l13 28h12v-6h3v6l-3 3v3l3 3l-9 9l6 6v4h-3l-3 -4h-6l9 13h3v-6h3l3 3h10l12 -34h3v21l22 -6h3l3 3l6 -6l3 9l9 -3h3l4 3v-3l6 6l-6 7l3 15l3 -3
h3l-3 3v3q27 4 27 9q28 -2 34 -9h10v3q0 6 -10 6v7h19l9 6q7 0 10 -16l21 25q0 -15 9 -18v9h4l6 -6l-6 -13l12 -6l28 6l-3 -3v-3l9 9v7l-3 3q12 0 12 12h9q0 -9 7 -9h6q0 8 15 12h3l3 -3l3 3h4l3 -3v3l3 3l9 -3l28 3h3l3 -3l12 6v-6h3l3 12l7 -6l9 6h6l25 -6l15 3v7l-3 3
l19 15h3v-6h3q0 9 6 9h3l3 -3v3l16 -6v3q15 0 15 12h3l3 -3l-3 -3v-3l3 -3l16 6l18 -55l-12 6q50 -55 65 -93q0 -6 -9 -6q-22 -29 -31 -31v-6h3v6q15 0 15 9l9 -3h4l3 3l12 -3l28 -86h-3v-3l3 -3v-16l-3 -3l3 -3v-3l-3 -3q5 0 9 -19l-3 -3v-6q0 -15 9 -15v-7h-3l-3 3v-15
l3 -3q-5 0 -6 34v-6l3 -3l-3 -3v-3l3 -3l-3 -3v-6l3 -3l-3 -4l3 -15l-3 -3l9 24l-6 -9v-4h3l3 4v-4l-9 -12v-6l3 -22l-53 -3l-40 -12l-53 17l-14 7l-16 -191l-44 -9v-3l-3 -3h3l-3 -16v-6l3 -3l-3 -3v-12l3 -13l-3 -12v-15l3 -4l-3 -3v-3l3 -3h-3l3 -18l-3 -79l3 -9l-3 -3
v-9l63 -3l50 7l47 -3l63 -11l-3 -9l3 -3v4l-3 -3l3 -3v-22l-3 -3h3l3 -4l-3 -12v-3l3 -3l-6 -58h3l-3 -9v-3l3 -3l-3 -3v-4l3 -3l-3 -3v-3l3 -3l-3 -3v-6l3 -3h-3l3 -3l-9 -25l3 -3v-16l-3 -3l3 -3v-3l-6 -6v-3l3 -3q-10 0 -10 -9l4 -4h-7v-3l3 -3v-9h-3q-10 -31 -15 -31
l3 -3q-17 -42 -46 -62l3 -3l-3 -9l3 -9h-6v9q-31 -20 -31 -34q-16 0 -16 -9h-3l-3 3l-18 -19h-4l-3 3v-6h-3l-3 3l-9 -9l-3 3l-31 -22l-6 7q-25 -7 -25 -13l-3 3l-22 -12h-3l-3 3l-6 -6q-12 0 -12 9l-13 -9h-3l-3 3v-3l-3 3q-15 0 -15 -15h-10v3h6v9zM519 -2v3l9 3h3l3 -3v3
l7 -6l-10 -3zM451 189v9h-9v-3l6 -6h3zM429 195q0 7 13 7v6l-3 3l15 9l3 -9q-9 0 -9 -6v-3h3l16 3v-3l3 -4q9 0 9 13h18l7 -6q8 0 30 15q7 22 16 22l-6 12q7 0 15 25h-3l-3 3l3 3l-3 3l6 6q0 9 -9 9v4q18 0 18 43h-3v3l3 3v15l4 58l-4 13l4 18l-7 -18h7v4l-4 3v3l4 3l-4 3v3
l4 3l-4 3v3l4 -14l-4 3v3l4 3l-4 3v9l4 -14l-4 3v3l4 3l-4 16l4 9l-4 12l4 3l-4 3v3l4 64l-4 3v3l4 3h-4l4 3l-4 37l4 25l-7 31v3l3 3l-3 3v12l53 3h-3v3l13 63v116l-6 6v3l3 3l-10 -132q0 103 -9 105q0 6 9 6v6l-53 12v4l3 3l-3 21v3h6q0 10 -15 10v-21h6l3 27l3 -21l-3 22
l3 15v3l-3 3h3q3 -24 16 0l-3 3q9 0 9 9v3l-3 3l3 19v3h-3l-3 -3h-3q-8 43 -13 43q-7 53 -18 53q0 25 -99 40l-3 -3h-12l-4 3l-12 -6v3l-31 -13l-21 -18l-19 -40l3 -4l-6 -6l3 -3q-8 -13 -15 -74h3l-6 -18l3 -13l-7 -15l4 -10l-4 -12l4 -12v-3l-4 -3l4 -25l-7 -6v-6l3 -16
h-6l-3 3l6 -28l-6 -21l6 -10l-3 -9h3l-3 -3l6 -15v-3l-3 -4h3l-3 -15v-22h7l-7 -9v-9h7v-9h-7l3 -3l-3 -16v-3h3l4 3l-4 -9l4 -25h-7l3 -3v-3l-3 -3v-3l3 -3h-3v-7h3v7h4v-10h-7l3 -9l-3 -12v-6l3 -3h-3v-4l3 -3l-3 -12l7 -12l-7 -13v-12l3 -3h-3l3 -3l-3 -10l7 -24h-7v-6
l13 -16h-6l-4 3l7 -15l-3 -3l-4 3h-3q22 -23 25 -34v-3l-3 -3l15 -3l-3 -10h-3v6h-6l6 -12l-6 -18l9 6v-10l-9 -3l-6 7v3l3 3h-12l-3 -3l3 -3l-7 -10v-3q10 0 10 -6h-6l-4 3v-6q16 0 16 -6h3q0 12 19 12l3 -15h-10l3 -3l-6 -10q13 0 13 -9v-6q-7 0 -7 12l-9 -9q-9 0 -9 12
l-9 -6h-3l-4 3v-3l4 -3v-6l-4 -3l10 -6l-3 -4v-3l3 -3v-3l-3 -3l12 -3v-3l-3 -3h6v-3h-6v-9h3q6 0 6 9h3q0 -6 10 -6l-7 -10h7v-6q-7 0 -13 -15v-3h6q0 -10 10 -10v-3l-3 -3v-3l3 -3l15 3h3v-3l-3 -3v-3q0 -5 22 -13l12 4zM383 208v3h3q9 0 9 -6zM402 223h6v-3l9 -9l-6 -6
q-6 0 -9 18zM513 226h3v-9h-6zM386 226h13v-6h-13v6zM488 223l9 9h4l-13 -12v3zM442 229v16h3l3 -3l-3 -3v-3l3 3l9 -3h3l3 3v-3l4 -4h-10v-3l3 -3h-3zM389 239q10 0 10 9h3v-12h-13v3zM497 248h13q-5 -12 -9 -12h-4v12zM473 248v3l3 3h3l3 -3h3l3 3l3 -3l-3 -12h-6
q0 9 -9 9zM371 257h3l3 -9h-3l-3 -3h-3zM352 257v9h-6v-9h6zM383 266v4l3 3h3l3 -3h10v3l-16 24h6l22 -21h-6l-3 3v-6h6l-6 -7v-3l3 -3l-6 -6h-3q0 12 -16 12zM411 263v3l9 -9v-3zM494 270v6l16 -6l-3 -10h-3zM547 282h3l3 -12l-9 -10zM349 285q22 -3 22 -12h-6zM408 288h9
l9 -9v-3q-12 0 -18 12zM531 288h3l4 -9h-7v9zM352 294l-3 3v3l3 3q10 0 10 7h6l3 -3l3 3v-3l-6 -10l-10 3h-3v-6h-3zM405 297v3l12 3l6 -6v-3h-6l-3 3v-3zM374 303q9 0 9 16h9q0 -11 -15 -22h-3v6zM516 310h3l3 -3l-6 -7v10zM423 310l6 6l4 -9v-4zM417 319h3v-3q0 -9 -6 -9z
M374 331v3h6l3 -9h-3zM414 331v6l12 -3v-3l-6 -6zM513 334l3 3l-9 4v3h12v-16h-6v6zM365 356l3 3l-3 3l12 -3q0 -5 -12 -9v6zM501 356v3h6l3 -3v3l6 -6v-3l-3 3h-3l-3 -3zM395 362l7 -6v-3h-7v9zM349 368h3l6 -6h-9v6zM423 381v3l10 3v-6l-4 -3q10 0 10 -7v-3q-14 6 -16 13z
M454 375h3v-7h-9zM358 375v3l10 3l6 -6l3 -4zM383 381h9v-6h-3zM337 384l-3 3l6 6l-3 12h-9l-7 -6v-3q13 0 13 -12h3zM454 390v-3l-6 -6h-3zM355 396l10 3l3 -9h-3l-3 -3h-7v9zM383 393l6 6l10 -9v-3h-16v6zM392 405v4l13 -13h-3zM365 409v3h6v-10zM324 409l7 6h-10v-6h3z
M349 415l6 6h3l-9 -9v3zM402 424l3 3l-3 3h6l3 -3l-6 -15h-3v12zM442 433h9l-6 -6h-3v6zM377 439h3l6 -6v-3h-12zM337 442l3 4l6 -7h-9v3zM383 452h-3l-3 -3h-3v6h12v-9h-3v6zM411 455l9 9l-3 -15h6v-3h-9zM358 458h10v-3l-3 -3zM386 467h-3l-3 -3v12h6v-6h6l3 13h-3l7 6h3
v-6l-3 -3l12 -4v-6h-12v-3h6l-10 -9zM358 473v3l-3 4h13v-4h-6v-3h6v-6l-3 -3l-3 3h-4l-3 -3h-6zM411 495h6l3 -3l-9 -9v12zM380 492v6l12 3l-3 3l6 6q0 -9 10 -9l6 6l6 -6l-22 -9h-3l-3 3v-6zM395 517l10 3h9v-3l-6 -7h-6zM426 532h10v-3q-7 0 -7 -12h-6zM436 523h9v-3
l-9 -3v6zM426 572v-9h-9zM331 612l6 7h3l-3 -10h-6v3zM383 622v3h6q0 12 10 12v-3h6v-6l-3 3q-10 0 -10 -12zM429 628l7 -6v-3h-7v9zM334 640l6 6h3l3 -3v6l-3 4h3q6 0 6 -10h3l3 3h4v-6l-16 -3h-3l-3 3h-3l-3 -3v3zM334 662l3 3h9v-3l-9 -3h-3v3zM377 668h22l-7 -6h-15v6z
M380 693v3h15v-3l-3 -3zM328 711h9l-6 -6h-3v6zM349 816h6l7 -6h-7zM507 930h9v-6h-3zM56 971l6 6h12v-3l-3 -3v-6h6v-7zM40 989v3h10v-6zM547 1054h15v-3l-9 -3zM738 1119h3l-6 6h-3zM324 1172l-6 12h3v6h28v3l-3 3v9l3 4l-12 3l6 6h3l9 -6v6l-6 6h-25l-15 -3l-3 3
q0 -9 -6 -9h-6v6q-7 0 -7 -9l-9 -3v-4l-15 7l-3 -3h-16l-3 3v-3l-3 -4v-3q15 0 15 -6l-3 -15h3l3 -3h4l-4 15v9h7q0 -12 6 -12q0 15 21 15v-6q0 -6 -15 -6l3 -3l-6 -9v-3h6q0 12 9 12q0 -11 28 -15l-6 -10v-6zM340 1168l6 7v3h-9l-6 -6zM195 1172h3l-6 6h-13v-3zM238 1175v3
l3 3l-6 6h-6v-9zM158 1212l6 6h3v-6h3l3 3h3v-6l-3 -4zM358 1230v6h-15v-3zM365 1236q9 0 9 10h3l3 -3l-6 -10h-9v3zM281 1246h6l-6 -7h-6zM479 1243h6l-6 9l-22 -3v-3zM383 1261h9l-6 -6h-3v6zM689 1286l-6 6h-3v-6h9zM541 1307v6q24 -2 24 -12h-3z" />
    <glyph glyph-name="d" unicode="d" horiz-adv-x="824" 
d="M616 1346l29 -2q39 -2 114 -138l-14 1l-1 -18l14 -1l13 -18l-7 -8l-1 -9q29 -2 25 -81l-8 1l20 -44l-31 -34h7l9 8l7 -1l-1 -8l-17 -34h8l8 7l-1 -8l-7 -8l-1 -9l7 -10l-7 -8h-8l-48 21l-9 -9q2 35 -12 36h-7l-22 -16h-7l7 9l1 8h-7v-8q-85 25 -84 48h-7l-8 -8l-7 1
l-4 52l8 9l-14 17l1 9l21 -1l-7 10l1 9l14 -1v9l-13 18l8 8l1 35q-21 1 -20 18l8 9v9l-21 10v9q22 69 68 67v8l-21 1v9zM539 1438l22 -2l-16 -16l-6 9v9zM188 1386l63 -29l15 16h14l6 -9l51 15l49 -20l8 8v9l27 -19l1 17l35 -10l8 8l-1 -17l44 15q-1 -22 33 -28l8 -9v-9
l-16 -16q22 -1 21 -19l-53 -59l-1 -9h14l-22 -34l7 -1l7 9l-1 -9l-8 -26q12 0 19 -45q-14 1 -15 -25l-8 -9l-7 1q2 26 -20 27v9l15 -1q-13 36 -34 37l7 9l1 9h-14l-1 -9l7 -9l-1 -9l-14 1l-21 19l-7 -9l-35 11l-22 1l-7 -9l-7 1v9l-43 -7l8 -10l-11 -43l-1 -17l8 -9v-9
l-16 -17l6 -9l-7 -9l-1 -8l7 -9l-1 -9l-8 -35l6 -9l-7 -9l-14 1l-36 11l-9 -52l-14 1q1 17 -20 18l15 25l-7 1l-1 -8l-48 28l-1 -9l-22 -25l-15 1l-6 27l8 8l-5 44q3 61 18 61l-7 9l1 35l10 34l-6 27l8 8l-8 1l18 60l-5 36l22 25l7 -9l1 18l-21 9l8 27l43 -3zM490 1300v-9
l27 -11l9 27zM776 1211h7l-15 -17h-7zM522 1228l29 -1l-1 -9l-16 -17h-14l8 9v9zM455 1178v-8l37 25l1 17q-34 -16 -38 -34zM563 1099l8 -8l-1 -9l-22 1zM592 1097l21 -9l-1 -9l-15 -26l-1 -8h7l1 17l14 -1v-9l-8 -8v-9h7l9 26l7 -1l-1 -35q-14 -34 -52 -32q-2 -26 26 -27
l7 -10v-9l-7 1q-42 2 -39 64h-8l-1 -18l-13 19l1 17l29 -2v9l-5 45zM548 933q36 -1 34 -28l7 -1l1 18l43 -11l-1 -9l-14 1l-1 -17h7l36 7q56 -12 55 -30l8 8q78 -11 77 -29l-29 -17h-7l-1 -9h14l-1 -17h-14l5 -44l-1 -26l-14 1l-1 -9l21 -1l-7 -9l-1 -9l13 -18l-7 1l-6 9
l-7 1l-1 -9l13 -27l-14 1l11 -54q-21 1 -21 -16q20 -10 18 -54l-1 -18l-7 -8l-1 -9l7 -9l-21 1l13 -18l-8 -8v-9l6 -9v-9l-15 -17l6 -26q-14 1 -17 -52h-7l7 -9l-1 -9l-9 -35l7 -8h-7l-7 8l-8 1l8 -9v-8l-9 -9l8 -9l-1 -17l-24 -34l7 -10l-8 -8v-9l6 -9v-9l-7 1l-7 9h-7
q-1 -26 -22 -25l6 -9v-9q-29 0 -30 -16l6 -27l-7 10h-14l-15 -17h7l8 8h7l6 -9l-1 -17l-6 8l-28 2q-18 0 -24 -34l-20 19v-9l6 -10v-8l-7 1l-7 8l-7 -7h-15l-7 9l-65 -23l-7 9l-1 -34l-21 1v8h14l1 17h-14l-1 -17l-6 9l-22 1l-8 -8l-6 9h-7l-22 -7l1 17l-29 -8l-1 -8
q29 -1 28 -18l-7 1l-55 27l-1 -16q-15 0 -14 26l-7 -9l-14 1l-7 9l-7 1l-15 -17l-7 9l-8 -8l-7 1l-13 17q-21 1 -22 -32l-8 8h-7l8 9v17h-7v-17l-14 1v17l-14 1v-17l-21 18l-22 -16q1 35 -27 36l1 17l7 -9l7 -1l1 27l-7 -8h-14l7 9l1 8l-15 1l23 35h-14l1 17l7 -9l14 -1
l9 44l-14 1l1 9l7 8v8l-7 1l-7 -8h-7l1 17q28 -1 30 43h-14l1 9h14v9h-14l1 17h14q1 26 -20 27l2 27l7 -1l15 26l-20 19l-1 -18l-14 18l16 17l20 -10l1 9l-7 9l8 9v17h-14l1 18h14l-6 8v9l8 8v9l-7 1l8 8v17l-14 1l1 9l14 -1l-13 27l9 26l-14 18l1 9l6 -9l14 -1l1 9l-14 1
l1 17q21 -1 22 17l-21 1l15 25l-7 10l8 8l1 26q-28 2 -26 28l-23 -16l-13 17l15 18l-1 -9l8 8l22 -1q-2 -27 12 -27l17 52l-12 35q17 0 37 25l21 -2q14 0 12 -43l130 45l22 -1l5 -44l-16 -16l15 -1l-18 -61q20 -1 33 -54l-29 -17l12 -52l7 -1q-1 -18 -22 -17l-1 -17l21 -1
l-2 -35l-7 1l1 26l-14 1l13 -27l-7 -9l-1 -9l7 -9l-1 -8l-16 -52l13 -19l-1 -8q-22 1 -23 -17l7 -35l-9 -9l14 -18l-15 1v-9l22 -1l-1 -9q-22 1 -23 -25l12 -53l23 25l-21 2l7 7l1 9l6 -9l14 -1l-6 9v9h7l35 -20l7 9l7 -9v-8l-29 -8l-14 18l-9 -35v-8h7l1 17l7 -1l7 -9l8 9
l14 -1l6 -9l23 25h7l21 -10l-6 9v17h14v-17q20 25 44 23l-7 10l1 17l7 -10h7l23 43v9h-7l-7 -8h-7v9q1 18 29 17l2 26l-8 -9h-7l-6 27l21 -2l-6 10l1 18l6 -10h7l1 9l-7 8l1 9l-14 1l15 26l-7 9l8 8v9l-5 36l8 8h7l-1 -9l-7 -9l-1 -9h14l2 27l-14 17v-17l-14 18l8 9h-14
l23 34l-28 2l7 8l1 9l-21 1l8 35h7l7 -10h7l1 17h7l-2 -26l-7 -9v-8l27 -10l-13 17q8 53 17 52q1 26 -20 27v9l16 26l-5 44l7 -9l7 -1v18l-14 1l16 25l-28 2q1 18 37 16l-34 54zM158 939h8l13 -19l-23 -16zM514 829l13 -18l-21 -8l-7 1l1 9zM513 794q14 -1 12 -27v-9l-7 1z
M45 722l22 -1l-8 -9q-1 -26 20 -27v-18h-7l-7 10h-8v-9l7 -8l-22 1l-5 26zM54 625h8v-18l-22 1zM48 493l14 -18l-1 -8l-14 17zM453 333l29 -2v-9q-22 1 -23 -17l-14 1zM47 318l14 -1l-9 -43l-15 18zM729 142l13 -17l-1 -9l-27 10zM685 127q-1 -18 21 -19l7 -8l-1 -9h-7
l-35 19zM436 -9h7l14 -18l-7 1zM38 3l14 -1l-9 -35l-22 1zM378 -23l-1 -18l-49 -6l1 18h7l6 -10zM65 -16l6 -9v-9l-21 1zM611 -70h7l14 -19l-8 1zM156 -64l6 -1v-17h7l7 8l7 -1l-1 -17l-28 -7l-7 9l-8 -9l1 18zM104 -88l21 -10l-1 -9l-21 1zM239 -95h7l13 -19v-8l-21 9z
M223 -138q57 -8 55 -29l-43 -7l-13 18zM151 -143l-8 -26l-14 18l8 8h14zM795 -237l-1 -9l-8 -26l-7 1l1 26l8 8h7zM374 -242l21 -10v-9l-29 2l7 8zM244 -271l7 -1l14 -17h-7z" />
    <glyph glyph-name="e" unicode="e" horiz-adv-x="704" 
d="M62 1394h9l9 -10l10 9l10 -1l8 -10h9l39 7l9 -10l10 9l9 -10l10 9l-1 -9l10 8h10l8 -10l11 9l424 -24l-3 -57l-12 -37l9 -10q-7 -123 -45 -121h-151l-38 11v-9l-27 10q-77 -1 -78 -23l10 -1l-10 -8l-11 -180l47 -12l198 -11l27 -30l-12 -47l-4 -66l-10 -8l-1 -10l10 -1
l-31 -36l-8 10l-2 -29l221 -43l9 8l10 -1l9 -9l10 -1q47 2 48 26l9 -11l47 -2l105 -47l-38 43l76 -46l-8 10v0l19 27h-9l-62 -26v9l-7 28h9l-9 10l96 -47l-67 67l-50 -55l-19 1l-1 -18l-28 1l1 19l-10 1l71 8l-157 -23l-28 -7l-147 4l-69 -38l-56 -28v-9l-29 10
q-56 -6 -57 -25l-12 -207q4 -28 73 -32l236 -14l7 -48l-10 -179l-28 2q-188 10 -187 29l-11 -8l-19 1l-8 9l-29 -7l-9 10l-48 -7l-76 5l-8 9l-11 -8h-9q-150 9 -149 37l9 -1l-8 11l1 19l9 8l-8 10l2 37l10 10l-9 9l1 9l9 10l1 9l-15 77l2 37l11 9l-18 29l10 10l1 18l-6 48h9
l-9 9l2 28l9 10l-21 124l115 22l-7 38l10 27l-19 1l-35 -101l10 9l1 10h-10l12 47l9 -1l28 -20l1 19l10 8l-9 10l-38 3l1 9l11 37q-21 62 -43 69l-29 -8l1 9l-11 -8l-66 3l-46 12l30 188l-9 28l20 18l-7 30l9 8l-9 1l11 27l-6 48h9l-9 9l26 112l-10 11l1 9z" />
    <glyph glyph-name="f" unicode="f" horiz-adv-x="672" 
d="M152 1313l46 -6v6l6 -6h39l32 7l39 -6l46 1l6 7q34 -13 150 -11l71 1l6 -7l7 7h6l26 -13l-11 -110h6l-12 -45l7 -7q-6 -45 -19 -46h-7l-6 7l-7 -7l-77 -1l-7 7l-6 -7l-46 -1l-58 6q-45 -7 -45 -53l-3 -246h7l227 -10v-45l7 -6l-6 -7v-7l6 -6l-6 -19l-5 -130l-51 -7v6
l-7 -7l-65 6h-6l-26 -7l-26 6l-19 -7l-7 7h-6l-20 -7l-6 6l-12 -97l7 -6l-6 -33l-4 -188l-7 -7l7 -6l-6 -7l6 1l-6 -7v-52q-5 -149 -23 -149l-33 -1l-45 6v-7l-7 7l-149 -2l-13 13v12l6 7l-6 6l6 33l-7 6l12 72h-7l13 58l-7 7v6l6 7v6h-6l6 7l-1 103l5 72l-6 6l-1 7l13 39
l-13 26l6 32l-1 58l-7 7v6h13v26l-7 7l13 32l-7 39l-1 7l7 32h-13l12 20h-6l6 6v26l-7 6l13 33l-14 58l6 7v6l-6 7v6h13l-1 33l-7 6v7l7 6h6l-6 7v6l6 26h-7l7 7v6l-7 7v6l12 65l-7 26l6 6l-6 7l6 6h-6l6 7l-7 32v7q13 0 13 32l6 7l-7 6v7q14 58 32 59z" />
    <glyph glyph-name="g" unicode="g" horiz-adv-x="765" 
d="M1081 119l5 35l-18 2l-1 -8l7 -11v-8l-10 -7zM1493 129l20 15l15 -19l-3 -17l-7 1zM1065 200l1 9l15 -20l-1 -9zM1008 233l8 -1l15 -19l-1 -8zM925 609q13 -2 30 32l-5 26q-22 3 -31 -31l-8 1l-8 9l49 39l-8 9l2 17l-19 -14h-8l-8 10l-9 1q-4 -34 -30 -31l1 8l20 16
l-15 19l-26 3l-15 -42l-17 2l2 9l34 66q18 -3 14 -29l87 -1l2 17l-26 4l-44 -4l9 8l-10 53l-43 5l-50 16l-9 1l11 -45l-17 1l-2 -25q-3 -13 31 -31l-23 -40l7 -10l-1 -8l-9 -8l17 -3l2 17h9l15 -19l-2 -9l-9 -8l17 -2l10 7l-14 29l8 -2q18 -1 13 -36v-9l26 6l26 -4l-2 -17z
M1092 307l17 -3l-2 -16l-8 9l-8 1q-20 -89 -42 -47l-9 -40q38 97 52 96zM957 249l3 26l9 -1q-4 -26 22 -30h9l9 6l-1 -17l-10 -7l-8 10h-8l-10 -7zM1519 196l18 -2l1 49q-33 4 -32 21l1 9l26 -3l-1 -18l27 14l-1 -8l30 -79l-2 -9l-36 -4l-7 10l-8 1l-10 -8zM1560 275l28 5
l-3 -17l-9 -7zM1097 350l14 42l18 -2l-11 -8l4 -44l-1 -9zM823 779l2 9l25 -3l-2 -18zM945 773l-4 35l-9 2l-19 -16l17 -1l-1 -9l-10 -8zM762 857l-2 9l1 9l4 8l-6 1l2 8l8 -1l-3 -25l2 -2q4 26 16 25l-1 -17l10 -1q4 -1 12 33l1 8l-5 2l-4 -9l1 9l-2 9l9 24l-48 11l6 -9
q13 9 21 40l4 35l4 43l3 9l7 78l3 17l3 7q6 166 -6 168q-3 -26 -11 -25l-1 9h-3q-13 2 13 -119v-26l-16 -86l-3 -43l-1 -9l-4 -8l2 -9l-2 -9l-3 -8l2 -9q-18 -103 -24 -102v-26q10 -1 9 -19h2zM1427 444l2 8l19 15l9 -1l-2 -17l-10 -7l8 -2l-1 -8l-8 33zM1480 446l9 -1
l-2 14l-17 2zM795 953l8 -1l-1 -18l-26 4zM302 601l14 -1l-5 25l7 5l1 6l-5 18h7l-7 6l1 6l8 17h7l6 -7l7 -1v6l7 -6l13 -1l8 5l6 -6l21 -2l1 12l20 -2l-7 -5l-1 -6l14 -1l28 4l20 -8l1 12l20 -13l48 2l6 -7l2 12l6 -6h7v5h-69l7 -7l68 -5l35 4l6 -7v-6q62 -1 62 7l7 -7
l13 -1l1 12h7l13 -13l-8 -5l7 -6v-7l-8 -5l6 -18l-12 -46l6 -19l-8 -5l7 -1q-20 -45 -32 -44h-6l-20 7l-111 -2l-27 7l40 -15l-12 13l-8 -5l-21 2l-40 8l-21 -4l-47 10l-42 -3l-34 8l-7 -5l-13 12l10 29l1 18l-6 7l1 5l7 6zM379 1326h-6v3h10q0 -15 15 -15l3 3v-3l3 2h3
l13 -9q0 9 12 9l6 -7l3 3h3l21 -12l4 3q-1 -6 24 -14l6 7l31 -23l3 3l9 -10l3 3h3l-1 -6l4 3h4l17 -20l3 3h3q0 -9 16 -9q-1 -14 30 -35v9h6l-3 -9l2 -9l-3 -3q29 -21 45 -64l-4 -2q5 -1 15 -32h3l-1 -9l-3 -3v-3h7l-4 -4q0 -9 10 -9l-3 -3v-3l5 -6v-3l-3 -3l3 -3v-16l-3 -3
l8 -25l-3 -3h3l-3 -3l-1 -6l3 -3l-3 -3v-3l3 -3l-3 -3v-4l3 -3l-3 -3v-3l2 -9h-3l5 -29l-3 -2v-3l3 -13l-3 -3h-3l3 -3l-1 -22l-3 -3l3 -3v4l-3 -3l3 -9l-64 -10l-47 -1l-49 8l-64 -1v-9l3 -3l-3 -9v-109l-4 -18h3l-3 -3v-3l3 -3l-3 -4l-1 -15l3 -12l-3 -13l-1 -12l3 -3
l-3 -3v-6l2 -16h-3l3 -3v-3l44 -10l13 -92l14 7l53 -5l40 -13l53 -4l-4 -22v-6l9 -12l-1 -4l-2 4h-3l-1 -4l6 -9l-9 -6l3 -3l-3 -15l2 -4l-3 -3v-6l3 -3l-3 -3v-3l3 -3l-3 -3v-6q0 -16 5 -16l-3 -3v-15l3 3h3l-1 -7q-9 0 -9 -15v-6l3 -3q-5 -19 -10 -19l3 -3v-3l-3 -3l3 -3
l-1 -16l-3 -3v-3h3l-30 -85l-13 -3l-2 3h-4l-9 -2q0 9 -15 9v6h-3v-6q9 -2 30 -32q9 0 9 -6q-16 -37 -42 -61l-26 -30l12 6l19 -7l3 3v-3l3 3h9l3 -3l25 5l43 -10v3q14 -7 16 -13l-1 -6l-16 -2l-3 3v-3l3 -4v-3q-9 0 -28 -24q-10 1 -10 -11l-3 -3h-6v6h-3q0 -8 -6 -8l-10 9
v-6l-21 1q-9 0 -37 18l-15 7l-3 -3v-3l2 -3l-3 -3h-3q1 12 -14 12v3l-16 -5v3l-3 -3h-3q-6 0 -6 9h-3v-6h-3l-19 16l3 3v7l-14 3l-26 -5h-6l-8 6l-8 -5l-2 12h-3v-6l-12 6l-3 -3h-3l-28 4l-9 -3l-3 4v3l-3 -3h-4l-3 3l-3 -3h-3q-15 4 -15 12l-6 1q-7 0 -7 -9h-9q0 12 -12 12
l3 3l1 7l-9 10v-3l3 -3l-28 6l-12 -5l5 -13l-6 -6h-4v9q-9 -3 -9 -18l-20 26q-4 -16 -11 -16l-9 6l-19 1l1 7q9 0 10 6v3h-10q-6 -7 -34 -8q0 5 -27 10v3l3 3h-3l-3 -3l-3 15l7 7l-6 6v-3l-4 3h-3l-9 -3l-3 9l-6 -5l-3 3h-3l-22 -6v21h-3l-13 -33h-10l-3 3h-3v-6h-3l-8 14
l6 -1l2 -4h3l1 4l-6 6l9 9l-3 3v3l3 3v6h-3v-6l-12 1l-15 -3v22l-5 6l-1 -3l3 -9l-3 -16l2 -9l-9 -3l1 6l-3 1l-1 -6l3 -4l-34 -5l-6 10v3h3l3 -4l3 3h3l9 -6v3l-8 9l-3 -3v6q10 0 22 22h-6v3l-4 -3h-12l1 9q27 3 34 8h6v-3l-3 -3v-3h3v3l3 -3h3l9 3q21 -1 21 -13h6
q-17 44 -31 115l4 3v3l-6 31h3l-5 16h3l-3 3q1 16 17 24q25 8 37 17l3 -3h3l26 18q13 9 28 9l18 -4l20 27l-4 3h-3q-11 -15 -47 -14q-17 -24 -44 -24l-16 1q0 -11 -42 -14l-9 12l3 3l2 53l3 3l-3 3l1 37l-3 9l4 16l1 55l4 16l-3 3h3l-3 3l2 56l3 18l-2 16v6l3 3v3h-3l3 3v3
l-3 3l3 16v9l-2 18l3 13h-2l6 12l-3 3l2 59l-3 12l3 13l-3 3h3l-3 3l1 9l3 3l-3 3l2 59l-3 15l8 56h-3q7 83 61 174q6 0 53 52l13 11l45 27q40 18 100 34v3h21l3 2l3 -3l31 5l3 -3v6l3 -3h3v3l4 -3h3l3 3l3 -3h6l9 5h3l-3 -3v-3h3l3 3v9zM447 1324l10 -3l-7 -6v3l-3 -3h-3
l-9 4v3zM358 1133l-6 -6v-3h9v9h-3zM324 1121l-12 4q-22 -7 -22 -12v-3l3 -3v-3h-3l-15 3l-3 -3v-3l2 -3v-3q-10 0 -10 -10l-6 1v-3q6 -16 13 -16l-1 -6h-7l7 -10q-10 1 -10 -5h-3q0 9 -6 9h-3v-9h6v-3h-6l3 -3v-3l-12 -3l2 -3v-3l-3 -3v-3l3 -4l-10 -6l4 -3v-6l-4 -3l-1 -3
l5 3h3l8 -6q1 12 10 12l8 -10q1 12 8 12v-6q-1 -9 -14 -8l6 -11l-3 -2l10 -1l-3 -15q-19 1 -19 13h-3q0 -6 -16 -6v-6l4 3h6q-1 -6 -11 -6v-3l7 -10l-3 -3l3 -3h12l-3 3v3l6 7l9 -3v-10l-9 6l6 -18l-7 -12h6v6h3l3 -11l-15 -2l3 -3v-3q-4 -11 -26 -33l3 -1l4 3l3 -3l-8 -14
l4 2h6l-13 -15v-6l7 -1l-8 -23l3 -10l-3 -3h3l-3 -3l-1 -12l7 -14l-8 -11l3 -12l-3 -3v-4h3l-3 -3v-6l2 -12l-3 -9l7 -1v-10l-4 1v7h-3v-7h3l-3 -3v-3l2 -3v-3l-3 -3l7 -1l-4 -24l3 -10l-4 4h-3v-3l3 -16l-3 -3l7 -1l-1 -9l-7 1v-9l7 -10l-7 1l-1 -22l3 -15h-3l3 -4v-3
l-7 -15l3 -3h-3l3 -9l-6 -10l5 -21l-7 -28l3 3h6l-3 -16v-6l6 -6l-4 -25l4 -3l-1 -3l-4 -12l4 -12l-5 -10l7 -15l-3 -13l5 -19l-3 1q5 -62 13 -75l-3 -3l6 -6l-4 -4l18 -40l21 -19l30 -14v3l12 -6l4 3l12 -1l3 -3q100 12 100 37q11 0 20 53q5 -1 14 42h3l3 -3h3v3l-2 19l3 3
v3q0 9 -9 9l3 3q-12 24 -14 51h-3l3 3v3l-3 15l4 22l-3 9l-3 -3h-6l1 9q15 -1 15 9l-6 1v3l4 21l-3 3v4l53 10v6q-9 0 -9 6q9 2 10 25l9 -32l-3 3v3l7 6v16l-11 63v3h3l-53 4v12l4 3l-3 3v3l8 31l-4 25l5 37l-3 3h4l-4 3v3l4 3l-1 94v3l4 3l-4 3l4 12l-4 9l5 16l-4 3v3l4 3
l-4 -14v9l4 3l-4 3v3l4 3l-4 -14v3l4 3l-4 3v3l4 3l-3 3v3l4 3v4h-7l6 -18l-3 18l4 13l-3 28l1 15l-3 3v3h3q1 43 -17 44v4q9 -1 9 8l-5 7l3 3l-3 3l3 3l3 -1q-7 26 -14 26l6 12q-9 0 -15 22q-22 16 -30 16l-7 -6l-18 1q0 13 -9 13l-3 -4v-3l-16 4h-3v-3q0 -6 9 -7l-3 -8
l-15 9l3 3v6q-13 0 -13 7zM305 1118q0 -6 -9 -5h-3v3zM321 1118l6 -6l-9 -9v-3h-6q3 18 9 18zM420 1103h6l-1 -9h-3zM296 1104l13 -1l-1 -6l-13 1zM398 1101l12 -13h-4l-9 10zM366 1095h3l-3 -3v-3h10l-4 -4v-3l-3 3h-3l-9 -2l-3 3v-3l3 -3l-3 -3h-3v16zM298 1087h13v-12h-3
q0 9 -10 9v3zM406 1084h4q4 0 9 -12h-13v12zM391 1082h6l3 -13l-3 -2l-3 3h-3l-3 -3h-3l-3 3v3q9 0 9 9zM277 1079h3l3 -3h3l-3 -9h-3zM255 1068l-1 -9h6l1 9h-6zM308 1069h3l5 -6l-3 -3v-3l6 -7h-6v-6l3 3h6l-23 -21l-6 1l17 23v3h-10l-3 -3l-3 1l-3 3v4q16 -1 17 11z
M329 1069l-1 -3l-9 -9v3zM412 1060h3l3 -10l-16 -6v6zM452 1059l9 -10l-3 -12h-3zM273 1051h6q0 -9 -22 -11zM334 1046v-3l-9 -8h-9q6 12 18 11zM439 1040h7l-4 -9h-3v9zM262 1031v-6l3 -1l10 3l6 -10v-3l-3 3l-3 -3h-6q0 7 -10 8l-3 3v3l3 3h3zM321 1029v-3l3 3l6 -1v-3
l-6 -5l-12 3v3zM281 1027h3q15 -12 15 -23l-9 1q0 16 -9 16v6zM423 1020l6 -7l-3 -3h-3v10zM340 1019v-4l-4 -9l-6 7zM321 1016q6 0 6 -9v-3h-3zM287 999h2l-3 -9h-6v3zM326 998l6 -7v-3l-12 -2v6zM419 992h6v-16h-12v3l9 4l-3 3v6zM271 974q12 -4 11 -9l-12 -3l4 3l-3 3v6z
M413 970l3 -3h3l3 3v-3l-7 -6l1 3l-4 -3h-6l1 3zM301 970h7v-3l-8 -6zM254 963l9 -1l-6 -5h-3v6zM344 954v-3q0 -7 -10 -7l4 -3v-6l-10 4v3q2 6 16 12zM353 954h9v-7h-3zM282 953l-3 -4l-6 -6l-10 3v3zM294 949l3 -1v-6l-9 1zM239 941q-1 -12 -14 -11v-3l7 -7h9l4 12l-6 6
l3 3h-3zM350 941h3l6 -6v-3zM260 938l7 -1l3 -3h3l-4 -9l-10 4zM288 937l16 -1v-3l-11 -8l-6 6zM306 927h3l-13 -13v4zM275 922v-10h-6v3zM225 917v-6l10 -1l-7 6zM253 913l9 -10l-3 1l-6 6v3zM306 911h3l5 -15l-3 -3h-6l3 3l-2 3v12zM345 895h3l6 -6h-9v6zM277 894h12v-3
l-6 -6h-3zM240 886h9l-6 -7l-3 4v3zM286 878h3v-9h-12v6h3l3 -3h3v6zM317 877h9v-3h-6l2 -15l-8 9zM268 872l3 -3v-3h-10zM298 865l9 -9h-6v-3h12v-6l-12 -4l3 -3v-6h-3l-7 6h3l-3 13l-6 1v-6h-6v12l3 -3h3zM251 861h6l3 -4h4l3 3l3 -3v-6h-6v-3h6v-4l-13 1l3 3v3zM313 840
l9 -9l-4 -3h-6zM291 835l-1 -6l4 2h3l21 -9l-6 -6l-6 6q-10 0 -10 -9l-6 7l3 3l-12 3l1 6zM303 813h6l6 -7v-3h-9l-10 3zM324 806l6 -1q-1 -12 6 -12v-3l-10 1zM337 805l9 -3v-3h-9v6zM316 760h9v-9zM229 716h6l3 -10h-3l-6 7v3zM290 705q-1 -12 9 -13l4 3l-1 -6h-6v-3
q-10 1 -9 13h-6v3zM327 703h7v-3l-7 -6v9zM231 688l3 -3h3l3 3h3l16 -4v-6l-4 1l-3 3h-3q0 -10 -6 -10h-3l3 4v6l-3 -3h-3l-6 6v3zM231 666h3l9 -3l-1 -3h-9l-2 3v3zM274 662h15l6 -7l-22 1zM288 634l3 -4v-2h-15v3zM223 620h3l6 -6h-9v6zM247 515h7l-7 -6h-6zM404 476h3v-6
h-9zM-35 375v-7h-6v-6l3 -3v-3h-12l-6 7zM-62 348l-1 -6h-10l1 3zM438 271l9 -3v-3h-15zM615 189h3l6 5l-3 1zM-123 192l10 -1q0 -9 9 -9l-1 -6h6q1 9 7 9l6 -1l11 -15l-30 -9v3l3 10l-3 -3h-3l-3 3h-3l-10 -2v3l-3 3h-3l1 3zM191 167v-6l5 -10q-28 -3 -28 -14q-9 0 -9 12
h-6v-3l6 -9l-3 -3q15 0 15 -6v-6q-21 0 -21 15q-6 1 -6 -11h-7v9l4 15h-4l-3 -3h-3l3 -15q0 -6 -15 -6v-3l2 -4v-3l3 3h16l3 -3l16 6l-1 -4l9 -3q0 -9 7 -9v6h6q6 -1 6 -10l3 3l15 -3l25 -1l6 6v6l-9 -6h-3l-6 6l12 3l-3 4l1 9l3 3v3l-28 1v6h-3l6 12zM212 154l6 -7h9v3
l-5 7zM-114 167q0 -7 -10 -6h-3v3zM60 155v-3h13l7 6h-3zM110 151v-9l6 -1l6 6l-3 3v3zM54 125l2 -4v-6h-3l-3 3h-3v-6l-3 1l-6 6zM223 92v-3h15v6zM245 92l9 -1l5 -10l-3 -3h-3q1 10 -8 11v3zM155 88h6l5 -7h-6zM336 76v-3l22 -4l6 9h-6zM262 69h3l6 -6h-9v6zM558 29v-6h3
l6 6h-9zM440 18h3q-1 -10 -25 -12v6zM662 5l9 -3v-3l-15 1zM690 1h21q0 -18 21 -31l3 3q0 -9 21 -19v-7l-13 -3l-8 4l-1 -6h-3l1 10l6 -1v6l-16 4h-3l3 -3v-3l-7 -16q-6 6 -20 7v3h6v7l-9 9l-22 -9l-6 10l12 2v-3q19 4 19 9l1 13l-6 9v5zM722 -55l6 -6v-6l-7 6zM731 -64
q28 -5 28 -10l-16 -6q0 9 -12 10v6z" />
    <glyph glyph-name="h" unicode="h" horiz-adv-x="787" 
d="M579 1299l4 -3h13l3 3l3 -3h4l3 3l3 -3h4l3 3l3 -3l17 3h32l14 -3l3 3h3l10 -3l3 3v-3l-3 -4v-3l7 -20l-4 -3v-3l7 -13l-3 -4v-3l3 -30l-3 -3l3 -16v-30l3 -33h-3l3 -3v-3l-3 -4l3 -3v-36l-3 -3v-4h3l-3 -3l3 -16v-7l-3 -13l7 -17l-4 -3h-3q0 -10 10 -10l-7 -10l4 -3v-3
l-4 -4h-3l7 -16l-4 -3v-23l4 -4l-4 -3v-6q1 -17 7 -17l-7 -20l4 -23h-4q4 -29 10 -29l-3 -4v-3l6 -13h-6l-3 -13l3 -3v-4l-3 -13l3 -3v-3l-3 -4v-3l6 -10l-3 -3v-4l16 -128h-3l3 -3v-46q1 -17 7 -17l-3 -3v-3l3 -43l-3 -13l6 -76l-3 -3h3l-3 -3v-4l3 -9l-3 -17v-23l-3 -3
l3 -3v-4l-3 -3v-3h3l-3 -4v-23l-4 -23h4l-4 -3v-23l-3 -33h3l-3 -3v-17l-3 -72h3l-3 -3v-76l-4 -3l4 -3v-53l-7 -7h-210l-17 13v4l3 -4h4l6 23l-3 4h3l-3 3v3q5 20 10 20l-3 3v7l6 10l-3 3l3 10l-3 16h3l-3 4l6 46v10l4 3l-4 3l4 17v23l3 3v3h-3l3 4v3l-3 13l3 13h-3l3 3v4
l-3 10l3 3v3l-3 3l3 40v33l-3 3l3 3q-2 23 -7 23l4 4v33l-4 3l4 3v3l-4 4l4 3v13l-4 3v4h4l-7 10l3 3v13l-3 13l3 4v3l-6 16h3l-3 4v3l3 3l-3 3v4l3 3l-6 20l-4 -4h-3l-20 4l-3 -4h-3l-4 4h-3l-16 -4l-10 4l-23 -4l-46 4l-4 -4v4l-3 -4h-3l-10 4l-16 -4h-43l-3 -3h-4l4 -16
v-33l-4 -3l7 -27l-3 -3l3 -3v-4l-3 -3l3 -3v-56l-3 -3l3 -4v-39l3 -36l-3 -4l3 -16v-56l3 -3v-4l-3 -3h3l-3 -3l3 -17l-3 -9l3 -4v-3l-3 -10h3l-3 -3v-4l3 -3l-6 -20h3l-3 -3v-10q0 -51 -7 -69l4 -13l-4 -20l4 -16l-4 -3v-4l4 -10l3 4l3 -4l17 4h9l4 -4l3 4h3q83 -5 83 -10
l3 3h3q17 0 17 -6l3 3h3l7 -7h-244l-3 -3h-3v3l-4 -3l-9 3l-69 -3h-20v20l3 3l-3 3v43l3 3l-3 4v13l3 3l-7 26l4 4l-4 23v23l-3 3l3 3v7l-3 16h3l-3 4v3l3 3v4l-3 9h3l-6 33l3 4h-3l3 3q-2 26 -6 26l6 10l-6 13h3l-3 3v4l3 3l-3 16l3 10l-7 17l4 3v49l3 14l-7 9l4 4v3l-4 46
l4 3v4l-7 39h3l-3 3v4l3 3l-10 30l4 3v3q-19 36 -30 135h3l-3 3l-3 165v39l-3 17h3l-3 3v13l3 3l-3 4v59l-4 3l4 3v66l3 4l-3 3v3l3 3l-3 4v6l3 4l-3 3v3l3 3l-3 17l3 10l-3 16v23l-4 4v3h4l-7 23l3 3v7l-3 3l3 3v4l-3 13q0 16 95 16l50 3h29l33 4l7 -30v-20l3 -3l-3 -3v-3
l3 -30l-3 -10l3 -3h-3l3 -4v-55l3 -4v-3h-3l3 -3v-4l-3 -3l3 -3v-3l-3 -4l3 -3v-3l-3 -4v-3h3l-3 -3l3 -17v-6l-3 -10l3 -17v-32l-3 -4l3 -3v-36l4 -23h-4l4 -3v-4l-4 -16l7 -7h-3l3 -10l-3 -3v-3l3 -4v-3l-3 -3v-3l3 -20h-3l6 -10l-6 -16l3 -4h3l-3 -3v-3l3 -4l-3 -3v-3
l3 -10l-3 -3l3 -4h4l-4 -23v-13h20l3 3h4l3 -3l3 3v-6l3 3l17 -6l13 3v-3l20 6l3 -3h13l17 3l3 -3v6h3v-6h7l3 3l3 -3h10l4 3l3 -3h3l10 3v-3l56 13l-10 23l10 10h-7l4 16v4h-7l7 19v4l-4 3l4 3v4l-4 3l4 3v10l-4 23h4l-4 3v4l4 3v3h-4l4 4v3l-4 3v3h4l-4 4v3l4 3l-4 4v3
l4 3l-7 17l3 3l-3 3l3 3h-3l3 4v3l-3 3l3 17v3l-3 3l3 4v3l-3 16l3 4h4q-3 26 -7 26l7 20l-4 3v3l4 4l-4 3v6l4 14l-4 3l4 16v50l-4 3l4 3v27l-4 3l4 3v3l-4 4l4 3v3l-4 4l4 3v3l-4 3l4 4l-4 10l4 23l-4 3v3q5 17 10 17l13 -4l30 4h13l3 -4zM494 19v-9h-7v3zM471 13h13v-7
l-13 4v3z" />
    <glyph glyph-name="i" unicode="i" horiz-adv-x="394" 
d="M197 1360h14l-7 -26h-7v26zM233 1325h7l14 -17v-9h-14v-9h43l7 9h7l14 -18h8v18h7l7 -44v-62l21 -35h-7l-7 9h-7v-79l14 -27v-8l-7 8h-7v-44l7 -8l-14 -53v-35l21 -36l-14 -17h7l-7 -9v-26l7 -44l-7 8h-7v-44q0 -17 21 -17v-27q0 -17 -21 -17v-18l7 -9v-8h-7l7 -9l-7 -62
v-9l7 -8l-7 -9v-9l14 -26h-14v-44l7 -9l-7 -9v-17l7 -9v-9h-14l14 -70h-14v-9l7 -9l-7 -9v-9l7 -8v-9l-7 -35h7l-15 -44l15 -71h-15v-9l8 -8v-9l-8 -27h8l-8 -8v-9l8 -9v-9l-15 -53l15 -17q-18 -17 -72 -26l-57 9l-7 -9l-50 18v-18h-7l-7 43v53l7 79l-7 53h7l-22 71h15v26
l-8 44l8 9h-8l8 9v26l-8 9l8 9v17l-8 9l15 62l-15 17h15l-7 9v70l-15 53q22 0 22 26h-7l-8 -8h-7l7 26q-4 132 -64 132l-7 26v9h7q0 -26 36 -35l-7 9v9l7 8l-14 53h14q0 -32 28 -61h-7l-7 8h-7v-8l29 -27v18l7 9l-7 8l-8 27q-21 0 -21 17h7l7 -8h7l8 8v9l-15 18h15v17
q-29 0 -29 27l14 17l-7 9h7l7 -9h8l7 62h-29v26l7 -8h15l7 79l-22 9v8q18 0 29 88h-14l7 9v9l-7 9q2 23 35 35l15 -18h14v18l21 -18v9l-7 9v9h7l22 -18h7l7 26zM161 1316h22v-17l-22 9v8zM54 789l7 -9l8 9h14l14 -18v-26l-36 26l-7 -9v27zM69 753l21 -8v-18h-7l-14 18v8z
M54 727h22l7 -9v-9h-7l-22 9v9z" />
    <glyph glyph-name="j" unicode="j" horiz-adv-x="430" 
d="M339 1304h7q0 -24 37 -44v-27l-15 -27l15 -54l-7 -27l7 -54v-63l-7 -9l7 -9v-63l-7 -9l14 -36l-7 -9v-18l7 -9l-7 -9v-18l7 -9l-7 -9v-9l7 -9l-7 -45l7 -45h-7l7 -9v-9l-7 -9v-9l7 -9v-9l-7 -9v-8l7 -9v-9l-7 -27h7l-7 -9v-9l7 -27l-7 -45l7 -81l-7 -45l7 -9v-9l-7 -45
l7 -54l-14 -36l7 -27l-7 -27l7 -9l-29 -27h-8v18q-36 -12 -36 -45h-7q0 23 -37 27l-14 -36h7l22 9l22 -9v-9h-15l7 -9v-9l-22 -9l-21 9l7 -9v-9l-7 -27l-37 9h-14l7 -9v-17h-7l-8 8h-7l-7 -8l-15 17h-29l-22 -17l-37 35v9h-14q0 -27 -15 -27v18l8 9l-15 54h7l-7 9l7 45
l-7 45l29 -18l7 9h37q0 -27 15 -27l7 9v9l-7 9v9q80 0 80 135h-7l7 9v45l-15 27h15l-22 171h15l-15 89l15 72l-15 45q0 45 15 45l-15 45l7 9h-7l15 45l-15 36l22 72h-15l-7 27l7 9v36l15 126l-15 18l8 35h14l44 9l7 -9h7l30 9l22 -9l7 9l7 -9v18zM142 136v-9h7v18l8 -9h7
l7 9v18h-7zM346 109v-9l-14 -18v9z" />
    <glyph glyph-name="k" unicode="k" horiz-adv-x="885" 
d="M208 1368h15l15 -19l8 9h22l23 -18h7l-7 9v9h15l75 -27l-8 -10v-18h15l-15 -37h15l-7 -9v-19h15l-15 -27l7 -28l-7 9h-23v-18q23 0 23 -46h15v-10h-15v-18l7 -9l-7 -9v-19h15l-15 -28v-37l7 -9l-7 -9v-28h15v-9h-15v-55l-23 18v-9l8 -9l-30 -9q0 27 -15 27h-8l-15 -18h8
l22 9v-18q-35 0 -52 -19l-30 9l7 10l-22 46l-8 -10h-45l-7 47l7 9l-7 9h-8q6 65 15 65l-15 37l8 64v65l7 9v9h-7l7 9v10l-7 37l15 64l-8 9h23l7 -9h8v9zM710 1340l45 -19v10l8 -10h7l8 10l52 -10h8l30 10l37 -19l8 9v-9q0 -27 -23 -27l8 -10v-9q-1 -17 -68 -83l8 -9v-19
q-23 0 -45 -55v-9l7 -9v-10h-7l-8 10h-7l-8 -37l-7 9h-15v-9l7 -10v-9l-30 -37h15q-45 -74 -60 -74v-9h15l8 9v-18q-39 0 -68 -83h-15l-7 9h-8v-18h15v-10l-30 -9l-22 28h-8l-7 -9h-8q0 34 -37 46v9h15v9h-22l-15 -18h-8l8 9v28h-23v-9h15l-15 -19l-7 9h-8l53 120
q22 0 22 37q15 0 15 46q28 0 82 139l53 92q15 0 15 28zM313 1165v-19l38 9v19zM216 952l15 -18h7l-15 18h-7zM253 952v-9l15 -18h8zM208 906h23v-18l-23 9v9zM838 -101v-18h-8v18l-30 -9l-22 9v-9l-8 9h-15v-18l-22 18h-15l-8 -9l-7 9h-15v-18h-8v18h-7l-8 -9h-7l-23 9v-9
l-7 9h-23v-18h-7q-18 165 -68 165v10h15q0 46 -22 46v9l7 9v10q-30 0 -30 27h15v9q-15 0 -15 37q-19 0 -22 46l-15 19h-7l7 9v9q-15 0 -22 74l-15 19h-8v9l8 9v9q-23 0 -23 28l-7 9h-15l-30 -37h-8v-9h15l8 9v-9q0 -18 -30 -18l7 -10v-9l-45 -55h15v-19h-15v-18l8 9h15
l-8 -9v-9l8 -10v-9h-8l-7 9h-8v-9l15 -27h-15v-10h15l8 10v-10l-23 -37v-9l8 -46l-15 -18q22 0 22 -19v-9l-7 9h-8v-18l8 -10v-9h-15l15 -27v-10h-15v-18l7 10h15l-22 -37l7 -10l-7 -9v-9l15 -28l-23 -9l-7 9h-8l-7 -9l-23 9l-22 -9v19l-15 -19l-8 9h-52v-18h-8v28l-37 -10
l-15 28l7 73l-7 37l15 46l-8 10h-7l7 9v9l-7 9v10l15 46l-8 9l8 9l-8 9h-7l7 10v36h-15v10l15 18l8 -9l-23 65l23 27l-8 83l8 9h-15l15 19l-15 74q37 0 37 46l-22 28l7 9v28l-7 9v9l7 9l-15 19l8 9l-8 9v9l8 28l-8 9l15 19l-15 18v9l68 -37h7l15 19h8l-8 -9v-10l15 -18
q29 28 68 28q25 0 75 -56v10l-8 9l23 9l7 -9h8l7 9h8l7 -9h8l7 9h8l45 -18l7 9q0 -46 97 -46v-10h-15v-9q0 -18 23 -18l7 -9v-10l-7 -27q30 -19 30 -56l-8 -9h8l22 9l-15 -27l23 -28l-8 -28h8q15 0 15 -37l-8 -9h8l7 9h8v-18h-15v-9q30 0 30 -47l-8 -9h15l-7 -9l52 -111
l-7 -27l37 -47h8v-9h-15l22 -46h-7l37 -74l-7 -9h7l8 9v-9l-8 -9v-9q11 0 23 -37l-8 -28h8l7 -9v-9l8 9v-37zM81 712h30v-37h-8v19q-22 0 -22 18zM28 536l23 -28v-9l-23 27v10zM66 517h15v-28l-15 19v9zM36 397l7 -37l-22 28l7 9h8zM88 379v-10q0 -21 -37 -27v18zM336 333
l-8 -47h-7l-8 37l8 10h15zM403 305l-7 -9v-10h22v-9h-30l-7 9v10l7 9h15z" />
    <glyph glyph-name="l" unicode="l" horiz-adv-x="536" 
d="M161 1319l49 -19l37 7l50 -10l8 7l-1 -8l-13 9l6 -8l-7 -9v-9l6 -9l-7 -9l-1 -18l7 -8l-7 -9l-1 -18l7 -9l-8 -9v-8l7 -9l-8 -9l-1 -35l5 -45h7l-30 -34l7 -9l-1 -9l-8 -26h7l-7 -9l-1 -27l7 -9l-8 -8v-9l7 -9l-1 -9l-7 -9v-9l6 -26l-7 9h-7v-9l6 -27h-7l6 -9l-1 -26
q-62 3 -131 -66h7q57 42 116 40l14 -71l7 8l7 -8v-9l-8 -9q21 -1 19 -54h-7l7 -9l-1 -18l-7 -9l6 -26q-3 -24 -37 -33l25 -72v-9l-8 -9l7 -9v-9l-8 -8v-9l7 -9l-9 -44l-1 -36h14l-1 -9h-14v-8l7 -9l-8 -9l-3 -80l8 9l42 -20l7 9h14l8 -10l7 9l-57 2l7 -9l7 9l7 -1l22 -9v9
l7 -10h7l7 9l16 -11l36 8v-9l7 9l15 -1l7 -9h7v9l7 -9l15 -1l7 9l28 -27l-1 -27l-8 -9l-1 -8l15 -1l-16 -35l8 -9l-1 -9l-9 -35l8 -9l-9 -26h-7l6 -9v-16l-29 -17l1 18l-8 -9l-15 1l-6 8l-7 -8h-7l-8 9l-29 -16l1 17l-7 -8l-45 2l-7 9l-22 -8l59 6v-8l13 8l-8 1l-21 -8l-7 9
v-9l-8 9l-21 1l-7 -9l-7 9l-15 1l-7 -8l-7 8l-36 2l-7 -9l-7 9h-8l-7 -8l-7 9l-43 2l-7 -9l-7 9h-8l-7 -8q-54 2 -70 54h8l-8 9l9 27l-11 97h15l-6 53l10 44l-6 71l1 9l8 9l-8 9l1 9l8 8l-13 53l7 -8l8 -1v17l-15 1l1 9l17 61l-8 -8h-7v18l15 -1l-5 63l9 52l-6 35h8l-8 9v9
l25 61l1 26l-7 1l-23 -7l2 52l-6 9l17 79l-7 9l-7 1l17 70l-6 44l8 9h-7l7 9l1 35l-5 35l8 27h-7l16 34q-15 1 -14 28l17 52l1 26l35 -9l28 -1zM98 791l-1 -27l45 34h-7zM363 727h7l-1 -17l-8 -27l-14 1zM709 582h7l-2 -36h-7zM575 215l7 -1l20 -9l-7 -8v-9l-21 10z" />
    <glyph glyph-name="m" unicode="m" horiz-adv-x="1177" 
d="M1118 1293l-19 -534l-9 -8l9 -9l-3 -77q19 -53 50 -54l-1 -8h-17q0 -17 25 -18q-6 -69 -62 -67l-2 -51l8 -9l-9 -9v-8l8 -9h-8l7 -26l-5 -396v-9l-104 4l-52 -7l-42 10l-26 1l-7 43l7 448l28 77q-31 73 -36 191l9 8l-7 35v8l9 9v8l-8 9v9l9 8l-7 44l10 51l-7 26v9l9 8
l-7 35v8l9 9l-8 34l1 18l9 8h-9l10 43l6 146l103 -3l9 8l-20 -10h71l9 8v-9l35 8zM143 1328l9 -9h17l9 -9l8 9h9l9 -9l43 9l138 -9v9l8 -9h-47l8 -43v-181l-17 -17h73l-34 9l-34 -26v-129l8 -9l-8 -8v-233q-30 -32 -35 -86l-17 -17h-9l9 -9v-26l-17 -26l8 9h9l43 -9v-51
l-9 -9l9 -9v-17l-9 -8l9 -26l-9 -43h9l-9 -9v-9l9 -8q-17 -88 -17 -276v-17l-43 -9l-9 9l-9 -9l-86 9l-26 -9l-51 9v138l8 34l-8 9l8 129v207q-43 0 -43 95h9l8 -9h9q0 17 26 17v345q0 86 -26 86l-43 8l190 -8l-52 8h-52l-8 52l8 35l-8 8l8 9l-8 43v69zM468 1319
q27 0 95 -612l-8 -8h8q101 0 112 86q17 184 86 526l35 8l138 -17l26 9l8 -9v9l-77 -7l-26 -601l17 48q0 -52 -52 -52l-8 -9v-43l26 -8l25 8l-25 -26q-69 -376 -138 -603h-207l-9 9l-8 -9h-18l-86 431q0 130 -69 164q0 26 -25 26l-18 34q20 17 61 17v9q0 116 8 622l-103 -2
h232zM891 716h60l9 -43l-69 26v17zM236 690h17v-8l-9 -9v-9l-25 9zM537 682v-35l26 26l-8 9h-18zM537 630v-9q43 -52 43 -77v-86l18 -26l-9 -9l9 -52l17 18l-9 8v9q26 52 26 189h-8l-35 9v9l9 8v9h-61z" />
    <glyph glyph-name="n" unicode="n" horiz-adv-x="810" 
d="M-246 1469l53 -16v-4l51 -3l20 10l3 -3h4l3 3h3q38 -10 38 -28l42 10l19 -10l14 7l13 -10q-18 -13 -74 -20v-35l-4 -3l4 -4v-69h-4q-28 86 -36 89h-138v15l4 13q0 32 -55 48l-5 4v3zM376 1331l-1 -7l-4 -3l3 -3l-2 -15l-3 -2q4 -1 2 -25l-7 -10l3 -3l-5 -34l3 -4l-3 1
l-2 -35l-4 -10l-261 14l-4 5h-6l-4 -3l-3 4l54 96q25 1 26 7q-14 2 -13 12l10 -1l51 18l3 -4h4l3 2l16 -9l1 7l-9 12h-3l-4 -2l6 12h3l19 -10l1 4l4 2l10 -4l18 4l-1 -3q36 11 37 20l3 -1l4 -4q28 -4 52 7q6 -1 3 -35zM422 1370l27 -38q-4 -23 -10 -23h-3v10l3 3v3h-3l-4 -3
h-3l-3 17l-17 -4l3 4v11h-11v7zM364 1360l7 -7v-7l-7 7v7zM374 1350q32 -5 32 -11l-18 -7q0 10 -14 10v8zM265 1342v-7l37 -13q-19 20 -37 20zM625 1315l44 -10v4l38 -11l3 4h4l44 -15l4 4h3l41 -27v-7q-16 0 -16 -18l-11 -37h3l-24 -85l4 -4l-4 -4h4l-4 -3v-24q11 0 11 -10
l-17 -7h-4v4l4 10h-4l-21 -7q-22 7 -30 17l-21 3q0 -7 -30 -10l-28 7v-7q-28 3 -28 13h-7l-3 -3l-10 3l-10 -3v10l10 4l7 -7l21 7v3q0 6 -32 14v7h-10l-21 -7q0 7 -13 7v7l6 6l17 -6l15 6l3 -3q14 34 24 38q9 38 14 38l-3 3v4l13 58h-3l6 21v10zM454 1209l10 -4l23 4
q15 -4 15 -14l16 3l4 -10h17q17 -5 17 -17l17 4v-7h-38l-10 7l-20 -7q-18 4 -18 10v3l18 -3v3l-8 7l-3 -3h-3l-21 6h-6v-3h13v-3l-10 -4q-21 8 -21 14v7zM542 1157v-7l-14 -3v7zM573 1143l-3 -16h3l4 3l3 -3h10v3l-3 10l-10 -7v10h-4zM697 1106v-7h17l-7 7h-10zM93 1106
l89 -7v3l192 -17q3 -30 24 -54h3l-6 -25q6 0 11 -27h6v-3l-3 -3v-4l13 -38l-3 -3l10 -21h-3l34 -82l-3 -4v-7q12 0 23 -61l11 -28l-4 -4q15 0 15 -16h-5l8 -14l-3 -3l10 -7v4l10 -4v-8q-10 0 -10 -6l6 -7l-3 -3l10 -4l-7 -10q10 -14 10 -31q11 0 11 -13h3l3 13l-3 3v4l3 28
l-3 3v3l3 14l-3 14l3 4v3l-3 10q2 41 8 41l-5 4l5 16v55l3 3l-3 4v4l3 17h-3l3 3v62q0 40 -8 54h8l-3 12l6 40l-3 4h3l-3 4v13l3 3l-3 4v3l3 14l-3 11l20 10l4 -4v-3l31 7q57 -14 86 -14l6 -7v-4l17 4h10l18 -4v-23l-3 -4l3 -3v-48l-3 -3l3 -4v-4l-3 -4v-3h3l-3 -3v-7l3 3h3
v-3l-11 -38l5 -3v-4l-5 -20l5 -14l-5 -4v-3l5 -3l-5 -17v-17l5 -28l-5 -28v-13l5 -13l-8 -14l8 -14l-5 -14l5 -3l-5 -3v-52l-3 -3l3 -3v-8l-3 -17l3 -3h-3l3 -4l-3 -17v-3l3 -4l-3 -4v-3l3 -3l-3 -4v-13l3 -3l-3 -4v-10l3 -4l-3 -4v-23l3 -3l-3 -4v-10l3 -18l-3 -20v-7l3 -3
l-3 -4v-20l3 -4l-3 -3v-3l3 -4v-3l-6 -7l3 -4h3l-6 -20l3 -21l-3 -3h3l-3 -4l6 -30l-6 -32l3 -13l-3 -3v-4l3 -3h3l-3 -18l3 -17l-3 -17l3 -3h5l-5 3v7q8 0 8 -14h7v-44h-10l-5 44h-6v-44l6 -7h15l-4 -4v-3l4 -10h-4l4 -4v-3l-4 -3v-4l4 -3h-7v-3h13v-4l-24 -4v-10h3l5 3
l10 -3v-7q-25 0 -35 -23h-3v-8l3 -3v-4q-7 0 -10 -23h-7l-3 3h-3l-5 -3l-3 3l-7 -7l-3 4h-3v-7h-4v7h-13q0 -10 -10 -10l-21 -4l-11 -10l-10 3l-3 -3q0 10 -11 10v-4l-10 4l-17 -4l-7 8h-3v-8l-18 8v-4l10 -4l-6 -6q-21 0 -21 30l-3 4l-3 -4h-7l-11 11l3 3q-20 4 -20 18h-3
q0 -15 -20 -15q0 9 13 11v4h-10v-8h-3v8h-5v-8h-6l-7 8q0 6 24 10l4 -4l-4 17v4h4l3 -4h3v7l4 -3h3v6q-9 0 -20 15q-3 -11 -21 -11h-10q0 7 13 7l4 4v3l3 -3h3l11 6l4 -3v3h-4l4 4v6l-4 -3l-11 3v7l5 -3h6v3q-6 0 -6 10l-5 -3h-6v3l3 4v3h-3l-4 -3l-3 51l13 -44h8v44
q-17 0 -28 14l3 10h11v-6h3v10q-13 44 -20 44l3 4v3l-17 31h7q0 7 -10 7v7h7q0 10 -10 10v17l-8 7l-3 -3v7h6q-4 26 -17 26l7 11v4l-10 10l3 3v4q-35 112 -48 127h4l-10 37l-4 -4h-3v4l3 18q-14 49 -21 51v3h5q-14 23 -25 68q-4 0 -13 32h-4v-4l4 -3l-10 -31l3 -14l-3 -3v-3
h3l3 3l-6 -25l6 -6v-4l-3 4h-3l3 -4q-2 -23 -8 -23l8 -11l-3 -4l3 -16l-3 -14l3 -14l-3 4h-5v-4l11 -10v-4l-3 4h-3v-7h-5l8 -10l-8 -38h5l-8 -35l3 -3v-3l-3 -4l3 -3v-13l-3 -4v-3h8l-5 -4v-3l5 -4h-5l5 -4v-3l-8 -17l8 -6l-8 -7l3 -4v-3l-3 -4h-3l6 -27l-3 -21l3 -4v-3
l-3 -13l3 -4q-4 -24 -10 -24l7 -24l-3 -3h6l-10 -25h4l3 4v-4l-3 -3v-3h6v-7h-6l3 -3v-4l-3 -3v-3l3 -11h-3l-7 -7q7 0 7 -17l3 -3h-7l7 -21l-7 -7h7v-7h-7l4 -3v-4l-4 -3v-3h4l3 3h3l5 -3l6 6l4 -3l3 3h7v-13l-7 7l-13 -7l-5 3h-3l-3 -3h6q0 -10 8 -10v6h3l4 -3h3v7l10 -7
h7v10l3 -3l4 3h6q0 -13 -17 -13v-7l-3 3h-3v-7l-10 7h-4l4 -3v-4q0 -5 -15 -10l-3 3l-3 -13v-4h3v7h3l11 -3l7 13h3l4 -3h3l-3 -14l-4 4h-3v-4l3 -3h-10l4 -4l-4 -3v-3l4 -4v-3l-4 -4h-3v11h-3q0 -11 -8 -11v7h-3l-4 -14l-3 3h-4v-3h4l-10 -24l3 -3l-13 -20l3 -18l-10 -7
l-11 4l-30 -4v4l-4 -4h-24l-24 4l-3 -4v-3l-11 7l-4 -4h-3l-17 4l-16 -4q-22 0 -22 31h-3l7 17l-10 17q10 0 10 7l-4 3v4h4q-2 14 -10 14v3h6l-3 4v3l7 28l-4 10l7 17h-3l-4 -3h-3v3q10 17 10 34l-3 4v3h3l-3 4v3l6 13l-3 4v4l3 3l-3 4v3l3 4l-3 3v3l3 10h-3l3 4v14l-3 14
l7 23l-4 3v4l4 4v3l-4 11l4 3l-4 3l4 4h-4l4 10l-4 10l4 4l-4 3l7 7v38l-3 3v4h8l-5 3v7l5 3v4l-5 3h5l-5 10q2 35 8 35l-3 3v3l3 10v8h-3l3 34v31l3 3v4h-3l-3 -4h-5v10h8l-3 4v3l3 3v4l-8 7l5 4l-5 3v4l11 10l-6 10l6 21l-3 3l3 4v23l-3 3l7 32h-4l4 3v25l-4 3l4 3v4l-4 3
v3l4 10l-4 4l4 18v30l3 31l-3 3v4l3 13l-3 3l3 18v17l-3 13l3 12l-3 10h3l-3 3l6 38h-6v7h6v3h-6v7l6 10l-3 3l3 3v4l-3 4l3 10q0 7 -21 17v7l5 -4h3l3 4l7 -7v3l-3 11q10 20 10 48h3zM902 1092l-3 3l-3 -3v-7h3l24 4l-4 10zM717 1089l7 -7l3 3v4h-10zM73 1065h3v-11l-3 -3
h-3v3zM902 1006v-13h4l7 6v7h-11zM913 993v-4q3 -10 21 -10h20v7l-17 -3v3l-8 7h-16zM70 979h6v-3l-6 -7v10zM528 955h4l7 -7h-4zM-23 948l10 -3v-4l-10 -10l-6 7zM518 695h10l-6 -7l-4 3v4zM35 629v-10h-3l-7 6zM4 592l3 -4v-3l-17 -8l-3 4v4l3 3h-6v4l20 3v-3zM323 577
v-10l-7 7l4 3h3zM25 561h7v-10h-15v3zM-36 547h10l-7 -7l-3 4v3zM299 537h6v-8h-13zM268 389h14v-4l-10 -3l-4 3v4zM755 307h3l-6 -7h-4zM265 283h3l-6 -7h-5zM419 279h3v-10q-13 -6 -13 -13h-3l-5 17h5l10 -4zM333 269l3 -3l4 3h7l-4 -13l-10 10v3zM361 269l3 -10l-3 -3h-3
l-5 10l5 3h3zM302 238v-3l-10 -10v3zM409 221h10v-10zM752 215h3l10 -4v-7l-3 4h-4l-3 -4h-3v11zM268 180h7l-3 -10h-7zM316 136h4l3 -17h-3l-10 47l-5 -13l-6 7v6zM426 132h6v-3l-10 -10v3zM734 122l3 -3l-6 -7h6l5 17zM278 163h14l3 -10h-10l-7 7v3zM406 122h6l7 -7l-3 -3
l-10 3v7zM272 156v-3l-7 -8v4zM364 112l4 -3l3 3h7v-3l-7 -8l-7 8v3zM333 109h10l-7 -8l-3 4v4zM422 109v-11l-6 -7q0 10 -7 10v4zM779 109v-11h-4l-6 7zM800 109h3v-11l-3 -4h6v-6q-10 0 -10 10l-3 -4h-3l-8 7q18 0 18 8zM35 142l7 -7v-3l-7 7v3zM748 101h4l6 -7h-3z
M310 139l6 -48v-3l-6 41v10zM762 98h3l10 -4v-6h-3zM406 94v-3l-8 -7l-10 4v3zM374 88h10v-7h-3zM340 77h7l3 -10h-7zM416 77h6q0 -10 10 -10v-17l-16 -4h-4v7l-3 -3h-3l-5 3v-3l5 -4h-5l-6 7l3 4v4l3 -4h8l-3 4v6h6q0 -10 7 -10l-3 17v3zM467 64l3 3h4q6 0 6 -10h4v10l-4 4
v3zM22 112h10v-7l-10 3v4zM305 108l11 -44v-3l-6 33h-5l5 3l-5 4v7zM333 64h3q7 0 7 -11l-3 -10l3 -3q-10 0 -10 -7l3 -4v-3h-16l6 10l-6 7h6l-10 14h4l13 -11h3zM347 64h3l3 -11h-6v11zM299 101h3q0 -10 14 -51v-4l-6 41q1 -13 10 -54v-4l-10 41l-5 4v3l5 4l-18 -7v-7l-4 3
h-3v-3h3l-3 -14h-3l-4 4h-3q10 27 20 27v3l-3 4v3zM391 61v-4l-7 -7v3zM-36 77h13l-6 -7h-7v7zM340 36l21 -7v-3h-8l-17 3l4 4v3zM247 70l-3 -3v-3h3l10 3v3h-10zM-13 67l11 -3v-4h-11v7zM295 64h10l-6 -7l-4 3v4zM662 16h4v-3l-4 -11h-10q5 14 10 14zM-57 46v-3l-4 -14h-3
l-3 10zM742 -19l3 -3v31h-11l3 -4v-6h-6q0 10 -7 10l-3 -4h-4l-23 11v-38h10l3 38h3zM-26 5h7l6 -6h-13v6zM553 -22v-4l-8 -6v3zM209 -42h5q0 -10 6 -10q0 10 7 10v-7l-10 -10l-8 7v10zM384 -49h4v-6h-10zM295 -52h4l6 -7l-3 -3h-7v10zM470 -52h4v-10h-7zM347 -62h6l-3 -11
h-3v11zM278 -66l10 -4v-6h-10v10zM358 -76h3v-7h-11zM457 -76h3v-10l-3 -4h-3v4zM439 -83l10 -3v-4l-17 -13l-3 3v-7h-3v14q13 0 13 10zM161 -86l11 -4v-7h-3l-8 7v4zM412 -100v-3l-6 -7l-5 3v4zM618 -100v-3l-7 -7v3zM131 -107v-3l3 3h7v-7h-17zM265 -138l17 -3v-4h-7l3 -3
v-3l-3 -4h-7l4 4v3l-18 -7l-3 4v3q14 2 14 10zM282 -189l10 -4v-3l-14 -3zM100 -214h3l-7 -6h-3zM4 -217v-10l-10 -4l-20 7v4zM118 -217l6 -7v-3l-6 7v3zM-39 -234q0 -20 13 -20h7v-8h-20v-6h3l3 3h4v-10q-17 0 -45 -17h-10l-13 3l-12 -3v10l-6 -7l3 -10h-3l-4 -4h-3
q0 18 -7 18h-10q16 23 24 23l10 -3q5 14 11 14l13 -3zM90 -237h10l-7 -7h-3v7z" />
    <glyph glyph-name="o" unicode="o" horiz-adv-x="796" 
d="M420 1314h-6v3h10q0 -15 15 -15l3 3v-3l3 3h3l13 -9q0 9 12 9l6 -6l3 3h3l22 -12l3 3q0 -6 25 -13l6 7l31 -22l3 3l9 -9l3 3h3v-6l3 3h4l18 -19l3 3h3q0 -9 16 -9q0 -14 31 -34v9h6l-3 -9l3 -9l-3 -3q29 -20 46 -62l-3 -3q5 0 15 -31h3v-9l-3 -3v-3h7l-4 -4q0 -9 10 -9
l-3 -3v-3l6 -6v-3l-3 -3l3 -3v-16l-3 -3l9 -25l-3 -3h3l-3 -3v-6l3 -3l-3 -3v-3l3 -3l-3 -3v-4l3 -3l-3 -3v-3l3 -9h-3l6 -28l-3 -3v-3l3 -12l-3 -4h-3l3 -3v-52l-3 -3l3 -3v-16l-3 -3l3 -9l-3 -31l3 -3v-3l-3 -13v-9l3 -3l-3 -9l3 -19l-3 -18h3l-3 -3v-3l3 -3l-3 -4v-15
l3 -12l-3 -13v-12l3 -3l-3 -3v-6l3 -16h-3l3 -3v-3l-6 -9l6 -31l-6 -13l3 -3v-52l3 -13l-3 -12v-6l9 -12v-4l-3 4h-3v-4l6 -9l-9 -6l3 -3l-3 -15l3 -4l-3 -3v-6l3 -3l-3 -3v-3l3 -3l-3 -3v-6q1 -16 6 -16l-3 -3v-15l3 3h3v-7q-9 0 -9 -15v-6l3 -3q-4 -19 -9 -19l3 -3v-3
l-3 -3l3 -3v-16l-3 -3v-3h3l-28 -86l-12 -3l-3 3h-4l-9 -3q0 9 -15 9v6h-3v-6q9 -2 31 -31q9 0 9 -6q-15 -38 -40 -62l-25 -31l12 6l19 -6l3 3v-3l3 3h9l3 -3l25 6l43 -9v3q14 -6 16 -12v-6l-16 -3l-3 3v-3l3 -4v-3q-9 0 -27 -24q-10 0 -10 -12l-3 -3h-6v6h-3q0 -9 -6 -9
l-10 9v-6h-21q-9 0 -37 18l-16 6l-3 -3v-3l3 -3l-3 -3h-3q0 12 -15 12v3l-16 -6v3l-3 -3h-3q-6 0 -6 9h-3v-6h-3l-19 15l3 3v7l-15 3l-25 -6h-6l-9 6l-7 -6l-3 12h-3v-6l-12 6l-3 -3h-3l-28 3l-9 -3l-3 3v3l-3 -3h-4l-3 3l-3 -3h-3q-15 4 -15 12h-6q-7 0 -7 -9h-9
q0 12 -12 12l3 3v7l-9 9v-3l3 -3l-28 6l-12 -6l6 -13l-6 -6h-4v9q-9 -3 -9 -18l-21 25q-3 -16 -10 -16l-9 6h-19v7q10 0 10 6v3h-10q-6 -7 -34 -9q0 5 -27 9v3l3 3h-3l-3 -3l-3 15l6 7l-6 6v-3l-4 3h-3l-9 -3l-3 9l-6 -6l-3 3h-3l-22 -6v21h-3l-12 -34h-10l-3 3h-3v-6h-3
l-9 13h6l3 -4h3v4l-6 6l9 9l-3 3v3l3 3v6h-3v-6h-12l-16 -3v22l-6 6v-3l3 -9l-3 -16l3 -9l-9 -3v6h-3v-6l3 -3l-34 -6l-6 9v3h3l3 -3l3 3h3l9 -6v3l-9 9l-3 -3v6q10 0 22 22h-6v3l-4 -3h-12v9q27 3 34 9h6v-3l-3 -3v-3h3v3l3 -3h3l10 3q21 0 21 -12h6q-18 44 -34 114l4 3v3
l-7 31h3l-6 16h3l-3 3q0 16 16 24q25 9 37 19l3 -3h3l25 18q13 10 28 10l18 -3l19 27l-4 3h-3q-10 -15 -46 -15q-16 -25 -43 -25h-16q0 -11 -43 -15l-9 12l3 3v53l3 3l-3 3v37l-3 9l3 16v55l3 16l-3 3h3l-3 3v56l3 18l-3 16v6l3 3v3h-3l3 3v3l-3 3l3 16v9l-3 18l3 13h-3
l6 12l-3 3v59l-3 12l3 13l-3 3h3l-3 3v9l3 3l-3 3v59l-3 15l6 56h-3q5 83 56 176q6 0 52 53l12 12l44 28q40 19 99 37v3h21l3 3l3 -3l31 6l3 -3v6l3 -3h3v3l4 -3h3l3 3l3 -3h6l9 6h3l-3 -3v-3h3l3 3v9zM488 1314l10 -3l-7 -6v3l-3 -3h-3l-9 3v3zM405 1120l-6 -6v-3h9v9h-3z
M371 1107l-12 4q-22 -8 -22 -13v-3l3 -3v-3h-3l-15 3l-3 -3v-3l3 -3v-3q-10 0 -10 -10h-6v-3q6 -15 13 -15v-6h-7l7 -10q-10 0 -10 -6h-3q0 9 -6 9h-3v-9h6v-3h-6l3 -3v-3l-12 -3l3 -3v-3l-3 -3v-3l3 -4l-10 -6l4 -3v-6l-4 -3v-3l4 3h3l9 -6q0 12 9 12l9 -9q0 12 7 12v-6
q0 -9 -13 -9l6 -10l-3 -3h10l-3 -15q-19 0 -19 12h-3q0 -6 -16 -6v-6l4 3h6q0 -6 -10 -6v-3l7 -10l-3 -3l3 -3h12l-3 3v3l6 7l9 -3v-10l-9 6l6 -18l-6 -12h6v6h3l3 -10l-15 -3l3 -3v-3q-3 -11 -25 -34h3l4 3l3 -3l-7 -15l4 3h6l-13 -16v-6h7l-7 -24l3 -10l-3 -3h3l-3 -3v-12
l7 -13l-7 -12l3 -12l-3 -3v-4h3l-3 -3v-6l3 -12l-3 -9h7v-10h-4v7h-3v-7h3l-3 -3v-3l3 -3v-3l-3 -3h7l-4 -25l4 -9l-4 3h-3v-3l3 -16l-3 -3h7v-9h-7v-9l7 -9h-7v-22l3 -15h-3l3 -4v-3l-6 -15l3 -3h-3l3 -9l-6 -10l6 -21l-6 -28l3 3h6l-3 -16v-6l7 -6l-4 -25l4 -3v-3l-4 -12
l4 -12l-4 -10l7 -15l-3 -13l6 -18h-3q7 -61 15 -74l-3 -3l6 -6l-3 -4l19 -40l21 -18l31 -13v3l12 -6l4 3h12l3 -3q99 15 99 40q11 0 18 53q5 0 13 43h3l3 -3h3v3l-3 19l3 3v3q0 9 -9 9l3 3q-13 24 -16 50h-3l3 3v3l-3 15l3 22l-3 9l-3 -3h-6v9q15 0 15 10h-6v3l3 21l-3 3v4
l3 12v6q-9 0 -9 6q9 2 9 25v28l-3 3v3l6 6v16l-3 3v3h3l-3 3v12l3 3l-3 3v3l7 31l-4 25l4 37l-4 3h4l-4 3v3l4 3l-4 4v3l4 3l-4 3l4 12l-4 9l4 16l-4 3v3l4 3l-4 16v9l4 3l-4 3v3l4 3l-4 16v3l4 3l-4 3v3l4 3l-4 3v3l4 3v4h-7l7 12l-4 18l4 13l-4 28v15l-3 3v3h3
q0 43 -18 43v4q9 0 9 9l-6 6l3 3l-3 3l3 3h3q-8 25 -15 25l6 12q-9 0 -16 22q-22 15 -30 15l-7 -6h-18q0 13 -9 13l-3 -4v-3l-16 3h-3v-3q0 -6 9 -6l-3 -9l-15 9l3 3v6q-13 0 -13 7zM352 1104q0 -6 -9 -6h-3v3zM368 1104l6 -6l-9 -9v-3h-6q3 18 9 18zM467 1092h6v-9h-3z
M343 1089h13v-6h-13v6zM445 1089l13 -12h-4l-9 9v3zM414 1083h3l-3 -3v-3h10l-4 -4v-3l-3 3h-3l-9 -3l-3 3v-3l3 -3l-3 -3h-3v16zM346 1073h13v-12h-3q0 9 -10 9v3zM454 1073h4q4 0 9 -12h-13v12zM439 1070h6l3 -12l-3 -3l-3 3h-3l-3 -3h-3l-3 3v3q9 0 9 9zM325 1064h3l3 -3
h3l-3 -9h-3zM303 1052v-9h6v9h-6zM356 1055h3l6 -6l-3 -3v-3l6 -7h-6v-6l3 3h6l-22 -21h-6l16 24v3h-10l-3 -3h-3l-3 3v4q16 0 16 12zM377 1055v-3l-9 -9v3zM461 1049h3l3 -10l-16 -6v6zM501 1049l9 -10l-3 -12h-3zM322 1036h6q0 -9 -22 -12zM383 1033v-3l-9 -9h-9
q6 12 18 12zM488 1030h7l-4 -9h-3v9zM312 1015v-6h3l10 3l6 -10v-3l-3 3l-3 -3h-6q0 7 -10 7l-3 3v3l3 3h3zM371 1015v-3l3 3h6v-3l-6 -6l-12 3v3zM331 1012h3q15 -11 15 -22h-9q0 16 -9 16v6zM473 1009l6 -7l-3 -3h-3v10zM390 1006v-4l-4 -9l-6 6zM371 1002q6 0 6 -9v-3h-3
zM337 984h3l-3 -9h-6v3zM377 984l6 -6v-3l-12 -3v6zM470 981h6v-16h-12v3l9 4l-3 3v6zM322 959q12 -4 12 -9l-12 -3l3 3l-3 3v6zM464 959l3 -3h3l3 3v-3l-6 -6v3l-3 -3h-6v3zM352 956h7v-3l-7 -6v9zM306 947h9l-6 -6h-3v6zM396 941v-3q0 -7 -10 -7l4 -3v-6l-10 3v3
q2 7 16 13zM405 941h9v-7h-3zM334 938l-3 -4l-6 -6l-10 3v3zM346 934h3v-6h-9zM291 925q0 -12 -13 -12v-3l7 -6h9l3 12l-6 6l3 3h-3zM402 928h3l6 -6v-3zM312 922h7l3 -3h3l-3 -9l-10 3v9zM340 922h16v-3l-10 -9l-6 6v6zM359 913h3l-13 -13v4zM328 907v-10h-6v3zM278 900v-6
h10l-7 6h-3zM306 897l9 -9h-3l-6 6v3zM359 897h3l6 -15l-3 -3h-6l3 3l-3 3v12zM399 882h3l6 -6h-9v6zM331 879h12v-3l-6 -6h-3zM294 870h9l-6 -7l-3 4v3zM340 863h3v-9h-12v6h3l3 -3h3v6zM371 863h9v-3h-6l3 -15l-9 9zM322 857l3 -3v-3h-10zM352 851l10 -9h-6v-3h12v-6
l-12 -4l3 -3v-6h-3l-7 6h3l-3 13h-6v-6h-6v12l3 -3h3zM306 845h6l3 -3h4l3 3l3 -3v-6h-6v-3h6v-4h-13l3 4v3zM368 826l9 -9l-3 -3h-6v12zM346 820v-6l3 3h3l22 -9l-6 -6l-6 6q-10 0 -10 -9l-6 6l3 3l-12 3v6zM359 799h6l6 -7v-3h-9l-10 3zM380 792h6q0 -12 7 -12v-3h-10z
M393 792l9 -3v-3h-9v6zM374 746h9v-9zM288 700h6l3 -10h-3l-6 7v3zM349 690q0 -12 10 -12l3 3v-6h-6v-3q-10 0 -10 12h-6v3zM386 690h7v-3l-7 -6v9zM291 672l3 -3h3l3 3h3l16 -3v-6h-4l-3 3h-3q0 -10 -6 -10h-3l3 4v6l-3 -3h-3l-6 6v3zM291 650h3l9 -3v-3h-9l-3 3v3z
M334 647h15l7 -6h-22v6zM349 619l3 -3v-3h-15v3zM285 604h3l6 -6h-9v6zM312 499h7l-7 -6h-6zM470 465h3v-6h-9zM34 351v-7h-6v-6l3 -3v-3h-12l-6 6zM7 323v-6h-10v3zM510 261l9 -3v-3h-15zM1060 224h9q0 -7 9 -12q-6 -14 -12 -16l-18 3h-4v-6l-12 6q0 9 31 16l-3 3v6z
M1004 199q23 0 25 -9l-3 -3v-3l-16 6v-6h-3l-3 3h-3zM689 184h3l6 6h-3zM1112 190h7l6 -6l-19 -6l-3 3v3zM1097 184h3v-9h-3l-9 3l-3 -3l-4 3v3zM1128 184h12v-3h-12v3zM-49 165h10q0 -9 9 -9v-6h6q0 9 6 9h6l12 -15l-30 -10v3l3 10l-3 -3h-3l-3 3h-3l-10 -3v3l-3 3h-3v3z
M992 156l6 -6v-6h-6v-3l-3 3h-3l-16 -3v3zM266 150v-6l6 -10q-28 -4 -28 -15q-9 0 -9 12h-6v-3l6 -9l-3 -3q15 0 15 -6v-6q-21 0 -21 15q-6 0 -6 -12h-7v9l4 15h-4l-3 -3h-3l3 -15q0 -6 -15 -6v-3l3 -4v-3l3 3h16l3 -3l15 7v-4l9 -3q0 -9 7 -9v6h6q6 0 6 -9l3 3l15 -3h25
l6 6v6l-9 -6h-3l-6 6l12 3l-3 4v9l3 3v3h-28v6h-3l6 12zM288 137l6 -6h9v3l-6 7zM-39 141q0 -7 -10 -7h-3v3zM136 134v-3h13l6 6h-3zM186 131v-9h6l6 6l-3 3v3zM130 104l3 -4v-6h-3l-3 3h-3v-6h-3l-6 6zM300 76v-3h15v6zM322 76h9l6 -10l-3 -3h-3q0 10 -9 10v3zM232 70h6
l6 -7h-6zM414 63v-3l22 -3l6 9h-6zM340 54h3l6 -6h-9v6zM254 42l46 -16v-3l46 -3l19 9l3 -3h3l3 3h3q34 -9 34 -24l37 9l19 -9l12 6l12 -9q-17 -12 -67 -18v-31l-4 -3l4 -4v-61h-4q-26 77 -34 80h-123v12l3 13q0 29 -49 42l-4 4v3zM637 23v-6h3l6 6h-9zM519 8h3
q0 -10 -24 -12v6zM742 2l9 -3v-3h-15zM770 -1h21q0 -18 22 -31l3 3q0 -9 21 -18v-7l-12 -3l-9 3v-6h-3v10h6v6l-16 3h-3l3 -3v-3l-6 -16q-7 6 -21 6v3h6v7l-9 9l-22 -9l-6 9l12 3v-3q19 4 19 9v13l-6 9v6zM856 -47l25 -34q-4 -22 -10 -22h-3v9l3 3v4h-3l-3 -4h-3l-3 16
l-15 -3l3 3v9h-10v6zM803 -57l7 -6v-6l-7 6v6zM813 -66q28 -4 28 -9l-16 -6q0 9 -12 9v6zM714 -72v-6l34 -13q-18 19 -34 19zM-141 -109l-3 -9l9 3zM-302 -112l3 -3v-6h-3l-3 3h-3v-7h6v-3q0 -5 -18 -9l-4 16zM-296 -128l3 -3v-3l3 3h7v-3l-7 -6l-12 3v3zM-280 -171h9v-6
l-9 3v3zM884 -193l9 -3l22 3q12 -3 12 -12l15 3l4 -9h15q15 -5 15 -16l16 4v-7h-34l-9 7l-19 -7q-15 4 -15 10v3l15 -3v3l-6 6l-3 -3h-3l-19 6h-6v-3h12v-3l-9 -3q-18 7 -18 12v6zM964 -239v-6l-12 -3v6zM992 -251l-3 -16h3l3 3l3 -3h9v3l-3 10l-9 -6v9h-3zM1103 -285v-6h16
l-7 6h-9zM1122 -301l6 -6l3 3v3h-9zM541 -322h3v-10l-3 -3h-3v3zM538 -399h6v-4l-6 -6v10zM952 -421h3l6 -6h-3zM454 -427l10 -3v-3l-10 -10l-6 6z" />
    <glyph glyph-name="p" unicode="p" horiz-adv-x="709" 
d="M572 1330h208v-10q0 -8 -25 -8v-3l-4 3l-18 -3h-32l-32 -4l-4 4h-3q-29 -2 -29 -7l-3 3h-4l-4 -3h-3l-11 3v-7l-21 7q0 -10 -7 -10h-4v7h-11v-4h7q0 -18 18 -18l-3 -3q1 -15 10 -15l-3 -3v-7q19 -15 39 -68q47 -72 47 -125l3 -11l-3 -14l3 -11l-3 -11h3l-7 -46l4 -4v-3
l-4 -15v-14h-7l3 -3v-11q-7 -8 -7 -25l-7 -7l4 -4q-6 -32 -18 -32l3 -4v-3h-10v-4h14l-4 -18l-10 8l-4 -4v-4q11 0 11 -7l-4 -10h-7q0 14 -11 14h-3q0 -7 11 -7v-7l-11 -15l11 -3l-4 -4v-11h7v8h4v-8l-4 -10l-14 7v-4l3 -10h-3l3 -4v-7l-10 3l3 4v4h-3l-11 -4l7 -11l4 4h7
v-4l-14 -18h3l-3 -3v-4l3 -11h-3l-15 4l-10 -4l-4 4l-4 -14h8q7 0 7 10h7v-7l3 4h4v-7q-11 0 -11 -11q-10 0 -10 -7l-4 3l-4 -3h-3l-4 3h-3v-14q10 0 10 -7v-11h-3l-4 4l-21 -7v7h-4l-10 -4v-3l21 -4v-3q-14 -2 -14 -11v-4l3 -3v-4h-7v7h-3v-7l3 -3l-11 -8l-3 11h-4v-7h-3
l3 -4v-3q-30 -29 -103 -43l-15 -4h-68l-3 -3h-4l-3 3v-3l-4 3h-3l-18 -3l-4 3v-7h-3l-4 4h-4l-3 -4v-3l-25 7q-4 -31 -14 -43l7 -7q-6 0 -15 -25l4 -4v-3l-4 -18l4 -4l-4 -18v-25l-3 -3l3 -4v-18q0 -18 -7 -18l4 -3v-18l-4 -18l4 -3h-4l4 -4v-7l-7 -97l7 -7l-7 -7v-50l3 -3
v-4l-3 -4h-4l4 -3v-57l-4 -15l4 -14l-4 -11h4l-7 -28l3 -4v-3l-3 -11h-11l-15 -3l-14 7l-3 -4l-83 8l-3 -4h-4l-21 7l3 10h-3q-14 0 -14 18l3 11l-3 14l3 4v3l-7 18l4 4v57l3 4l-3 3v39l-4 4l4 4v7l-4 3l4 4v7l-4 4l4 3v25l-4 4l7 18l-3 3v4l3 3v4l-3 11h3l-3 3v22l3 3l-3 4
v7l3 14l-3 11l3 3h-3l3 4v47l4 3l-4 4v10l4 4l-4 4q0 45 18 85l-4 4q3 21 8 21l-4 4v3l7 33l-3 10l3 11l-3 21v4l3 4l-7 35l7 61l-3 4v3q28 86 28 165l-3 3l3 4h4l-4 3v18l4 4v3h-4l7 32l-3 18v32l-18 122l3 14h-3l3 11l-7 14h7v11h-7l7 29h-3l21 75l-3 17v11l321 4h75l4 -4
h3l4 4q0 -11 18 -11q0 14 46 14zM265 1137q4 -42 11 -42l-4 -4v-4l15 -85l-4 -11h4l-4 -4v-25l4 -3l-8 -32l4 -4v-4l-4 -3v-4l4 -14h-4l4 -4v-17l-4 -4v-4h4l-4 -3v-14l4 -4l-4 -4v-28l-3 -22l3 -3v-4l-3 -10l3 -4l-3 -4l3 -3l-3 -4h-4q0 -21 32 -21l43 -4v4l4 -4h3l36 7
l4 -3h3q30 0 72 53q28 67 28 115l-3 14l3 4l-7 60l4 4q-4 42 -15 64h4q-16 56 -57 79l-72 18l-17 -4h-29l-21 4q-22 -5 -22 -15zM572 787v-3l11 -4v7h-11zM594 773v-7l18 -4v7l-7 8zM547 662v-3h8l3 3v4z" />
    <glyph glyph-name="q" unicode="q" horiz-adv-x="840" 
d="M429 1314h-6v3h10q0 -15 15 -15l3 3v-3l3 3h3l13 -9q0 9 12 9l6 -6l3 3h3l22 -12l3 3q0 -6 25 -13l6 7l31 -22l3 3l9 -9l3 3h3v-6l3 3h4l18 -19l3 3h3q0 -9 16 -9q0 -14 31 -34v9h6l-3 -9l3 -9l-3 -3q29 -20 46 -62l-3 -3q5 0 15 -31h3v-9l-3 -3v-3h7l-4 -4q0 -9 10 -9
l-3 -3v-3l6 -6v-3l-3 -3l3 -3v-16l-3 -3l9 -25l-3 -3h3l-3 -3v-6l3 -3l-3 -3v-3l3 -3l-3 -3v-4l3 -3l-3 -3v-3l3 -9h-3l6 -28l-3 -3v-3l3 -12l-3 -4h-3l3 -3v-52l-3 -3l3 -3v-16l-3 -3l3 -9l-3 -31l3 -3v-3l-3 -13v-9l3 -3l-3 -9l3 -19l-3 -18h3l-3 -3v-3l3 -3l-3 -4v-15
l3 -12l-3 -13v-12l3 -3l-3 -3v-6l3 -16h-3l3 -3v-3l-6 -9l6 -31l-6 -13l3 -3v-52l3 -13l-3 -12v-6l9 -12v-4l-3 4h-3v-4l6 -9l-9 -6l3 -3l-3 -15l3 -4l-3 -3v-6l3 -3l-3 -3v-3l3 -3l-3 -3v-6q1 -16 6 -16l-3 -3v-15l3 3h3v-7q-9 0 -9 -15v-6l3 -3q-4 -19 -9 -19l3 -3v-3
l-3 -3l3 -3v-16l-3 -3v-3h3l-28 -86l-12 -3l-3 3h-4l-9 -3q0 9 -15 9v6h-3v-6q9 -2 31 -31q9 0 9 -6q-15 -38 -40 -62l-25 -31l12 6l19 -6l3 3v-3l3 3h9l3 -3l25 6l43 -9v3q14 -6 16 -12v-6l-16 -3l-3 3v-3l3 -4v-3q-9 0 -27 -24q-10 0 -10 -12l-3 -3h-6v6h-3q0 -9 -6 -9
l-10 9v-6h-21q-9 0 -37 18l-16 6l-3 -3v-3l3 -3l-3 -3h-3q0 12 -15 12v3l-16 -6v3l-3 -3h-3q-6 0 -6 9h-3v-6h-3l-19 15l3 3v7l-15 3l-25 -6h-6l-9 6l-7 -6l-3 12h-3v-6l-12 6l-3 -3h-3l-28 3l-9 -3l-3 3v3l-3 -3h-4l-3 3l-3 -3h-3q-15 4 -15 12h-6q-7 0 -7 -9h-9
q0 12 -12 12l3 3v7l-9 9v-3l3 -3l-28 6l-12 -6l6 -13l-6 -6h-4v9q-9 -3 -9 -18l-21 25q-3 -16 -10 -16l-9 6h-19v7q10 0 10 6v3h-10q-6 -7 -34 -9q0 5 -27 9v3l3 3h-3l-3 -3l-3 15l6 7l-6 6v-3l-4 3h-3l-9 -3l-3 9l-6 -6l-3 3h-3l-22 -6v21h-3l-12 -34h-10l-3 3h-3v-6h-3
l-9 13h6l3 -4h3v4l-6 6l9 9l-3 3v3l3 3v6h-3v-6h-12l-16 -3v22l-6 6v-3l3 -9l-3 -16l3 -9l-9 -3v6h-3v-6l3 -3l-34 -6l-6 9v3h3l3 -3l3 3h3l9 -6v3l-9 9l-3 -3v6q10 0 22 22h-6v3l-4 -3h-12v9q27 3 34 9h6v-3l-3 -3v-3h3v3l3 -3h3l10 3q21 0 21 -12h6q-18 44 -34 114l4 3v3
l-7 31h3l-6 16h3l-3 3q0 16 16 24q25 9 37 19l3 -3h3l25 18q13 10 28 10l18 -3l19 27l-4 3h-3q-10 -15 -46 -15q-16 -25 -43 -25h-16q0 -11 -43 -15l-9 12l3 3v53l3 3l-3 3v37l-3 9l3 16v55l3 16l-3 3h3l-3 3v56l3 18l-3 16v6l3 3v3h-3l3 3v3l-3 3l3 16v9l-3 18l3 13h-3
l6 12l-3 3v59l-3 12l3 13l-3 3h3l-3 3v9l3 3l-3 3v59l-3 15l6 56h-3q5 83 56 176q6 0 52 53l12 12l44 28q40 19 99 37v3h21l3 3l3 -3l31 6l3 -3v6l3 -3h3v3l4 -3h3l3 3l3 -3h6l9 6h3l-3 -3v-3h3l3 3v9zM497 1314l10 -3l-7 -6v3l-3 -3h-3l-9 3v3zM414 1120l-6 -6v-3h9v9h-3z
M380 1107l-12 4q-22 -8 -22 -13v-3l3 -3v-3h-3l-15 3l-3 -3v-3l3 -3v-3q-10 0 -10 -10h-6v-3q6 -15 13 -15v-6h-7l7 -10q-10 0 -10 -6h-3q0 9 -6 9h-3v-9h6v-3h-6l3 -3v-3l-12 -3l3 -3v-3l-3 -3v-3l3 -4l-10 -6l4 -3v-6l-4 -3v-3l4 3h3l9 -6q0 12 9 12l9 -9q0 12 7 12v-6
q0 -9 -13 -9l6 -10l-3 -3h10l-3 -15q-19 0 -19 12h-3q0 -6 -16 -6v-6l4 3h6q0 -6 -10 -6v-3l7 -10l-3 -3l3 -3h12l-3 3v3l6 7l9 -3v-10l-9 6l6 -18l-6 -12h6v6h3l3 -10l-15 -3l3 -3v-3q-3 -11 -25 -34h3l4 3l3 -3l-7 -15l4 3h6l-13 -16v-6h7l-7 -24l3 -10l-3 -3h3l-3 -3v-12
l7 -13l-7 -12l3 -12l-3 -3v-4h3l-3 -3v-6l3 -12l-3 -9h7v-10h-4v7h-3v-7h3l-3 -3v-3l3 -3v-3l-3 -3h7l-4 -25l4 -9l-4 3h-3v-3l3 -16l-3 -3h7v-9h-7v-9l7 -9h-7v-22l3 -15h-3l3 -4v-3l-6 -15l3 -3h-3l3 -9l-6 -10l6 -21l-6 -28l3 3h6l-3 -16v-6l7 -6l-4 -25l4 -3v-3l-4 -12
l4 -12l-4 -10l7 -15l-3 -13l6 -18h-3q7 -61 15 -74l-3 -3l6 -6l-3 -4l19 -40l21 -18l31 -13v3l12 -6l4 3h12l3 -3q99 15 99 40q11 0 18 53q5 0 13 43h3l3 -3h3v3l-3 19l3 3v3q0 9 -9 9l3 3q-13 24 -16 50h-3l3 3v3l-3 15l3 22l-3 9l-3 -3h-6v9q15 0 15 10h-6v3l3 21l-3 3v4
l3 12v6q-9 0 -9 6q9 2 9 25v28l-3 3v3l6 6v16l-3 3v3h3l-3 3v12l3 3l-3 3v3l7 31l-4 25l4 37l-4 3h4l-4 3v3l4 3l-4 4v3l4 3l-4 3l4 12l-4 9l4 16l-4 3v3l4 3l-4 16v9l4 3l-4 3v3l4 3l-4 16v3l4 3l-4 3v3l4 3l-4 3v3l4 3v4h-7l7 12l-4 18l4 13l-4 28v15l-3 3v3h3
q0 43 -18 43v4q9 0 9 9l-6 6l3 3l-3 3l3 3h3q-8 25 -15 25l6 12q-9 0 -16 22q-22 15 -30 15l-7 -6h-18q0 13 -9 13l-3 -4v-3l-16 3h-3v-3q0 -6 9 -6l-3 -9l-15 9l3 3v6q-13 0 -13 7zM361 1104q0 -6 -9 -6h-3v3zM377 1104l6 -6l-9 -9v-3h-6q3 18 9 18zM476 1092h6v-9h-3z
M352 1089h13v-6h-13v6zM454 1089l13 -12h-4l-9 9v3zM423 1083h3l-3 -3v-3h10l-4 -4v-3l-3 3h-3l-9 -3l-3 3v-3l3 -3l-3 -3h-3v16zM355 1073h13v-12h-3q0 9 -10 9v3zM463 1073h4q4 0 9 -12h-13v12zM448 1070h6l3 -12l-3 -3l-3 3h-3l-3 -3h-3l-3 3v3q9 0 9 9zM334 1064h3l3 -3
h3l-3 -9h-3zM312 1052v-9h6v9h-6zM365 1055h3l6 -6l-3 -3v-3l6 -7h-6v-6l3 3h6l-22 -21h-6l16 24v3h-10l-3 -3h-3l-3 3v4q16 0 16 12zM386 1055v-3l-9 -9v3zM470 1049h3l3 -10l-16 -6v6zM510 1049l9 -10l-3 -12h-3zM331 1036h6q0 -9 -22 -12zM392 1033v-3l-9 -9h-9
q6 12 18 12zM497 1030h7l-4 -9h-3v9zM321 1015v-6h3l10 3l6 -10v-3l-3 3l-3 -3h-6q0 7 -10 7l-3 3v3l3 3h3zM380 1015v-3l3 3h6v-3l-6 -6l-12 3v3zM340 1012h3q15 -11 15 -22h-9q0 16 -9 16v6zM482 1009l6 -7l-3 -3h-3v10zM399 1006v-4l-4 -9l-6 6zM380 1002q6 0 6 -9v-3h-3
zM346 984h3l-3 -9h-6v3zM386 984l6 -6v-3l-12 -3v6zM479 981h6v-16h-12v3l9 4l-3 3v6zM331 959q12 -4 12 -9l-12 -3l3 3l-3 3v6zM473 959l3 -3h3l3 3v-3l-6 -6v3l-3 -3h-6v3zM361 956h7v-3l-7 -6v9zM315 947h9l-6 -6h-3v6zM405 941v-3q0 -7 -10 -7l4 -3v-6l-10 3v3
q2 7 16 13zM414 941h9v-7h-3zM343 938l-3 -4l-6 -6l-10 3v3zM355 934h3v-6h-9zM300 925q0 -12 -13 -12v-3l7 -6h9l3 12l-6 6l3 3h-3zM411 928h3l6 -6v-3zM321 922h7l3 -3h3l-3 -9l-10 3v9zM349 922h16v-3l-10 -9l-6 6v6zM368 913h3l-13 -13v4zM337 907v-10h-6v3zM287 900v-6
h10l-7 6h-3zM315 897l9 -9h-3l-6 6v3zM368 897h3l6 -15l-3 -3h-6l3 3l-3 3v12zM408 882h3l6 -6h-9v6zM340 879h12v-3l-6 -6h-3zM303 870h9l-6 -7l-3 4v3zM349 863h3v-9h-12v6h3l3 -3h3v6zM380 863h9v-3h-6l3 -15l-9 9zM331 857l3 -3v-3h-10zM361 851l10 -9h-6v-3h12v-6
l-12 -4l3 -3v-6h-3l-7 6h3l-3 13h-6v-6h-6v12l3 -3h3zM315 845h6l3 -3h4l3 3l3 -3v-6h-6v-3h6v-4h-13l3 4v3zM377 826l9 -9l-3 -3h-6v12zM355 820v-6l3 3h3l22 -9l-6 -6l-6 6q-10 0 -10 -9l-6 6l3 3l-12 3v6zM368 799h6l6 -7v-3h-9l-10 3zM389 792h6q0 -12 7 -12v-3h-10z
M402 792l9 -3v-3h-9v6zM383 746h9v-9zM297 700h6l3 -10h-3l-6 7v3zM358 690q0 -12 10 -12l3 3v-6h-6v-3q-10 0 -10 12h-6v3zM395 690h7v-3l-7 -6v9zM300 672l3 -3h3l3 3h3l16 -3v-6h-4l-3 3h-3q0 -10 -6 -10h-3l3 4v6l-3 -3h-3l-6 6v3zM300 650h3l9 -3v-3h-9l-3 3v3z
M343 647h15l7 -6h-22v6zM358 619l3 -3v-3h-15v3zM294 604h3l6 -6h-9v6zM321 499h7l-7 -6h-6zM479 465h3v-6h-9zM43 351v-7h-6v-6l3 -3v-3h-12l-6 6zM16 323v-6h-10v3zM519 261l9 -3v-3h-15zM1069 224h9q0 -7 9 -12q-6 -14 -12 -16l-18 3h-4v-6l-12 6q0 9 31 16l-3 3v6z
M1013 199q23 0 25 -9l-3 -3v-3l-16 6v-6h-3l-3 3h-3zM698 184h3l6 6h-3zM1121 190h7l6 -6l-19 -6l-3 3v3zM1106 184h3v-9h-3l-9 3l-3 -3l-4 3v3zM1137 184h12v-3h-12v3zM-40 165h10q0 -9 9 -9v-6h6q0 9 6 9h6l12 -15l-30 -10v3l3 10l-3 -3h-3l-3 3h-3l-10 -3v3l-3 3h-3v3z
M1001 156l6 -6v-6h-6v-3l-3 3h-3l-16 -3v3zM275 150v-6l6 -10q-28 -4 -28 -15q-9 0 -9 12h-6v-3l6 -9l-3 -3q15 0 15 -6v-6q-21 0 -21 15q-6 0 -6 -12h-7v9l4 15h-4l-3 -3h-3l3 -15q0 -6 -15 -6v-3l3 -4v-3l3 3h16l3 -3l15 7v-4l9 -3q0 -9 7 -9v6h6q6 0 6 -9l3 3l15 -3h25
l6 6v6l-9 -6h-3l-6 6l12 3l-3 4v9l3 3v3h-28v6h-3l6 12zM297 137l6 -6h9v3l-6 7zM-30 141q0 -7 -10 -7h-3v3zM145 134v-3h13l6 6h-3zM195 131v-9h6l6 6l-3 3v3zM139 104l3 -4v-6h-3l-3 3h-3v-6h-3l-6 6zM309 76v-3h15v6zM331 76h9l6 -10l-3 -3h-3q0 10 -9 10v3zM241 70h6
l6 -7h-6zM423 63v-3l22 -3l6 9h-6zM349 54h3l6 -6h-9v6zM263 42l46 -16v-3l46 -3l19 9l3 -3h3l3 3h3q34 -9 34 -24l37 9l19 -9l12 6l12 -9q-17 -12 -67 -18v-31l-4 -3l4 -4v-61h-4q-26 77 -34 80h-123v12l3 13q0 29 -49 42l-4 4v3zM646 23v-6h3l6 6h-9zM528 8h3
q0 -10 -24 -12v6zM751 2l9 -3v-3h-15zM779 -1h21q0 -18 22 -31l3 3q0 -9 21 -18v-7l-12 -3l-9 3v-6h-3v10h6v6l-16 3h-3l3 -3v-3l-6 -16q-7 6 -21 6v3h6v7l-9 9l-22 -9l-6 9l12 3v-3q19 4 19 9v13l-6 9v6zM865 -47l25 -34q-4 -22 -10 -22h-3v9l3 3v4h-3l-3 -4h-3l-3 16
l-15 -3l3 3v9h-10v6zM812 -57l7 -6v-6l-7 6v6zM822 -66q28 -4 28 -9l-16 -6q0 9 -12 9v6zM723 -72v-6l34 -13q-18 19 -34 19zM-132 -109l-3 -9l9 3zM893 -193l9 -3l22 3q12 -3 12 -12l15 3l4 -9h15q15 -5 15 -16l16 4v-7h-34l-9 7l-19 -7q-15 4 -15 10v3l15 -3v3l-6 6l-3 -3
h-3l-19 6h-6v-3h12v-3l-9 -3q-18 7 -18 12v6zM973 -239v-6l-12 -3v6zM1001 -251l-3 -16h3l3 3l3 -3h9v3l-3 10l-9 -6v9h-3zM1112 -285v-6h16l-7 6h-9zM1131 -301l6 -6l3 3v3h-9zM588 46q38 -14 169 -177q56 -22 128 38l22 5l9 -3l38 -116q-12 5 -78 -43q-18 6 -29 -23
l-121 6q-48 18 -153 165l-54 21q-33 12 -94 -58l-9 3q-27 23 -49 86l7 18q105 113 203 76z" />
    <glyph glyph-name="r" unicode="r" horiz-adv-x="996" 
d="M60 559l12 27l-9 10l1 10l21 26l-9 1l10 8l1 9l-7 29l10 -1l-9 10l72 363l-9 1l10 8l5 46l-5 48l10 8l9 -1l-5 47l12 27l-8 10l1 10l12 27l-9 10l10 8l10 -1l8 -10l2 19l-28 2l1 9q28 -2 32 44q2 21 485 -18l8 -10l1 9q245 -73 224 -302l8 -10l-1 -9q-21 -216 -247 -332
l5 -47l-2 -28l38 6q46 -5 43 -32l10 -1v9l-6 29l10 8l18 -2l-2 -27l18 -2q3 23 49 23l10 9l40 -79l-10 1l30 -87q38 9 44 71l46 -5l-90 -113l2 28l10 -1l-8 19l1 10l-29 -7l-1 -18l10 8l18 -2l-30 -25l-26 21l-47 -5l-9 11q-4 -47 -56 -154l-1 -9l147 -416l-1 -9l-168 6
l-26 12l-1 -9l-9 10l-37 4l-10 -9l-9 1q5 50 -32 59l2 19l10 8l1 10q-36 17 -63 127l12 27h-9q-19 2 -16 30q-27 14 -30 78q-33 46 -60 52l-37 -90l-10 -102l9 -10l-12 -27l5 -38l-10 -8l-1 -9l7 -29l-9 1l8 -10l-5 -55l-278 26l-7 29l10 8l1 9l-6 38l10 -1l-9 10l3 28l10 8
l-12 67l10 8l3 28l-7 29l14 45l4 46l-8 11l1 9l9 -1q-9 117 -35 125l-40 -24l-54 23l-18 2l-2 -18l-28 2l2 19l-9 1l-2 -28l-83 17l-29 -6l-109 29l-38 -6l-44 23l-1 -9l-27 12q-57 -4 -59 -23zM434 1155l-31 -231l-10 -8q6 -38 61 -44q135 -12 188 104q16 167 -142 182z
M348 639l4 -56l30 25l9 -10l27 -3l2 19l-33 40l-10 1z" />
    <glyph glyph-name="s" unicode="s" horiz-adv-x="759" 
d="M388 1363h73v-17h7v17q34 -4 34 -25l6 8h7q33 0 33 -16l7 8h7l53 -50l7 9h7q32 -66 60 -66l-7 -9q37 -52 54 -132h7v-8l-14 -25l-6 9h-14l-20 -17l-7 8q-33 -8 -33 -33h-7v17h-6l-21 -8l-6 8v-17h-20v9h13v8h-20l7 8v8l-34 17l7 8v8q-42 71 -94 91v-8l-67 25v-17h-40v17
h-7v-9l7 -24h-7q-25 -42 -47 -42v-8h27l-20 -74q17 0 47 -74h7v-17l-27 8l7 9v8l-21 -8v-9l7 -8v-8l-47 16l-6 -8l-21 25v8h-6l-20 -16h-7l7 8v8h-7l-7 -8h-6v16h-7l-20 -16q-20 0 -20 41h-7l-7 -8h-6v58h-14q9 41 20 41l7 -8h7l13 16v8h-13l-20 -8l6 50q34 0 34 -50h13
q-9 38 -27 41l7 9v16h-7v-16h-13v24q0 17 27 17v16h-14l27 50l54 41l20 -8h7v8h-14v17q20 0 20 16h7l7 -8h6q0 16 20 16l21 -8l6 8l14 -16h6q0 25 14 25zM388 1330v-9l33 -16l-7 25h-26zM636 1156v-8h13l7 8v9zM703 1107l13 -17l7 9v16zM307 967h7l13 16h-6zM93 859h13
l41 -33l6 9h61l33 -9v9l20 -17l7 8h7l154 -49q55 -27 113 -99q15 0 94 -116l14 -16l-7 -9v-8l13 -25v-16l-6 -8v-9h13v-8l-7 -8l14 -33q-16 -145 -61 -223q0 -20 -53 -66q0 -20 -27 -25l-7 9l-20 -25h-13l-7 8h-7q0 -32 -26 -32l-20 8q0 -14 -47 -25l-7 8l-7 -8v17l-40 -25
l-13 16l-7 -8l-7 8h-13l-7 -8q-117 46 -181 132v-17h-6q0 43 -54 149h-7v8l7 8l-20 25v8q0 35 154 66l7 8l6 -8l7 8q0 -16 20 -16l7 -8v-9l-7 -24l20 -25l-6 -8v-9q51 -107 134 -107q37 0 113 58l-6 8v17l6 8v8h-6l13 74q-20 116 -67 116v16l-7 -8h-6q0 33 -47 33
q0 24 -114 83l7 8v8l-54 25l-7 8q-11 25 -40 25q0 33 -27 33l-46 91zM281 249v-9l6 -8h14v8zM348 207v-16l20 8v8h-20z" />
    <glyph glyph-name="t" unicode="t" horiz-adv-x="682" 
d="M171 1425l8 -10l63 4l174 -14l69 -14l72 3l131 -10l-8 -105q-9 -114 -36 -112l-122 9l-45 -4l-24 -193l-1 -8l-11 -35l5 -35l-1 -17q-38 -39 -42 -85l8 -10l9 -1q5 53 22 52q-1 -35 15 -37l-10 -8l-10 -131l-9 9l-26 -7l-2 -17q40 -3 76 -42l-9 -7l-1 -9q-2 -27 34 -30
l-1 -8l-10 -8l9 -10l-9 -104l2 -80l-9 -8l10 17l-13 -162l2 -88l-28 -16l-61 5l-43 13l-1 -9l-7 9l-9 1l-10 -8l-43 12l-61 5l-5 53l11 26l-8 10l1 8l11 35l-3 66h9l-9 9l2 17l9 8l1 9l-9 1l10 8v8l-8 10l1 9l7 -28l-9 1l9 7l-4 63l1 9l10 8l-9 9l1 9l13 43l-7 27l9 -1
l-13 63l13 52l3 35q-27 2 -26 19l19 17l16 -29l36 7l-17 19l-9 -8l-49 39v9l-27 2q-3 -44 -47 -41q-2 -26 -28 -23l-25 10l8 8l3 27l-8 8l9 9l2 27l-17 1q-2 -27 -28 -25l-2 -26l-49 57l-34 3q-4 -53 -39 -50l-20 -16h-8l-9 10l-8 1l-1 -18h-9l-16 20l17 -2l1 9l-7 10v8
l11 26l-8 10h-9l-9 -8l-9 1l8 -10l-2 -26l-36 -6l1 9l10 7q-7 37 -34 39l2 17l9 -1l25 -19l17 -1l-8 9q26 60 41 58l-29 91q3 35 56 31l10 34q102 -55 98 -105l35 -3q5 35 63 30l2 18l43 -12q5 34 20 33l-8 10l1 9l19 122l-9 9l1 8l12 36l-34 10l-1 -8l-8 9l-97 8l-9 -8
q-35 16 -33 29v9l10 8l-8 9l17 105l5 61zM215 867l-1 -9l17 -20l18 17l1 9l-17 1l-10 -8zM316 699l-11 -25l9 -1q36 10 37 23z" />
    <glyph glyph-name="u" unicode="u" horiz-adv-x="769" 
d="M563 1312l36 -8h80l36 8l7 -35l-7 -9l14 -72l-7 -9h-7l7 -9v-9l-7 -8v-9l7 -27h-7l7 -9v-18l-7 -9l7 -9v-9l-7 -27l14 -18l-14 -44l7 -27l-7 -9h14l-14 -45l7 -9h-7l14 -71h-14l14 -81l-14 -35l7 -9h7l-7 -9v-9l7 -36l-14 -36l7 -27h-7l14 -26l-7 -27l7 -36l-7 -27h7
l-7 -9v-27l7 -35l-7 -36v-18l7 -9v-9h-14v-9q0 -144 -80 -205q0 -18 -22 -18q0 -27 -21 -27q-68 -71 -196 -71v9l-8 -9h-36q-36 0 -36 26h-7v-17l-117 35v9l15 27q-65 0 -94 62q-23 71 -44 90l7 9v36h-14v9l7 8l-22 143l8 36l-8 63l8 36l-8 89l8 9h-15l15 80l-15 27l7 9v54
l-7 36l7 35v27l-7 36l7 36v26l-7 36l7 36v27l-7 9l15 71l-8 9h8l-8 9l8 45v27h130l7 9q29 -5 29 -27l8 9h7l7 -9v-9l-7 -45l-7 9h-8v-9l15 -27v-161l7 -53l-7 -36l7 -80h-7l7 -9v-9l-7 -9v-9l7 -27l-14 -27q14 -35 14 -98l-7 -9l7 -9v-27l-7 -9l7 -9v-9l-7 -27l7 -44v-54
l-7 -9l7 -9v-62l-7 -36l14 -36l-7 -36q20 0 29 -53q43 -36 124 -54v27h7v-18h36q65 38 65 81q29 12 29 80v54l-7 80l7 27l-7 27h7l-7 9v9l7 62l-7 9h-7l7 9v54l-7 9l7 9v8l-7 9l7 9v81l-7 9l7 9v71h-14v9h14v45l-7 9l7 9l-7 35l7 72l-7 9v9l14 188l-7 9h15l7 -9h7l8 9v8z
M69 410v-9l15 -18h14v18l-7 9v9zM84 267v-9h14l7 9v9z" />
    <glyph glyph-name="v" unicode="v" horiz-adv-x="787" 
d="M47 1338l3 -4h3l4 4l3 -4h6l16 4v-4l3 4h3l3 -4l4 4l53 -7l4 3v-3l3 3h3l22 -3v3l3 -3h70l3 -3l3 3h4q12 0 22 -69h-3l9 -26h-3l6 -16l-3 -3h3l-3 -3l10 -35l-4 -3v-3l7 -10l-3 -3l9 -22l-3 -3v-3l16 -73l-3 -3q8 0 19 -86h-4q12 -34 35 -165l3 -3l4 -13l-4 -3l19 -82
l-3 -10l13 -34h-3l3 -4v-3l-3 -3v-3q12 -26 12 -48h-3l13 -50h-3l9 -35h3l35 152l-3 3v3l35 149h-3l22 86h-3l16 60v3h-3l15 57l-3 3l35 155h-3l25 111l-3 4l3 3l-3 3h10l-4 3v10h54l19 -4l3 4h4l15 -4l10 4v-4l3 4l38 -7l3 3h7l22 -3v3l3 -3h3l3 3l3 -3h23v-6
q-16 -110 -35 -149l3 -3l-22 -98h3l-35 -172h3l-19 -57h3l-38 -167h4l-19 -73h3l-29 -102l3 -3q-5 -35 -12 -41l3 -3v-3q-13 -34 -25 -111l3 -3v-4q-8 -19 -13 -19h-13q0 10 -6 10h-6v-6h-10l-9 6q0 -10 -10 -10v-6l13 -3l13 3l3 -3v-3q-26 -5 -26 -10q-8 1 -12 16l3 3h-6
l-35 -19q0 -9 -32 -12l-3 3v3l3 3v3h-3l-3 -3l-4 3h-6l-13 -9v3q-12 -3 -25 -16l-22 10q-60 -3 -60 -16h-10l-6 6l-35 -9q-6 22 -16 22l3 9l-41 187l-28 133h-3l3 3l-29 130h3l-31 143h3q-13 41 -22 108l-4 3h4l-19 66l3 3v4l-16 66l3 3h-6v19l-13 48l3 3v6q-8 11 -12 48
l-7 13l3 3l-3 3l3 3l-3 3h-3l3 3v4l-3 3v3l3 9h-6v16l-3 22h6v4zM683 277l4 -19l-4 3h-3l-9 -3l-3 3h-4l-12 -3l-10 3v3q0 7 41 13zM778 277h19q0 -5 -12 -10l-7 7v3zM633 267q0 -6 9 -6v-6l-9 6l-3 -3h-13v6zM607 248q23 -3 23 -9q-22 -54 -26 -92h-3l3 -3v-3l-6 -10l3 -3
v-3l-6 -7l3 -3v-3q-6 -6 -13 -44l3 -3l-3 -4h-3l3 -3v-3l-6 -9l3 -4l-16 -50l3 -9q0 -11 -142 -48h-16q-32 0 -76 38l3 16v12l-3 19l3 3v4l-6 34l3 4v3l-6 41h3l-7 41l4 3q-8 0 -10 16l3 -3h3q0 10 16 22h22l4 -3h3q2 10 19 16l19 -6h9l3 3l26 -7q0 9 25 16v3l3 -3h3l51 10
l13 -3v6h13l3 -3q35 9 35 16q0 4 12 9l3 3v3zM47 210h10q0 -7 9 -12q-6 -15 -12 -16l-19 3h-4v-6l-12 6q0 9 31 16l-3 3v6zM-10 185q24 0 26 -9l-4 -4v-3l-15 7v-7h-4l-3 3h-3zM101 176h6l7 -7l-19 -6l-3 3v3zM85 169h3v-9h-3l-9 3l-3 -3l-4 3v3zM117 169h13v-3h-13v3z
M250 134v-9l3 -3l-3 -4v-79l-3 -3l3 -3v-38q12 13 25 104h-3l6 32l-6 10l3 3v12l-16 4q-9 -2 -9 -26zM157 141l7 -7v-6h-7v-3l-3 3h-3l-16 -3v3zM810 61h10v-6h-10v6zM18 -68l25 -35q-4 -22 -9 -22h-3v10l3 3v3h-3l-3 -3h-4l-3 16l-16 -4l4 4v9h-10v6z" />
    <glyph glyph-name="w" unicode="w" horiz-adv-x="1177" 
d="M53 1327l215 -4l15 -78l-7 -6l7 -46l3 -196l8 -65h-7l7 -7v-45l-6 -7l7 -6l1 -79l-7 7h-6l21 -105l-7 -6v-7l7 -6l-6 -33l7 -59h-6l6 -6l1 -46h-13v-7l13 1l1 -66h13q18 105 31 105l-6 7q12 72 25 72l-7 6v7l128 668l52 1l59 -6l6 7l33 -6l72 1q19 0 58 -404l7 -33h-7
l29 -196l-7 7h-6l-6 -20l6 -6h7v13h6q27 -228 43 -228l30 164l-7 6v6l17 164l7 -6h7l12 13h-19l-1 32l6 46h-6l52 432h7v-7l7 7l32 -6l79 1l26 -6l6 7h7l46 -6q-4 -72 -19 -72l7 -7v-26l-6 -7v-6h6l-12 -33h6q-13 -78 -31 -79v-6h13v-6q-18 -197 -50 -197h-6v-13
q20 0 20 -33v-19h-13l1 -13l6 6h6l1 -6q-12 -92 -25 -92l7 -20l-6 -58v-13l-33 6l-19 -7l-7 6v-6l7 -20l7 7h6v-7l7 7h26v-19l-19 -27v-6h6v13h7v-6q1 -53 -26 -53l1 -13l6 7h7v-7l-48 -334h7q-11 -45 -26 -46l-26 6l7 -6v-7h-13l-7 7l-19 -7v-7l13 1v-7h-20l13 -13h7v13h6
l7 -6l6 6l13 1q1 -20 20 -20v-13l-12 -45l-7 6h-6l-33 -13v12l-13 13l-19 -13q-1 32 -40 32v-26l7 -6v-7h-6q-46 -1 -46 19q-27 -4 -26 -20h-13l-7 19l6 20l7 -7h6l7 7h6l13 -13h20l13 14q-26 16 -27 45h-6q0 -33 -33 -33q-19 -12 -19 -40l-26 -6v19l26 13l-7 33
q-13 0 -13 -20h-13v7l7 6l-1 7h-6l-7 -7l-6 6l6 7v13h-13l7 -7l-7 -6v-7l14 -19h-20l-1 45l-6 7v6h6l20 -12q-26 22 -27 78q-5 52 -14 52l6 6l-66 522h7l-14 78h-13l-13 -13h13l-43 -190h6l-79 -413l-6 7h-7l7 -7v-19l-12 -59l-7 6h-20l1 -13l-7 -7l7 -6h13l-7 -7l1 -6
l6 -26h-6l-20 12v-6l13 -13l-6 -7l13 1v-20l-13 13l-32 -14v7l6 6l-7 7v13l7 -6h13v6l-7 7v6l-6 -6h-7l-20 12l1 -19h-7v13l-7 -7h-6l7 -6v-14l-7 7h-6l-20 -20l7 -6l-20 -1l7 -6v-7h-33l-6 6l-7 -6l-26 -1l-13 13q26 0 26 14q-26 2 -27 19h-13l-12 -40h-7l-7 26h14l-14 13
l-19 -7v7q-1 26 -14 26l7 6v7l-14 13l-6 -7l-8 65l7 1l-14 45l7 7v6l-16 157v6l-6 7v6l6 7l-7 6h7l-7 7l-1 65l-7 33l7 6l-7 7l13 13h-13l-8 98h13q-22 0 -60 587l-7 6h6l-6 7l-1 59zM606 995l-6 -7v-6h19zM744 925l-6 -19h20l-1 19h-13zM1007 837v-13l7 1l19 6v7zM981 818
v-7h13l7 7v6zM643 708q0 -13 20 -13l6 1v6zM911 699l-7 -7l1 -6h19zM715 677l1 -20h6l19 20h-26zM973 497v-13l19 -6h7v7zM973 465v-7l26 1v6h-26zM934 438l13 -13h7l-13 13h-7zM898 261l-13 -20l13 1l6 19h-6zM814 162l-6 -7l6 -19h13v13zM951 157l-13 -13l1 -19h26l-14 19
l13 14zM684 134l20 -19h6q0 13 -20 13l13 19h-6zM351 103l7 -6h13v20l-7 -1zM234 95l-7 -7v-6l20 -6v6zM867 91l1 -33l-7 -6v-7l7 -6h20l-1 13l-6 6v7h13l-1 33zM286 70l-13 -20l20 -19h7l6 26zM952 86h13l14 -13v-13h-7l-20 19v7zM208 49h7l7 -20l-7 -6h-6zM705 36l13 -13
v-6q-13 0 -13 -19l-13 12v13zM376 -83l21 1v-5l-21 -1v5zM377 -124q0 -10 -26 -11l-10 -15h20l21 11v15h-5zM413 -129q0 -10 -16 -10l1 -5h25l-5 -5v-11l16 1l-5 5v10l5 5v5zM475 -128l11 -10v-5h-11v15zM320 -140l5 -5v-6l-5 -5v-5l16 5l-6 16h-10zM382 -155l-5 -5v-5l16 5
l-1 5h-10zM491 -159h5v-20h-5v20zM315 -182q0 -15 -15 -26l5 -15l5 5h6l15 -5v5l-16 21h11v5zM399 -217q0 -18 36 -25l5 5v10h-5v-10h-5l-16 5v10l5 -5l16 5l-11 11l-15 -1l-5 -5h-5zM337 -244v-10h-5l5 -16h5v26h-5z" />
    <glyph glyph-name="x" unicode="x" horiz-adv-x="746" 
d="M683 1261l7 -3l7 9l-4 -8l-12 6l-4 -10l59 1l11 6l6 -4l5 -23l7 -4l8 17l7 -3l-14 -55l-50 -98l4 -43l-6 3l-3 12l-7 2l-33 -74v-31l-4 -7l-2 10l-6 3l-19 -41l2 -12l-36 -42l-15 -34l3 -43l-19 -9l5 -4l-10 -5l-10 -25l-14 -44l-3 11l-5 2l-13 -34q-14 -23 -3 -32
l-4 -26l-116 -217l-10 -5l20 -23l-26 -5l-3 -8l-13 6l-18 -72l-12 6l-5 -8l3 -12l-11 -6l-3 -8l3 -11l-5 -8l-21 -30l6 -3l-33 -35l-16 -73l-14 6l-5 -8l5 -11l-5 -9l-18 -22l7 -3l-11 -4l-4 -8l3 -13l-3 -8l-27 -44l-14 -20q-14 1 -66 6l-49 3l-11 -4l-68 20l-7 3l-6 3
l45 73l23 50l40 72l17 52l6 -3l11 77l14 -7l11 24l12 46l11 4l-6 4l10 5l12 25l-4 12l12 5l7 15l-4 13l42 51l-7 23l14 -7l-3 12l31 66l9 57q20 -11 32 15l-7 2l-10 -3l-7 2l18 22l128 259l-8 17l-2 12l6 -4l3 -11l6 -4l34 56l-26 13l11 24l3 -10l13 -7l42 71l-16 19l3 7
q16 -8 65 70l-13 6l10 6l4 8l-2 12q11 21 46 17l5 -24l14 5l7 6l12 -16l4 8l-3 2l4 8l6 -3l14 5l6 -4l16 -9zM205 1287l18 7l6 2l13 -6l6 2l4 -9l-3 -1l2 -8l14 13l6 -7l12 -6l10 22q35 -1 43 -24l-3 -11l2 -9l9 -7l-14 -5q37 -83 54 -78l2 -8l-18 -15l29 -77l15 4l4 10
l8 -26l-28 -8l25 -60l8 2l3 12l8 1l-5 -11l-13 -16l-129 -260l-13 -61l98 -276l139 258l36 -106l-4 -11l14 6l-9 -22l32 -57l-4 -12l5 -16l9 -7l-5 -12l8 -26l10 -6l-8 -3l11 -7l5 -46l7 -26l15 5l-1 -78l7 3l9 -56l29 -76l16 -53l33 -78l-7 -3l-7 -3l-71 -9l-9 7l-50 5
q-53 2 -66 2l-10 24l-20 47l-3 8l5 11l-2 10l-10 5l7 2l-15 25l-3 9l6 10l-3 10l-14 -5l-6 75l-28 39l7 3l-17 33l-2 8l3 10l-2 10l-9 7l4 11l-2 8l-14 -4l-7 75l-13 -5l-3 9l4 11l-5 17l-9 7l-82 232l-8 27q21 7 16 24l-14 44l-6 -3l-4 -10l-7 46l-7 26l-10 7l8 2l-19 13
l10 42l-11 36l-28 47l4 11l-13 43l-7 -1l-3 -11l-3 9l5 31l-22 79l-7 -3l-4 -11l-7 -2l11 41l-35 106l-5 56l7 3l5 -19l8 3l7 22l7 2l10 -7l58 -8l-2 8l-13 -4l-3 8l6 -10l7 3z" />
    <glyph glyph-name="y" unicode="y" horiz-adv-x="662" 
d="M-41 1327h35l34 -9l9 9l86 -9h78l104 -380h-9l17 -43h-8l25 -78h-8l8 -26h9l17 104h-8q34 75 77 277l9 8h-9l44 138l86 -17l9 9h121q17 0 17 -26h17l9 8h8v-8l-8 -43h-26v17q-21 0 -164 -458q-18 0 -18 -52l-8 -8q-17 0 -17 -52l-18 -17l9 -9v-9l-9 -26l-43 18l-26 -9
l26 -26l9 9h8v-18h-43l-8 9l-35 -26l9 -9l-9 -8h-17l-18 17l9 9h-9q0 -19 -69 -43v8l-26 -8v-9q6 -52 26 -52v9l9 -9h9l26 9l86 -26l26 26l8 -87l-8 -77l8 -9l-8 -43v-35l8 -26l-8 -43v-121l-9 -43l-198 9l-9 8l-9 -8l-8 26l8 34l-8 9v8l8 26h-8l8 9v26l-8 26l8 43v164l9 9
l-9 8v61h18v17l-52 9v-18h-9l-69 18v26h9l8 -9h9q0 17 69 26v9l-43 34h-9q0 -34 -34 -34l-26 8v-8l-9 -26h-26l-26 86l26 35q0 -18 35 -18q0 -34 51 -34q44 0 44 60l-147 458h8q-60 158 -60 216zM581 601h9v-17l-9 -9v-8l52 -17l8 8h18v-26q-35 0 -35 -17l9 -9l-9 -8h-17v34
h-17l-9 -8l-43 17l8 9v8l-8 26h8z" />
    <glyph glyph-name="z" unicode="z" horiz-adv-x="714" 
d="M211 1302l8 -9h8v9l23 -8l8 9l40 -8l180 3l39 -9v10l8 -9l133 1l16 -17l-13 -229h7l-351 -763l1 -9l102 -16v8l8 -8h15l8 9l8 -9l149 2l39 -8l2 -155l-7 -9l8 -9q0 -91 -31 -92l-24 9l-7 -9v9l-8 -9l-39 9l-102 -2l-8 8l-8 -8l-23 -1l-32 8l-8 -8l-39 8h-7l-8 -9l-24 8
l-274 4l-1 110q-3 213 67 311l282 607h-8l-23 9l-8 -9l-40 8l-149 -3l-7 9h-8l-8 -9v9l-8 -9q-47 5 -47 17l5 238l8 8z" />
    <glyph glyph-name="braceleft" unicode="{" horiz-adv-x="434" 
d="M327 1499h56l19 -19v-178q0 -19 -75 -28l-38 -168h10l-10 -10v-121l-9 -66h9q-26 -225 -84 -225h-9v-18q84 -45 84 -178l9 -225l-9 -9h-19l-9 9l-94 -28l-18 94l9 9v10l-37 187q0 28 -57 28v178l-9 9l9 28h47q38 -12 38 -56l28 -19l9 28q0 66 -56 66l28 327h-9l9 10v93
q19 272 178 272zM205 535l9 -10v-9l-9 -9v-10l9 -28h19v47l-19 19h-9zM233 329v-47h10l18 19v18zM308 217h37v-10h-37v10zM261 160v-18l10 9h9q19 0 28 -94q20 -56 75 -56l19 -18l-10 -37l10 -28l-10 -29l10 -9l-10 -47v-37l-56 -9q-150 7 -150 102q-30 0 -37 206v37l19 19
l9 -28h9q40 37 75 37zM252 123l-9 -28h28v28h-19z" />
    <glyph glyph-name="bar" unicode="|" horiz-adv-x="445" 
d="M241 1555v-23l22 11l5 -11h6l16 11v-11l5 11h6l17 -11v-12l-6 -12v-12h6l-6 -11v-24l6 -11l-6 -12v-37h11v-35l-5 12h-6v-24l6 -48l-6 -35h11l-11 -35l6 -83l-6 -12h11l-5 -12v-12h5l-5 -11v-48l5 -12v-12h-11v-23l6 11h10l-16 -35l16 -107l-10 -23q0 -60 10 -60l-5 -12
v-11l5 -12v-12q0 -35 -16 -35l16 -72l-16 -23l6 -12v-23l-6 -12v-13h11v-47l-11 -23l6 -35l-6 -37h11l-11 -35v-12l6 -47l-6 -36l6 12h5v-24h-11v-70l6 -12l-6 -13v-118l6 -59l-6 -11h-5q3 -107 11 -107l-6 -12v-23h11v-12l-11 -25l-5 14l-6 -14h-6l-5 14l-16 -14l-44 14
l-17 -14l-5 14v-14q-44 29 -44 49v11l6 36l-11 189l5 47l-5 119l5 11h-5l5 12v12l-5 60l5 35l-11 190l6 12h-6l6 11v24h-11v11h11l-22 84v12h11v35l-6 60l6 -12h5v12l-11 23l11 83h-16l16 94l-11 24q11 0 11 59l11 24l-5 12v36l5 70l-5 36l5 83l-5 72l5 58l-5 12l11 23
l27 -11h16l6 11h5l6 -11z" />
    <glyph glyph-name="braceright" unicode="}" horiz-adv-x="439" 
d="M56 1499h73q118 0 148 -248v-19l-10 -9l10 -9v-166l9 -37l-9 -9q0 -221 92 -221v-129l-9 -36l9 -37v-9q-83 0 -83 -129l-9 -37l9 -9l-19 -175q-73 6 -73 18l-9 -9h-37l-19 19l10 92l-10 9v9l28 37h9v-9l-9 -10v-9h9l9 9h10l9 -9v37q-28 0 -28 37l-9 -9h-9l-9 9v18
q0 171 92 212q-92 90 -92 175h9l-9 9v92l9 9l-9 9v37l9 55l-9 46h9q-18 185 -65 185h-55l9 9v184zM203 1426v-37h9v37h-9zM185 1352v-9h9l9 37q-18 0 -18 -28zM166 1039v-55h37l9 27l-9 10h-9v-19h-19v37h-9zM295 708v-9h37v9h-37zM258 680l19 -18h9v18h-28zM175 349v-28
q46 0 74 -18l9 9v9zM102 192h37v-18h-19zM129 165q148 -16 148 -37l-10 -9v-10l10 -36l-10 -10l10 -9v-9q-43 -239 -138 -239l-10 -9l-46 9h-64q0 202 37 202q73 11 73 147v10zM129 0l-18 -46h9q37 -25 37 -47h18v28q0 28 -55 28v9h28v9z" />
    <glyph glyph-name="asciitilde" unicode="~" horiz-adv-x="586" 
d="M185 804q33 0 184 -118q50 0 89 90l16 14h8l64 -104q-12 0 -48 -76q-16 0 -16 -35l-97 -42q-43 0 -168 111h-49q-29 0 -56 -97h-8q-28 14 -64 70v20q48 160 137 160z" />
    <glyph glyph-name="Adieresis" unicode="&#xc4;" horiz-adv-x="849" 
d="M579 1577l23 -1v1l6 -1h30l6 1l6 -1h71v-26l5 -7h-5l5 -2v-3l-5 -6l5 -1v-2l-5 -6l5 -1v-2l-5 -4l5 -9l-5 -7l5 -2v-1l-5 -2v-1l5 -2v-1l-5 -6l5 -2q-5 -20 -29 -33l18 -13l-6 -78l-6 -7h-18l-29 -2l-36 2h-71v1l6 69l6 4h-6l6 2v1l-6 2l6 1v9q-38 0 -41 12q17 0 17 3
h-11v2q21 0 35 9v13l6 2l-6 1v93zM323 1316h221l44 -9l9 9l80 -407h-9l18 -36l-9 -8l26 -177l-9 -89h9l-9 -9v-8q40 0 98 -505l17 -79l-26 -17h-186q-23 0 -62 309l-26 9l-53 -9l-9 9l-9 -9h-9l-9 9q-97 -9 -97 -27q-50 -282 -80 -282h-115l-8 8l-9 -8h-27q-44 0 -44 17
l88 371h-8l26 115v18l-9 9v8l-9 -8h-35v8l9 9l-9 9v18l9 9l-9 9v8q0 18 80 53zM447 1015q-43 -345 -80 -345l18 -27l-44 -70l35 -9v-9h-35v-18l17 -35h18l133 -9l9 9v9q0 17 -53 26l-9 -9v18l9 9v9l-9 9h-9l9 44l-9 9v9q53 0 53 62l-44 318h-9zM288 537l8 -9h9l9 27h-9z
M408 1357l-23 2v-2l-6 2h-30l-6 -2l-5 2h-71v25l-6 8h6l-6 1v3l6 6l-6 1v2l6 6l-6 1v2l6 4l-6 9l6 8l-6 1v2l6 1v2l-6 1v2l6 6l-6 1q6 21 29 33l-17 14l5 77l6 8h18l30 1l35 -1h71v-2l-6 -69l-6 -4h6l-6 -1v-2l6 -1l-6 -2v-9q39 0 41 -12q-17 0 -17 -3h12v-1q-22 0 -36 -9
v-14l-6 -1l6 -2v-92z" />
    <glyph glyph-name="Aring" unicode="&#xc5;" horiz-adv-x="849" 
d="M438 1576v-93l-6 -1l6 -2v-13q15 -9 36 -9v-2h-12q0 -3 18 -3q-3 -12 -42 -12v-9l6 -1l-6 -2v-1l6 -2h-6l6 -4l6 -69v-1h-71l-35 -2l-30 2h-17l-6 7l-6 78l17 13q-23 13 -29 33l6 2l-6 6v1l6 2v1l-6 2v1l6 2l-6 7l6 9l-6 4v2l6 1l-6 6v2l6 1l-6 6v3l6 2h-6l6 7v26h71l6 1
l6 -1h29l6 1v-1l24 1zM677 643q79 -35 79 -53v-8l-8 -9l8 -9v-18l-8 -9l8 -9v-8h-35l-9 8v-8l-9 -9v-18l27 -115h-9l88 -371q0 -17 -44 -17h-26l-9 8l-9 -8h-115q-30 0 -80 282q0 18 -97 27l-9 -9h-9l-8 9l-9 -9l-53 9l-27 -9q-38 -309 -62 -309h-185l-27 17l18 79
q58 505 97 505v8l-9 9h9l-9 89l27 177l-9 8l18 36h-9l79 407l9 -9l44 9h221zM394 1015l-44 -318q0 -62 53 -62v-9l-9 -9l9 -44h-9l-9 -9v-9l9 -9v-18l-9 9q-53 -9 -53 -26v-9l9 -9l132 9h18l18 35v18h-36v9l36 9l-44 70l17 27q-37 0 -79 345h-9zM544 555h-9l9 -27h9l9 9z
" />
    <glyph glyph-name="Ccedilla" unicode="&#xc7;" 
 />
    <glyph glyph-name="Eacute" unicode="&#xc9;" 
 />
    <glyph glyph-name="Ntilde" unicode="&#xd1;" 
 />
    <glyph glyph-name="Odieresis" unicode="&#xd6;" horiz-adv-x="812" 
d="M219 1616l27 -2v2l7 -2h34l7 2l7 -2h81v-31l7 -9h-7l7 -2v-4l-7 -7l7 -2v-2l-7 -7l7 -2v-2l-7 -5l7 -11l-7 -9l7 -2v-2l-7 -2v-1l7 -2v-2l-7 -7l7 -2q-7 -25 -34 -40l20 -17l-6 -95l-7 -9h-21l-33 -2l-41 2h-82v2l7 84l7 5h-7l7 2v2l-7 2l7 2v11q-44 0 -48 14q21 0 21 4
h-14v2q25 0 41 11v16l7 2l-7 2v113zM531 1606l34 -1h95q40 -2 40 -6v-14l-6 -19h6l-6 -2v-14l-7 -26l7 -1l-7 -10v-14l-7 -2l7 -2v-2q0 -31 -48 -31l21 -12l7 1h6v-16l7 -7l-7 -8l7 -7l-7 -13v-65l-13 -6l-7 2h-20l-41 -2l-34 2v-2q-68 2 -68 6v104l7 1l-7 2v6l7 5h-7
q-39 4 -54 11h-7l7 6l-7 5q68 2 68 7v20l7 17l-7 2l7 12v6l6 64zM427 1001l8 -9v-8l-8 -8v-9h17v34h-17zM865 959h9v-17l-17 -17l-17 17zM-129 950h9v-25l-9 -8h-8v8zM435 942v-9l-17 -16v8zM385 925v-8l-17 -17h-9zM393 917h9q22 0 33 -51h9l8 8v-16h-17q-13 0 -42 59z
M326 908l8 -8h9l8 8l8 -8v-17l-8 8h-8q-26 0 -26 -25h-8v25zM865 900l9 -9h8l8 9l34 -9v-8l-34 -34v-8l-25 17v-17h-25v8q0 17 34 17v8h-17zM907 849l9 -8v-17l-26 8zM461 832v-8l-9 -42l9 -9h-17l-9 42zM70 1470h7l13 -4v-2l-34 2zM-146 799l17 -17l-25 -9l-9 9v8l9 9h8z
M756 664l8 -9v-8h-8l8 -9v-16h-8l-17 16v9zM781 664h17v-26h-9zM403 1325l-1 -8l8 8q199 -10 307 -165l-8 -9l-1 -18q21 -1 20 -27l14 -1l-1 -9l-7 -8v-9l14 -18l-9 -8v-9l15 -1l5 -27l-7 -8l-1 -9l7 -10l-7 -8l-2 -26l14 -1v-9l-8 -8l12 -36l-15 -25l12 -37l-7 -8l-2 -44
q-1 -45 11 -45l-15 -26q1 -70 10 -70l-18 -79l7 -1l8 9l6 -35h-15l-2 -35l7 -9l-8 -9l-4 -78l7 -10l-16 -34h7l-8 -9v-9l6 -9v-9l-25 -69l6 -28l-7 1l-23 -25h-7l-3 -53l-75 -75q-2 -32 -198 -70l-28 2q-72 3 -71 21l-21 -8l-22 11v-9q-133 60 -170 159l-38 108l8 8v8
l-20 169l7 9l3 61l-5 36l9 35q2 44 -12 45l18 61l-6 35l10 44l-12 53l10 53l1 17l-7 9q60 280 108 277q1 20 52 50q66 39 183 61zM377 1097l-7 10h-7q-26 1 -83 -84l7 -9l-8 -9l-2 -52l-15 1l-1 -9l14 -28l-15 1l13 -27v-9l-9 -8v-9l8 -9l-15 1l-1 -18l15 -1l-1 -9l-16 -25
q22 -1 21 -19l-8 -9l-8 1l8 -10v-8l-9 -8l8 -10l-1 -9l-8 -8l-1 -8l8 -10l-1 -9l-8 -8l-1 -9l8 -8v-9l-10 -27l15 -1v-8l-8 -8l7 -10l-2 -27l-15 1l14 -27l-16 -17l15 -1v-8l-9 -26l7 -10l-7 -7h-8l12 -54l-9 -35h7l-7 -8l-1 -9l23 -107l7 8h8q-2 -33 68 -57l1 9l6 -9h7
l59 6l-1 -9q109 38 114 135l2 26l-5 44h7l-7 9l1 9l8 27l-2 96l1 9l7 9l-8 123l9 36h-7l8 8v18h-14l10 44l1 18l-6 53l10 26q8 155 -105 200l-22 -8l-6 9h-8z" />
    <glyph glyph-name="Udieresis" unicode="&#xdc;" 
 />
    <glyph glyph-name="aacute" unicode="&#xe1;" 
 />
    <glyph glyph-name="agrave" unicode="&#xe0;" 
 />
    <glyph glyph-name="acircumflex" unicode="&#xe2;" 
 />
    <glyph glyph-name="adieresis" unicode="&#xe4;" horiz-adv-x="773" 
d="M537 1577l23 -1v1l6 -1h30l6 1l6 -1h71v-26l5 -7h-5l5 -2v-3l-5 -6l5 -1v-2l-5 -6l5 -1v-2l-5 -4l5 -9l-5 -7l5 -2v-1l-5 -2v-1l5 -2v-1l-5 -6l5 -2q-5 -20 -29 -33l18 -13l-6 -78l-6 -7h-18l-29 -2l-36 2h-71v1l6 69l6 4h-6l6 2v1l-6 2l6 1v9q-38 0 -41 12q17 0 17 3
h-11v2q21 0 35 9v13l6 2l-6 1v93zM281 1316h221l44 -9l9 9l80 -407h-9l18 -36l-9 -8l26 -177l-9 -89h9l-9 -9v-8q40 0 98 -505l17 -79l-26 -17h-186q-23 0 -62 309l-26 9l-53 -9l-9 9l-9 -9h-9l-9 9q-97 -9 -97 -27q-50 -282 -80 -282h-115l-8 8l-9 -8h-27q-44 0 -44 17
l88 371h-8l26 115v18l-9 9v8l-9 -8h-35v8l9 9l-9 9v18l9 9l-9 9v8q0 18 80 53zM405 1015q-43 -345 -80 -345l18 -27l-44 -70l35 -9v-9h-35v-18l17 -35h18l133 -9l9 9v9q0 17 -53 26l-9 -9v18l9 9v9l-9 9h-9l9 44l-9 9v9q53 0 53 62l-44 318h-9zM246 537l8 -9h9l9 27h-9z
M366 1357l-23 2v-2l-6 2h-30l-6 -2l-5 2h-71v25l-6 8h6l-6 1v3l6 6l-6 1v2l6 6l-6 1v2l6 4l-6 9l6 8l-6 1v2l6 1v2l-6 1v2l6 6l-6 1q6 21 29 33l-17 14l5 77l6 8h18l30 1l35 -1h71v-2l-6 -69l-6 -4h6l-6 -1v-2l6 -1l-6 -2v-9q39 0 41 -12q-17 0 -17 -3h12v-1q-22 0 -36 -9
v-14l-6 -1l6 -2v-92z" />
    <glyph glyph-name="atilde" unicode="&#xe3;" 
 />
    <glyph glyph-name="aring" unicode="&#xe5;" horiz-adv-x="798" 
d="M677 643q79 -35 79 -53v-8l-8 -9l8 -9v-18l-8 -9l8 -9v-8h-35l-9 8v-8l-9 -9v-18l27 -115h-9l88 -371q0 -17 -44 -17h-26l-9 8l-9 -8h-115q-30 0 -80 282q0 18 -97 27l-9 -9h-9l-8 9l-9 -9l-53 9l-27 -9q-38 -309 -62 -309h-185l-27 17l18 79q58 505 97 505v8l-9 9h9
l-9 89l27 177l-9 8l18 36h-9l79 407l9 -9l44 9h221zM394 1015l-44 -318q0 -62 53 -62v-9l-9 -9l9 -44h-9l-9 -9v-9l9 -9v-18l-9 9q-53 -9 -53 -26v-9l9 -9l132 9h18l18 35v18h-36v9l36 9l-44 70l17 27q-37 0 -79 345h-9zM544 555h-9l9 -27h9l9 9zM323 1359v92l6 2l-6 1v14
q-14 9 -35 9v1h12q0 3 -18 3q3 12 41 12v9l-6 2l6 1v2l-6 1h6l-6 4l-6 69v2h71l36 1l29 -1h18l6 -8l6 -77l-18 -14q24 -12 30 -33l-6 -1l6 -6v-2l-6 -1v-2l6 -1v-2l-6 -1l6 -8l-6 -9l6 -4v-2l-6 -1l6 -6v-2l-6 -1l6 -6v-3l-6 -1h6l-6 -8v-25h-71l-6 -2l-6 2h-29l-6 -2v2
l-24 -2z" />
    <glyph glyph-name="ccedilla" unicode="&#xe7;" 
 />
    <glyph glyph-name="eacute" unicode="&#xe9;" 
 />
    <glyph glyph-name="egrave" unicode="&#xe8;" 
 />
    <glyph glyph-name="ecircumflex" unicode="&#xea;" 
 />
    <glyph glyph-name="edieresis" unicode="&#xeb;" 
 />
    <glyph glyph-name="iacute" unicode="&#xed;" 
 />
    <glyph glyph-name="igrave" unicode="&#xec;" 
 />
    <glyph glyph-name="icircumflex" unicode="&#xee;" 
 />
    <glyph glyph-name="idieresis" unicode="&#xef;" 
 />
    <glyph glyph-name="ntilde" unicode="&#xf1;" 
 />
    <glyph glyph-name="oacute" unicode="&#xf3;" 
 />
    <glyph glyph-name="ograve" unicode="&#xf2;" 
 />
    <glyph glyph-name="ocircumflex" unicode="&#xf4;" 
 />
    <glyph glyph-name="odieresis" unicode="&#xf6;" horiz-adv-x="801" 
d="M279 1555l24 -2v2l6 -2h30l6 2l7 -2h72v-24l6 -7h-6l6 -2v-3l-6 -5l6 -2v-1l-6 -6l6 -2v-1l-6 -4l6 -9l-6 -7l6 -1v-2l-6 -2v0l6 -2v-1l-6 -6l6 -2q-6 -19 -30 -31l18 -13l-6 -75l-6 -7h-19l-29 -2l-37 2h-73v1l7 66l6 4h-6l6 2v1l-6 2l6 2v8q-39 0 -43 11q19 0 19 3h-13
v2q23 0 37 9v12l6 2l-6 1v89zM556 1547l31 -1h84q36 -1 36 -4v-11l-5 -15h5l-5 -2v-11l-7 -20l7 -1l-7 -8v-11l-6 -2l6 -1v-2q0 -24 -42 -24l18 -10l7 1h5v-13l6 -5l-6 -6l6 -6l-6 -10v-51l-12 -5l-6 2h-18l-36 -2l-30 2v-2q-61 2 -61 5v82h6l-6 2v5l6 4h-6q-35 3 -48 8h-6
l6 5l-6 4q60 2 60 5v16l6 14l-6 1l6 10v4l6 51zM494 1001l8 -9v-8l-8 -8v-9h17v34h-17zM932 959h9v-17l-17 -17l-17 17zM-62 950h9v-25l-9 -8h-8v8zM502 942v-9l-17 -16v8zM452 925v-8l-17 -17h-9zM460 917h9q22 0 33 -51h9l8 8v-16h-17q-13 0 -42 59zM393 908l8 -8h9l8 8
l8 -8v-17l-8 8h-8q-26 0 -26 -25h-8v25zM932 900l9 -9h8l8 9l34 -9v-8l-34 -34v-8l-25 17v-17h-25v8q0 17 34 17v8h-17zM974 849l9 -8v-17l-26 8zM528 832v-8l-9 -42l9 -9h-17l-9 42zM137 1470h7l13 -4v-2l-34 2zM-79 799l17 -17l-25 -9l-9 9v8l9 9h8zM823 664l8 -9v-8h-8
l8 -9v-16h-8l-17 16v9zM848 664h17v-26h-9zM381 -3l1 8l-8 -7q-198 17 -300 176l8 9l1 18q-21 2 -18 27l-14 2l1 9l7 8l1 9l-13 18l9 9v9l-14 1l-5 26l8 9l1 9l-7 9l8 9l3 26l-14 1v9l8 8l-11 36l17 25l-11 37l8 7l4 44q2 45 -10 46l16 25q2 70 -7 71l21 78l-7 1l-8 -9
l-4 36l15 -1l3 35l-6 9l7 8l8 79l-7 10l18 33l-7 1l7 8l1 9l-6 10l1 9l27 68l-4 27l7 -1l24 24h7l5 52l78 73q3 32 200 62l28 -3q72 -7 70 -24l22 7l21 -11l1 9q130 -66 163 -166l33 -110l-7 -8l-1 -8l13 -170l-7 -8l-6 -61l4 -36l-10 -35q-4 -43 9 -45l-19 -60l4 -36
l-11 -43l9 -54l-12 -52l-2 -17l7 -10q-71 -276 -119 -272q-2 -20 -55 -48q-66 -36 -184 -53zM416 223l7 -9l7 -1q26 -2 86 81l-7 9l8 8l5 52l15 -1l1 9l-13 28l15 -1l-12 27v9l9 8l1 9l-7 9l15 -2l1 18l-15 2l1 9l18 24q-22 2 -21 20l8 8h8l-7 9l1 8l8 9l-7 9l1 9l9 9l1 8
l-7 9v9l9 8l1 9l-7 9l1 9l10 26l-15 2l1 8l8 8l-7 9l3 27l15 -1l-13 27l17 17l-15 1l1 8l9 26l-6 10l8 7h8l-10 54l10 35l-7 1l8 7v9l-18 108l-8 -8h-8q3 33 -65 60l-1 -9l-6 9l-7 1l-59 -4l1 9q-111 -34 -120 -130l-2 -26l3 -45l-7 1l6 -10l-1 -9l-9 -26l-2 -96l-1 -9
l-8 -8l3 -124l-10 -35l7 -1l-8 -7l-1 -18l14 -2l-12 -43l-1 -18l3 -53l-10 -25q-15 -155 96 -204l22 7l6 -10h8z" />
    <glyph glyph-name="otilde" unicode="&#xf5;" 
 />
    <glyph glyph-name="uacute" unicode="&#xfa;" 
 />
    <glyph glyph-name="ugrave" unicode="&#xf9;" 
 />
    <glyph glyph-name="ucircumflex" unicode="&#xfb;" 
 />
    <glyph glyph-name="udieresis" unicode="&#xfc;" 
 />
    </font>
</defs>
</svg>
